{
	"asset":{
		"generator":"Khronos glTF Blender I/O v5.2.39",
		"version":"2.0"
	},
	"scene":0,
	"scenes":[
		{
			"name":"Scene",
			"nodes":[
				31
			]
		}
	],
	"nodes":[
		{
			"mesh":0,
			"name":"CART_Axle_0",
			"rotation":[
				0,
				0,
				-0.7071068286895752,
				0.7071068286895752
			],
			"translation":[
				0,
				0.30000001192092896,
				0.800000011920929
			]
		},
		{
			"mesh":1,
			"name":"CART_Axle_1",
			"rotation":[
				0,
				0,
				-0.7071068286895752,
				0.7071068286895752
			],
			"translation":[
				0,
				0.30000001192092896,
				-0.800000011920929
			]
		},
		{
			"mesh":2,
			"name":"CART_Beam",
			"translation":[
				0,
				0.41999998688697815,
				0
			]
		},
		{
			"mesh":3,
			"name":"CART_Body"
		},
		{
			"mesh":4,
			"name":"CART_Buffer_0",
			"rotation":[
				0.7071068286895752,
				0,
				0,
				0.7071068286895752
			],
			"translation":[
				0,
				0.6200000047683716,
				1.5199999809265137
			]
		},
		{
			"mesh":5,
			"name":"CART_Buffer_1",
			"rotation":[
				0.7071068286895752,
				0,
				0,
				0.7071068286895752
			],
			"translation":[
				0,
				0.6200000047683716,
				-1.5199999809265137
			]
		},
		{
			"mesh":6,
			"name":"CART_Flange_00",
			"rotation":[
				0,
				0,
				-0.7071068286895752,
				0.7071068286895752
			],
			"translation":[
				-0.25200000405311584,
				0.30000001192092896,
				0.800000011920929
			]
		},
		{
			"mesh":7,
			"name":"CART_Flange_01",
			"rotation":[
				0,
				0,
				-0.7071068286895752,
				0.7071068286895752
			],
			"translation":[
				0.25200000405311584,
				0.30000001192092896,
				0.800000011920929
			]
		},
		{
			"mesh":8,
			"name":"CART_Flange_10",
			"rotation":[
				0,
				0,
				-0.7071068286895752,
				0.7071068286895752
			],
			"translation":[
				-0.25200000405311584,
				0.30000001192092896,
				-0.800000011920929
			]
		},
		{
			"mesh":9,
			"name":"CART_Flange_11",
			"rotation":[
				0,
				0,
				-0.7071068286895752,
				0.7071068286895752
			],
			"translation":[
				0.25200000405311584,
				0.30000001192092896,
				-0.800000011920929
			]
		},
		{
			"mesh":10,
			"name":"CART_Frame",
			"translation":[
				0,
				0.5600000023841858,
				0
			]
		},
		{
			"mesh":11,
			"name":"CART_Hook_0",
			"translation":[
				0,
				0.6200000047683716,
				1.600000023841858
			]
		},
		{
			"mesh":12,
			"name":"CART_Hook_1",
			"translation":[
				0,
				0.6200000047683716,
				-1.600000023841858
			]
		},
		{
			"mesh":13,
			"name":"CART_Ore_0",
			"rotation":[
				0.2947128117084503,
				0.2947128117084503,
				0.17381182312965393,
				0.8922321200370789
			],
			"scale":[
				0.15356935560703278,
				0.15356935560703278,
				0.15356935560703278
			],
			"translation":[
				0.5486141443252563,
				0.7200000286102295,
				0.3072618544101715
			]
		},
		{
			"mesh":14,
			"name":"CART_Ore_1",
			"rotation":[
				-0.02310861088335514,
				-0.02310861088335514,
				-0.024230031296610832,
				0.9991722106933594
			],
			"scale":[
				0.18018582463264465,
				0.18018582463264465,
				0.18018582463264465
			],
			"translation":[
				-0.09817005693912506,
				0.7200000286102295,
				-0.5150036215782166
			]
		},
		{
			"mesh":15,
			"name":"CART_Ore_2",
			"rotation":[
				-0.19019357860088348,
				-0.19019357860088348,
				-0.3840092718601227,
				0.8832834959030151
			],
			"scale":[
				0.1724277138710022,
				0.172427698969841,
				0.1724277138710022
			],
			"translation":[
				-0.47380751371383667,
				0.7200000286102295,
				0.18385189771652222
			]
		},
		{
			"mesh":16,
			"name":"CART_Ore_3",
			"rotation":[
				-0.48142364621162415,
				-0.48142364621162415,
				0.18950341641902924,
				0.7074962854385376
			],
			"scale":[
				0.13087204098701477,
				0.13087204098701477,
				0.13087204098701477
			],
			"translation":[
				-0.5259358882904053,
				0.7200000286102295,
				-0.7627600431442261
			]
		},
		{
			"mesh":17,
			"name":"CART_Ore_4",
			"rotation":[
				-0.16284628212451935,
				-0.16284628212451935,
				-0.2586449086666107,
				0.9381178021430969
			],
			"scale":[
				0.13844846189022064,
				0.13844846189022064,
				0.13844846189022064
			],
			"translation":[
				-0.5408027768135071,
				0.7200000286102295,
				0.586154043674469
			]
		},
		{
			"mesh":18,
			"name":"CART_Ore_5",
			"rotation":[
				-0.5685479640960693,
				-0.5685479640960693,
				0.1684529185295105,
				0.5702018737792969
			],
			"scale":[
				0.18095174431800842,
				0.1809517741203308,
				0.1809517741203308
			],
			"translation":[
				-0.2820243537425995,
				0.7200000286102295,
				0.29984623193740845
			]
		},
		{
			"mesh":19,
			"name":"CART_Rim_100a",
			"translation":[
				0,
				1,
				1.2599999904632568
			]
		},
		{
			"mesh":20,
			"name":"CART_Rim_100b",
			"translation":[
				0,
				1,
				-1.2599999904632568
			]
		},
		{
			"mesh":21,
			"name":"CART_Rim_100c",
			"translation":[
				-0.8999999761581421,
				1,
				0
			]
		},
		{
			"mesh":22,
			"name":"CART_Rim_100d",
			"translation":[
				0.8999999761581421,
				1,
				0
			]
		},
		{
			"mesh":23,
			"name":"CART_Rim_172a",
			"translation":[
				0,
				1.7200000286102295,
				1.4800000190734863
			]
		},
		{
			"mesh":24,
			"name":"CART_Rim_172b",
			"translation":[
				0,
				1.7200000286102295,
				-1.4800000190734863
			]
		},
		{
			"mesh":25,
			"name":"CART_Rim_172c",
			"translation":[
				-1.0800000429153442,
				1.7200000286102295,
				0
			]
		},
		{
			"mesh":26,
			"name":"CART_Rim_172d",
			"translation":[
				1.0800000429153442,
				1.7200000286102295,
				0
			]
		},
		{
			"mesh":27,
			"name":"CART_Wheel_00",
			"rotation":[
				0,
				0,
				-0.7071068286895752,
				0.7071068286895752
			],
			"translation":[
				-0.30000001192092896,
				0.30000001192092896,
				0.800000011920929
			]
		},
		{
			"mesh":28,
			"name":"CART_Wheel_01",
			"rotation":[
				0,
				0,
				-0.7071068286895752,
				0.7071068286895752
			],
			"translation":[
				0.30000001192092896,
				0.30000001192092896,
				0.800000011920929
			]
		},
		{
			"mesh":29,
			"name":"CART_Wheel_10",
			"rotation":[
				0,
				0,
				-0.7071068286895752,
				0.7071068286895752
			],
			"translation":[
				-0.30000001192092896,
				0.30000001192092896,
				-0.800000011920929
			]
		},
		{
			"mesh":30,
			"name":"CART_Wheel_11",
			"rotation":[
				0,
				0,
				-0.7071068286895752,
				0.7071068286895752
			],
			"translation":[
				0.30000001192092896,
				0.30000001192092896,
				-0.800000011920929
			]
		},
		{
			"children":[
				0,
				1,
				2,
				3,
				4,
				5,
				6,
				7,
				8,
				9,
				10,
				11,
				12,
				13,
				14,
				15,
				16,
				17,
				18,
				19,
				20,
				21,
				22,
				23,
				24,
				25,
				26,
				27,
				28,
				29,
				30
			],
			"name":"CART"
		}
	],
	"materials":[
		{
			"doubleSided":true,
			"name":"MAT_RustyMetal_EXPORT",
			"normalTexture":{
				"index":0
			},
			"pbrMetallicRoughness":{
				"baseColorTexture":{
					"index":1
				},
				"metallicFactor":0,
				"metallicRoughnessTexture":{
					"index":2
				}
			}
		},
		{
			"doubleSided":true,
			"name":"MAT_Rock_EXPORT",
			"normalTexture":{
				"index":3
			},
			"pbrMetallicRoughness":{
				"baseColorTexture":{
					"index":4
				},
				"metallicFactor":0,
				"metallicRoughnessTexture":{
					"index":5
				}
			}
		}
	],
	"meshes":[
		{
			"name":"CART_Axle_0",
			"primitives":[
				{
					"attributes":{
						"POSITION":0,
						"NORMAL":1,
						"TEXCOORD_0":2
					},
					"indices":3,
					"material":0
				}
			]
		},
		{
			"name":"CART_Axle_1",
			"primitives":[
				{
					"attributes":{
						"POSITION":4,
						"NORMAL":5,
						"TEXCOORD_0":6
					},
					"indices":7,
					"material":0
				}
			]
		},
		{
			"name":"CART_Beam",
			"primitives":[
				{
					"attributes":{
						"POSITION":8,
						"NORMAL":9,
						"TEXCOORD_0":10
					},
					"indices":11,
					"material":0
				}
			]
		},
		{
			"name":"CART_Body",
			"primitives":[
				{
					"attributes":{
						"POSITION":12,
						"NORMAL":13,
						"TEXCOORD_0":14
					},
					"indices":15,
					"material":0
				}
			]
		},
		{
			"name":"CART_Buffer_0",
			"primitives":[
				{
					"attributes":{
						"POSITION":16,
						"NORMAL":17,
						"TEXCOORD_0":18
					},
					"indices":19,
					"material":0
				}
			]
		},
		{
			"name":"CART_Buffer_1",
			"primitives":[
				{
					"attributes":{
						"POSITION":20,
						"NORMAL":21,
						"TEXCOORD_0":22
					},
					"indices":23,
					"material":0
				}
			]
		},
		{
			"name":"CART_Flange_00",
			"primitives":[
				{
					"attributes":{
						"POSITION":24,
						"NORMAL":25,
						"TEXCOORD_0":26
					},
					"indices":27,
					"material":0
				}
			]
		},
		{
			"name":"CART_Flange_01",
			"primitives":[
				{
					"attributes":{
						"POSITION":28,
						"NORMAL":29,
						"TEXCOORD_0":30
					},
					"indices":27,
					"material":0
				}
			]
		},
		{
			"name":"CART_Flange_10",
			"primitives":[
				{
					"attributes":{
						"POSITION":31,
						"NORMAL":32,
						"TEXCOORD_0":33
					},
					"indices":34,
					"material":0
				}
			]
		},
		{
			"name":"CART_Flange_11",
			"primitives":[
				{
					"attributes":{
						"POSITION":35,
						"NORMAL":36,
						"TEXCOORD_0":37
					},
					"indices":38,
					"material":0
				}
			]
		},
		{
			"name":"CART_Frame",
			"primitives":[
				{
					"attributes":{
						"POSITION":39,
						"NORMAL":40,
						"TEXCOORD_0":41
					},
					"indices":11,
					"material":0
				}
			]
		},
		{
			"name":"CART_Hook_0",
			"primitives":[
				{
					"attributes":{
						"POSITION":42,
						"NORMAL":43,
						"TEXCOORD_0":44
					},
					"indices":45,
					"material":0
				}
			]
		},
		{
			"name":"CART_Hook_1",
			"primitives":[
				{
					"attributes":{
						"POSITION":46,
						"NORMAL":47,
						"TEXCOORD_0":48
					},
					"indices":45,
					"material":0
				}
			]
		},
		{
			"name":"CART_Ore_0",
			"primitives":[
				{
					"attributes":{
						"POSITION":49,
						"NORMAL":50,
						"TEXCOORD_0":51
					},
					"indices":52,
					"material":1
				}
			]
		},
		{
			"name":"CART_Ore_1",
			"primitives":[
				{
					"attributes":{
						"POSITION":53,
						"NORMAL":54,
						"TEXCOORD_0":55
					},
					"indices":56,
					"material":1
				}
			]
		},
		{
			"name":"CART_Ore_2",
			"primitives":[
				{
					"attributes":{
						"POSITION":57,
						"NORMAL":58,
						"TEXCOORD_0":59
					},
					"indices":60,
					"material":1
				}
			]
		},
		{
			"name":"CART_Ore_3",
			"primitives":[
				{
					"attributes":{
						"POSITION":61,
						"NORMAL":62,
						"TEXCOORD_0":63
					},
					"indices":64,
					"material":1
				}
			]
		},
		{
			"name":"CART_Ore_4",
			"primitives":[
				{
					"attributes":{
						"POSITION":65,
						"NORMAL":66,
						"TEXCOORD_0":67
					},
					"indices":68,
					"material":1
				}
			]
		},
		{
			"name":"CART_Ore_5",
			"primitives":[
				{
					"attributes":{
						"POSITION":69,
						"NORMAL":70,
						"TEXCOORD_0":71
					},
					"indices":72,
					"material":1
				}
			]
		},
		{
			"name":"CART_Rim_100a",
			"primitives":[
				{
					"attributes":{
						"POSITION":73,
						"NORMAL":74,
						"TEXCOORD_0":75
					},
					"indices":11,
					"material":0
				}
			]
		},
		{
			"name":"CART_Rim_100b",
			"primitives":[
				{
					"attributes":{
						"POSITION":76,
						"NORMAL":77,
						"TEXCOORD_0":78
					},
					"indices":11,
					"material":0
				}
			]
		},
		{
			"name":"CART_Rim_100c",
			"primitives":[
				{
					"attributes":{
						"POSITION":79,
						"NORMAL":80,
						"TEXCOORD_0":81
					},
					"indices":82,
					"material":0
				}
			]
		},
		{
			"name":"CART_Rim_100d",
			"primitives":[
				{
					"attributes":{
						"POSITION":83,
						"NORMAL":84,
						"TEXCOORD_0":85
					},
					"indices":82,
					"material":0
				}
			]
		},
		{
			"name":"CART_Rim_172a",
			"primitives":[
				{
					"attributes":{
						"POSITION":86,
						"NORMAL":87,
						"TEXCOORD_0":88
					},
					"indices":11,
					"material":0
				}
			]
		},
		{
			"name":"CART_Rim_172b",
			"primitives":[
				{
					"attributes":{
						"POSITION":89,
						"NORMAL":90,
						"TEXCOORD_0":91
					},
					"indices":11,
					"material":0
				}
			]
		},
		{
			"name":"CART_Rim_172c",
			"primitives":[
				{
					"attributes":{
						"POSITION":92,
						"NORMAL":93,
						"TEXCOORD_0":94
					},
					"indices":11,
					"material":0
				}
			]
		},
		{
			"name":"CART_Rim_172d",
			"primitives":[
				{
					"attributes":{
						"POSITION":95,
						"NORMAL":96,
						"TEXCOORD_0":97
					},
					"indices":11,
					"material":0
				}
			]
		},
		{
			"name":"CART_Wheel_00",
			"primitives":[
				{
					"attributes":{
						"POSITION":98,
						"NORMAL":99,
						"TEXCOORD_0":100
					},
					"indices":27,
					"material":0
				}
			]
		},
		{
			"name":"CART_Wheel_01",
			"primitives":[
				{
					"attributes":{
						"POSITION":101,
						"NORMAL":102,
						"TEXCOORD_0":103
					},
					"indices":27,
					"material":0
				}
			]
		},
		{
			"name":"CART_Wheel_10",
			"primitives":[
				{
					"attributes":{
						"POSITION":104,
						"NORMAL":105,
						"TEXCOORD_0":106
					},
					"indices":34,
					"material":0
				}
			]
		},
		{
			"name":"CART_Wheel_11",
			"primitives":[
				{
					"attributes":{
						"POSITION":107,
						"NORMAL":108,
						"TEXCOORD_0":109
					},
					"indices":38,
					"material":0
				}
			]
		}
	],
	"textures":[
		{
			"sampler":0,
			"source":0
		},
		{
			"sampler":0,
			"source":1
		},
		{
			"sampler":0,
			"source":2
		},
		{
			"sampler":0,
			"source":3
		},
		{
			"sampler":0,
			"source":4
		},
		{
			"sampler":0,
			"source":5
		}
	],
	"images":[
		{
			"mimeType":"image/jpeg",
			"name":"rusty_metal_02_nor_gl",
			"uri":"textures/rusty_metal_02_nor_gl.jpg"
		},
		{
			"mimeType":"image/jpeg",
			"name":"rusty_metal_02_Diffuse",
			"uri":"textures/rusty_metal_02_Diffuse.jpg"
		},
		{
			"mimeType":"image/jpeg",
			"name":"rusty_metal_02_Rough",
			"uri":"textures/rusty_metal_02_Rough.jpg"
		},
		{
			"mimeType":"image/jpeg",
			"name":"dark_rock_02_nor_gl",
			"uri":"textures/dark_rock_02_nor_gl.jpg"
		},
		{
			"mimeType":"image/jpeg",
			"name":"dark_rock_02_Diffuse",
			"uri":"textures/dark_rock_02_Diffuse.jpg"
		},
		{
			"mimeType":"image/jpeg",
			"name":"dark_rock_02_Rough",
			"uri":"textures/dark_rock_02_Rough.jpg"
		}
	],
	"accessors":[
		{
			"bufferView":0,
			"componentType":5126,
			"count":48,
			"max":[
				0.02377641387283802,
				0.44999998807907104,
				0.02500000037252903
			],
			"min":[
				-0.02377641387283802,
				-0.44999998807907104,
				-0.02500000037252903
			],
			"type":"VEC3"
		},
		{
			"bufferView":1,
			"componentType":5126,
			"count":48,
			"type":"VEC3"
		},
		{
			"bufferView":2,
			"componentType":5126,
			"count":48,
			"type":"VEC2"
		},
		{
			"bufferView":3,
			"componentType":5123,
			"count":108,
			"type":"SCALAR"
		},
		{
			"bufferView":4,
			"componentType":5126,
			"count":48,
			"max":[
				0.02377641387283802,
				0.44999998807907104,
				0.02500000037252903
			],
			"min":[
				-0.02377641387283802,
				-0.44999998807907104,
				-0.02500000037252903
			],
			"type":"VEC3"
		},
		{
			"bufferView":5,
			"componentType":5126,
			"count":48,
			"type":"VEC3"
		},
		{
			"bufferView":6,
			"componentType":5126,
			"count":48,
			"type":"VEC2"
		},
		{
			"bufferView":7,
			"componentType":5123,
			"count":108,
			"type":"SCALAR"
		},
		{
			"bufferView":8,
			"componentType":5126,
			"count":216,
			"max":[
				0.07000000029802322,
				0.07000000029802322,
				1.2999999523162842
			],
			"min":[
				-0.07000000029802322,
				-0.07000000029802322,
				-1.2999999523162842
			],
			"type":"VEC3"
		},
		{
			"bufferView":9,
			"componentType":5126,
			"count":216,
			"type":"VEC3"
		},
		{
			"bufferView":10,
			"componentType":5126,
			"count":216,
			"type":"VEC2"
		},
		{
			"bufferView":11,
			"componentType":5123,
			"count":324,
			"type":"SCALAR"
		},
		{
			"bufferView":12,
			"componentType":5126,
			"count":504,
			"max":[
				1.0385921001434326,
				1.7869858741760254,
				1.4383125305175781
			],
			"min":[
				-1.0385921001434326,
				0.6000000238418579,
				-1.4383125305175781
			],
			"type":"VEC3"
		},
		{
			"bufferView":13,
			"componentType":5126,
			"count":504,
			"type":"VEC3"
		},
		{
			"bufferView":14,
			"componentType":5126,
			"count":504,
			"type":"VEC2"
		},
		{
			"bufferView":15,
			"componentType":5123,
			"count":756,
			"type":"SCALAR"
		},
		{
			"bufferView":16,
			"componentType":5126,
			"count":48,
			"max":[
				0.05706338956952095,
				0.07999999821186066,
				0.05999999865889549
			],
			"min":[
				-0.05706338956952095,
				-0.07999999821186066,
				-0.05999999865889549
			],
			"type":"VEC3"
		},
		{
			"bufferView":17,
			"componentType":5126,
			"count":48,
			"type":"VEC3"
		},
		{
			"bufferView":18,
			"componentType":5126,
			"count":48,
			"type":"VEC2"
		},
		{
			"bufferView":19,
			"componentType":5123,
			"count":108,
			"type":"SCALAR"
		},
		{
			"bufferView":20,
			"componentType":5126,
			"count":48,
			"max":[
				0.05706338956952095,
				0.07999999821186066,
				0.05999999865889549
			],
			"min":[
				-0.05706338956952095,
				-0.07999999821186066,
				-0.05999999865889549
			],
			"type":"VEC3"
		},
		{
			"bufferView":21,
			"componentType":5126,
			"count":48,
			"type":"VEC3"
		},
		{
			"bufferView":22,
			"componentType":5126,
			"count":48,
			"type":"VEC2"
		},
		{
			"bufferView":23,
			"componentType":5123,
			"count":108,
			"type":"SCALAR"
		},
		{
			"bufferView":24,
			"componentType":5126,
			"count":104,
			"max":[
				0.2199999988079071,
				0.009999999776482582,
				0.2199999988079071
			],
			"min":[
				-0.2199999988079071,
				-0.009999999776482582,
				-0.2199999988079071
			],
			"type":"VEC3"
		},
		{
			"bufferView":25,
			"componentType":5126,
			"count":104,
			"type":"VEC3"
		},
		{
			"bufferView":26,
			"componentType":5126,
			"count":104,
			"type":"VEC2"
		},
		{
			"bufferView":27,
			"componentType":5123,
			"count":276,
			"type":"SCALAR"
		},
		{
			"bufferView":28,
			"componentType":5126,
			"count":104,
			"max":[
				0.2199999988079071,
				0.009999999776482582,
				0.2199999988079071
			],
			"min":[
				-0.2199999988079071,
				-0.009999999776482582,
				-0.2199999988079071
			],
			"type":"VEC3"
		},
		{
			"bufferView":29,
			"componentType":5126,
			"count":104,
			"type":"VEC3"
		},
		{
			"bufferView":30,
			"componentType":5126,
			"count":104,
			"type":"VEC2"
		},
		{
			"bufferView":31,
			"componentType":5126,
			"count":104,
			"max":[
				0.2199999988079071,
				0.009999999776482582,
				0.2199999988079071
			],
			"min":[
				-0.2199999988079071,
				-0.009999999776482582,
				-0.2199999988079071
			],
			"type":"VEC3"
		},
		{
			"bufferView":32,
			"componentType":5126,
			"count":104,
			"type":"VEC3"
		},
		{
			"bufferView":33,
			"componentType":5126,
			"count":104,
			"type":"VEC2"
		},
		{
			"bufferView":34,
			"componentType":5123,
			"count":276,
			"type":"SCALAR"
		},
		{
			"bufferView":35,
			"componentType":5126,
			"count":104,
			"max":[
				0.2199999988079071,
				0.009999999776482582,
				0.2199999988079071
			],
			"min":[
				-0.2199999988079071,
				-0.009999999776482582,
				-0.2199999988079071
			],
			"type":"VEC3"
		},
		{
			"bufferView":36,
			"componentType":5126,
			"count":104,
			"type":"VEC3"
		},
		{
			"bufferView":37,
			"componentType":5126,
			"count":104,
			"type":"VEC2"
		},
		{
			"bufferView":38,
			"componentType":5123,
			"count":276,
			"type":"SCALAR"
		},
		{
			"bufferView":39,
			"componentType":5126,
			"count":216,
			"max":[
				0.699999988079071,
				0.05999999865889549,
				1.100000023841858
			],
			"min":[
				-0.699999988079071,
				-0.05999999865889549,
				-1.100000023841858
			],
			"type":"VEC3"
		},
		{
			"bufferView":40,
			"componentType":5126,
			"count":216,
			"type":"VEC3"
		},
		{
			"bufferView":41,
			"componentType":5126,
			"count":216,
			"type":"VEC2"
		},
		{
			"bufferView":42,
			"componentType":5126,
			"count":24,
			"max":[
				0.07000000029802322,
				0.07000000029802322,
				0.02500000037252903
			],
			"min":[
				-0.07000000029802322,
				-0.07000000029802322,
				-0.02500000037252903
			],
			"type":"VEC3"
		},
		{
			"bufferView":43,
			"componentType":5126,
			"count":24,
			"type":"VEC3"
		},
		{
			"bufferView":44,
			"componentType":5126,
			"count":24,
			"type":"VEC2"
		},
		{
			"bufferView":45,
			"componentType":5123,
			"count":36,
			"type":"SCALAR"
		},
		{
			"bufferView":46,
			"componentType":5126,
			"count":24,
			"max":[
				0.07000000029802322,
				0.07000000029802322,
				0.02500000037252903
			],
			"min":[
				-0.07000000029802322,
				-0.07000000029802322,
				-0.02500000037252903
			],
			"type":"VEC3"
		},
		{
			"bufferView":47,
			"componentType":5126,
			"count":24,
			"type":"VEC3"
		},
		{
			"bufferView":48,
			"componentType":5126,
			"count":24,
			"type":"VEC2"
		},
		{
			"bufferView":49,
			"componentType":5126,
			"count":31,
			"max":[
				0.7959692478179932,
				0.9398266077041626,
				0.9679789543151855
			],
			"min":[
				-0.8607550263404846,
				-1.0192476511001587,
				-0.8541600108146667
			],
			"type":"VEC3"
		},
		{
			"bufferView":50,
			"componentType":5126,
			"count":31,
			"type":"VEC3"
		},
		{
			"bufferView":51,
			"componentType":5126,
			"count":31,
			"type":"VEC2"
		},
		{
			"bufferView":52,
			"componentType":5123,
			"count":60,
			"type":"SCALAR"
		},
		{
			"bufferView":53,
			"componentType":5126,
			"count":31,
			"max":[
				0.8986791372299194,
				0.8879424929618835,
				0.8719424605369568
			],
			"min":[
				-0.870780885219574,
				-1.0921814441680908,
				-0.8193565607070923
			],
			"type":"VEC3"
		},
		{
			"bufferView":54,
			"componentType":5126,
			"count":31,
			"type":"VEC3"
		},
		{
			"bufferView":55,
			"componentType":5126,
			"count":31,
			"type":"VEC2"
		},
		{
			"bufferView":56,
			"componentType":5123,
			"count":60,
			"type":"SCALAR"
		},
		{
			"bufferView":57,
			"componentType":5126,
			"count":31,
			"max":[
				0.803844690322876,
				0.9362703561782837,
				0.9000322222709656
			],
			"min":[
				-0.8576772212982178,
				-1.1026958227157593,
				-0.8907743096351624
			],
			"type":"VEC3"
		},
		{
			"bufferView":58,
			"componentType":5126,
			"count":31,
			"type":"VEC3"
		},
		{
			"bufferView":59,
			"componentType":5126,
			"count":31,
			"type":"VEC2"
		},
		{
			"bufferView":60,
			"componentType":5123,
			"count":60,
			"type":"SCALAR"
		},
		{
			"bufferView":61,
			"componentType":5126,
			"count":31,
			"max":[
				0.8495904207229614,
				1.1889228820800781,
				1.009649395942688
			],
			"min":[
				-0.8583716154098511,
				-0.986635148525238,
				-0.9782021045684814
			],
			"type":"VEC3"
		},
		{
			"bufferView":62,
			"componentType":5126,
			"count":31,
			"type":"VEC3"
		},
		{
			"bufferView":63,
			"componentType":5126,
			"count":31,
			"type":"VEC2"
		},
		{
			"bufferView":64,
			"componentType":5123,
			"count":60,
			"type":"SCALAR"
		},
		{
			"bufferView":65,
			"componentType":5126,
			"count":30,
			"max":[
				1.0550438165664673,
				1.005926489830017,
				1.00706148147583
			],
			"min":[
				-1.0266762971878052,
				-0.8603097796440125,
				-0.9806949496269226
			],
			"type":"VEC3"
		},
		{
			"bufferView":66,
			"componentType":5126,
			"count":30,
			"type":"VEC3"
		},
		{
			"bufferView":67,
			"componentType":5126,
			"count":30,
			"type":"VEC2"
		},
		{
			"bufferView":68,
			"componentType":5123,
			"count":60,
			"type":"SCALAR"
		},
		{
			"bufferView":69,
			"componentType":5126,
			"count":31,
			"max":[
				0.9423627257347107,
				1.1505048274993896,
				0.8505973219871521
			],
			"min":[
				-0.8294276595115662,
				-0.8110722303390503,
				-0.7491616606712341
			],
			"type":"VEC3"
		},
		{
			"bufferView":70,
			"componentType":5126,
			"count":31,
			"type":"VEC3"
		},
		{
			"bufferView":71,
			"componentType":5126,
			"count":31,
			"type":"VEC2"
		},
		{
			"bufferView":72,
			"componentType":5123,
			"count":60,
			"type":"SCALAR"
		},
		{
			"bufferView":73,
			"componentType":5126,
			"count":216,
			"max":[
				0.9300000071525574,
				0.05000000074505806,
				0.03999999910593033
			],
			"min":[
				-0.9300000071525574,
				-0.05000000074505806,
				-0.03999999910593033
			],
			"type":"VEC3"
		},
		{
			"bufferView":74,
			"componentType":5126,
			"count":216,
			"type":"VEC3"
		},
		{
			"bufferView":75,
			"componentType":5126,
			"count":216,
			"type":"VEC2"
		},
		{
			"bufferView":76,
			"componentType":5126,
			"count":216,
			"max":[
				0.9300000071525574,
				0.05000000074505806,
				0.03999999910593033
			],
			"min":[
				-0.9300000071525574,
				-0.05000000074505806,
				-0.03999999910593033
			],
			"type":"VEC3"
		},
		{
			"bufferView":77,
			"componentType":5126,
			"count":216,
			"type":"VEC3"
		},
		{
			"bufferView":78,
			"componentType":5126,
			"count":216,
			"type":"VEC2"
		},
		{
			"bufferView":79,
			"componentType":5126,
			"count":216,
			"max":[
				0.03999999910593033,
				0.05000000074505806,
				1.2599999904632568
			],
			"min":[
				-0.03999999910593033,
				-0.05000000074505806,
				-1.2599999904632568
			],
			"type":"VEC3"
		},
		{
			"bufferView":80,
			"componentType":5126,
			"count":216,
			"type":"VEC3"
		},
		{
			"bufferView":81,
			"componentType":5126,
			"count":216,
			"type":"VEC2"
		},
		{
			"bufferView":82,
			"componentType":5123,
			"count":324,
			"type":"SCALAR"
		},
		{
			"bufferView":83,
			"componentType":5126,
			"count":216,
			"max":[
				0.03999999910593033,
				0.05000000074505806,
				1.2599999904632568
			],
			"min":[
				-0.03999999910593033,
				-0.05000000074505806,
				-1.2599999904632568
			],
			"type":"VEC3"
		},
		{
			"bufferView":84,
			"componentType":5126,
			"count":216,
			"type":"VEC3"
		},
		{
			"bufferView":85,
			"componentType":5126,
			"count":216,
			"type":"VEC2"
		},
		{
			"bufferView":86,
			"componentType":5126,
			"count":216,
			"max":[
				1.1100000143051147,
				0.05000000074505806,
				0.03999999910593033
			],
			"min":[
				-1.1100000143051147,
				-0.05000000074505806,
				-0.03999999910593033
			],
			"type":"VEC3"
		},
		{
			"bufferView":87,
			"componentType":5126,
			"count":216,
			"type":"VEC3"
		},
		{
			"bufferView":88,
			"componentType":5126,
			"count":216,
			"type":"VEC2"
		},
		{
			"bufferView":89,
			"componentType":5126,
			"count":216,
			"max":[
				1.1100000143051147,
				0.05000000074505806,
				0.03999999910593033
			],
			"min":[
				-1.1100000143051147,
				-0.05000000074505806,
				-0.03999999910593033
			],
			"type":"VEC3"
		},
		{
			"bufferView":90,
			"componentType":5126,
			"count":216,
			"type":"VEC3"
		},
		{
			"bufferView":91,
			"componentType":5126,
			"count":216,
			"type":"VEC2"
		},
		{
			"bufferView":92,
			"componentType":5126,
			"count":216,
			"max":[
				0.03999999910593033,
				0.05000000074505806,
				1.4800000190734863
			],
			"min":[
				-0.03999999910593033,
				-0.05000000074505806,
				-1.4800000190734863
			],
			"type":"VEC3"
		},
		{
			"bufferView":93,
			"componentType":5126,
			"count":216,
			"type":"VEC3"
		},
		{
			"bufferView":94,
			"componentType":5126,
			"count":216,
			"type":"VEC2"
		},
		{
			"bufferView":95,
			"componentType":5126,
			"count":216,
			"max":[
				0.03999999910593033,
				0.05000000074505806,
				1.4800000190734863
			],
			"min":[
				-0.03999999910593033,
				-0.05000000074505806,
				-1.4800000190734863
			],
			"type":"VEC3"
		},
		{
			"bufferView":96,
			"componentType":5126,
			"count":216,
			"type":"VEC3"
		},
		{
			"bufferView":97,
			"componentType":5126,
			"count":216,
			"type":"VEC2"
		},
		{
			"bufferView":98,
			"componentType":5126,
			"count":104,
			"max":[
				0.19499999284744263,
				0.03750000149011612,
				0.19499999284744263
			],
			"min":[
				-0.19499999284744263,
				-0.03750000149011612,
				-0.19499999284744263
			],
			"type":"VEC3"
		},
		{
			"bufferView":99,
			"componentType":5126,
			"count":104,
			"type":"VEC3"
		},
		{
			"bufferView":100,
			"componentType":5126,
			"count":104,
			"type":"VEC2"
		},
		{
			"bufferView":101,
			"componentType":5126,
			"count":104,
			"max":[
				0.19499999284744263,
				0.03750000149011612,
				0.19499999284744263
			],
			"min":[
				-0.19499999284744263,
				-0.03750000149011612,
				-0.19499999284744263
			],
			"type":"VEC3"
		},
		{
			"bufferView":102,
			"componentType":5126,
			"count":104,
			"type":"VEC3"
		},
		{
			"bufferView":103,
			"componentType":5126,
			"count":104,
			"type":"VEC2"
		},
		{
			"bufferView":104,
			"componentType":5126,
			"count":104,
			"max":[
				0.19499999284744263,
				0.03750000149011612,
				0.19499999284744263
			],
			"min":[
				-0.19499999284744263,
				-0.03750000149011612,
				-0.19499999284744263
			],
			"type":"VEC3"
		},
		{
			"bufferView":105,
			"componentType":5126,
			"count":104,
			"type":"VEC3"
		},
		{
			"bufferView":106,
			"componentType":5126,
			"count":104,
			"type":"VEC2"
		},
		{
			"bufferView":107,
			"componentType":5126,
			"count":104,
			"max":[
				0.19499999284744263,
				0.03750000149011612,
				0.19499999284744263
			],
			"min":[
				-0.19499999284744263,
				-0.03750000149011612,
				-0.19499999284744263
			],
			"type":"VEC3"
		},
		{
			"bufferView":108,
			"componentType":5126,
			"count":104,
			"type":"VEC3"
		},
		{
			"bufferView":109,
			"componentType":5126,
			"count":104,
			"type":"VEC2"
		}
	],
	"bufferViews":[
		{
			"buffer":0,
			"byteLength":576,
			"byteOffset":0,
			"target":34962
		},
		{
			"buffer":0,
			"byteLength":576,
			"byteOffset":576,
			"target":34962
		},
		{
			"buffer":0,
			"byteLength":384,
			"byteOffset":1152,
			"target":34962
		},
		{
			"buffer":0,
			"byteLength":216,
			"byteOffset":1536,
			"target":34963
		},
		{
			"buffer":0,
			"byteLength":576,
			"byteOffset":1752,
			"target":34962
		},
		{
			"buffer":0,
			"byteLength":576,
			"byteOffset":2328,
			"target":34962
		},
		{
			"buffer":0,
			"byteLength":384,
			"byteOffset":2904,
			"target":34962
		},
		{
			"buffer":0,
			"byteLength":216,
			"byteOffset":3288,
			"target":34963
		},
		{
			"buffer":0,
			"byteLength":2592,
			"byteOffset":3504,
			"target":34962
		},
		{
			"buffer":0,
			"byteLength":2592,
			"byteOffset":6096,
			"target":34962
		},
		{
			"buffer":0,
			"byteLength":1728,
			"byteOffset":8688,
			"target":34962
		},
		{
			"buffer":0,
			"byteLength":648,
			"byteOffset":10416,
			"target":34963
		},
		{
			"buffer":0,
			"byteLength":6048,
			"byteOffset":11064,
			"target":34962
		},
		{
			"buffer":0,
			"byteLength":6048,
			"byteOffset":17112,
			"target":34962
		},
		{
			"buffer":0,
			"byteLength":4032,
			"byteOffset":23160,
			"target":34962
		},
		{
			"buffer":0,
			"byteLength":1512,
			"byteOffset":27192,
			"target":34963
		},
		{
			"buffer":0,
			"byteLength":576,
			"byteOffset":28704,
			"target":34962
		},
		{
			"buffer":0,
			"byteLength":576,
			"byteOffset":29280,
			"target":34962
		},
		{
			"buffer":0,
			"byteLength":384,
			"byteOffset":29856,
			"target":34962
		},
		{
			"buffer":0,
			"byteLength":216,
			"byteOffset":30240,
			"target":34963
		},
		{
			"buffer":0,
			"byteLength":576,
			"byteOffset":30456,
			"target":34962
		},
		{
			"buffer":0,
			"byteLength":576,
			"byteOffset":31032,
			"target":34962
		},
		{
			"buffer":0,
			"byteLength":384,
			"byteOffset":31608,
			"target":34962
		},
		{
			"buffer":0,
			"byteLength":216,
			"byteOffset":31992,
			"target":34963
		},
		{
			"buffer":0,
			"byteLength":1248,
			"byteOffset":32208,
			"target":34962
		},
		{
			"buffer":0,
			"byteLength":1248,
			"byteOffset":33456,
			"target":34962
		},
		{
			"buffer":0,
			"byteLength":832,
			"byteOffset":34704,
			"target":34962
		},
		{
			"buffer":0,
			"byteLength":552,
			"byteOffset":35536,
			"target":34963
		},
		{
			"buffer":0,
			"byteLength":1248,
			"byteOffset":36088,
			"target":34962
		},
		{
			"buffer":0,
			"byteLength":1248,
			"byteOffset":37336,
			"target":34962
		},
		{
			"buffer":0,
			"byteLength":832,
			"byteOffset":38584,
			"target":34962
		},
		{
			"buffer":0,
			"byteLength":1248,
			"byteOffset":39416,
			"target":34962
		},
		{
			"buffer":0,
			"byteLength":1248,
			"byteOffset":40664,
			"target":34962
		},
		{
			"buffer":0,
			"byteLength":832,
			"byteOffset":41912,
			"target":34962
		},
		{
			"buffer":0,
			"byteLength":552,
			"byteOffset":42744,
			"target":34963
		},
		{
			"buffer":0,
			"byteLength":1248,
			"byteOffset":43296,
			"target":34962
		},
		{
			"buffer":0,
			"byteLength":1248,
			"byteOffset":44544,
			"target":34962
		},
		{
			"buffer":0,
			"byteLength":832,
			"byteOffset":45792,
			"target":34962
		},
		{
			"buffer":0,
			"byteLength":552,
			"byteOffset":46624,
			"target":34963
		},
		{
			"buffer":0,
			"byteLength":2592,
			"byteOffset":47176,
			"target":34962
		},
		{
			"buffer":0,
			"byteLength":2592,
			"byteOffset":49768,
			"target":34962
		},
		{
			"buffer":0,
			"byteLength":1728,
			"byteOffset":52360,
			"target":34962
		},
		{
			"buffer":0,
			"byteLength":288,
			"byteOffset":54088,
			"target":34962
		},
		{
			"buffer":0,
			"byteLength":288,
			"byteOffset":54376,
			"target":34962
		},
		{
			"buffer":0,
			"byteLength":192,
			"byteOffset":54664,
			"target":34962
		},
		{
			"buffer":0,
			"byteLength":72,
			"byteOffset":54856,
			"target":34963
		},
		{
			"buffer":0,
			"byteLength":288,
			"byteOffset":54928,
			"target":34962
		},
		{
			"buffer":0,
			"byteLength":288,
			"byteOffset":55216,
			"target":34962
		},
		{
			"buffer":0,
			"byteLength":192,
			"byteOffset":55504,
			"target":34962
		},
		{
			"buffer":0,
			"byteLength":372,
			"byteOffset":55696,
			"target":34962
		},
		{
			"buffer":0,
			"byteLength":372,
			"byteOffset":56068,
			"target":34962
		},
		{
			"buffer":0,
			"byteLength":248,
			"byteOffset":56440,
			"target":34962
		},
		{
			"buffer":0,
			"byteLength":120,
			"byteOffset":56688,
			"target":34963
		},
		{
			"buffer":0,
			"byteLength":372,
			"byteOffset":56808,
			"target":34962
		},
		{
			"buffer":0,
			"byteLength":372,
			"byteOffset":57180,
			"target":34962
		},
		{
			"buffer":0,
			"byteLength":248,
			"byteOffset":57552,
			"target":34962
		},
		{
			"buffer":0,
			"byteLength":120,
			"byteOffset":57800,
			"target":34963
		},
		{
			"buffer":0,
			"byteLength":372,
			"byteOffset":57920,
			"target":34962
		},
		{
			"buffer":0,
			"byteLength":372,
			"byteOffset":58292,
			"target":34962
		},
		{
			"buffer":0,
			"byteLength":248,
			"byteOffset":58664,
			"target":34962
		},
		{
			"buffer":0,
			"byteLength":120,
			"byteOffset":58912,
			"target":34963
		},
		{
			"buffer":0,
			"byteLength":372,
			"byteOffset":59032,
			"target":34962
		},
		{
			"buffer":0,
			"byteLength":372,
			"byteOffset":59404,
			"target":34962
		},
		{
			"buffer":0,
			"byteLength":248,
			"byteOffset":59776,
			"target":34962
		},
		{
			"buffer":0,
			"byteLength":120,
			"byteOffset":60024,
			"target":34963
		},
		{
			"buffer":0,
			"byteLength":360,
			"byteOffset":60144,
			"target":34962
		},
		{
			"buffer":0,
			"byteLength":360,
			"byteOffset":60504,
			"target":34962
		},
		{
			"buffer":0,
			"byteLength":240,
			"byteOffset":60864,
			"target":34962
		},
		{
			"buffer":0,
			"byteLength":120,
			"byteOffset":61104,
			"target":34963
		},
		{
			"buffer":0,
			"byteLength":372,
			"byteOffset":61224,
			"target":34962
		},
		{
			"buffer":0,
			"byteLength":372,
			"byteOffset":61596,
			"target":34962
		},
		{
			"buffer":0,
			"byteLength":248,
			"byteOffset":61968,
			"target":34962
		},
		{
			"buffer":0,
			"byteLength":120,
			"byteOffset":62216,
			"target":34963
		},
		{
			"buffer":0,
			"byteLength":2592,
			"byteOffset":62336,
			"target":34962
		},
		{
			"buffer":0,
			"byteLength":2592,
			"byteOffset":64928,
			"target":34962
		},
		{
			"buffer":0,
			"byteLength":1728,
			"byteOffset":67520,
			"target":34962
		},
		{
			"buffer":0,
			"byteLength":2592,
			"byteOffset":69248,
			"target":34962
		},
		{
			"buffer":0,
			"byteLength":2592,
			"byteOffset":71840,
			"target":34962
		},
		{
			"buffer":0,
			"byteLength":1728,
			"byteOffset":74432,
			"target":34962
		},
		{
			"buffer":0,
			"byteLength":2592,
			"byteOffset":76160,
			"target":34962
		},
		{
			"buffer":0,
			"byteLength":2592,
			"byteOffset":78752,
			"target":34962
		},
		{
			"buffer":0,
			"byteLength":1728,
			"byteOffset":81344,
			"target":34962
		},
		{
			"buffer":0,
			"byteLength":648,
			"byteOffset":83072,
			"target":34963
		},
		{
			"buffer":0,
			"byteLength":2592,
			"byteOffset":83720,
			"target":34962
		},
		{
			"buffer":0,
			"byteLength":2592,
			"byteOffset":86312,
			"target":34962
		},
		{
			"buffer":0,
			"byteLength":1728,
			"byteOffset":88904,
			"target":34962
		},
		{
			"buffer":0,
			"byteLength":2592,
			"byteOffset":90632,
			"target":34962
		},
		{
			"buffer":0,
			"byteLength":2592,
			"byteOffset":93224,
			"target":34962
		},
		{
			"buffer":0,
			"byteLength":1728,
			"byteOffset":95816,
			"target":34962
		},
		{
			"buffer":0,
			"byteLength":2592,
			"byteOffset":97544,
			"target":34962
		},
		{
			"buffer":0,
			"byteLength":2592,
			"byteOffset":100136,
			"target":34962
		},
		{
			"buffer":0,
			"byteLength":1728,
			"byteOffset":102728,
			"target":34962
		},
		{
			"buffer":0,
			"byteLength":2592,
			"byteOffset":104456,
			"target":34962
		},
		{
			"buffer":0,
			"byteLength":2592,
			"byteOffset":107048,
			"target":34962
		},
		{
			"buffer":0,
			"byteLength":1728,
			"byteOffset":109640,
			"target":34962
		},
		{
			"buffer":0,
			"byteLength":2592,
			"byteOffset":111368,
			"target":34962
		},
		{
			"buffer":0,
			"byteLength":2592,
			"byteOffset":113960,
			"target":34962
		},
		{
			"buffer":0,
			"byteLength":1728,
			"byteOffset":116552,
			"target":34962
		},
		{
			"buffer":0,
			"byteLength":1248,
			"byteOffset":118280,
			"target":34962
		},
		{
			"buffer":0,
			"byteLength":1248,
			"byteOffset":119528,
			"target":34962
		},
		{
			"buffer":0,
			"byteLength":832,
			"byteOffset":120776,
			"target":34962
		},
		{
			"buffer":0,
			"byteLength":1248,
			"byteOffset":121608,
			"target":34962
		},
		{
			"buffer":0,
			"byteLength":1248,
			"byteOffset":122856,
			"target":34962
		},
		{
			"buffer":0,
			"byteLength":832,
			"byteOffset":124104,
			"target":34962
		},
		{
			"buffer":0,
			"byteLength":1248,
			"byteOffset":124936,
			"target":34962
		},
		{
			"buffer":0,
			"byteLength":1248,
			"byteOffset":126184,
			"target":34962
		},
		{
			"buffer":0,
			"byteLength":832,
			"byteOffset":127432,
			"target":34962
		},
		{
			"buffer":0,
			"byteLength":1248,
			"byteOffset":128264,
			"target":34962
		},
		{
			"buffer":0,
			"byteLength":1248,
			"byteOffset":129512,
			"target":34962
		},
		{
			"buffer":0,
			"byteLength":832,
			"byteOffset":130760,
			"target":34962
		}
	],
	"samplers":[
		{
			"magFilter":9729,
			"minFilter":9987
		}
	],
	"buffers":[
		{
			"byteLength":131592,
			"uri":"mine_cart.bin"
		}
	]
}
