{
	"asset":{
		"generator":"Khronos glTF Blender I/O v5.2.39",
		"version":"2.0"
	},
	"scene":0,
	"scenes":[
		{
			"name":"Scene",
			"nodes":[
				0
			]
		}
	],
	"nodes":[
		{
			"mesh":0,
			"name":"FACE_Wall"
		}
	],
	"materials":[
		{
			"doubleSided":true,
			"name":"MAT_RockWall_EXPORT",
			"normalTexture":{
				"index":0
			},
			"pbrMetallicRoughness":{
				"baseColorTexture":{
					"index":1
				},
				"metallicFactor":0,
				"metallicRoughnessTexture":{
					"index":2
				}
			}
		}
	],
	"meshes":[
		{
			"name":"FACE_Wall",
			"primitives":[
				{
					"attributes":{
						"POSITION":0,
						"NORMAL":1,
						"TEXCOORD_0":2
					},
					"indices":3,
					"material":0
				}
			]
		}
	],
	"textures":[
		{
			"sampler":0,
			"source":0
		},
		{
			"sampler":0,
			"source":1
		},
		{
			"sampler":0,
			"source":2
		}
	],
	"images":[
		{
			"mimeType":"image/jpeg",
			"name":"rock_face_04_nor_gl",
			"uri":"textures/rock_face_04_nor_gl.jpg"
		},
		{
			"mimeType":"image/jpeg",
			"name":"rock_face_04_Diffuse",
			"uri":"textures/rock_face_04_Diffuse.jpg"
		},
		{
			"mimeType":"image/jpeg",
			"name":"rock_face_04_Rough",
			"uri":"textures/rock_face_04_Rough.jpg"
		}
	],
	"accessors":[
		{
			"bufferView":0,
			"componentType":5126,
			"count":3604,
			"max":[
				3.5,
				4.400000095367432,
				0.5957624912261963
			],
			"min":[
				-3.5,
				0,
				-0.5
			],
			"type":"VEC3"
		},
		{
			"bufferView":1,
			"componentType":5126,
			"count":3604,
			"type":"VEC3"
		},
		{
			"bufferView":2,
			"componentType":5126,
			"count":3604,
			"type":"VEC2"
		},
		{
			"bufferView":3,
			"componentType":5123,
			"count":17916,
			"type":"SCALAR"
		}
	],
	"bufferViews":[
		{
			"buffer":0,
			"byteLength":43248,
			"byteOffset":0,
			"target":34962
		},
		{
			"buffer":0,
			"byteLength":43248,
			"byteOffset":43248,
			"target":34962
		},
		{
			"buffer":0,
			"byteLength":28832,
			"byteOffset":86496,
			"target":34962
		},
		{
			"buffer":0,
			"byteLength":35832,
			"byteOffset":115328,
			"target":34963
		}
	],
	"samplers":[
		{
			"magFilter":9729,
			"minFilter":9987
		}
	],
	"buffers":[
		{
			"byteLength":151160,
			"uri":"mine_face.bin"
		}
	]
}
