{
	"asset":{
		"generator":"Khronos glTF Blender I/O v5.2.39",
		"version":"2.0"
	},
	"extensionsUsed":[
		"KHR_materials_specular",
		"KHR_materials_ior"
	],
	"scene":0,
	"scenes":[
		{
			"name":"Scene",
			"nodes":[
				2,
				5,
				9,
				13,
				17,
				19,
				38,
				40,
				42
			]
		}
	],
	"nodes":[
		{
			"mesh":0,
			"name":"PROP_barrels_wooden_barrels_01_barrel01"
		},
		{
			"mesh":1,
			"name":"PROP_barrels_wooden_barrels_01_barrel02",
			"translation":[
				0,
				0,
				-0.7200000286102295
			]
		},
		{
			"children":[
				0,
				1
			],
			"name":"PROP_barrels",
			"translation":[
				0,
				0.0030677919276058674,
				0.3600013256072998
			]
		},
		{
			"mesh":2,
			"name":"PROP_bucket_wooden_bucket_01",
			"translation":[
				-0.00012092794349882752,
				0,
				0.00012092785618733615
			]
		},
		{
			"mesh":3,
			"name":"PROP_bucket_wooden_bucket_01_handle",
			"translation":[
				0,
				0.3211684823036194,
				0.0001209279362228699
			]
		},
		{
			"children":[
				3,
				4
			],
			"name":"PROP_bucket",
			"rotation":[
				0,
				0.5646424889564514,
				0,
				0.8253356218338013
			],
			"translation":[
				-0.0006282851099967957,
				-0.00013674795627593994,
				-5.231797695159912e-05
			]
		},
		{
			"mesh":4,
			"name":"PROP_crate_wooden_crate_01"
		},
		{
			"mesh":5,
			"name":"PROP_crate_wooden_crate_01_latch"
		},
		{
			"mesh":6,
			"name":"PROP_crate_wooden_crate_01_lid"
		},
		{
			"children":[
				6,
				7,
				8
			],
			"name":"PROP_crate",
			"rotation":[
				0,
				0.0998334065079689,
				0,
				0.9950041770935059
			],
			"translation":[
				0.0005454272031784058,
				0.00793334562331438,
				0
			]
		},
		{
			"mesh":7,
			"name":"PROP_crate_s_wooden_crate_01"
		},
		{
			"mesh":8,
			"name":"PROP_crate_s_wooden_crate_01_latch"
		},
		{
			"mesh":9,
			"name":"PROP_crate_s_wooden_crate_01_lid"
		},
		{
			"children":[
				10,
				11,
				12
			],
			"name":"PROP_crate_s",
			"rotation":[
				0,
				-0.1741081178188324,
				0,
				0.9847265481948853
			],
			"scale":[
				0.8500000238418579,
				0.8500000238418579,
				0.8500000238418579
			],
			"translation":[
				0.0005980581045150757,
				0.006743344012647867,
				0
			]
		},
		{
			"mesh":10,
			"name":"PROP_lamp_vintage_oil_lamp"
		},
		{
			"mesh":11,
			"name":"PROP_lamp_vintage_oil_lamp_flame"
		},
		{
			"mesh":12,
			"name":"PROP_lamp_vintage_oil_lamp_glass"
		},
		{
			"children":[
				14,
				15,
				16
			],
			"name":"PROP_lamp",
			"rotation":[
				0,
				0.29552021622657776,
				0,
				0.9553365111351013
			]
		},
		{
			"mesh":13,
			"name":"PROP_post_beam",
			"rotation":[
				0.5983907580375671,
				0.1189652755856514,
				-0.09043791890144348,
				0.787144660949707
			]
		},
		{
			"children":[
				18
			],
			"name":"PROP_post",
			"translation":[
				0,
				0.42378008365631104,
				0
			]
		},
		{
			"mesh":14,
			"name":"PROP_rubble_0",
			"rotation":[
				0.3671148121356964,
				0.3671148121356964,
				0.18828415870666504,
				0.8336681127548218
			],
			"scale":[
				0.1866370141506195,
				0.09798210114240646,
				0.16317173838615417
			],
			"translation":[
				0.2941669225692749,
				0.11912569403648376,
				0.45143765211105347
			]
		},
		{
			"mesh":15,
			"name":"PROP_rubble_1",
			"rotation":[
				0.5432538986206055,
				0.5432538986206055,
				0.17701572179794312,
				0.6151551008224487
			],
			"scale":[
				0.26774004101753235,
				0.18629933893680573,
				0.2552281320095062
			],
			"translation":[
				-0.39348992705345154,
				0.16178005933761597,
				0.5284786224365234
			]
		},
		{
			"mesh":16,
			"name":"PROP_rubble_2",
			"rotation":[
				0.10205865651369095,
				0.10205864906311035,
				-0.1294107586145401,
				0.9810306429862976
			],
			"scale":[
				0.19379058480262756,
				0.12200043350458145,
				0.20078876614570618
			],
			"translation":[
				0.23142683506011963,
				0.19487005472183228,
				0.4176185727119446
			]
		},
		{
			"mesh":17,
			"name":"PROP_rubble_3",
			"rotation":[
				-0.18910226225852966,
				-0.18910229206085205,
				-0.4847055673599243,
				0.8327912092208862
			],
			"scale":[
				0.27496305108070374,
				0.1644708812236786,
				0.20839355885982513
			],
			"translation":[
				0.4437863528728485,
				0.17418327927589417,
				-0.38630974292755127
			]
		},
		{
			"mesh":18,
			"name":"PROP_rubble_4",
			"rotation":[
				-0.1694466769695282,
				-0.1694466769695282,
				-0.5659354329109192,
				0.7888553738594055
			],
			"scale":[
				0.1502649486064911,
				0.07102152705192566,
				0.15409626066684723
			],
			"translation":[
				0.32758602499961853,
				0.15592360496520996,
				0.26589471101760864
			]
		},
		{
			"mesh":19,
			"name":"PROP_rubble_5",
			"rotation":[
				-0.5158894062042236,
				-0.5158894062042236,
				0.18388600647449493,
				0.6587125658988953
			],
			"scale":[
				0.14647012948989868,
				0.09738815575838089,
				0.15145140886306763
			],
			"translation":[
				0.10583347082138062,
				0.06618589162826538,
				-0.2114401012659073
			]
		},
		{
			"mesh":20,
			"name":"PROP_rubble_6",
			"rotation":[
				0.3180639445781708,
				0.3180639445781708,
				0.1795807033777237,
				0.8748836517333984
			],
			"scale":[
				0.1466413289308548,
				0.10309644788503647,
				0.1537194848060608
			],
			"translation":[
				-0.12275107204914093,
				0.28683438897132874,
				0.5693989396095276
			]
		},
		{
			"mesh":21,
			"name":"PROP_rubble_7",
			"rotation":[
				0.06192338466644287,
				0.06192338466644287,
				0.05504687502980232,
				0.9946361184120178
			],
			"scale":[
				0.13423028588294983,
				0.13137179613113403,
				0.16741082072257996
			],
			"translation":[
				0.40588700771331787,
				0.1028704047203064,
				-0.03390887379646301
			]
		},
		{
			"mesh":22,
			"name":"PROP_rubble_8",
			"rotation":[
				0.07259976863861084,
				0.07259976863861084,
				-0.6876977682113647,
				0.7187005281448364
			],
			"scale":[
				0.2572004795074463,
				0.12991969287395477,
				0.24064286053180695
			],
			"translation":[
				0.2754707336425781,
				0.28712764382362366,
				-0.38199952244758606
			]
		},
		{
			"mesh":23,
			"name":"PROP_rubble_9",
			"rotation":[
				-0.6598045229911804,
				-0.6598045229911804,
				0.10994256287813187,
				0.34238672256469727
			],
			"scale":[
				0.10416632145643234,
				0.07770999521017075,
				0.1114555075764656
			],
			"translation":[
				-0.26606395840644836,
				0.26708856225013733,
				-0.14887967705726624
			]
		},
		{
			"mesh":24,
			"name":"PROP_rubble_10",
			"rotation":[
				0.19207079708576202,
				0.19207079708576202,
				-0.44891977310180664,
				0.8512865304946899
			],
			"scale":[
				0.09917676448822021,
				0.08551731705665588,
				0.1339254528284073
			],
			"translation":[
				0.4021173119544983,
				0.08860495686531067,
				-0.269758403301239
			]
		},
		{
			"mesh":25,
			"name":"PROP_rubble_11",
			"rotation":[
				0.021097151562571526,
				0.021097153425216675,
				-0.7055280804634094,
				0.7080537676811218
			],
			"scale":[
				0.11585111171007156,
				0.08537779003381729,
				0.11320225149393082
			],
			"translation":[
				0.33456864953041077,
				0.10328513383865356,
				-0.3913863003253937
			]
		},
		{
			"mesh":26,
			"name":"PROP_rubble_12",
			"rotation":[
				0.011656367219984531,
				0.011656367219984531,
				-0.011934693902730942,
				0.9997928738594055
			],
			"scale":[
				0.16423927247524261,
				0.09417922049760818,
				0.12746085226535797
			],
			"translation":[
				-0.43316560983657837,
				0.1044512391090393,
				0.07185010612010956
			]
		},
		{
			"mesh":27,
			"name":"PROP_rubble_13",
			"rotation":[
				0.31235450506210327,
				0.31235450506210327,
				0.17826654016971588,
				0.8792555928230286
			],
			"scale":[
				0.2310468703508377,
				0.16317696869373322,
				0.2316562533378601
			],
			"translation":[
				0.23399382829666138,
				0.20302599668502808,
				-0.4949856400489807
			]
		},
		{
			"mesh":28,
			"name":"PROP_rubble_14",
			"rotation":[
				0.16108475625514984,
				0.16108475625514984,
				-0.2535211145877838,
				0.940122663974762
			],
			"scale":[
				0.19372066855430603,
				0.13953329622745514,
				0.20202717185020447
			],
			"translation":[
				-0.05209372192621231,
				0.13272859156131744,
				0.5129446983337402
			]
		},
		{
			"mesh":29,
			"name":"PROP_rubble_15",
			"rotation":[
				0.12841717898845673,
				0.12841717898845673,
				-0.6395295262336731,
				0.7470073699951172
			],
			"scale":[
				0.11852338910102844,
				0.06464717537164688,
				0.139156773686409
			],
			"translation":[
				-0.06163036823272705,
				0.13589918613433838,
				-0.01872606948018074
			]
		},
		{
			"mesh":30,
			"name":"PROP_rubble_16",
			"rotation":[
				-0.1870279759168625,
				-0.1870279759168625,
				-0.35805368423461914,
				0.8954545259475708
			],
			"scale":[
				0.23259755969047546,
				0.11536004394292831,
				0.22521279752254486
			],
			"translation":[
				0.2510976791381836,
				0.11228051781654358,
				0.2754646837711334
			]
		},
		{
			"mesh":31,
			"name":"PROP_rubble_17",
			"rotation":[
				-0.1566583216190338,
				-0.1566583216190338,
				-0.24125176668167114,
				0.9448354244232178
			],
			"scale":[
				0.11872246116399765,
				0.0987175926566124,
				0.12957946956157684
			],
			"translation":[
				0.3206057846546173,
				0.2664482295513153,
				0.520052969455719
			]
		},
		{
			"children":[
				20,
				21,
				22,
				23,
				24,
				25,
				26,
				27,
				28,
				29,
				30,
				31,
				32,
				33,
				34,
				35,
				36,
				37
			],
			"name":"PROP_rubble",
			"translation":[
				-0.02428421378135681,
				0.10043442249298096,
				-0.0344853401184082
			]
		},
		{
			"mesh":32,
			"name":"PROP_sledge_sledgehammer_01"
		},
		{
			"children":[
				39
			],
			"name":"PROP_sledge",
			"rotation":[
				0.7071068286895752,
				0,
				0,
				0.7071068286895752
			],
			"translation":[
				1.3943761587142944e-05,
				0.04523874446749687,
				0.24374660849571228
			]
		},
		{
			"mesh":33,
			"name":"PROP_spade_rusted_spade_01"
		},
		{
			"children":[
				41
			],
			"name":"PROP_spade",
			"rotation":[
				0.7071068286895752,
				0,
				0,
				0.7071068286895752
			],
			"translation":[
				0,
				0.022568438202142715,
				-0.0472506582736969
			]
		}
	],
	"materials":[
		{
			"doubleSided":true,
			"name":"wooden_barrels_01_barrel01",
			"normalTexture":{
				"index":0
			},
			"pbrMetallicRoughness":{
				"baseColorTexture":{
					"index":1
				},
				"metallicRoughnessTexture":{
					"index":2
				}
			}
		},
		{
			"doubleSided":true,
			"name":"wooden_barrels_01_barrel02",
			"normalTexture":{
				"index":3
			},
			"pbrMetallicRoughness":{
				"baseColorTexture":{
					"index":4
				},
				"metallicRoughnessTexture":{
					"index":5
				}
			}
		},
		{
			"doubleSided":true,
			"name":"wooden_bucket_01",
			"normalTexture":{
				"index":6
			},
			"pbrMetallicRoughness":{
				"baseColorTexture":{
					"index":7
				},
				"metallicRoughnessTexture":{
					"index":8
				}
			}
		},
		{
			"doubleSided":true,
			"name":"wooden_crate_01",
			"normalTexture":{
				"index":9
			},
			"pbrMetallicRoughness":{
				"baseColorTexture":{
					"index":10
				},
				"metallicRoughnessTexture":{
					"index":11
				}
			}
		},
		{
			"doubleSided":true,
			"name":"wooden_crate_01.001",
			"normalTexture":{
				"index":12
			},
			"pbrMetallicRoughness":{
				"baseColorTexture":{
					"index":13
				},
				"metallicRoughnessTexture":{
					"index":14
				}
			}
		},
		{
			"doubleSided":true,
			"name":"vintage_oil_lamp",
			"normalTexture":{
				"index":15
			},
			"pbrMetallicRoughness":{
				"baseColorTexture":{
					"index":16
				},
				"metallicRoughnessTexture":{
					"index":17
				}
			}
		},
		{
			"alphaMode":"BLEND",
			"doubleSided":true,
			"emissiveFactor":[
				1,
				1,
				1
			],
			"emissiveTexture":{
				"index":18
			},
			"extensions":{
				"KHR_materials_specular":{
					"specularColorFactor":[
						0.0,
						0.0,
						0.0
					]
				},
				"KHR_materials_ior":{
					"ior":1.4500000476837158
				}
			},
			"name":"vintage_oil_lamp_flame",
			"pbrMetallicRoughness":{
				"baseColorTexture":{
					"index":19
				},
				"metallicFactor":0,
				"roughnessFactor":0
			}
		},
		{
			"alphaMode":"BLEND",
			"doubleSided":true,
			"name":"vintage_oil_lamp_glass",
			"normalTexture":{
				"index":20
			},
			"pbrMetallicRoughness":{
				"baseColorTexture":{
					"index":21
				},
				"metallicRoughnessTexture":{
					"index":22
				}
			}
		},
		{
			"doubleSided":true,
			"name":"MAT_Timber_EXPORT",
			"normalTexture":{
				"index":23
			},
			"pbrMetallicRoughness":{
				"baseColorTexture":{
					"index":24
				},
				"metallicFactor":0,
				"metallicRoughnessTexture":{
					"index":25
				}
			}
		},
		{
			"doubleSided":true,
			"name":"MAT_Rock_EXPORT",
			"normalTexture":{
				"index":26
			},
			"pbrMetallicRoughness":{
				"baseColorTexture":{
					"index":27
				},
				"metallicFactor":0,
				"metallicRoughnessTexture":{
					"index":28
				}
			}
		},
		{
			"doubleSided":true,
			"name":"sledgehammer_01",
			"normalTexture":{
				"index":29
			},
			"pbrMetallicRoughness":{
				"baseColorTexture":{
					"index":30
				},
				"metallicRoughnessTexture":{
					"index":31
				}
			}
		},
		{
			"doubleSided":true,
			"name":"rusted_spade_01",
			"normalTexture":{
				"index":32
			},
			"pbrMetallicRoughness":{
				"baseColorTexture":{
					"index":33
				},
				"metallicRoughnessTexture":{
					"index":34
				}
			}
		}
	],
	"meshes":[
		{
			"name":"Plane.018",
			"primitives":[
				{
					"attributes":{
						"POSITION":0,
						"NORMAL":1,
						"TEXCOORD_0":2
					},
					"indices":3,
					"material":0
				}
			]
		},
		{
			"name":"Plane.025",
			"primitives":[
				{
					"attributes":{
						"POSITION":4,
						"NORMAL":5,
						"TEXCOORD_0":6
					},
					"indices":7,
					"material":1
				}
			]
		},
		{
			"name":"Cylinder",
			"primitives":[
				{
					"attributes":{
						"POSITION":8,
						"NORMAL":9,
						"TEXCOORD_0":10
					},
					"indices":11,
					"material":2
				}
			]
		},
		{
			"name":"Plane",
			"primitives":[
				{
					"attributes":{
						"POSITION":12,
						"NORMAL":13,
						"TEXCOORD_0":14
					},
					"indices":15,
					"material":2
				}
			]
		},
		{
			"name":"Cube.020",
			"primitives":[
				{
					"attributes":{
						"POSITION":16,
						"NORMAL":17,
						"TEXCOORD_0":18
					},
					"indices":19,
					"material":3
				}
			]
		},
		{
			"name":"Cube.001",
			"primitives":[
				{
					"attributes":{
						"POSITION":20,
						"NORMAL":21,
						"TEXCOORD_0":22
					},
					"indices":23,
					"material":3
				}
			]
		},
		{
			"name":"Cube.005",
			"primitives":[
				{
					"attributes":{
						"POSITION":24,
						"NORMAL":25,
						"TEXCOORD_0":26
					},
					"indices":27,
					"material":3
				}
			]
		},
		{
			"name":"Cube.003",
			"primitives":[
				{
					"attributes":{
						"POSITION":28,
						"NORMAL":29,
						"TEXCOORD_0":30
					},
					"indices":19,
					"material":4
				}
			]
		},
		{
			"name":"Cube.004",
			"primitives":[
				{
					"attributes":{
						"POSITION":31,
						"NORMAL":32,
						"TEXCOORD_0":33
					},
					"indices":23,
					"material":4
				}
			]
		},
		{
			"name":"Cube.002",
			"primitives":[
				{
					"attributes":{
						"POSITION":34,
						"NORMAL":35,
						"TEXCOORD_0":36
					},
					"indices":27,
					"material":4
				}
			]
		},
		{
			"name":"Circle.003",
			"primitives":[
				{
					"attributes":{
						"POSITION":37,
						"NORMAL":38,
						"TEXCOORD_0":39
					},
					"indices":40,
					"material":5
				}
			]
		},
		{
			"name":"Plane.003",
			"primitives":[
				{
					"attributes":{
						"POSITION":41,
						"NORMAL":42,
						"TEXCOORD_0":43
					},
					"indices":44,
					"material":6
				}
			]
		},
		{
			"name":"Glass.001",
			"primitives":[
				{
					"attributes":{
						"POSITION":45,
						"NORMAL":46,
						"TEXCOORD_0":47
					},
					"indices":48,
					"material":7
				}
			]
		},
		{
			"name":"PROP_post_beam",
			"primitives":[
				{
					"attributes":{
						"POSITION":49,
						"NORMAL":50,
						"TEXCOORD_0":51
					},
					"indices":52,
					"material":8
				}
			]
		},
		{
			"name":"PROP_rubble_0",
			"primitives":[
				{
					"attributes":{
						"POSITION":53,
						"NORMAL":54,
						"TEXCOORD_0":55
					},
					"indices":56,
					"material":9
				}
			]
		},
		{
			"name":"PROP_rubble_1",
			"primitives":[
				{
					"attributes":{
						"POSITION":57,
						"NORMAL":58,
						"TEXCOORD_0":59
					},
					"indices":60,
					"material":9
				}
			]
		},
		{
			"name":"PROP_rubble_2",
			"primitives":[
				{
					"attributes":{
						"POSITION":61,
						"NORMAL":62,
						"TEXCOORD_0":63
					},
					"indices":64,
					"material":9
				}
			]
		},
		{
			"name":"PROP_rubble_3",
			"primitives":[
				{
					"attributes":{
						"POSITION":65,
						"NORMAL":66,
						"TEXCOORD_0":67
					},
					"indices":68,
					"material":9
				}
			]
		},
		{
			"name":"PROP_rubble_4",
			"primitives":[
				{
					"attributes":{
						"POSITION":69,
						"NORMAL":70,
						"TEXCOORD_0":71
					},
					"indices":72,
					"material":9
				}
			]
		},
		{
			"name":"PROP_rubble_5",
			"primitives":[
				{
					"attributes":{
						"POSITION":73,
						"NORMAL":74,
						"TEXCOORD_0":75
					},
					"indices":76,
					"material":9
				}
			]
		},
		{
			"name":"PROP_rubble_6",
			"primitives":[
				{
					"attributes":{
						"POSITION":77,
						"NORMAL":78,
						"TEXCOORD_0":79
					},
					"indices":80,
					"material":9
				}
			]
		},
		{
			"name":"PROP_rubble_7",
			"primitives":[
				{
					"attributes":{
						"POSITION":81,
						"NORMAL":82,
						"TEXCOORD_0":83
					},
					"indices":84,
					"material":9
				}
			]
		},
		{
			"name":"PROP_rubble_8",
			"primitives":[
				{
					"attributes":{
						"POSITION":85,
						"NORMAL":86,
						"TEXCOORD_0":87
					},
					"indices":88,
					"material":9
				}
			]
		},
		{
			"name":"PROP_rubble_9",
			"primitives":[
				{
					"attributes":{
						"POSITION":89,
						"NORMAL":90,
						"TEXCOORD_0":91
					},
					"indices":92,
					"material":9
				}
			]
		},
		{
			"name":"PROP_rubble_10",
			"primitives":[
				{
					"attributes":{
						"POSITION":93,
						"NORMAL":94,
						"TEXCOORD_0":95
					},
					"indices":96,
					"material":9
				}
			]
		},
		{
			"name":"PROP_rubble_11",
			"primitives":[
				{
					"attributes":{
						"POSITION":97,
						"NORMAL":98,
						"TEXCOORD_0":99
					},
					"indices":100,
					"material":9
				}
			]
		},
		{
			"name":"PROP_rubble_12",
			"primitives":[
				{
					"attributes":{
						"POSITION":101,
						"NORMAL":102,
						"TEXCOORD_0":103
					},
					"indices":104,
					"material":9
				}
			]
		},
		{
			"name":"PROP_rubble_13",
			"primitives":[
				{
					"attributes":{
						"POSITION":105,
						"NORMAL":106,
						"TEXCOORD_0":107
					},
					"indices":108,
					"material":9
				}
			]
		},
		{
			"name":"PROP_rubble_14",
			"primitives":[
				{
					"attributes":{
						"POSITION":109,
						"NORMAL":110,
						"TEXCOORD_0":111
					},
					"indices":112,
					"material":9
				}
			]
		},
		{
			"name":"PROP_rubble_15",
			"primitives":[
				{
					"attributes":{
						"POSITION":113,
						"NORMAL":114,
						"TEXCOORD_0":115
					},
					"indices":116,
					"material":9
				}
			]
		},
		{
			"name":"PROP_rubble_16",
			"primitives":[
				{
					"attributes":{
						"POSITION":117,
						"NORMAL":118,
						"TEXCOORD_0":119
					},
					"indices":120,
					"material":9
				}
			]
		},
		{
			"name":"PROP_rubble_17",
			"primitives":[
				{
					"attributes":{
						"POSITION":121,
						"NORMAL":122,
						"TEXCOORD_0":123
					},
					"indices":124,
					"material":9
				}
			]
		},
		{
			"name":"Cube.008",
			"primitives":[
				{
					"attributes":{
						"POSITION":125,
						"NORMAL":126,
						"TEXCOORD_0":127
					},
					"indices":128,
					"material":10
				}
			]
		},
		{
			"name":"Cylinder.001",
			"primitives":[
				{
					"attributes":{
						"POSITION":129,
						"NORMAL":130,
						"TEXCOORD_0":131
					},
					"indices":132,
					"material":11
				}
			]
		}
	],
	"textures":[
		{
			"sampler":0,
			"source":0
		},
		{
			"sampler":0,
			"source":1
		},
		{
			"sampler":0,
			"source":2
		},
		{
			"sampler":0,
			"source":3
		},
		{
			"sampler":0,
			"source":4
		},
		{
			"sampler":0,
			"source":5
		},
		{
			"sampler":0,
			"source":6
		},
		{
			"sampler":0,
			"source":7
		},
		{
			"sampler":0,
			"source":8
		},
		{
			"sampler":0,
			"source":9
		},
		{
			"sampler":0,
			"source":10
		},
		{
			"sampler":0,
			"source":11
		},
		{
			"sampler":0,
			"source":9
		},
		{
			"sampler":0,
			"source":10
		},
		{
			"sampler":0,
			"source":11
		},
		{
			"sampler":0,
			"source":12
		},
		{
			"sampler":0,
			"source":13
		},
		{
			"sampler":0,
			"source":14
		},
		{
			"sampler":0,
			"source":15
		},
		{
			"sampler":0,
			"source":16
		},
		{
			"sampler":0,
			"source":17
		},
		{
			"sampler":0,
			"source":18
		},
		{
			"sampler":0,
			"source":19
		},
		{
			"sampler":0,
			"source":20
		},
		{
			"sampler":0,
			"source":21
		},
		{
			"sampler":0,
			"source":22
		},
		{
			"sampler":0,
			"source":23
		},
		{
			"sampler":0,
			"source":24
		},
		{
			"sampler":0,
			"source":25
		},
		{
			"sampler":0,
			"source":26
		},
		{
			"sampler":0,
			"source":27
		},
		{
			"sampler":0,
			"source":28
		},
		{
			"sampler":0,
			"source":29
		},
		{
			"sampler":0,
			"source":30
		},
		{
			"sampler":0,
			"source":31
		}
	],
	"images":[
		{
			"mimeType":"image/jpeg",
			"name":"wooden_barrels_01_barrel01_nor_gl_1k",
			"uri":"textures/wooden_barrels_01_barrel01_nor_gl_1k.jpg"
		},
		{
			"mimeType":"image/jpeg",
			"name":"wooden_barrels_01_barrel01_diff_1k",
			"uri":"textures/wooden_barrels_01_barrel01_diff_1k.jpg"
		},
		{
			"mimeType":"image/jpeg",
			"name":"wooden_barrels_01_barrel01_arm_1k",
			"uri":"textures/wooden_barrels_01_barrel01_arm_1k.jpg"
		},
		{
			"mimeType":"image/jpeg",
			"name":"wooden_barrels_01_barrel02_nor_gl_1k",
			"uri":"textures/wooden_barrels_01_barrel02_nor_gl_1k.jpg"
		},
		{
			"mimeType":"image/jpeg",
			"name":"wooden_barrels_01_barrel02_diff_1k",
			"uri":"textures/wooden_barrels_01_barrel02_diff_1k.jpg"
		},
		{
			"mimeType":"image/jpeg",
			"name":"wooden_barrels_01_barrel02_arm_1k",
			"uri":"textures/wooden_barrels_01_barrel02_arm_1k.jpg"
		},
		{
			"mimeType":"image/jpeg",
			"name":"wooden_bucket_01_nor_gl_1k",
			"uri":"textures/wooden_bucket_01_nor_gl_1k.jpg"
		},
		{
			"mimeType":"image/jpeg",
			"name":"wooden_bucket_01_diff_1k",
			"uri":"textures/wooden_bucket_01_diff_1k.jpg"
		},
		{
			"mimeType":"image/jpeg",
			"name":"wooden_bucket_01_arm_1k",
			"uri":"textures/wooden_bucket_01_arm_1k.jpg"
		},
		{
			"mimeType":"image/jpeg",
			"name":"wooden_crate_01_nor_gl_1k",
			"uri":"textures/wooden_crate_01_nor_gl_1k.jpg"
		},
		{
			"mimeType":"image/jpeg",
			"name":"wooden_crate_01_diff_1k",
			"uri":"textures/wooden_crate_01_diff_1k.jpg"
		},
		{
			"mimeType":"image/jpeg",
			"name":"wooden_crate_01_arm_1k",
			"uri":"textures/wooden_crate_01_arm_1k.jpg"
		},
		{
			"mimeType":"image/jpeg",
			"name":"vintage_oil_lamp_nor_gl_1k",
			"uri":"textures/vintage_oil_lamp_nor_gl_1k.jpg"
		},
		{
			"mimeType":"image/jpeg",
			"name":"vintage_oil_lamp_diff_1k",
			"uri":"textures/vintage_oil_lamp_diff_1k.jpg"
		},
		{
			"mimeType":"image/jpeg",
			"name":"vintage_oil_lamp_arm_1k",
			"uri":"textures/vintage_oil_lamp_arm_1k.jpg"
		},
		{
			"mimeType":"image/jpeg",
			"name":"vintage_oil_lamp_flame_diff_1k",
			"uri":"textures/vintage_oil_lamp_flame_diff_1k.jpg"
		},
		{
			"mimeType":"image/png",
			"name":"vintage_oil_lamp_flame_diff_1k",
			"uri":"textures/vintage_oil_lamp_flame_diff_1k.png"
		},
		{
			"mimeType":"image/jpeg",
			"name":"vintage_oil_lamp_glass_nor_gl_1k",
			"uri":"textures/vintage_oil_lamp_glass_nor_gl_1k.jpg"
		},
		{
			"mimeType":"image/png",
			"name":"vintage_oil_lamp_glass_diff_1k",
			"uri":"textures/vintage_oil_lamp_glass_diff_1k.png"
		},
		{
			"mimeType":"image/jpeg",
			"name":"vintage_oil_lamp_glass_arm_1k",
			"uri":"textures/vintage_oil_lamp_glass_arm_1k.jpg"
		},
		{
			"mimeType":"image/jpeg",
			"name":"dark_wooden_planks_nor_gl",
			"uri":"textures/dark_wooden_planks_nor_gl.jpg"
		},
		{
			"mimeType":"image/jpeg",
			"name":"dark_wooden_planks_Diffuse",
			"uri":"textures/dark_wooden_planks_Diffuse.jpg"
		},
		{
			"mimeType":"image/jpeg",
			"name":"dark_wooden_planks_Rough",
			"uri":"textures/dark_wooden_planks_Rough.jpg"
		},
		{
			"mimeType":"image/jpeg",
			"name":"dark_rock_02_nor_gl",
			"uri":"textures/dark_rock_02_nor_gl.jpg"
		},
		{
			"mimeType":"image/jpeg",
			"name":"dark_rock_02_Diffuse",
			"uri":"textures/dark_rock_02_Diffuse.jpg"
		},
		{
			"mimeType":"image/jpeg",
			"name":"dark_rock_02_Rough",
			"uri":"textures/dark_rock_02_Rough.jpg"
		},
		{
			"mimeType":"image/jpeg",
			"name":"sledgehammer_01_nor_gl_1k",
			"uri":"textures/sledgehammer_01_nor_gl_1k.jpg"
		},
		{
			"mimeType":"image/jpeg",
			"name":"sledgehammer_01_diff_1k",
			"uri":"textures/sledgehammer_01_diff_1k.jpg"
		},
		{
			"mimeType":"image/jpeg",
			"name":"sledgehammer_01_arm_1k",
			"uri":"textures/sledgehammer_01_arm_1k.jpg"
		},
		{
			"mimeType":"image/jpeg",
			"name":"rusted_spade_01_nor_gl_1k",
			"uri":"textures/rusted_spade_01_nor_gl_1k.jpg"
		},
		{
			"mimeType":"image/jpeg",
			"name":"rusted_spade_01_diff_1k",
			"uri":"textures/rusted_spade_01_diff_1k.jpg"
		},
		{
			"mimeType":"image/jpeg",
			"name":"rusted_spade_01_arm_1k",
			"uri":"textures/rusted_spade_01_arm_1k.jpg"
		}
	],
	"accessors":[
		{
			"bufferView":0,
			"componentType":5126,
			"count":11598,
			"max":[
				0.3715013563632965,
				0.916801929473877,
				0.3714975416660309
			],
			"min":[
				-0.37149882316589355,
				2.1108424334670417e-05,
				-0.371500164270401
			],
			"type":"VEC3"
		},
		{
			"bufferView":1,
			"componentType":5126,
			"count":11598,
			"type":"VEC3"
		},
		{
			"bufferView":2,
			"componentType":5126,
			"count":11598,
			"type":"VEC2"
		},
		{
			"bufferView":3,
			"componentType":5123,
			"count":33552,
			"type":"SCALAR"
		},
		{
			"bufferView":4,
			"componentType":5126,
			"count":11744,
			"max":[
				0.3715013563632965,
				0.916801929473877,
				0.3714520335197449
			],
			"min":[
				-0.37149882316589355,
				-0.0030677919276058674,
				-0.371500164270401
			],
			"type":"VEC3"
		},
		{
			"bufferView":5,
			"componentType":5126,
			"count":11744,
			"type":"VEC3"
		},
		{
			"bufferView":6,
			"componentType":5126,
			"count":11744,
			"type":"VEC2"
		},
		{
			"bufferView":7,
			"componentType":5123,
			"count":33834,
			"type":"SCALAR"
		},
		{
			"bufferView":8,
			"componentType":5126,
			"count":3606,
			"max":[
				0.17380821704864502,
				0.3491709232330322,
				0.17213965952396393
			],
			"min":[
				-0.17317181825637817,
				0.00013674795627593994,
				-0.17008152604103088
			],
			"type":"VEC3"
		},
		{
			"bufferView":9,
			"componentType":5126,
			"count":3606,
			"type":"VEC3"
		},
		{
			"bufferView":10,
			"componentType":5126,
			"count":3606,
			"type":"VEC2"
		},
		{
			"bufferView":11,
			"componentType":5123,
			"count":13452,
			"type":"SCALAR"
		},
		{
			"bufferView":12,
			"componentType":5126,
			"count":385,
			"max":[
				0.18252430856227875,
				0.22883063554763794,
				0.004410651046782732
			],
			"min":[
				-0.1844465434551239,
				-0.007601439952850342,
				-0.003766037989407778
			],
			"type":"VEC3"
		},
		{
			"bufferView":13,
			"componentType":5126,
			"count":385,
			"type":"VEC3"
		},
		{
			"bufferView":14,
			"componentType":5126,
			"count":385,
			"type":"VEC2"
		},
		{
			"bufferView":15,
			"componentType":5123,
			"count":1896,
			"type":"SCALAR"
		},
		{
			"bufferView":16,
			"componentType":5126,
			"count":3731,
			"max":[
				0.4126364588737488,
				0.3139750361442566,
				0.2128141224384308
			],
			"min":[
				-0.4126364588737488,
				-0.00793334562331438,
				-0.19549614191055298
			],
			"type":"VEC3"
		},
		{
			"bufferView":17,
			"componentType":5126,
			"count":3731,
			"type":"VEC3"
		},
		{
			"bufferView":18,
			"componentType":5126,
			"count":3731,
			"type":"VEC2"
		},
		{
			"bufferView":19,
			"componentType":5123,
			"count":16524,
			"type":"SCALAR"
		},
		{
			"bufferView":20,
			"componentType":5126,
			"count":384,
			"max":[
				0.009643923491239548,
				0.3357900381088257,
				0.2071036398410797
			],
			"min":[
				-0.016070956364274025,
				0.2390938252210617,
				0.1312473714351654
			],
			"type":"VEC3"
		},
		{
			"bufferView":21,
			"componentType":5126,
			"count":384,
			"type":"VEC3"
		},
		{
			"bufferView":22,
			"componentType":5126,
			"count":384,
			"type":"VEC2"
		},
		{
			"bufferView":23,
			"componentType":5123,
			"count":1128,
			"type":"SCALAR"
		},
		{
			"bufferView":24,
			"componentType":5126,
			"count":622,
			"max":[
				0.3539096713066101,
				0.3416849374771118,
				0.1961396187543869
			],
			"min":[
				-0.3539096713066101,
				0.29946234822273254,
				-0.1961396187543869
			],
			"type":"VEC3"
		},
		{
			"bufferView":25,
			"componentType":5126,
			"count":622,
			"type":"VEC3"
		},
		{
			"bufferView":26,
			"componentType":5126,
			"count":622,
			"type":"VEC2"
		},
		{
			"bufferView":27,
			"componentType":5123,
			"count":2076,
			"type":"SCALAR"
		},
		{
			"bufferView":28,
			"componentType":5126,
			"count":3731,
			"max":[
				0.4126364588737488,
				0.3139750361442566,
				0.2128141224384308
			],
			"min":[
				-0.4126364588737488,
				-0.00793334562331438,
				-0.19549614191055298
			],
			"type":"VEC3"
		},
		{
			"bufferView":29,
			"componentType":5126,
			"count":3731,
			"type":"VEC3"
		},
		{
			"bufferView":30,
			"componentType":5126,
			"count":3731,
			"type":"VEC2"
		},
		{
			"bufferView":31,
			"componentType":5126,
			"count":384,
			"max":[
				0.009643923491239548,
				0.3357900381088257,
				0.2071036398410797
			],
			"min":[
				-0.016070956364274025,
				0.2390938252210617,
				0.1312473714351654
			],
			"type":"VEC3"
		},
		{
			"bufferView":32,
			"componentType":5126,
			"count":384,
			"type":"VEC3"
		},
		{
			"bufferView":33,
			"componentType":5126,
			"count":384,
			"type":"VEC2"
		},
		{
			"bufferView":34,
			"componentType":5126,
			"count":622,
			"max":[
				0.3539096713066101,
				0.3416849374771118,
				0.1961396187543869
			],
			"min":[
				-0.3539096713066101,
				0.29946234822273254,
				-0.1961396187543869
			],
			"type":"VEC3"
		},
		{
			"bufferView":35,
			"componentType":5126,
			"count":622,
			"type":"VEC3"
		},
		{
			"bufferView":36,
			"componentType":5126,
			"count":622,
			"type":"VEC2"
		},
		{
			"bufferView":37,
			"componentType":5126,
			"count":3557,
			"max":[
				0.10999996960163116,
				0.471133291721344,
				0.10999996960163116
			],
			"min":[
				-0.11000002920627594,
				-1.822867901069003e-08,
				-0.11000002175569534
			],
			"type":"VEC3"
		},
		{
			"bufferView":38,
			"componentType":5126,
			"count":3557,
			"type":"VEC3"
		},
		{
			"bufferView":39,
			"componentType":5126,
			"count":3557,
			"type":"VEC2"
		},
		{
			"bufferView":40,
			"componentType":5123,
			"count":17568,
			"type":"SCALAR"
		},
		{
			"bufferView":41,
			"componentType":5126,
			"count":16,
			"max":[
				0.012247968465089798,
				0.5270751714706421,
				0.012247966602444649
			],
			"min":[
				-0.012247968465089798,
				0.46773654222488403,
				-0.012247967533767223
			],
			"type":"VEC3"
		},
		{
			"bufferView":42,
			"componentType":5126,
			"count":16,
			"type":"VEC3"
		},
		{
			"bufferView":43,
			"componentType":5126,
			"count":16,
			"type":"VEC2"
		},
		{
			"bufferView":44,
			"componentType":5123,
			"count":24,
			"type":"SCALAR"
		},
		{
			"bufferView":45,
			"componentType":5126,
			"count":894,
			"max":[
				0.02294541522860527,
				0.8016371726989746,
				0.022945357486605644
			],
			"min":[
				-0.022945230826735497,
				0.42623430490493774,
				-0.022945260629057884
			],
			"type":"VEC3"
		},
		{
			"bufferView":46,
			"componentType":5126,
			"count":894,
			"type":"VEC3"
		},
		{
			"bufferView":47,
			"componentType":5126,
			"count":894,
			"type":"VEC2"
		},
		{
			"bufferView":48,
			"componentType":5123,
			"count":4032,
			"type":"SCALAR"
		},
		{
			"bufferView":49,
			"componentType":5126,
			"count":216,
			"max":[
				0.10999999940395355,
				1.2000000476837158,
				0.10999999940395355
			],
			"min":[
				-0.10999999940395355,
				-1.2000000476837158,
				-0.10999999940395355
			],
			"type":"VEC3"
		},
		{
			"bufferView":50,
			"componentType":5126,
			"count":216,
			"type":"VEC3"
		},
		{
			"bufferView":51,
			"componentType":5126,
			"count":216,
			"type":"VEC2"
		},
		{
			"bufferView":52,
			"componentType":5123,
			"count":324,
			"type":"SCALAR"
		},
		{
			"bufferView":53,
			"componentType":5126,
			"count":31,
			"max":[
				0.7782086133956909,
				0.9622595906257629,
				0.8538026213645935
			],
			"min":[
				-0.9104718565940857,
				-0.8254245519638062,
				-0.7935141921043396
			],
			"type":"VEC3"
		},
		{
			"bufferView":54,
			"componentType":5126,
			"count":31,
			"type":"VEC3"
		},
		{
			"bufferView":55,
			"componentType":5126,
			"count":31,
			"type":"VEC2"
		},
		{
			"bufferView":56,
			"componentType":5123,
			"count":60,
			"type":"SCALAR"
		},
		{
			"bufferView":57,
			"componentType":5126,
			"count":31,
			"max":[
				0.8532952070236206,
				1.0238722562789917,
				0.9850963354110718
			],
			"min":[
				-0.7531232237815857,
				-0.7732913494110107,
				-0.9097233414649963
			],
			"type":"VEC3"
		},
		{
			"bufferView":58,
			"componentType":5126,
			"count":31,
			"type":"VEC3"
		},
		{
			"bufferView":59,
			"componentType":5126,
			"count":31,
			"type":"VEC2"
		},
		{
			"bufferView":60,
			"componentType":5123,
			"count":60,
			"type":"SCALAR"
		},
		{
			"bufferView":61,
			"componentType":5126,
			"count":30,
			"max":[
				0.830107569694519,
				0.9590613842010498,
				1.010195255279541
			],
			"min":[
				-0.806614100933075,
				-0.899883508682251,
				-1.0548701286315918
			],
			"type":"VEC3"
		},
		{
			"bufferView":62,
			"componentType":5126,
			"count":30,
			"type":"VEC3"
		},
		{
			"bufferView":63,
			"componentType":5126,
			"count":30,
			"type":"VEC2"
		},
		{
			"bufferView":64,
			"componentType":5123,
			"count":60,
			"type":"SCALAR"
		},
		{
			"bufferView":65,
			"componentType":5126,
			"count":31,
			"max":[
				0.9845348596572876,
				1.0735644102096558,
				1.0397738218307495
			],
			"min":[
				-0.9301551580429077,
				-0.9068737626075745,
				-0.8320130705833435
			],
			"type":"VEC3"
		},
		{
			"bufferView":66,
			"componentType":5126,
			"count":31,
			"type":"VEC3"
		},
		{
			"bufferView":67,
			"componentType":5126,
			"count":31,
			"type":"VEC2"
		},
		{
			"bufferView":68,
			"componentType":5123,
			"count":60,
			"type":"SCALAR"
		},
		{
			"bufferView":69,
			"componentType":5126,
			"count":30,
			"max":[
				1.065879225730896,
				1.1596399545669556,
				1.0086148977279663
			],
			"min":[
				-0.728661060333252,
				-0.8085479140281677,
				-0.8716679811477661
			],
			"type":"VEC3"
		},
		{
			"bufferView":70,
			"componentType":5126,
			"count":30,
			"type":"VEC3"
		},
		{
			"bufferView":71,
			"componentType":5126,
			"count":30,
			"type":"VEC2"
		},
		{
			"bufferView":72,
			"componentType":5123,
			"count":60,
			"type":"SCALAR"
		},
		{
			"bufferView":73,
			"componentType":5126,
			"count":32,
			"max":[
				0.9796162247657776,
				1.0077457427978516,
				0.8442443013191223
			],
			"min":[
				-0.9342821836471558,
				-0.8659784197807312,
				-1.0433536767959595
			],
			"type":"VEC3"
		},
		{
			"bufferView":74,
			"componentType":5126,
			"count":32,
			"type":"VEC3"
		},
		{
			"bufferView":75,
			"componentType":5126,
			"count":32,
			"type":"VEC2"
		},
		{
			"bufferView":76,
			"componentType":5123,
			"count":60,
			"type":"SCALAR"
		},
		{
			"bufferView":77,
			"componentType":5126,
			"count":29,
			"max":[
				0.7384660840034485,
				0.8007321953773499,
				0.9077566862106323
			],
			"min":[
				-0.698656439781189,
				-0.949489414691925,
				-0.6666222810745239
			],
			"type":"VEC3"
		},
		{
			"bufferView":78,
			"componentType":5126,
			"count":29,
			"type":"VEC3"
		},
		{
			"bufferView":79,
			"componentType":5126,
			"count":29,
			"type":"VEC2"
		},
		{
			"bufferView":80,
			"componentType":5123,
			"count":60,
			"type":"SCALAR"
		},
		{
			"bufferView":81,
			"componentType":5126,
			"count":32,
			"max":[
				0.849846601486206,
				0.761547863483429,
				1.0603687763214111
			],
			"min":[
				-0.8792150020599365,
				-0.8114210963249207,
				-0.9905102849006653
			],
			"type":"VEC3"
		},
		{
			"bufferView":82,
			"componentType":5126,
			"count":32,
			"type":"VEC3"
		},
		{
			"bufferView":83,
			"componentType":5126,
			"count":32,
			"type":"VEC2"
		},
		{
			"bufferView":84,
			"componentType":5123,
			"count":60,
			"type":"SCALAR"
		},
		{
			"bufferView":85,
			"componentType":5126,
			"count":22,
			"max":[
				1.1112902164459229,
				1.176314353942871,
				0.9693288803100586
			],
			"min":[
				-0.7455217838287354,
				-1.0980983972549438,
				-0.9831334352493286
			],
			"type":"VEC3"
		},
		{
			"bufferView":86,
			"componentType":5126,
			"count":22,
			"type":"VEC3"
		},
		{
			"bufferView":87,
			"componentType":5126,
			"count":22,
			"type":"VEC2"
		},
		{
			"bufferView":88,
			"componentType":5123,
			"count":60,
			"type":"SCALAR"
		},
		{
			"bufferView":89,
			"componentType":5126,
			"count":30,
			"max":[
				0.8817158341407776,
				0.8483530879020691,
				1.0582146644592285
			],
			"min":[
				-1.098584532737732,
				-0.8897092938423157,
				-0.8281946182250977
			],
			"type":"VEC3"
		},
		{
			"bufferView":90,
			"componentType":5126,
			"count":30,
			"type":"VEC3"
		},
		{
			"bufferView":91,
			"componentType":5126,
			"count":30,
			"type":"VEC2"
		},
		{
			"bufferView":92,
			"componentType":5123,
			"count":60,
			"type":"SCALAR"
		},
		{
			"bufferView":93,
			"componentType":5126,
			"count":30,
			"max":[
				0.8718588352203369,
				0.9506934285163879,
				0.9736164212226868
			],
			"min":[
				-1.0062910318374634,
				-1.080292820930481,
				-1.051247477531433
			],
			"type":"VEC3"
		},
		{
			"bufferView":94,
			"componentType":5126,
			"count":30,
			"type":"VEC3"
		},
		{
			"bufferView":95,
			"componentType":5126,
			"count":30,
			"type":"VEC2"
		},
		{
			"bufferView":96,
			"componentType":5123,
			"count":60,
			"type":"SCALAR"
		},
		{
			"bufferView":97,
			"componentType":5126,
			"count":25,
			"max":[
				1.0883476734161377,
				0.9669046998023987,
				0.9175300598144531
			],
			"min":[
				-0.8939697742462158,
				-1.163255214691162,
				-0.8713363409042358
			],
			"type":"VEC3"
		},
		{
			"bufferView":98,
			"componentType":5126,
			"count":25,
			"type":"VEC3"
		},
		{
			"bufferView":99,
			"componentType":5126,
			"count":25,
			"type":"VEC2"
		},
		{
			"bufferView":100,
			"componentType":5123,
			"count":60,
			"type":"SCALAR"
		},
		{
			"bufferView":101,
			"componentType":5126,
			"count":30,
			"max":[
				0.9086574912071228,
				1.0117533206939697,
				1.0250303745269775
			],
			"min":[
				-0.8747329711914062,
				-0.9595062732696533,
				-0.8513413071632385
			],
			"type":"VEC3"
		},
		{
			"bufferView":102,
			"componentType":5126,
			"count":30,
			"type":"VEC3"
		},
		{
			"bufferView":103,
			"componentType":5126,
			"count":30,
			"type":"VEC2"
		},
		{
			"bufferView":104,
			"componentType":5123,
			"count":60,
			"type":"SCALAR"
		},
		{
			"bufferView":105,
			"componentType":5126,
			"count":31,
			"max":[
				0.8978747725486755,
				1.0308647155761719,
				0.8762854337692261
			],
			"min":[
				-0.9192193150520325,
				-1.0282378196716309,
				-0.9715480804443359
			],
			"type":"VEC3"
		},
		{
			"bufferView":106,
			"componentType":5126,
			"count":31,
			"type":"VEC3"
		},
		{
			"bufferView":107,
			"componentType":5126,
			"count":31,
			"type":"VEC2"
		},
		{
			"bufferView":108,
			"componentType":5123,
			"count":60,
			"type":"SCALAR"
		},
		{
			"bufferView":109,
			"componentType":5126,
			"count":31,
			"max":[
				0.8835825324058533,
				0.8108109831809998,
				1.0384212732315063
			],
			"min":[
				-0.9835178256034851,
				-1.016642689704895,
				-1.0107898712158203
			],
			"type":"VEC3"
		},
		{
			"bufferView":110,
			"componentType":5126,
			"count":31,
			"type":"VEC3"
		},
		{
			"bufferView":111,
			"componentType":5126,
			"count":31,
			"type":"VEC2"
		},
		{
			"bufferView":112,
			"componentType":5123,
			"count":60,
			"type":"SCALAR"
		},
		{
			"bufferView":113,
			"componentType":5126,
			"count":29,
			"max":[
				1.0430985689163208,
				0.830733060836792,
				1.043101191520691
			],
			"min":[
				-1.0656328201293945,
				-1.1080598831176758,
				-1.0589944124221802
			],
			"type":"VEC3"
		},
		{
			"bufferView":114,
			"componentType":5126,
			"count":29,
			"type":"VEC3"
		},
		{
			"bufferView":115,
			"componentType":5126,
			"count":29,
			"type":"VEC2"
		},
		{
			"bufferView":116,
			"componentType":5123,
			"count":60,
			"type":"SCALAR"
		},
		{
			"bufferView":117,
			"componentType":5126,
			"count":30,
			"max":[
				0.7895822525024414,
				0.7697941064834595,
				1.0569578409194946
			],
			"min":[
				-0.9498468041419983,
				-0.9702290296554565,
				-0.8558554649353027
			],
			"type":"VEC3"
		},
		{
			"bufferView":118,
			"componentType":5126,
			"count":30,
			"type":"VEC3"
		},
		{
			"bufferView":119,
			"componentType":5126,
			"count":30,
			"type":"VEC2"
		},
		{
			"bufferView":120,
			"componentType":5123,
			"count":60,
			"type":"SCALAR"
		},
		{
			"bufferView":121,
			"componentType":5126,
			"count":32,
			"max":[
				1.0293172597885132,
				0.7918712496757507,
				0.9358824491500854
			],
			"min":[
				-0.8821964859962463,
				-1.2095857858657837,
				-0.907820463180542
			],
			"type":"VEC3"
		},
		{
			"bufferView":122,
			"componentType":5126,
			"count":32,
			"type":"VEC3"
		},
		{
			"bufferView":123,
			"componentType":5126,
			"count":32,
			"type":"VEC2"
		},
		{
			"bufferView":124,
			"componentType":5123,
			"count":60,
			"type":"SCALAR"
		},
		{
			"bufferView":125,
			"componentType":5126,
			"count":1607,
			"max":[
				0.10422956198453903,
				0.2590640187263489,
				0.04523873329162598
			],
			"min":[
				-0.10425744950771332,
				-0.7465572357177734,
				-0.04523841291666031
			],
			"type":"VEC3"
		},
		{
			"bufferView":126,
			"componentType":5126,
			"count":1607,
			"type":"VEC3"
		},
		{
			"bufferView":127,
			"componentType":5126,
			"count":1607,
			"type":"VEC2"
		},
		{
			"bufferView":128,
			"componentType":5123,
			"count":7788,
			"type":"SCALAR"
		},
		{
			"bufferView":129,
			"componentType":5126,
			"count":8698,
			"max":[
				0.08405742049217224,
				0.5977030396461487,
				0.022568460553884506
			],
			"min":[
				-0.08405739068984985,
				-0.5032017230987549,
				-0.022995803505182266
			],
			"type":"VEC3"
		},
		{
			"bufferView":130,
			"componentType":5126,
			"count":8698,
			"type":"VEC3"
		},
		{
			"bufferView":131,
			"componentType":5126,
			"count":8698,
			"type":"VEC2"
		},
		{
			"bufferView":132,
			"componentType":5123,
			"count":34308,
			"type":"SCALAR"
		}
	],
	"bufferViews":[
		{
			"buffer":0,
			"byteLength":139176,
			"byteOffset":0,
			"target":34962
		},
		{
			"buffer":0,
			"byteLength":139176,
			"byteOffset":139176,
			"target":34962
		},
		{
			"buffer":0,
			"byteLength":92784,
			"byteOffset":278352,
			"target":34962
		},
		{
			"buffer":0,
			"byteLength":67104,
			"byteOffset":371136,
			"target":34963
		},
		{
			"buffer":0,
			"byteLength":140928,
			"byteOffset":438240,
			"target":34962
		},
		{
			"buffer":0,
			"byteLength":140928,
			"byteOffset":579168,
			"target":34962
		},
		{
			"buffer":0,
			"byteLength":93952,
			"byteOffset":720096,
			"target":34962
		},
		{
			"buffer":0,
			"byteLength":67668,
			"byteOffset":814048,
			"target":34963
		},
		{
			"buffer":0,
			"byteLength":43272,
			"byteOffset":881716,
			"target":34962
		},
		{
			"buffer":0,
			"byteLength":43272,
			"byteOffset":924988,
			"target":34962
		},
		{
			"buffer":0,
			"byteLength":28848,
			"byteOffset":968260,
			"target":34962
		},
		{
			"buffer":0,
			"byteLength":26904,
			"byteOffset":997108,
			"target":34963
		},
		{
			"buffer":0,
			"byteLength":4620,
			"byteOffset":1024012,
			"target":34962
		},
		{
			"buffer":0,
			"byteLength":4620,
			"byteOffset":1028632,
			"target":34962
		},
		{
			"buffer":0,
			"byteLength":3080,
			"byteOffset":1033252,
			"target":34962
		},
		{
			"buffer":0,
			"byteLength":3792,
			"byteOffset":1036332,
			"target":34963
		},
		{
			"buffer":0,
			"byteLength":44772,
			"byteOffset":1040124,
			"target":34962
		},
		{
			"buffer":0,
			"byteLength":44772,
			"byteOffset":1084896,
			"target":34962
		},
		{
			"buffer":0,
			"byteLength":29848,
			"byteOffset":1129668,
			"target":34962
		},
		{
			"buffer":0,
			"byteLength":33048,
			"byteOffset":1159516,
			"target":34963
		},
		{
			"buffer":0,
			"byteLength":4608,
			"byteOffset":1192564,
			"target":34962
		},
		{
			"buffer":0,
			"byteLength":4608,
			"byteOffset":1197172,
			"target":34962
		},
		{
			"buffer":0,
			"byteLength":3072,
			"byteOffset":1201780,
			"target":34962
		},
		{
			"buffer":0,
			"byteLength":2256,
			"byteOffset":1204852,
			"target":34963
		},
		{
			"buffer":0,
			"byteLength":7464,
			"byteOffset":1207108,
			"target":34962
		},
		{
			"buffer":0,
			"byteLength":7464,
			"byteOffset":1214572,
			"target":34962
		},
		{
			"buffer":0,
			"byteLength":4976,
			"byteOffset":1222036,
			"target":34962
		},
		{
			"buffer":0,
			"byteLength":4152,
			"byteOffset":1227012,
			"target":34963
		},
		{
			"buffer":0,
			"byteLength":44772,
			"byteOffset":1231164,
			"target":34962
		},
		{
			"buffer":0,
			"byteLength":44772,
			"byteOffset":1275936,
			"target":34962
		},
		{
			"buffer":0,
			"byteLength":29848,
			"byteOffset":1320708,
			"target":34962
		},
		{
			"buffer":0,
			"byteLength":4608,
			"byteOffset":1350556,
			"target":34962
		},
		{
			"buffer":0,
			"byteLength":4608,
			"byteOffset":1355164,
			"target":34962
		},
		{
			"buffer":0,
			"byteLength":3072,
			"byteOffset":1359772,
			"target":34962
		},
		{
			"buffer":0,
			"byteLength":7464,
			"byteOffset":1362844,
			"target":34962
		},
		{
			"buffer":0,
			"byteLength":7464,
			"byteOffset":1370308,
			"target":34962
		},
		{
			"buffer":0,
			"byteLength":4976,
			"byteOffset":1377772,
			"target":34962
		},
		{
			"buffer":0,
			"byteLength":42684,
			"byteOffset":1382748,
			"target":34962
		},
		{
			"buffer":0,
			"byteLength":42684,
			"byteOffset":1425432,
			"target":34962
		},
		{
			"buffer":0,
			"byteLength":28456,
			"byteOffset":1468116,
			"target":34962
		},
		{
			"buffer":0,
			"byteLength":35136,
			"byteOffset":1496572,
			"target":34963
		},
		{
			"buffer":0,
			"byteLength":192,
			"byteOffset":1531708,
			"target":34962
		},
		{
			"buffer":0,
			"byteLength":192,
			"byteOffset":1531900,
			"target":34962
		},
		{
			"buffer":0,
			"byteLength":128,
			"byteOffset":1532092,
			"target":34962
		},
		{
			"buffer":0,
			"byteLength":48,
			"byteOffset":1532220,
			"target":34963
		},
		{
			"buffer":0,
			"byteLength":10728,
			"byteOffset":1532268,
			"target":34962
		},
		{
			"buffer":0,
			"byteLength":10728,
			"byteOffset":1542996,
			"target":34962
		},
		{
			"buffer":0,
			"byteLength":7152,
			"byteOffset":1553724,
			"target":34962
		},
		{
			"buffer":0,
			"byteLength":8064,
			"byteOffset":1560876,
			"target":34963
		},
		{
			"buffer":0,
			"byteLength":2592,
			"byteOffset":1568940,
			"target":34962
		},
		{
			"buffer":0,
			"byteLength":2592,
			"byteOffset":1571532,
			"target":34962
		},
		{
			"buffer":0,
			"byteLength":1728,
			"byteOffset":1574124,
			"target":34962
		},
		{
			"buffer":0,
			"byteLength":648,
			"byteOffset":1575852,
			"target":34963
		},
		{
			"buffer":0,
			"byteLength":372,
			"byteOffset":1576500,
			"target":34962
		},
		{
			"buffer":0,
			"byteLength":372,
			"byteOffset":1576872,
			"target":34962
		},
		{
			"buffer":0,
			"byteLength":248,
			"byteOffset":1577244,
			"target":34962
		},
		{
			"buffer":0,
			"byteLength":120,
			"byteOffset":1577492,
			"target":34963
		},
		{
			"buffer":0,
			"byteLength":372,
			"byteOffset":1577612,
			"target":34962
		},
		{
			"buffer":0,
			"byteLength":372,
			"byteOffset":1577984,
			"target":34962
		},
		{
			"buffer":0,
			"byteLength":248,
			"byteOffset":1578356,
			"target":34962
		},
		{
			"buffer":0,
			"byteLength":120,
			"byteOffset":1578604,
			"target":34963
		},
		{
			"buffer":0,
			"byteLength":360,
			"byteOffset":1578724,
			"target":34962
		},
		{
			"buffer":0,
			"byteLength":360,
			"byteOffset":1579084,
			"target":34962
		},
		{
			"buffer":0,
			"byteLength":240,
			"byteOffset":1579444,
			"target":34962
		},
		{
			"buffer":0,
			"byteLength":120,
			"byteOffset":1579684,
			"target":34963
		},
		{
			"buffer":0,
			"byteLength":372,
			"byteOffset":1579804,
			"target":34962
		},
		{
			"buffer":0,
			"byteLength":372,
			"byteOffset":1580176,
			"target":34962
		},
		{
			"buffer":0,
			"byteLength":248,
			"byteOffset":1580548,
			"target":34962
		},
		{
			"buffer":0,
			"byteLength":120,
			"byteOffset":1580796,
			"target":34963
		},
		{
			"buffer":0,
			"byteLength":360,
			"byteOffset":1580916,
			"target":34962
		},
		{
			"buffer":0,
			"byteLength":360,
			"byteOffset":1581276,
			"target":34962
		},
		{
			"buffer":0,
			"byteLength":240,
			"byteOffset":1581636,
			"target":34962
		},
		{
			"buffer":0,
			"byteLength":120,
			"byteOffset":1581876,
			"target":34963
		},
		{
			"buffer":0,
			"byteLength":384,
			"byteOffset":1581996,
			"target":34962
		},
		{
			"buffer":0,
			"byteLength":384,
			"byteOffset":1582380,
			"target":34962
		},
		{
			"buffer":0,
			"byteLength":256,
			"byteOffset":1582764,
			"target":34962
		},
		{
			"buffer":0,
			"byteLength":120,
			"byteOffset":1583020,
			"target":34963
		},
		{
			"buffer":0,
			"byteLength":348,
			"byteOffset":1583140,
			"target":34962
		},
		{
			"buffer":0,
			"byteLength":348,
			"byteOffset":1583488,
			"target":34962
		},
		{
			"buffer":0,
			"byteLength":232,
			"byteOffset":1583836,
			"target":34962
		},
		{
			"buffer":0,
			"byteLength":120,
			"byteOffset":1584068,
			"target":34963
		},
		{
			"buffer":0,
			"byteLength":384,
			"byteOffset":1584188,
			"target":34962
		},
		{
			"buffer":0,
			"byteLength":384,
			"byteOffset":1584572,
			"target":34962
		},
		{
			"buffer":0,
			"byteLength":256,
			"byteOffset":1584956,
			"target":34962
		},
		{
			"buffer":0,
			"byteLength":120,
			"byteOffset":1585212,
			"target":34963
		},
		{
			"buffer":0,
			"byteLength":264,
			"byteOffset":1585332,
			"target":34962
		},
		{
			"buffer":0,
			"byteLength":264,
			"byteOffset":1585596,
			"target":34962
		},
		{
			"buffer":0,
			"byteLength":176,
			"byteOffset":1585860,
			"target":34962
		},
		{
			"buffer":0,
			"byteLength":120,
			"byteOffset":1586036,
			"target":34963
		},
		{
			"buffer":0,
			"byteLength":360,
			"byteOffset":1586156,
			"target":34962
		},
		{
			"buffer":0,
			"byteLength":360,
			"byteOffset":1586516,
			"target":34962
		},
		{
			"buffer":0,
			"byteLength":240,
			"byteOffset":1586876,
			"target":34962
		},
		{
			"buffer":0,
			"byteLength":120,
			"byteOffset":1587116,
			"target":34963
		},
		{
			"buffer":0,
			"byteLength":360,
			"byteOffset":1587236,
			"target":34962
		},
		{
			"buffer":0,
			"byteLength":360,
			"byteOffset":1587596,
			"target":34962
		},
		{
			"buffer":0,
			"byteLength":240,
			"byteOffset":1587956,
			"target":34962
		},
		{
			"buffer":0,
			"byteLength":120,
			"byteOffset":1588196,
			"target":34963
		},
		{
			"buffer":0,
			"byteLength":300,
			"byteOffset":1588316,
			"target":34962
		},
		{
			"buffer":0,
			"byteLength":300,
			"byteOffset":1588616,
			"target":34962
		},
		{
			"buffer":0,
			"byteLength":200,
			"byteOffset":1588916,
			"target":34962
		},
		{
			"buffer":0,
			"byteLength":120,
			"byteOffset":1589116,
			"target":34963
		},
		{
			"buffer":0,
			"byteLength":360,
			"byteOffset":1589236,
			"target":34962
		},
		{
			"buffer":0,
			"byteLength":360,
			"byteOffset":1589596,
			"target":34962
		},
		{
			"buffer":0,
			"byteLength":240,
			"byteOffset":1589956,
			"target":34962
		},
		{
			"buffer":0,
			"byteLength":120,
			"byteOffset":1590196,
			"target":34963
		},
		{
			"buffer":0,
			"byteLength":372,
			"byteOffset":1590316,
			"target":34962
		},
		{
			"buffer":0,
			"byteLength":372,
			"byteOffset":1590688,
			"target":34962
		},
		{
			"buffer":0,
			"byteLength":248,
			"byteOffset":1591060,
			"target":34962
		},
		{
			"buffer":0,
			"byteLength":120,
			"byteOffset":1591308,
			"target":34963
		},
		{
			"buffer":0,
			"byteLength":372,
			"byteOffset":1591428,
			"target":34962
		},
		{
			"buffer":0,
			"byteLength":372,
			"byteOffset":1591800,
			"target":34962
		},
		{
			"buffer":0,
			"byteLength":248,
			"byteOffset":1592172,
			"target":34962
		},
		{
			"buffer":0,
			"byteLength":120,
			"byteOffset":1592420,
			"target":34963
		},
		{
			"buffer":0,
			"byteLength":348,
			"byteOffset":1592540,
			"target":34962
		},
		{
			"buffer":0,
			"byteLength":348,
			"byteOffset":1592888,
			"target":34962
		},
		{
			"buffer":0,
			"byteLength":232,
			"byteOffset":1593236,
			"target":34962
		},
		{
			"buffer":0,
			"byteLength":120,
			"byteOffset":1593468,
			"target":34963
		},
		{
			"buffer":0,
			"byteLength":360,
			"byteOffset":1593588,
			"target":34962
		},
		{
			"buffer":0,
			"byteLength":360,
			"byteOffset":1593948,
			"target":34962
		},
		{
			"buffer":0,
			"byteLength":240,
			"byteOffset":1594308,
			"target":34962
		},
		{
			"buffer":0,
			"byteLength":120,
			"byteOffset":1594548,
			"target":34963
		},
		{
			"buffer":0,
			"byteLength":384,
			"byteOffset":1594668,
			"target":34962
		},
		{
			"buffer":0,
			"byteLength":384,
			"byteOffset":1595052,
			"target":34962
		},
		{
			"buffer":0,
			"byteLength":256,
			"byteOffset":1595436,
			"target":34962
		},
		{
			"buffer":0,
			"byteLength":120,
			"byteOffset":1595692,
			"target":34963
		},
		{
			"buffer":0,
			"byteLength":19284,
			"byteOffset":1595812,
			"target":34962
		},
		{
			"buffer":0,
			"byteLength":19284,
			"byteOffset":1615096,
			"target":34962
		},
		{
			"buffer":0,
			"byteLength":12856,
			"byteOffset":1634380,
			"target":34962
		},
		{
			"buffer":0,
			"byteLength":15576,
			"byteOffset":1647236,
			"target":34963
		},
		{
			"buffer":0,
			"byteLength":104376,
			"byteOffset":1662812,
			"target":34962
		},
		{
			"buffer":0,
			"byteLength":104376,
			"byteOffset":1767188,
			"target":34962
		},
		{
			"buffer":0,
			"byteLength":69584,
			"byteOffset":1871564,
			"target":34962
		},
		{
			"buffer":0,
			"byteLength":68616,
			"byteOffset":1941148,
			"target":34963
		}
	],
	"samplers":[
		{
			"magFilter":9729,
			"minFilter":9987
		}
	],
	"buffers":[
		{
			"byteLength":2009764,
			"uri":"mine_props.bin"
		}
	]
}
