{"asset":{"generator":"Khronos glTF Blender I/O v5.2.39","version":"2.0"},"scene":0,"scenes":[{"name":"Scene","nodes":[0,1,2,3,4,5,6,7,8,9,10,11,12,13,14,15,16,17,18,19,20,21,22]}],"nodes":[{"mesh":0,"name":"COL_room_1_corner_0-convcolonly","rotation":[0,0.9238795638084412,0,0.3826834559440613],"translation":[3.002000093460083,2.799999952316284,-3.002000093460083]},{"mesh":1,"name":"COL_room_1_corner_1-convcolonly","rotation":[0,-0.9238795638084412,0,0.3826833963394165],"translation":[-3.002000093460083,2.799999952316284,-3.002000093460083]},{"mesh":2,"name":"COL_room_1_corner_2-convcolonly","rotation":[0,-0.3826834559440613,0,0.9238795638084412],"translation":[-3.002000093460083,2.799999952316284,3.002000093460083]},{"mesh":3,"name":"COL_room_1_corner_3-convcolonly","rotation":[0,0.3826834559440613,0,0.9238795638084412],"translation":[3.002000093460083,2.799999952316284,3.002000093460083]},{"mesh":4,"name":"COL_room_1_floor-convcolonly"},{"mesh":5,"name":"COL_room_1_lintel-convcolonly","translation":[0,4.5,3.3499999046325684]},{"mesh":6,"name":"COL_room_1_wall_E-convcolonly","translation":[3.3499999046325684,2.799999952316284,0]},{"mesh":7,"name":"COL_room_1_wall_N-convcolonly","translation":[0,2.799999952316284,-3.3499999046325684]},{"mesh":8,"name":"COL_room_1_wall_S0-convcolonly","translation":[-2.0250000953674316,2.799999952316284,3.3499999046325684]},{"mesh":9,"name":"COL_room_1_wall_S1-convcolonly","translation":[2.0250000953674316,2.799999952316284,3.3499999046325684]},{"mesh":10,"name":"COL_room_1_wall_W-convcolonly","translation":[-3.3499999046325684,2.799999952316284,0]},{"mesh":11,"name":"PRP_room_1_rock_0","rotation":[0.6527425050735474,0.6527425050735474,0.1169331818819046,0.3663075268268585],"scale":[0.052036069333553314,0.04934811219573021,0.09441345930099487],"translation":[0.11416114121675491,0.025551898404955864,-1.6764335632324219]},{"mesh":12,"name":"PRP_room_1_rock_1","rotation":[0.07118063420057297,0.07118063420057297,-0.08320705592632294,0.9914349317550659],"scale":[0.1571667194366455,0.08406700193881989,0.12027297914028168],"translation":[-0.6676697731018066,0.0424221009016037,-0.051279157400131226]},{"mesh":13,"name":"PRP_room_1_rock_2","rotation":[-0.12507747113704681,-0.12507747113704681,-0.6435965895652771,0.7446439862251282],"scale":[0.04114467650651932,0.030892204493284225,0.05679915100336075],"translation":[0.3481431007385254,0.0184966791421175,0.5743066072463989]},{"mesh":14,"name":"PRP_room_1_rock_3","rotation":[-0.19244807958602905,-0.19244807958602905,-0.4289664924144745,0.8613451719284058],"scale":[0.09132102876901627,0.07952296733856201,0.16020260751247406],"translation":[-0.18272839486598969,0.043304163962602615,1.2488517761230469]},{"mesh":15,"name":"PRP_room_1_rock_4","rotation":[0.18384338915348053,0.18384338915348053,-0.5160921216011047,0.8161202073097229],"scale":[0.07552392035722733,0.06468966603279114,0.12984411418437958],"translation":[-0.7080458402633667,0.035566091537475586,0.4134446382522583]},{"mesh":16,"name":"PRP_room_1_rock_5","rotation":[0.09517594426870346,0.09517595171928406,-0.6726490259170532,0.7276169061660767],"scale":[0.10191504657268524,0.05470626428723335,0.09113717079162598],"translation":[0.64027339220047,0.028923574835062027,0.8497498631477356]},{"mesh":17,"name":"PRP_room_1_rock_6","rotation":[-0.17962931096553802,-0.17962931096553802,-0.5338841676712036,0.8064951300621033],"scale":[0.08399570733308792,0.06647142767906189,0.10982757061719894],"translation":[0.36274465918540955,0.029976336285471916,2.6127429008483887]},{"mesh":18,"name":"PRP_room_1_rock_7","rotation":[0.005247543565928936,0.005247543565928936,0.005193038377910852,0.9999589920043945],"scale":[0.08730076253414154,0.06006496027112007,0.09710239619016647],"translation":[2.1391642093658447,0.04021795466542244,1.150132656097412]},{"mesh":19,"name":"SHL_room_1"},{"name":"SLOT_Pocket_room_1_0","translation":[3.4256176948547363,1.899999976158142,-1.3562979698181152]},{"name":"SLOT_Pocket_room_1_1","translation":[0,1.899999976158142,-3.419999837875366]},{"name":"SLOT_Pocket_room_1_2","translation":[-3.4256176948547363,1.899999976158142,-1.3562979698181152]}],"materials":[{"doubleSided":true,"name":"MAT_Rock_EXPORT","normalTexture":{"index":0},"pbrMetallicRoughness":{"baseColorTexture":{"index":1},"metallicFactor":0,"metallicRoughnessTexture":{"index":2}}},{"doubleSided":true,"name":"MAT_RockWall_EXPORT","normalTexture":{"index":3},"pbrMetallicRoughness":{"baseColorTexture":{"index":4},"metallicFactor":0,"metallicRoughnessTexture":{"index":5}}},{"doubleSided":true,"name":"MAT_Floor_EXPORT","normalTexture":{"index":6},"pbrMetallicRoughness":{"baseColorTexture":{"index":7},"metallicFactor":0,"metallicRoughnessTexture":{"index":8}}}],"meshes":[{"name":"COL_room_1_corner_0-convcolonly","primitives":[{"attributes":{"POSITION":0,"NORMAL":1},"indices":2}]},{"name":"COL_room_1_corner_1-convcolonly","primitives":[{"attributes":{"POSITION":3,"NORMAL":4},"indices":2}]},{"name":"COL_room_1_corner_2-convcolonly","primitives":[{"attributes":{"POSITION":5,"NORMAL":6},"indices":2}]},{"name":"COL_room_1_corner_3-convcolonly","primitives":[{"attributes":{"POSITION":7,"NORMAL":8},"indices":2}]},{"name":"COL_room_1_floor-convcolonly","primitives":[{"attributes":{"POSITION":9,"NORMAL":10},"indices":11}]},{"name":"COL_room_1_lintel-convcolonly","primitives":[{"attributes":{"POSITION":12,"NORMAL":13},"indices":2}]},{"name":"COL_room_1_wall_E-convcolonly","primitives":[{"attributes":{"POSITION":14,"NORMAL":15},"indices":2}]},{"name":"COL_room_1_wall_N-convcolonly","primitives":[{"attributes":{"POSITION":16,"NORMAL":17},"indices":2}]},{"name":"COL_room_1_wall_S0-convcolonly","primitives":[{"attributes":{"POSITION":18,"NORMAL":19},"indices":2}]},{"name":"COL_room_1_wall_S1-convcolonly","primitives":[{"attributes":{"POSITION":20,"NORMAL":21},"indices":2}]},{"name":"COL_room_1_wall_W-convcolonly","primitives":[{"attributes":{"POSITION":22,"NORMAL":23},"indices":2}]},{"name":"PRP_room_1_rock_0","primitives":[{"attributes":{"POSITION":24,"NORMAL":25,"TEXCOORD_0":26},"indices":27,"material":0}]},{"name":"PRP_room_1_rock_1","primitives":[{"attributes":{"POSITION":28,"NORMAL":29,"TEXCOORD_0":30},"indices":31,"material":0}]},{"name":"PRP_room_1_rock_2","primitives":[{"attributes":{"POSITION":32,"NORMAL":33,"TEXCOORD_0":34},"indices":35,"material":0}]},{"name":"PRP_room_1_rock_3","primitives":[{"attributes":{"POSITION":36,"NORMAL":37,"TEXCOORD_0":38},"indices":39,"material":0}]},{"name":"PRP_room_1_rock_4","primitives":[{"attributes":{"POSITION":40,"NORMAL":41,"TEXCOORD_0":42},"indices":43,"material":0}]},{"name":"PRP_room_1_rock_5","primitives":[{"attributes":{"POSITION":44,"NORMAL":45,"TEXCOORD_0":46},"indices":47,"material":0}]},{"name":"PRP_room_1_rock_6","primitives":[{"attributes":{"POSITION":48,"NORMAL":49,"TEXCOORD_0":50},"indices":51,"material":0}]},{"name":"PRP_room_1_rock_7","primitives":[{"attributes":{"POSITION":52,"NORMAL":53,"TEXCOORD_0":54},"indices":55,"material":0}]},{"name":"SHL_room_1","primitives":[{"attributes":{"POSITION":56,"NORMAL":57,"TEXCOORD_0":58},"indices":59,"material":1},{"attributes":{"POSITION":60,"NORMAL":61,"TEXCOORD_0":62},"indices":63,"material":2}]}],"textures":[{"sampler":0,"source":0},{"sampler":0,"source":1},{"sampler":0,"source":2},{"sampler":0,"source":3},{"sampler":0,"source":4},{"sampler":0,"source":5},{"sampler":0,"source":6},{"sampler":0,"source":7},{"sampler":0,"source":8}],"images":[{"mimeType":"image/jpeg","name":"dark_rock_02_nor_gl","uri":"textures/dark_rock_02_nor_gl.jpg"},{"mimeType":"image/jpeg","name":"dark_rock_02_Diffuse","uri":"textures/dark_rock_02_Diffuse.jpg"},{"mimeType":"image/jpeg","name":"dark_rock_02_Rough","uri":"textures/dark_rock_02_Rough.jpg"},{"mimeType":"image/jpeg","name":"dark_rock_nor_gl","uri":"textures/rock_face_04_nor_gl.jpg"},{"mimeType":"image/jpeg","name":"dark_rock_Diffuse","uri":"textures/rock_face_04_Diffuse.jpg"},{"mimeType":"image/jpeg","name":"dark_rock_Rough","uri":"textures/rock_face_04_Rough.jpg"},{"mimeType":"image/jpeg","name":"brown_mud_rocks_01_nor_gl","uri":"textures/brown_mud_rocks_01_nor_gl.jpg"},{"mimeType":"image/jpeg","name":"brown_mud_rocks_01_Diffuse","uri":"textures/brown_mud_rocks_01_Diffuse.jpg"},{"mimeType":"image/jpeg","name":"brown_mud_rocks_01_Rough","uri":"textures/brown_mud_rocks_01_Rough.jpg"}],"accessors":[{"bufferView":0,"componentType":5126,"count":24,"max":[0.15000000596046448,2.799999952316284,0.8999999761581421],"min":[-0.15000000596046448,-2.799999952316284,-0.8999999761581421],"type":"VEC3"},{"bufferView":1,"componentType":5126,"count":24,"type":"VEC3"},{"bufferView":2,"componentType":5123,"count":36,"type":"SCALAR"},{"bufferView":3,"componentType":5126,"count":24,"max":[0.15000000596046448,2.799999952316284,0.8999999761581421],"min":[-0.15000000596046448,-2.799999952316284,-0.8999999761581421],"type":"VEC3"},{"bufferView":4,"componentType":5126,"count":24,"type":"VEC3"},{"bufferView":5,"componentType":5126,"count":24,"max":[0.15000000596046448,2.799999952316284,0.8999999761581421],"min":[-0.15000000596046448,-2.799999952316284,-0.8999999761581421],"type":"VEC3"},{"bufferView":6,"componentType":5126,"count":24,"type":"VEC3"},{"bufferView":7,"componentType":5126,"count":24,"max":[0.15000000596046448,2.799999952316284,0.8999999761581421],"min":[-0.15000000596046448,-2.799999952316284,-0.8999999761581421],"type":"VEC3"},{"bufferView":8,"componentType":5126,"count":24,"type":"VEC3"},{"bufferView":9,"componentType":5126,"count":172,"max":[3.5,0,3.5],"min":[-3.5,-0.5,-3.5],"type":"VEC3"},{"bufferView":10,"componentType":5126,"count":172,"type":"VEC3"},{"bufferView":11,"componentType":5123,"count":384,"type":"SCALAR"},{"bufferView":12,"componentType":5126,"count":24,"max":[1.850000023841858,1.5,0.15000000596046448],"min":[-1.850000023841858,-1.5,-0.15000000596046448],"type":"VEC3"},{"bufferView":13,"componentType":5126,"count":24,"type":"VEC3"},{"bufferView":14,"componentType":5126,"count":24,"max":[0.15000000596046448,2.799999952316284,2.299999952316284],"min":[-0.15000000596046448,-2.799999952316284,-2.299999952316284],"type":"VEC3"},{"bufferView":15,"componentType":5126,"count":24,"type":"VEC3"},{"bufferView":16,"componentType":5126,"count":24,"max":[2.299999952316284,2.799999952316284,0.15000000596046448],"min":[-2.299999952316284,-2.799999952316284,-0.15000000596046448],"type":"VEC3"},{"bufferView":17,"componentType":5126,"count":24,"type":"VEC3"},{"bufferView":18,"componentType":5126,"count":24,"max":[0.2750000059604645,2.799999952316284,0.15000000596046448],"min":[-0.2750000059604645,-2.799999952316284,-0.15000000596046448],"type":"VEC3"},{"bufferView":19,"componentType":5126,"count":24,"type":"VEC3"},{"bufferView":20,"componentType":5126,"count":24,"max":[0.2750000059604645,2.799999952316284,0.15000000596046448],"min":[-0.2750000059604645,-2.799999952316284,-0.15000000596046448],"type":"VEC3"},{"bufferView":21,"componentType":5126,"count":24,"type":"VEC3"},{"bufferView":22,"componentType":5126,"count":24,"max":[0.15000000596046448,2.799999952316284,2.299999952316284],"min":[-0.15000000596046448,-2.799999952316284,-2.299999952316284],"type":"VEC3"},{"bufferView":23,"componentType":5126,"count":24,"type":"VEC3"},{"bufferView":24,"componentType":5126,"count":30,"max":[0.779245138168335,0.9271770715713501,0.8459563255310059],"min":[-1.0359880924224854,-1.0123543739318848,-1.0251203775405884],"type":"VEC3"},{"bufferView":25,"componentType":5126,"count":30,"type":"VEC3"},{"bufferView":26,"componentType":5126,"count":30,"type":"VEC2"},{"bufferView":27,"componentType":5123,"count":60,"type":"SCALAR"},{"bufferView":28,"componentType":5126,"count":30,"max":[0.8452407717704773,0.9720445275306702,1.0339972972869873],"min":[-1.0615684986114502,-0.8792109489440918,-0.96183842420578],"type":"VEC3"},{"bufferView":29,"componentType":5126,"count":30,"type":"VEC3"},{"bufferView":30,"componentType":5126,"count":30,"type":"VEC2"},{"bufferView":31,"componentType":5123,"count":60,"type":"SCALAR"},{"bufferView":32,"componentType":5126,"count":30,"max":[0.8322321772575378,1.0141297578811646,0.893157958984375],"min":[-1.0478006601333618,-1.0602104663848877,-1.0494917631149292],"type":"VEC3"},{"bufferView":33,"componentType":5126,"count":30,"type":"VEC3"},{"bufferView":34,"componentType":5126,"count":30,"type":"VEC2"},{"bufferView":35,"componentType":5123,"count":60,"type":"SCALAR"},{"bufferView":36,"componentType":5126,"count":30,"max":[0.9959258437156677,0.8218255043029785,0.771682620048523],"min":[-0.8597390651702881,-0.9842026829719543,-0.9063041806221008],"type":"VEC3"},{"bufferView":37,"componentType":5126,"count":30,"type":"VEC3"},{"bufferView":38,"componentType":5126,"count":30,"type":"VEC2"},{"bufferView":39,"componentType":5123,"count":60,"type":"SCALAR"},{"bufferView":40,"componentType":5126,"count":30,"max":[0.8737683296203613,1.1483502388000488,1.0218925476074219],"min":[-0.8292112946510315,-1.0993046760559082,-0.9752780199050903],"type":"VEC3"},{"bufferView":41,"componentType":5126,"count":30,"type":"VEC3"},{"bufferView":42,"componentType":5126,"count":30,"type":"VEC2"},{"bufferView":43,"componentType":5123,"count":60,"type":"SCALAR"},{"bufferView":44,"componentType":5126,"count":26,"max":[1.1165258884429932,0.825404942035675,0.9708219766616821],"min":[-0.9857571125030518,-1.1864309310913086,-0.9821579456329346],"type":"VEC3"},{"bufferView":45,"componentType":5126,"count":26,"type":"VEC3"},{"bufferView":46,"componentType":5126,"count":26,"type":"VEC2"},{"bufferView":47,"componentType":5123,"count":60,"type":"SCALAR"},{"bufferView":48,"componentType":5126,"count":30,"max":[0.9324036240577698,0.9021186232566833,1.0487637519836426],"min":[-0.7835687398910522,-1.0433964729309082,-1.031308650970459],"type":"VEC3"},{"bufferView":49,"componentType":5126,"count":30,"type":"VEC3"},{"bufferView":50,"componentType":5126,"count":30,"type":"VEC2"},{"bufferView":51,"componentType":5123,"count":60,"type":"SCALAR"},{"bufferView":52,"componentType":5126,"count":30,"max":[1.0701076984405518,0.8913176655769348,1.0198049545288086],"min":[-0.9152136445045471,-0.9096286296844482,-0.9605828523635864],"type":"VEC3"},{"bufferView":53,"componentType":5126,"count":30,"type":"VEC3"},{"bufferView":54,"componentType":5126,"count":30,"type":"VEC2"},{"bufferView":55,"componentType":5123,"count":60,"type":"SCALAR"},{"bufferView":56,"componentType":5126,"count":1794,"max":[3.5,5.490602493286133,3.5],"min":[-3.5,0,-3.5],"type":"VEC3"},{"bufferView":57,"componentType":5126,"count":1794,"type":"VEC3"},{"bufferView":58,"componentType":5126,"count":1794,"type":"VEC2"},{"bufferView":59,"componentType":5123,"count":9615,"type":"SCALAR"},{"bufferView":60,"componentType":5126,"count":571,"max":[3.5,0.051844675093889236,3.5],"min":[-3.5,0,-3.5],"type":"VEC3"},{"bufferView":61,"componentType":5126,"count":571,"type":"VEC3"},{"bufferView":62,"componentType":5126,"count":571,"type":"VEC2"},{"bufferView":63,"componentType":5123,"count":3135,"type":"SCALAR"}],"bufferViews":[{"buffer":0,"byteLength":288,"byteOffset":0,"target":34962},{"buffer":0,"byteLength":288,"byteOffset":288,"target":34962},{"buffer":0,"byteLength":72,"byteOffset":576,"target":34963},{"buffer":0,"byteLength":288,"byteOffset":648,"target":34962},{"buffer":0,"byteLength":288,"byteOffset":936,"target":34962},{"buffer":0,"byteLength":288,"byteOffset":1224,"target":34962},{"buffer":0,"byteLength":288,"byteOffset":1512,"target":34962},{"buffer":0,"byteLength":288,"byteOffset":1800,"target":34962},{"buffer":0,"byteLength":288,"byteOffset":2088,"target":34962},{"buffer":0,"byteLength":2064,"byteOffset":2376,"target":34962},{"buffer":0,"byteLength":2064,"byteOffset":4440,"target":34962},{"buffer":0,"byteLength":768,"byteOffset":6504,"target":34963},{"buffer":0,"byteLength":288,"byteOffset":7272,"target":34962},{"buffer":0,"byteLength":288,"byteOffset":7560,"target":34962},{"buffer":0,"byteLength":288,"byteOffset":7848,"target":34962},{"buffer":0,"byteLength":288,"byteOffset":8136,"target":34962},{"buffer":0,"byteLength":288,"byteOffset":8424,"target":34962},{"buffer":0,"byteLength":288,"byteOffset":8712,"target":34962},{"buffer":0,"byteLength":288,"byteOffset":9000,"target":34962},{"buffer":0,"byteLength":288,"byteOffset":9288,"target":34962},{"buffer":0,"byteLength":288,"byteOffset":9576,"target":34962},{"buffer":0,"byteLength":288,"byteOffset":9864,"target":34962},{"buffer":0,"byteLength":288,"byteOffset":10152,"target":34962},{"buffer":0,"byteLength":288,"byteOffset":10440,"target":34962},{"buffer":0,"byteLength":360,"byteOffset":10728,"target":34962},{"buffer":0,"byteLength":360,"byteOffset":11088,"target":34962},{"buffer":0,"byteLength":240,"byteOffset":11448,"target":34962},{"buffer":0,"byteLength":120,"byteOffset":11688,"target":34963},{"buffer":0,"byteLength":360,"byteOffset":11808,"target":34962},{"buffer":0,"byteLength":360,"byteOffset":12168,"target":34962},{"buffer":0,"byteLength":240,"byteOffset":12528,"target":34962},{"buffer":0,"byteLength":120,"byteOffset":12768,"target":34963},{"buffer":0,"byteLength":360,"byteOffset":12888,"target":34962},{"buffer":0,"byteLength":360,"byteOffset":13248,"target":34962},{"buffer":0,"byteLength":240,"byteOffset":13608,"target":34962},{"buffer":0,"byteLength":120,"byteOffset":13848,"target":34963},{"buffer":0,"byteLength":360,"byteOffset":13968,"target":34962},{"buffer":0,"byteLength":360,"byteOffset":14328,"target":34962},{"buffer":0,"byteLength":240,"byteOffset":14688,"target":34962},{"buffer":0,"byteLength":120,"byteOffset":14928,"target":34963},{"buffer":0,"byteLength":360,"byteOffset":15048,"target":34962},{"buffer":0,"byteLength":360,"byteOffset":15408,"target":34962},{"buffer":0,"byteLength":240,"byteOffset":15768,"target":34962},{"buffer":0,"byteLength":120,"byteOffset":16008,"target":34963},{"buffer":0,"byteLength":312,"byteOffset":16128,"target":34962},{"buffer":0,"byteLength":312,"byteOffset":16440,"target":34962},{"buffer":0,"byteLength":208,"byteOffset":16752,"target":34962},{"buffer":0,"byteLength":120,"byteOffset":16960,"target":34963},{"buffer":0,"byteLength":360,"byteOffset":17080,"target":34962},{"buffer":0,"byteLength":360,"byteOffset":17440,"target":34962},{"buffer":0,"byteLength":240,"byteOffset":17800,"target":34962},{"buffer":0,"byteLength":120,"byteOffset":18040,"target":34963},{"buffer":0,"byteLength":360,"byteOffset":18160,"target":34962},{"buffer":0,"byteLength":360,"byteOffset":18520,"target":34962},{"buffer":0,"byteLength":240,"byteOffset":18880,"target":34962},{"buffer":0,"byteLength":120,"byteOffset":19120,"target":34963},{"buffer":0,"byteLength":21528,"byteOffset":19240,"target":34962},{"buffer":0,"byteLength":21528,"byteOffset":40768,"target":34962},{"buffer":0,"byteLength":14352,"byteOffset":62296,"target":34962},{"buffer":0,"byteLength":19230,"byteOffset":76648,"target":34963},{"buffer":0,"byteLength":6852,"byteOffset":95880,"target":34962},{"buffer":0,"byteLength":6852,"byteOffset":102732,"target":34962},{"buffer":0,"byteLength":4568,"byteOffset":109584,"target":34962},{"buffer":0,"byteLength":6270,"byteOffset":114152,"target":34963}],"samplers":[{"magFilter":9729,"minFilter":9987}],"buffers":[{"byteLength":120424,"uri":"piece_room_1.bin"}]}