{"asset":{"generator":"Khronos glTF Blender I/O v5.2.39","version":"2.0"},"scene":0,"scenes":[{"name":"Scene","nodes":[0,1,2,3,4,5,6,7,8,9,10,11,12,13,14,15,16,17,18,19,20,21,22,23,24,25,26,27,28,29,30,31,32,33,34,35,36,37,38,39]}],"nodes":[{"mesh":0,"name":"COL_curve_arc_0-convcolonly","rotation":[0,0.09801715612411499,0,0.9951847195625305],"translation":[3.218379020690918,2.799999952316284,2.1636314392089844]},{"mesh":1,"name":"COL_curve_arc_1-convcolonly","rotation":[0,0.29028475284576416,0,0.9569404125213623],"translation":[2.1955666542053223,2.799999952316284,-0.30565619468688965]},{"mesh":2,"name":"COL_curve_arc_2-convcolonly","rotation":[0,0.47139671444892883,0,0.8819212913513184],"translation":[0.30565619468688965,2.799999952316284,-2.1955666542053223]},{"mesh":3,"name":"COL_curve_arc_3-convcolonly","rotation":[0,0.6343932747840881,0,0.7730104923248291],"translation":[-2.1636314392089844,2.799999952316284,-3.218379020690918]},{"mesh":4,"name":"COL_curve_floor-convcolonly"},{"mesh":5,"name":"PRP_curve_bracket_0","rotation":[0,0.19080901145935059,0,0.9816272854804993],"translation":[2.7955784797668457,1.25,0.9564213752746582]},{"mesh":6,"name":"PRP_curve_bracket_1","rotation":[0,0.5591928958892822,0,0.829037606716156],"translation":[-0.9564213752746582,1.25,-2.7955784797668457]},{"mesh":7,"name":"PRP_curve_bulb","translation":[1.5941953659057617,4.449999809265137,-0.7745380401611328]},{"mesh":8,"name":"PRP_curve_cable"},{"mesh":9,"name":"PRP_curve_pipe"},{"mesh":10,"name":"PRP_curve_rock_0","rotation":[-0.5709487199783325,-0.5709487199783325,0.16751593351364136,0.5656620860099792],"scale":[0.1678592711687088,0.0841510072350502,0.15138034522533417],"translation":[-2.7187306880950928,0.04806483909487724,3.0506935119628906]},{"mesh":11,"name":"PRP_curve_rock_1","rotation":[0.5609811544418335,0.5609812140464783,0.1712591052055359,0.5841837525367737],"scale":[0.060950856655836105,0.038508813828229904,0.08369936048984528],"translation":[1.252490758895874,0.025129707530140877,0.8930569291114807]},{"mesh":12,"name":"PRP_curve_rock_2","rotation":[0.6951754093170166,0.6951753497123718,0.05737430602312088,0.173696830868721],"scale":[0.1341494619846344,0.1030416488647461,0.08971937745809555],"translation":[1.999405860900879,0.04323689639568329,1.815632700920105]},{"mesh":13,"name":"PRP_curve_rock_3","rotation":[0.5021354556083679,0.5021354556083679,0.1865086853504181,0.678921639919281],"scale":[0.16619282960891724,0.08865910768508911,0.12063068896532059],"translation":[-2.5665836334228516,0.04559618607163429,2.166905164718628]},{"mesh":14,"name":"PRP_curve_rock_4","rotation":[0.09545627981424332,0.09545627981424332,-0.6724291443824768,0.7277467846870422],"scale":[0.0624227300286293,0.03806707262992859,0.07014681398868561],"translation":[1.9985668659210205,0.019099580124020576,2.8044588565826416]},{"mesh":15,"name":"PRP_curve_rock_5","rotation":[-0.08725227415561676,-0.08725226670503616,-0.6785145401954651,0.7241492867469788],"scale":[0.08526811003684998,0.0579645112156868,0.08264032006263733],"translation":[-2.367689609527588,0.02955065481364727,2.4310436248779297]},{"mesh":16,"name":"PRP_curve_rock_6","rotation":[-0.16816748678684235,-0.16816747188568115,0.12401236593723297,0.9633588790893555],"scale":[0.04729239642620087,0.042677875608205795,0.07232088595628738],"translation":[-1.9016718864440918,0.021232839673757553,-2.871973752975464]},{"mesh":17,"name":"PRP_curve_rock_7","rotation":[-0.18954496085643768,-0.18954497575759888,-0.37768277525901794,0.8862850069999695],"scale":[0.1640801727771759,0.06551746279001236,0.10611870139837265],"translation":[-0.36675649881362915,0.045436158776283264,-2.14560866355896]},{"mesh":18,"name":"PRP_curve_rock_8","rotation":[-0.1908368468284607,-0.1908368468284607,-0.46836018562316895,0.8413094282150269],"scale":[0.14850275218486786,0.0961630791425705,0.1434730738401413],"translation":[-2.8769514560699463,0.040807098150253296,3.20125675201416]},{"mesh":19,"name":"PRP_curve_rock_9","rotation":[0.7048642635345459,0.7048642635345459,0.0251266211271286,0.07550772279500961],"scale":[0.1372961401939392,0.08140935003757477,0.09141504019498825],"translation":[-3.0841314792633057,0.037373218685388565,1.628673791885376]},{"mesh":20,"name":"PRP_curve_rock_10","rotation":[-0.13820905983448029,-0.1382090449333191,-0.6263868808746338,0.7546098232269287],"scale":[0.07098502665758133,0.044769689440727234,0.09138158708810806],"translation":[-2.751793384552002,0.026976343244314194,2.6238975524902344]},{"mesh":21,"name":"PRP_curve_rock_11","rotation":[-0.18889649212360382,-0.18889647722244263,-0.37201640009880066,0.8889545798301697],"scale":[0.0501243956387043,0.043490901589393616,0.06591792404651642],"translation":[-3.188951015472412,0.01813257485628128,2.4074418544769287]},{"mesh":22,"name":"PRP_curve_socket","translation":[1.5941953659057617,4.519999980926514,-0.7745380401611328]},{"mesh":23,"name":"PRP_curve_wire","translation":[1.5941953659057617,4.690000057220459,-0.7745380401611328]},{"mesh":24,"name":"SHL_curve"},{"name":"SLOT_Pocket_curve_0","translation":[2.4928956031799316,1.899999976158142,0.039999961853027344]},{"name":"SLOT_Pocket_curve_1","translation":[-0.039999961853027344,1.899999976158142,-2.4928956031799316]},{"mesh":25,"name":"TMB_curve_cap_0","rotation":[0,0.13052619993686676,0,0.9914448857307434],"translation":[-0.12119293212890625,4.8306732177734375,2.5324270725250244]},{"mesh":26,"name":"TMB_curve_cap_1","rotation":[0,0.3826834559440613,0,0.9238795638084412],"translation":[-1.0037658214569092,4.858381271362305,1.0037658214569092]},{"mesh":27,"name":"TMB_curve_cap_2","rotation":[0,0.6087613701820374,0,0.7933533787727356],"translation":[-2.5324270725250244,4.86978006362915,0.12119293212890625]},{"mesh":28,"name":"TMB_curve_lag_0_0","rotation":[-0.010789789259433746,0.04282227158546448,0.0075358436442911625,0.9989960193634033],"translation":[-1.1588890552520752,5.046490669250488,3.1185896396636963]},{"mesh":29,"name":"TMB_curve_lag_0_1","rotation":[0.015636133030056953,0.18754199147224426,-0.006703432183712721,0.9821092486381531],"translation":[-1.67256498336792,5.035065650939941,2.5743589401245117]},{"mesh":30,"name":"TMB_curve_lag_1_0","rotation":[-0.01742788963019848,0.48285508155822754,-0.005197887308895588,0.8755114078521729],"translation":[-0.20079898834228516,5.025713920593262,-1.439676284790039]},{"mesh":31,"name":"TMB_curve_lag_1_1","rotation":[0.008875621482729912,0.35367241501808167,0.004004035145044327,0.9353187084197998],"translation":[-0.1635890007019043,5.036741256713867,0.8988461494445801]},{"mesh":32,"name":"TMB_curve_lag_2_0","rotation":[0.016299761831760406,0.5038866996765137,-0.01000544335693121,0.8635579943656921],"translation":[-2.53642201423645,5.040339469909668,1.5722161531448364]},{"mesh":33,"name":"TMB_curve_lag_2_1","rotation":[0.003764679655432701,0.6642594933509827,-0.005188015755265951,0.7474746108055115],"translation":[-2.746809720993042,5.049006462097168,-0.30378031730651855]},{"mesh":34,"name":"TMB_curve_post_0","rotation":[0,0.13052619993686676,0,0.9914448857307434],"translation":[3.087614059448242,2.3499999046325684,1.7348541021347046]},{"mesh":35,"name":"TMB_curve_post_1","rotation":[0,0.3826834559440613,0,0.9238795638084412],"translation":[1.3224682807922363,2.3499999046325684,-1.3224682807922363]},{"mesh":36,"name":"TMB_curve_post_2","rotation":[0,0.6087613701820374,0,0.7933533787727356],"translation":[-1.7348541021347046,2.3499999046325684,-3.087614059448242]},{"mesh":37,"name":"TMB_curve_post_in","translation":[-3.3299999237060547,2.3499999046325684,3.3299999237060547]}],"materials":[{"doubleSided":true,"name":"MAT_RustyMetal_EXPORT","normalTexture":{"index":0},"pbrMetallicRoughness":{"baseColorTexture":{"index":1},"metallicFactor":0,"metallicRoughnessTexture":{"index":2}}},{"doubleSided":true,"name":"MAT_Bulb"},{"doubleSided":true,"name":"MAT_Cable","pbrMetallicRoughness":{"baseColorFactor":[0.019999999552965164,0.019999999552965164,0.019999999552965164,1],"metallicFactor":0,"roughnessFactor":0.550000011920929}},{"doubleSided":true,"name":"MAT_Rock_EXPORT","normalTexture":{"index":3},"pbrMetallicRoughness":{"baseColorTexture":{"index":4},"metallicFactor":0,"metallicRoughnessTexture":{"index":5}}},{"doubleSided":true,"name":"MAT_RockWall_EXPORT","normalTexture":{"index":6},"pbrMetallicRoughness":{"baseColorTexture":{"index":7},"metallicFactor":0,"metallicRoughnessTexture":{"index":8}}},{"doubleSided":true,"name":"MAT_Floor_EXPORT","normalTexture":{"index":9},"pbrMetallicRoughness":{"baseColorTexture":{"index":10},"metallicFactor":0,"metallicRoughnessTexture":{"index":11}}},{"doubleSided":true,"name":"MAT_Timber_EXPORT","normalTexture":{"index":12},"pbrMetallicRoughness":{"baseColorTexture":{"index":13},"metallicFactor":0,"metallicRoughnessTexture":{"index":14}}}],"meshes":[{"name":"COL_curve_arc_0-convcolonly","primitives":[{"attributes":{"POSITION":0,"NORMAL":1},"indices":2}]},{"name":"COL_curve_arc_1-convcolonly","primitives":[{"attributes":{"POSITION":3,"NORMAL":4},"indices":2}]},{"name":"COL_curve_arc_2-convcolonly","primitives":[{"attributes":{"POSITION":5,"NORMAL":6},"indices":2}]},{"name":"COL_curve_arc_3-convcolonly","primitives":[{"attributes":{"POSITION":7,"NORMAL":8},"indices":2}]},{"name":"COL_curve_floor-convcolonly","primitives":[{"attributes":{"POSITION":9,"NORMAL":10},"indices":11}]},{"name":"PRP_curve_bracket_0","primitives":[{"attributes":{"POSITION":12,"NORMAL":13,"TEXCOORD_0":14},"indices":2,"material":0}]},{"name":"PRP_curve_bracket_1","primitives":[{"attributes":{"POSITION":15,"NORMAL":16,"TEXCOORD_0":17},"indices":2,"material":0}]},{"name":"PRP_curve_bulb","primitives":[{"attributes":{"POSITION":18,"NORMAL":19},"indices":20,"material":1}]},{"name":"PRP_curve_cable","primitives":[{"attributes":{"POSITION":21,"NORMAL":22,"TEXCOORD_0":23},"indices":24,"material":2}]},{"name":"PRP_curve_pipe","primitives":[{"attributes":{"POSITION":25,"NORMAL":26,"TEXCOORD_0":27},"indices":24,"material":0}]},{"name":"PRP_curve_rock_0","primitives":[{"attributes":{"POSITION":28,"NORMAL":29,"TEXCOORD_0":30},"indices":31,"material":3}]},{"name":"PRP_curve_rock_1","primitives":[{"attributes":{"POSITION":32,"NORMAL":33,"TEXCOORD_0":34},"indices":35,"material":3}]},{"name":"PRP_curve_rock_2","primitives":[{"attributes":{"POSITION":36,"NORMAL":37,"TEXCOORD_0":38},"indices":39,"material":3}]},{"name":"PRP_curve_rock_3","primitives":[{"attributes":{"POSITION":40,"NORMAL":41,"TEXCOORD_0":42},"indices":43,"material":3}]},{"name":"PRP_curve_rock_4","primitives":[{"attributes":{"POSITION":44,"NORMAL":45,"TEXCOORD_0":46},"indices":47,"material":3}]},{"name":"PRP_curve_rock_5","primitives":[{"attributes":{"POSITION":48,"NORMAL":49,"TEXCOORD_0":50},"indices":51,"material":3}]},{"name":"PRP_curve_rock_6","primitives":[{"attributes":{"POSITION":52,"NORMAL":53,"TEXCOORD_0":54},"indices":55,"material":3}]},{"name":"PRP_curve_rock_7","primitives":[{"attributes":{"POSITION":56,"NORMAL":57,"TEXCOORD_0":58},"indices":59,"material":3}]},{"name":"PRP_curve_rock_8","primitives":[{"attributes":{"POSITION":60,"NORMAL":61,"TEXCOORD_0":62},"indices":63,"material":3}]},{"name":"PRP_curve_rock_9","primitives":[{"attributes":{"POSITION":64,"NORMAL":65,"TEXCOORD_0":66},"indices":67,"material":3}]},{"name":"PRP_curve_rock_10","primitives":[{"attributes":{"POSITION":68,"NORMAL":69,"TEXCOORD_0":70},"indices":71,"material":3}]},{"name":"PRP_curve_rock_11","primitives":[{"attributes":{"POSITION":72,"NORMAL":73,"TEXCOORD_0":74},"indices":75,"material":3}]},{"name":"PRP_curve_socket","primitives":[{"attributes":{"POSITION":76,"NORMAL":77},"indices":78,"material":2}]},{"name":"PRP_curve_wire","primitives":[{"attributes":{"POSITION":79,"NORMAL":80},"indices":81,"material":2}]},{"name":"SHL_curve","primitives":[{"attributes":{"POSITION":82,"NORMAL":83,"TEXCOORD_0":84},"indices":85,"material":4},{"attributes":{"POSITION":86,"NORMAL":87,"TEXCOORD_0":88},"indices":89,"material":5}]},{"name":"TMB_curve_cap_0","primitives":[{"attributes":{"POSITION":90,"NORMAL":91,"TEXCOORD_0":92},"indices":93,"material":6}]},{"name":"TMB_curve_cap_1","primitives":[{"attributes":{"POSITION":94,"NORMAL":95,"TEXCOORD_0":96},"indices":93,"material":6}]},{"name":"TMB_curve_cap_2","primitives":[{"attributes":{"POSITION":97,"NORMAL":98,"TEXCOORD_0":99},"indices":93,"material":6}]},{"name":"TMB_curve_lag_0_0","primitives":[{"attributes":{"POSITION":100,"NORMAL":101,"TEXCOORD_0":102},"indices":93,"material":6}]},{"name":"TMB_curve_lag_0_1","primitives":[{"attributes":{"POSITION":103,"NORMAL":104,"TEXCOORD_0":105},"indices":93,"material":6}]},{"name":"TMB_curve_lag_1_0","primitives":[{"attributes":{"POSITION":106,"NORMAL":107,"TEXCOORD_0":108},"indices":93,"material":6}]},{"name":"TMB_curve_lag_1_1","primitives":[{"attributes":{"POSITION":109,"NORMAL":110,"TEXCOORD_0":111},"indices":93,"material":6}]},{"name":"TMB_curve_lag_2_0","primitives":[{"attributes":{"POSITION":112,"NORMAL":113,"TEXCOORD_0":114},"indices":93,"material":6}]},{"name":"TMB_curve_lag_2_1","primitives":[{"attributes":{"POSITION":115,"NORMAL":116,"TEXCOORD_0":117},"indices":93,"material":6}]},{"name":"TMB_curve_post_0","primitives":[{"attributes":{"POSITION":118,"NORMAL":119,"TEXCOORD_0":120},"indices":93,"material":6}]},{"name":"TMB_curve_post_1","primitives":[{"attributes":{"POSITION":121,"NORMAL":122,"TEXCOORD_0":123},"indices":93,"material":6}]},{"name":"TMB_curve_post_2","primitives":[{"attributes":{"POSITION":124,"NORMAL":125,"TEXCOORD_0":126},"indices":93,"material":6}]},{"name":"TMB_curve_post_in","primitives":[{"attributes":{"POSITION":127,"NORMAL":128,"TEXCOORD_0":129},"indices":93,"material":6}]}],"textures":[{"sampler":0,"source":0},{"sampler":0,"source":1},{"sampler":0,"source":2},{"sampler":0,"source":3},{"sampler":0,"source":4},{"sampler":0,"source":5},{"sampler":0,"source":6},{"sampler":0,"source":7},{"sampler":0,"source":8},{"sampler":0,"source":9},{"sampler":0,"source":10},{"sampler":0,"source":11},{"sampler":0,"source":12},{"sampler":0,"source":13},{"sampler":0,"source":14}],"images":[{"mimeType":"image/jpeg","name":"rusty_metal_02_nor_gl","uri":"textures/rusty_metal_02_nor_gl.jpg"},{"mimeType":"image/jpeg","name":"rusty_metal_02_Diffuse","uri":"textures/rusty_metal_02_Diffuse.jpg"},{"mimeType":"image/jpeg","name":"rusty_metal_02_Rough","uri":"textures/rusty_metal_02_Rough.jpg"},{"mimeType":"image/jpeg","name":"dark_rock_02_nor_gl","uri":"textures/dark_rock_02_nor_gl.jpg"},{"mimeType":"image/jpeg","name":"dark_rock_02_Diffuse","uri":"textures/dark_rock_02_Diffuse.jpg"},{"mimeType":"image/jpeg","name":"dark_rock_02_Rough","uri":"textures/dark_rock_02_Rough.jpg"},{"mimeType":"image/jpeg","name":"dark_rock_nor_gl","uri":"textures/rock_face_04_nor_gl.jpg"},{"mimeType":"image/jpeg","name":"dark_rock_Diffuse","uri":"textures/rock_face_04_Diffuse.jpg"},{"mimeType":"image/jpeg","name":"dark_rock_Rough","uri":"textures/rock_face_04_Rough.jpg"},{"mimeType":"image/jpeg","name":"brown_mud_rocks_01_nor_gl","uri":"textures/brown_mud_rocks_01_nor_gl.jpg"},{"mimeType":"image/jpeg","name":"brown_mud_rocks_01_Diffuse","uri":"textures/brown_mud_rocks_01_Diffuse.jpg"},{"mimeType":"image/jpeg","name":"brown_mud_rocks_01_Rough","uri":"textures/brown_mud_rocks_01_Rough.jpg"},{"mimeType":"image/jpeg","name":"dark_wooden_planks_nor_gl","uri":"textures/dark_wooden_planks_nor_gl.jpg"},{"mimeType":"image/jpeg","name":"dark_wooden_planks_Diffuse","uri":"textures/dark_wooden_planks_Diffuse.jpg"},{"mimeType":"image/jpeg","name":"dark_wooden_planks_Rough","uri":"textures/dark_wooden_planks_Rough.jpg"}],"accessors":[{"bufferView":0,"componentType":5126,"count":24,"max":[0.15000000596046448,2.799999952316284,1.5156322717666626],"min":[-0.15000000596046448,-2.799999952316284,-1.5156322717666626],"type":"VEC3"},{"bufferView":1,"componentType":5126,"count":24,"type":"VEC3"},{"bufferView":2,"componentType":5123,"count":36,"type":"SCALAR"},{"bufferView":3,"componentType":5126,"count":24,"max":[0.15000000596046448,2.799999952316284,1.5156322717666626],"min":[-0.15000000596046448,-2.799999952316284,-1.5156322717666626],"type":"VEC3"},{"bufferView":4,"componentType":5126,"count":24,"type":"VEC3"},{"bufferView":5,"componentType":5126,"count":24,"max":[0.15000000596046448,2.799999952316284,1.5156322717666626],"min":[-0.15000000596046448,-2.799999952316284,-1.5156322717666626],"type":"VEC3"},{"bufferView":6,"componentType":5126,"count":24,"type":"VEC3"},{"bufferView":7,"componentType":5126,"count":24,"max":[0.15000000596046448,2.799999952316284,1.5156322717666626],"min":[-0.15000000596046448,-2.799999952316284,-1.5156322717666626],"type":"VEC3"},{"bufferView":8,"componentType":5126,"count":24,"type":"VEC3"},{"bufferView":9,"componentType":5126,"count":60,"max":[3.5,0,3.5],"min":[-3.5,-0.5,-3.5],"type":"VEC3"},{"bufferView":10,"componentType":5126,"count":60,"type":"VEC3"},{"bufferView":11,"componentType":5123,"count":108,"type":"SCALAR"},{"bufferView":12,"componentType":5126,"count":24,"max":[0.20999999344348907,0.029999999329447746,0.029999999329447746],"min":[-0.20999999344348907,-0.029999999329447746,-0.029999999329447746],"type":"VEC3"},{"bufferView":13,"componentType":5126,"count":24,"type":"VEC3"},{"bufferView":14,"componentType":5126,"count":24,"type":"VEC2"},{"bufferView":15,"componentType":5126,"count":24,"max":[0.20999999344348907,0.029999999329447746,0.029999999329447746],"min":[-0.20999999344348907,-0.029999999329447746,-0.029999999329447746],"type":"VEC3"},{"bufferView":16,"componentType":5126,"count":24,"type":"VEC3"},{"bufferView":17,"componentType":5126,"count":24,"type":"VEC2"},{"bufferView":18,"componentType":5126,"count":52,"max":[0.03804226219654083,0.03999999910593033,0.03999999910593033],"min":[-0.03804226219654083,-0.03999999910593033,-0.03999999910593033],"type":"VEC3"},{"bufferView":19,"componentType":5126,"count":52,"type":"VEC3"},{"bufferView":20,"componentType":5123,"count":300,"type":"SCALAR"},{"bufferView":21,"componentType":5126,"count":864,"max":[3.3119421005249023,4.691951274871826,3.501588821411133],"min":[-3.501588821411133,4.5780029296875,-3.3119421005249023],"type":"VEC3"},{"bufferView":22,"componentType":5126,"count":864,"type":"VEC3"},{"bufferView":23,"componentType":5126,"count":864,"type":"VEC2"},{"bufferView":24,"componentType":5123,"count":4560,"type":"SCALAR"},{"bufferView":25,"componentType":5126,"count":864,"max":[3.1447832584381104,1.2950000762939453,3.504410743713379],"min":[-3.504410743713379,1.2049999237060547,-3.1447832584381104],"type":"VEC3"},{"bufferView":26,"componentType":5126,"count":864,"type":"VEC3"},{"bufferView":27,"componentType":5126,"count":864,"type":"VEC2"},{"bufferView":28,"componentType":5126,"count":31,"max":[0.798393964767456,0.7922424077987671,0.908474326133728],"min":[-0.8518045544624329,-1.1661432981491089,-0.7858002185821533],"type":"VEC3"},{"bufferView":29,"componentType":5126,"count":31,"type":"VEC3"},{"bufferView":30,"componentType":5126,"count":31,"type":"VEC2"},{"bufferView":31,"componentType":5123,"count":60,"type":"SCALAR"},{"bufferView":32,"componentType":5126,"count":30,"max":[0.7083353996276855,0.8894644379615784,1.0132793188095093],"min":[-1.1112836599349976,-0.7518113851547241,-0.7806029915809631],"type":"VEC3"},{"bufferView":33,"componentType":5126,"count":30,"type":"VEC3"},{"bufferView":34,"componentType":5126,"count":30,"type":"VEC2"},{"bufferView":35,"componentType":5123,"count":60,"type":"SCALAR"},{"bufferView":36,"componentType":5126,"count":32,"max":[1.1112022399902344,0.8247315883636475,0.9425073266029358],"min":[-0.907478928565979,-0.9021222591400146,-0.9572011232376099],"type":"VEC3"},{"bufferView":37,"componentType":5126,"count":32,"type":"VEC3"},{"bufferView":38,"componentType":5126,"count":32,"type":"VEC2"},{"bufferView":39,"componentType":5123,"count":60,"type":"SCALAR"},{"bufferView":40,"componentType":5126,"count":29,"max":[0.8150882124900818,0.77093106508255,0.9773727655410767],"min":[-1.034360408782959,-1.2049437761306763,-0.9114145636558533],"type":"VEC3"},{"bufferView":41,"componentType":5126,"count":29,"type":"VEC3"},{"bufferView":42,"componentType":5126,"count":29,"type":"VEC2"},{"bufferView":43,"componentType":5123,"count":60,"type":"SCALAR"},{"bufferView":44,"componentType":5126,"count":26,"max":[0.8313080072402954,1.114667534828186,0.9562333822250366],"min":[-0.8957536816596985,-0.7516571283340454,-0.8656113743782043],"type":"VEC3"},{"bufferView":45,"componentType":5126,"count":26,"type":"VEC3"},{"bufferView":46,"componentType":5126,"count":26,"type":"VEC2"},{"bufferView":47,"componentType":5123,"count":60,"type":"SCALAR"},{"bufferView":48,"componentType":5126,"count":29,"max":[0.9803727269172668,1.0878537893295288,0.7459847331047058],"min":[-1.0031949281692505,-0.7887359261512756,-0.923796534538269],"type":"VEC3"},{"bufferView":49,"componentType":5126,"count":29,"type":"VEC3"},{"bufferView":50,"componentType":5126,"count":29,"type":"VEC2"},{"bufferView":51,"componentType":5123,"count":60,"type":"SCALAR"},{"bufferView":52,"componentType":5126,"count":30,"max":[0.7342066764831543,1.0120328664779663,0.9867003560066223],"min":[-1.103769063949585,-0.7587522268295288,-0.8852921724319458],"type":"VEC3"},{"bufferView":53,"componentType":5126,"count":30,"type":"VEC3"},{"bufferView":54,"componentType":5126,"count":30,"type":"VEC2"},{"bufferView":55,"componentType":5123,"count":60,"type":"SCALAR"},{"bufferView":56,"componentType":5126,"count":31,"max":[0.8159603476524353,0.9191362857818604,1.0420188903808594],"min":[-0.9756335616111755,-0.9470402598381042,-0.8104125261306763],"type":"VEC3"},{"bufferView":57,"componentType":5126,"count":31,"type":"VEC3"},{"bufferView":58,"componentType":5126,"count":31,"type":"VEC2"},{"bufferView":59,"componentType":5123,"count":60,"type":"SCALAR"},{"bufferView":60,"componentType":5126,"count":30,"max":[0.8993277549743652,0.8449245095252991,0.7594602704048157],"min":[-0.881197988986969,-0.930354654788971,-0.7509983777999878],"type":"VEC3"},{"bufferView":61,"componentType":5126,"count":30,"type":"VEC3"},{"bufferView":62,"componentType":5126,"count":30,"type":"VEC2"},{"bufferView":63,"componentType":5123,"count":60,"type":"SCALAR"},{"bufferView":64,"componentType":5126,"count":30,"max":[0.8245089650154114,0.89888596534729,0.8297397494316101],"min":[-1.0074213743209839,-0.7747380137443542,-0.9120954275131226],"type":"VEC3"},{"bufferView":65,"componentType":5126,"count":30,"type":"VEC3"},{"bufferView":66,"componentType":5126,"count":30,"type":"VEC2"},{"bufferView":67,"componentType":5123,"count":60,"type":"SCALAR"},{"bufferView":68,"componentType":5126,"count":31,"max":[0.7489443421363831,1.0279370546340942,0.9832675457000732],"min":[-0.9169585108757019,-0.7875853180885315,-0.8306438326835632],"type":"VEC3"},{"bufferView":69,"componentType":5126,"count":31,"type":"VEC3"},{"bufferView":70,"componentType":5126,"count":31,"type":"VEC2"},{"bufferView":71,"componentType":5123,"count":60,"type":"SCALAR"},{"bufferView":72,"componentType":5126,"count":31,"max":[0.7920225262641907,0.8742268085479736,0.8520842790603638],"min":[-0.8548845052719116,-0.9384329319000244,-1.0495580434799194],"type":"VEC3"},{"bufferView":73,"componentType":5126,"count":31,"type":"VEC3"},{"bufferView":74,"componentType":5126,"count":31,"type":"VEC2"},{"bufferView":75,"componentType":5123,"count":60,"type":"SCALAR"},{"bufferView":76,"componentType":5126,"count":16,"max":[0.019999999552965164,0.03500000014901161,0.019999999552965164],"min":[-0.019999999552965164,-0.03500000014901161,-0.019999999552965164],"type":"VEC3"},{"bufferView":77,"componentType":5126,"count":16,"type":"VEC3"},{"bufferView":78,"componentType":5123,"count":84,"type":"SCALAR"},{"bufferView":79,"componentType":5126,"count":10,"max":[0.00570633914321661,0.14000000059604645,0.004854102153331041],"min":[-0.00570633914321661,-0.14000000059604645,-0.006000000052154064],"type":"VEC3"},{"bufferView":80,"componentType":5126,"count":10,"type":"VEC3"},{"bufferView":81,"componentType":5123,"count":48,"type":"SCALAR"},{"bufferView":82,"componentType":5126,"count":885,"max":[3.5,5.599999904632568,3.5],"min":[-3.5,0,-3.5],"type":"VEC3"},{"bufferView":83,"componentType":5126,"count":885,"type":"VEC3"},{"bufferView":84,"componentType":5126,"count":885,"type":"VEC2"},{"bufferView":85,"componentType":5123,"count":4680,"type":"SCALAR"},{"bufferView":86,"componentType":5126,"count":501,"max":[3.5,0.04652868211269379,3.5],"min":[-3.5,0,-3.5],"type":"VEC3"},{"bufferView":87,"componentType":5126,"count":501,"type":"VEC3"},{"bufferView":88,"componentType":5126,"count":501,"type":"VEC2"},{"bufferView":89,"componentType":5123,"count":2808,"type":"SCALAR"},{"bufferView":90,"componentType":5126,"count":96,"max":[3.4564428329467773,0.18000000715255737,0.18000000715255737],"min":[-3.4564428329467773,-0.18000000715255737,-0.18000000715255737],"type":"VEC3"},{"bufferView":91,"componentType":5126,"count":96,"type":"VEC3"},{"bufferView":92,"componentType":5126,"count":96,"type":"VEC2"},{"bufferView":93,"componentType":5123,"count":132,"type":"SCALAR"},{"bufferView":94,"componentType":5126,"count":96,"max":[3.439791679382324,0.18000000715255737,0.18000000715255737],"min":[-3.439791679382324,-0.18000000715255737,-0.18000000715255737],"type":"VEC3"},{"bufferView":95,"componentType":5126,"count":96,"type":"VEC3"},{"bufferView":96,"componentType":5126,"count":96,"type":"VEC2"},{"bufferView":97,"componentType":5126,"count":96,"max":[3.4564428329467773,0.18000000715255737,0.18000000715255737],"min":[-3.4564428329467773,-0.18000000715255737,-0.18000000715255737],"type":"VEC3"},{"bufferView":98,"componentType":5126,"count":96,"type":"VEC3"},{"bufferView":99,"componentType":5126,"count":96,"type":"VEC2"},{"bufferView":100,"componentType":5126,"count":96,"max":[0.15000000596046448,0.02500000037252903,0.75],"min":[-0.15000000596046448,-0.02500000037252903,-0.75],"type":"VEC3"},{"bufferView":101,"componentType":5126,"count":96,"type":"VEC3"},{"bufferView":102,"componentType":5126,"count":96,"type":"VEC2"},{"bufferView":103,"componentType":5126,"count":96,"max":[0.15000000596046448,0.02500000037252903,0.75],"min":[-0.15000000596046448,-0.02500000037252903,-0.75],"type":"VEC3"},{"bufferView":104,"componentType":5126,"count":96,"type":"VEC3"},{"bufferView":105,"componentType":5126,"count":96,"type":"VEC2"},{"bufferView":106,"componentType":5126,"count":96,"max":[0.15000000596046448,0.02500000037252903,0.75],"min":[-0.15000000596046448,-0.02500000037252903,-0.75],"type":"VEC3"},{"bufferView":107,"componentType":5126,"count":96,"type":"VEC3"},{"bufferView":108,"componentType":5126,"count":96,"type":"VEC2"},{"bufferView":109,"componentType":5126,"count":96,"max":[0.15000000596046448,0.02500000037252903,0.75],"min":[-0.15000000596046448,-0.02500000037252903,-0.75],"type":"VEC3"},{"bufferView":110,"componentType":5126,"count":96,"type":"VEC3"},{"bufferView":111,"componentType":5126,"count":96,"type":"VEC2"},{"bufferView":112,"componentType":5126,"count":96,"max":[0.15000000596046448,0.02500000037252903,0.75],"min":[-0.15000000596046448,-0.02500000037252903,-0.75],"type":"VEC3"},{"bufferView":113,"componentType":5126,"count":96,"type":"VEC3"},{"bufferView":114,"componentType":5126,"count":96,"type":"VEC2"},{"bufferView":115,"componentType":5126,"count":96,"max":[0.15000000596046448,0.02500000037252903,0.75],"min":[-0.15000000596046448,-0.02500000037252903,-0.75],"type":"VEC3"},{"bufferView":116,"componentType":5126,"count":96,"type":"VEC3"},{"bufferView":117,"componentType":5126,"count":96,"type":"VEC2"},{"bufferView":118,"componentType":5126,"count":96,"max":[0.17000000178813934,2.4000000953674316,0.17000000178813934],"min":[-0.17000000178813934,-2.4000000953674316,-0.17000000178813934],"type":"VEC3"},{"bufferView":119,"componentType":5126,"count":96,"type":"VEC3"},{"bufferView":120,"componentType":5126,"count":96,"type":"VEC2"},{"bufferView":121,"componentType":5126,"count":96,"max":[0.17000000178813934,2.4000000953674316,0.17000000178813934],"min":[-0.17000000178813934,-2.4000000953674316,-0.17000000178813934],"type":"VEC3"},{"bufferView":122,"componentType":5126,"count":96,"type":"VEC3"},{"bufferView":123,"componentType":5126,"count":96,"type":"VEC2"},{"bufferView":124,"componentType":5126,"count":96,"max":[0.17000000178813934,2.4000000953674316,0.17000000178813934],"min":[-0.17000000178813934,-2.4000000953674316,-0.17000000178813934],"type":"VEC3"},{"bufferView":125,"componentType":5126,"count":96,"type":"VEC3"},{"bufferView":126,"componentType":5126,"count":96,"type":"VEC2"},{"bufferView":127,"componentType":5126,"count":96,"max":[0.17000000178813934,2.4000000953674316,0.17000000178813934],"min":[-0.17000000178813934,-2.4000000953674316,-0.17000000178813934],"type":"VEC3"},{"bufferView":128,"componentType":5126,"count":96,"type":"VEC3"},{"bufferView":129,"componentType":5126,"count":96,"type":"VEC2"}],"bufferViews":[{"buffer":0,"byteLength":288,"byteOffset":0,"target":34962},{"buffer":0,"byteLength":288,"byteOffset":288,"target":34962},{"buffer":0,"byteLength":72,"byteOffset":576,"target":34963},{"buffer":0,"byteLength":288,"byteOffset":648,"target":34962},{"buffer":0,"byteLength":288,"byteOffset":936,"target":34962},{"buffer":0,"byteLength":288,"byteOffset":1224,"target":34962},{"buffer":0,"byteLength":288,"byteOffset":1512,"target":34962},{"buffer":0,"byteLength":288,"byteOffset":1800,"target":34962},{"buffer":0,"byteLength":288,"byteOffset":2088,"target":34962},{"buffer":0,"byteLength":720,"byteOffset":2376,"target":34962},{"buffer":0,"byteLength":720,"byteOffset":3096,"target":34962},{"buffer":0,"byteLength":216,"byteOffset":3816,"target":34963},{"buffer":0,"byteLength":288,"byteOffset":4032,"target":34962},{"buffer":0,"byteLength":288,"byteOffset":4320,"target":34962},{"buffer":0,"byteLength":192,"byteOffset":4608,"target":34962},{"buffer":0,"byteLength":288,"byteOffset":4800,"target":34962},{"buffer":0,"byteLength":288,"byteOffset":5088,"target":34962},{"buffer":0,"byteLength":192,"byteOffset":5376,"target":34962},{"buffer":0,"byteLength":624,"byteOffset":5568,"target":34962},{"buffer":0,"byteLength":624,"byteOffset":6192,"target":34962},{"buffer":0,"byteLength":600,"byteOffset":6816,"target":34963},{"buffer":0,"byteLength":10368,"byteOffset":7416,"target":34962},{"buffer":0,"byteLength":10368,"byteOffset":17784,"target":34962},{"buffer":0,"byteLength":6912,"byteOffset":28152,"target":34962},{"buffer":0,"byteLength":9120,"byteOffset":35064,"target":34963},{"buffer":0,"byteLength":10368,"byteOffset":44184,"target":34962},{"buffer":0,"byteLength":10368,"byteOffset":54552,"target":34962},{"buffer":0,"byteLength":6912,"byteOffset":64920,"target":34962},{"buffer":0,"byteLength":372,"byteOffset":71832,"target":34962},{"buffer":0,"byteLength":372,"byteOffset":72204,"target":34962},{"buffer":0,"byteLength":248,"byteOffset":72576,"target":34962},{"buffer":0,"byteLength":120,"byteOffset":72824,"target":34963},{"buffer":0,"byteLength":360,"byteOffset":72944,"target":34962},{"buffer":0,"byteLength":360,"byteOffset":73304,"target":34962},{"buffer":0,"byteLength":240,"byteOffset":73664,"target":34962},{"buffer":0,"byteLength":120,"byteOffset":73904,"target":34963},{"buffer":0,"byteLength":384,"byteOffset":74024,"target":34962},{"buffer":0,"byteLength":384,"byteOffset":74408,"target":34962},{"buffer":0,"byteLength":256,"byteOffset":74792,"target":34962},{"buffer":0,"byteLength":120,"byteOffset":75048,"target":34963},{"buffer":0,"byteLength":348,"byteOffset":75168,"target":34962},{"buffer":0,"byteLength":348,"byteOffset":75516,"target":34962},{"buffer":0,"byteLength":232,"byteOffset":75864,"target":34962},{"buffer":0,"byteLength":120,"byteOffset":76096,"target":34963},{"buffer":0,"byteLength":312,"byteOffset":76216,"target":34962},{"buffer":0,"byteLength":312,"byteOffset":76528,"target":34962},{"buffer":0,"byteLength":208,"byteOffset":76840,"target":34962},{"buffer":0,"byteLength":120,"byteOffset":77048,"target":34963},{"buffer":0,"byteLength":348,"byteOffset":77168,"target":34962},{"buffer":0,"byteLength":348,"byteOffset":77516,"target":34962},{"buffer":0,"byteLength":232,"byteOffset":77864,"target":34962},{"buffer":0,"byteLength":120,"byteOffset":78096,"target":34963},{"buffer":0,"byteLength":360,"byteOffset":78216,"target":34962},{"buffer":0,"byteLength":360,"byteOffset":78576,"target":34962},{"buffer":0,"byteLength":240,"byteOffset":78936,"target":34962},{"buffer":0,"byteLength":120,"byteOffset":79176,"target":34963},{"buffer":0,"byteLength":372,"byteOffset":79296,"target":34962},{"buffer":0,"byteLength":372,"byteOffset":79668,"target":34962},{"buffer":0,"byteLength":248,"byteOffset":80040,"target":34962},{"buffer":0,"byteLength":120,"byteOffset":80288,"target":34963},{"buffer":0,"byteLength":360,"byteOffset":80408,"target":34962},{"buffer":0,"byteLength":360,"byteOffset":80768,"target":34962},{"buffer":0,"byteLength":240,"byteOffset":81128,"target":34962},{"buffer":0,"byteLength":120,"byteOffset":81368,"target":34963},{"buffer":0,"byteLength":360,"byteOffset":81488,"target":34962},{"buffer":0,"byteLength":360,"byteOffset":81848,"target":34962},{"buffer":0,"byteLength":240,"byteOffset":82208,"target":34962},{"buffer":0,"byteLength":120,"byteOffset":82448,"target":34963},{"buffer":0,"byteLength":372,"byteOffset":82568,"target":34962},{"buffer":0,"byteLength":372,"byteOffset":82940,"target":34962},{"buffer":0,"byteLength":248,"byteOffset":83312,"target":34962},{"buffer":0,"byteLength":120,"byteOffset":83560,"target":34963},{"buffer":0,"byteLength":372,"byteOffset":83680,"target":34962},{"buffer":0,"byteLength":372,"byteOffset":84052,"target":34962},{"buffer":0,"byteLength":248,"byteOffset":84424,"target":34962},{"buffer":0,"byteLength":120,"byteOffset":84672,"target":34963},{"buffer":0,"byteLength":192,"byteOffset":84792,"target":34962},{"buffer":0,"byteLength":192,"byteOffset":84984,"target":34962},{"buffer":0,"byteLength":168,"byteOffset":85176,"target":34963},{"buffer":0,"byteLength":120,"byteOffset":85344,"target":34962},{"buffer":0,"byteLength":120,"byteOffset":85464,"target":34962},{"buffer":0,"byteLength":96,"byteOffset":85584,"target":34963},{"buffer":0,"byteLength":10620,"byteOffset":85680,"target":34962},{"buffer":0,"byteLength":10620,"byteOffset":96300,"target":34962},{"buffer":0,"byteLength":7080,"byteOffset":106920,"target":34962},{"buffer":0,"byteLength":9360,"byteOffset":114000,"target":34963},{"buffer":0,"byteLength":6012,"byteOffset":123360,"target":34962},{"buffer":0,"byteLength":6012,"byteOffset":129372,"target":34962},{"buffer":0,"byteLength":4008,"byteOffset":135384,"target":34962},{"buffer":0,"byteLength":5616,"byteOffset":139392,"target":34963},{"buffer":0,"byteLength":1152,"byteOffset":145008,"target":34962},{"buffer":0,"byteLength":1152,"byteOffset":146160,"target":34962},{"buffer":0,"byteLength":768,"byteOffset":147312,"target":34962},{"buffer":0,"byteLength":264,"byteOffset":148080,"target":34963},{"buffer":0,"byteLength":1152,"byteOffset":148344,"target":34962},{"buffer":0,"byteLength":1152,"byteOffset":149496,"target":34962},{"buffer":0,"byteLength":768,"byteOffset":150648,"target":34962},{"buffer":0,"byteLength":1152,"byteOffset":151416,"target":34962},{"buffer":0,"byteLength":1152,"byteOffset":152568,"target":34962},{"buffer":0,"byteLength":768,"byteOffset":153720,"target":34962},{"buffer":0,"byteLength":1152,"byteOffset":154488,"target":34962},{"buffer":0,"byteLength":1152,"byteOffset":155640,"target":34962},{"buffer":0,"byteLength":768,"byteOffset":156792,"target":34962},{"buffer":0,"byteLength":1152,"byteOffset":157560,"target":34962},{"buffer":0,"byteLength":1152,"byteOffset":158712,"target":34962},{"buffer":0,"byteLength":768,"byteOffset":159864,"target":34962},{"buffer":0,"byteLength":1152,"byteOffset":160632,"target":34962},{"buffer":0,"byteLength":1152,"byteOffset":161784,"target":34962},{"buffer":0,"byteLength":768,"byteOffset":162936,"target":34962},{"buffer":0,"byteLength":1152,"byteOffset":163704,"target":34962},{"buffer":0,"byteLength":1152,"byteOffset":164856,"target":34962},{"buffer":0,"byteLength":768,"byteOffset":166008,"target":34962},{"buffer":0,"byteLength":1152,"byteOffset":166776,"target":34962},{"buffer":0,"byteLength":1152,"byteOffset":167928,"target":34962},{"buffer":0,"byteLength":768,"byteOffset":169080,"target":34962},{"buffer":0,"byteLength":1152,"byteOffset":169848,"target":34962},{"buffer":0,"byteLength":1152,"byteOffset":171000,"target":34962},{"buffer":0,"byteLength":768,"byteOffset":172152,"target":34962},{"buffer":0,"byteLength":1152,"byteOffset":172920,"target":34962},{"buffer":0,"byteLength":1152,"byteOffset":174072,"target":34962},{"buffer":0,"byteLength":768,"byteOffset":175224,"target":34962},{"buffer":0,"byteLength":1152,"byteOffset":175992,"target":34962},{"buffer":0,"byteLength":1152,"byteOffset":177144,"target":34962},{"buffer":0,"byteLength":768,"byteOffset":178296,"target":34962},{"buffer":0,"byteLength":1152,"byteOffset":179064,"target":34962},{"buffer":0,"byteLength":1152,"byteOffset":180216,"target":34962},{"buffer":0,"byteLength":768,"byteOffset":181368,"target":34962},{"buffer":0,"byteLength":1152,"byteOffset":182136,"target":34962},{"buffer":0,"byteLength":1152,"byteOffset":183288,"target":34962},{"buffer":0,"byteLength":768,"byteOffset":184440,"target":34962}],"samplers":[{"magFilter":9729,"minFilter":9987}],"buffers":[{"byteLength":185208,"uri":"piece_curve.bin"}]}