{"asset":{"generator":"Khronos glTF Blender I/O v5.2.39","version":"2.0"},"scene":0,"scenes":[{"name":"Scene","nodes":[0,1,2,3,4,5,6,7,8,9,10,11,12,13,14,15,16,17,18,19,20,21,22,23,24,25,26,27,28,29,30,31,32,33,34,35,36,37,38,39]}],"nodes":[{"mesh":0,"name":"COL_cap_face-convcolonly","translation":[0,2.799999952316284,-3.2249999046325684]},{"mesh":1,"name":"COL_cap_floor-convcolonly","translation":[0,-0.25,0]},{"mesh":2,"name":"COL_cap_wall_E-convcolonly","translation":[3.3499999046325684,2.799999952316284,0]},{"mesh":3,"name":"COL_cap_wall_W-convcolonly","translation":[-3.3499999046325684,2.799999952316284,0]},{"mesh":4,"name":"FACE_cap_wall"},{"mesh":5,"name":"PRP_cap_rock_0","rotation":[0.17835733294487,0.17835733294487,-0.312740296125412,0.915735125541687],"scale":[0.0908598080277443,0.05106966197490692,0.10373158007860184],"translation":[0.5198581218719482,0.03080875054001808,-2.458366870880127]},{"mesh":6,"name":"PRP_cap_rock_1","rotation":[0.2904720902442932,0.2904720902442932,0.1726522296667099,0.895233690738678],"scale":[0.14550402760505676,0.08328909426927567,0.1446695327758789],"translation":[2.590336322784424,0.04113079980015755,-1.06167733669281]},{"mesh":7,"name":"PRP_cap_rock_2","rotation":[0.4875035881996155,0.4875035881996155,0.1887388527393341,0.6993269324302673],"scale":[0.1089082583785057,0.06863706558942795,0.07372832298278809],"translation":[0.5359718203544617,0.032512467354536057,-0.9539633989334106]},{"mesh":8,"name":"PRP_cap_rock_3","rotation":[-0.008587050251662731,-0.008587050251662731,-0.7068459987640381,0.7072632908821106],"scale":[0.05857154726982117,0.046380408108234406,0.06650332361459732],"translation":[0.11674089729785919,0.028365032747387886,-0.5493682622909546]},{"mesh":9,"name":"PRP_cap_rock_4","rotation":[-0.15422414243221283,-0.15422415733337402,0.11650484055280685,0.9689460396766663],"scale":[0.0633874237537384,0.039081647992134094,0.0538397915661335],"translation":[-2.6940150260925293,0.020135175436735153,-1.8377126455307007]},{"mesh":10,"name":"PRP_cap_rock_5","rotation":[0.13904204964637756,0.13904204964637756,-0.19881711900234222,0.9601075053215027],"scale":[0.05065574496984482,0.05637703835964203,0.0742231160402298],"translation":[2.7946109771728516,0.02253144606947899,-2.880117893218994]},{"mesh":11,"name":"PRP_cap_rock_6","rotation":[0.1143762543797493,0.11437626928091049,-0.6554053425788879,0.7377534508705139],"scale":[0.08004073053598404,0.06524547934532166,0.13938291370868683],"translation":[-1.20724356174469,0.03882201015949249,-1.9195168018341064]},{"mesh":12,"name":"PRP_cap_rock_7","rotation":[0.06213434413075447,0.06213434040546417,-0.6930506825447083,0.7155134677886963],"scale":[0.09840331226587296,0.09670262038707733,0.1512487828731537],"translation":[2.2005116939544678,0.04692026972770691,-2.6328980922698975]},{"mesh":13,"name":"PRP_cap_rock_8","rotation":[-0.3907572031021118,-0.39075717329978943,0.19079694151878357,0.8113041520118713],"scale":[0.06938739120960236,0.04354844614863396,0.05210162699222565],"translation":[2.2243387699127197,0.02205839566886425,-1.1393523216247559]},{"mesh":14,"name":"PRP_cap_rock_9","rotation":[-0.6523837447166443,-0.6523837447166443,0.11727076768875122,0.3674757480621338],"scale":[0.06852911412715912,0.037938766181468964,0.059403132647275925],"translation":[-1.4532411098480225,0.026516344398260117,-0.9838923811912537]},{"mesh":15,"name":"PRP_cap_rock_10","rotation":[-0.014759493991732597,-0.014759493991732597,-0.015208692289888859,0.9996664524078369],"scale":[0.10795694589614868,0.09304867684841156,0.10287170112133026],"translation":[0.1595200151205063,0.0437157079577446,-0.9459695219993591]},{"mesh":16,"name":"PRP_cap_rock_11","rotation":[-0.33296841382980347,-0.33296841382980347,0.1827167272567749,0.8630635142326355],"scale":[0.11210284382104874,0.06895837932825089,0.13907654583454132],"translation":[1.869502305984497,0.03979436308145523,-1.899039387702942]},{"mesh":17,"name":"SHL_cap"},{"name":"SLOT_Pocket_cap_0","translation":[-3.4200000762939453,1.899999976158142,1.75]},{"name":"SLOT_Pocket_cap_1","translation":[3.4200000762939453,1.899999976158142,1.75]},{"mesh":18,"name":"TMB_cap_0_cap","rotation":[0.004341534338891506,0.00069438386708498,0.004450835287570953,0.9999804496765137],"translation":[0,4.85567045211792,2.625]},{"mesh":19,"name":"TMB_cap_0_lag_0","rotation":[-0.0031009558588266373,-0.009516263380646706,-0.005901138763874769,0.999932587146759],"translation":[-2.763723373413086,5.056426525115967,3.5]},{"mesh":20,"name":"TMB_cap_0_lag_1","rotation":[0.019876595586538315,-0.034550733864307404,-0.004098381847143173,0.9991968870162964],"translation":[-2.596686840057373,5.0456318855285645,1.75]},{"mesh":21,"name":"TMB_cap_0_post_L","rotation":[0.004831081721931696,0.001842204830609262,-0.0043070451356470585,0.9999773502349854],"translation":[-3.3237712383270264,2.3499999046325684,2.6302452087402344]},{"mesh":22,"name":"TMB_cap_0_post_R","rotation":[-0.0011788849951699376,-0.0020829320419579744,0.0027203925419598818,0.9999934434890747],"translation":[3.3203201293945312,2.3499999046325684,2.632918357849121]},{"mesh":23,"name":"TMB_cap_1_cap","rotation":[-0.0028185718692839146,-0.0002873479388654232,0.0037857224233448505,0.9999889135360718],"translation":[0,4.8643388748168945,0.875]},{"mesh":24,"name":"TMB_cap_1_lag_0","rotation":[0.009936584159731865,-0.013534395024180412,-0.01255100592970848,0.9997802972793579],"translation":[-1.3473246097564697,5.037046432495117,1.75]},{"mesh":25,"name":"TMB_cap_1_lag_1","rotation":[-0.016704607754945755,0.02098309062421322,-0.0035094262566417456,0.9996340870857239],"translation":[1.4834508895874023,5.053783416748047,1.75]},{"mesh":26,"name":"TMB_cap_1_post_L","rotation":[-0.006250695325434208,0.011870048008859158,0.0004913524608127773,0.9999098777770996],"translation":[-3.319204568862915,2.3499999046325684,0.8730477690696716]},{"mesh":27,"name":"TMB_cap_1_post_R","rotation":[-0.007396301254630089,0.01461718324571848,-0.002432703273370862,0.9998628497123718],"translation":[3.335075855255127,2.3499999046325684,0.8779200315475464]},{"mesh":28,"name":"TMB_cap_2_cap","rotation":[0.0023064459674060345,0.0036173020489513874,0.00333171128295362,0.9999852776527405],"translation":[0,4.842442512512207,-0.875]},{"mesh":29,"name":"TMB_cap_2_lag_0","rotation":[0.017969565466046333,-0.0031418814323842525,-0.006777607835829258,0.9998106360435486],"translation":[-0.08202916383743286,5.028976917266846,0]},{"mesh":30,"name":"TMB_cap_2_lag_1","rotation":[0.0058271996676921844,-0.008225787431001663,-0.003843453945592046,0.999941885471344],"translation":[-2.001178503036499,5.031795978546143,0]},{"mesh":31,"name":"TMB_cap_2_post_L","rotation":[-0.0037344489246606827,0.006541748996824026,-0.006940440274775028,0.9999475479125977],"translation":[-3.3315768241882324,2.3499999046325684,-0.8922938704490662]},{"mesh":32,"name":"TMB_cap_2_post_R","rotation":[0.0023202765733003616,-0.012619834393262863,-0.004731241147965193,0.9999064803123474],"translation":[3.3104560375213623,2.3499999046325684,-0.8555892109870911]},{"mesh":33,"name":"TMB_cap_3_cap","rotation":[0.0010423948988318443,0.0033077856060117483,-0.0047779385931789875,0.9999825954437256],"translation":[0,4.8432817459106445,-2.625]},{"mesh":34,"name":"TMB_cap_3_lag_0","rotation":[0.018966808915138245,-0.01111659500747919,0.007829353213310242,0.9997277855873108],"translation":[0.6068238615989685,5.045080184936523,-3.5]},{"mesh":35,"name":"TMB_cap_3_lag_1","rotation":[-0.00901829358190298,-0.023819325491786003,0.014738797210156918,0.9995669722557068],"translation":[-0.7428005933761597,5.058448791503906,-1.75]},{"mesh":36,"name":"TMB_cap_3_post_L","rotation":[0.00666514877229929,0.0019759393762797117,-0.004282624460756779,0.9999666810035706],"translation":[-3.3345704078674316,2.3499999046325684,-2.6364495754241943]},{"mesh":37,"name":"TMB_cap_3_post_R","rotation":[0.0070788864977657795,0.009800134226679802,-0.003118583932518959,0.9999220967292786],"translation":[3.321695566177368,2.3499999046325684,-2.6074254512786865]}],"materials":[{"doubleSided":true,"name":"MAT_RockWall_EXPORT","normalTexture":{"index":0},"pbrMetallicRoughness":{"baseColorTexture":{"index":1},"metallicFactor":0,"metallicRoughnessTexture":{"index":2}}},{"doubleSided":true,"name":"MAT_Rock_EXPORT","normalTexture":{"index":3},"pbrMetallicRoughness":{"baseColorTexture":{"index":4},"metallicFactor":0,"metallicRoughnessTexture":{"index":5}}},{"doubleSided":true,"name":"MAT_Floor_EXPORT","normalTexture":{"index":6},"pbrMetallicRoughness":{"baseColorTexture":{"index":7},"metallicFactor":0,"metallicRoughnessTexture":{"index":8}}},{"doubleSided":true,"name":"MAT_Timber_EXPORT","normalTexture":{"index":9},"pbrMetallicRoughness":{"baseColorTexture":{"index":10},"metallicFactor":0,"metallicRoughnessTexture":{"index":11}}}],"meshes":[{"name":"COL_cap_face-convcolonly","primitives":[{"attributes":{"POSITION":0,"NORMAL":1},"indices":2}]},{"name":"COL_cap_floor-convcolonly","primitives":[{"attributes":{"POSITION":3,"NORMAL":4},"indices":2}]},{"name":"COL_cap_wall_E-convcolonly","primitives":[{"attributes":{"POSITION":5,"NORMAL":6},"indices":2}]},{"name":"COL_cap_wall_W-convcolonly","primitives":[{"attributes":{"POSITION":7,"NORMAL":8},"indices":2}]},{"name":"FACE_cap_wall","primitives":[{"attributes":{"POSITION":9,"NORMAL":10,"TEXCOORD_0":11},"indices":12,"material":0}]},{"name":"PRP_cap_rock_0","primitives":[{"attributes":{"POSITION":13,"NORMAL":14,"TEXCOORD_0":15},"indices":16,"material":1}]},{"name":"PRP_cap_rock_1","primitives":[{"attributes":{"POSITION":17,"NORMAL":18,"TEXCOORD_0":19},"indices":20,"material":1}]},{"name":"PRP_cap_rock_2","primitives":[{"attributes":{"POSITION":21,"NORMAL":22,"TEXCOORD_0":23},"indices":24,"material":1}]},{"name":"PRP_cap_rock_3","primitives":[{"attributes":{"POSITION":25,"NORMAL":26,"TEXCOORD_0":27},"indices":28,"material":1}]},{"name":"PRP_cap_rock_4","primitives":[{"attributes":{"POSITION":29,"NORMAL":30,"TEXCOORD_0":31},"indices":32,"material":1}]},{"name":"PRP_cap_rock_5","primitives":[{"attributes":{"POSITION":33,"NORMAL":34,"TEXCOORD_0":35},"indices":36,"material":1}]},{"name":"PRP_cap_rock_6","primitives":[{"attributes":{"POSITION":37,"NORMAL":38,"TEXCOORD_0":39},"indices":40,"material":1}]},{"name":"PRP_cap_rock_7","primitives":[{"attributes":{"POSITION":41,"NORMAL":42,"TEXCOORD_0":43},"indices":44,"material":1}]},{"name":"PRP_cap_rock_8","primitives":[{"attributes":{"POSITION":45,"NORMAL":46,"TEXCOORD_0":47},"indices":48,"material":1}]},{"name":"PRP_cap_rock_9","primitives":[{"attributes":{"POSITION":49,"NORMAL":50,"TEXCOORD_0":51},"indices":52,"material":1}]},{"name":"PRP_cap_rock_10","primitives":[{"attributes":{"POSITION":53,"NORMAL":54,"TEXCOORD_0":55},"indices":56,"material":1}]},{"name":"PRP_cap_rock_11","primitives":[{"attributes":{"POSITION":57,"NORMAL":58,"TEXCOORD_0":59},"indices":60,"material":1}]},{"name":"SHL_cap","primitives":[{"attributes":{"POSITION":61,"NORMAL":62,"TEXCOORD_0":63},"indices":64,"material":0},{"attributes":{"POSITION":65,"NORMAL":66,"TEXCOORD_0":67},"indices":68,"material":2}]},{"name":"TMB_cap_0_cap","primitives":[{"attributes":{"POSITION":69,"NORMAL":70,"TEXCOORD_0":71},"indices":72,"material":3}]},{"name":"TMB_cap_0_lag_0","primitives":[{"attributes":{"POSITION":73,"NORMAL":74,"TEXCOORD_0":75},"indices":72,"material":3}]},{"name":"TMB_cap_0_lag_1","primitives":[{"attributes":{"POSITION":76,"NORMAL":77,"TEXCOORD_0":78},"indices":72,"material":3}]},{"name":"TMB_cap_0_post_L","primitives":[{"attributes":{"POSITION":79,"NORMAL":80,"TEXCOORD_0":81},"indices":72,"material":3}]},{"name":"TMB_cap_0_post_R","primitives":[{"attributes":{"POSITION":82,"NORMAL":83,"TEXCOORD_0":84},"indices":72,"material":3}]},{"name":"TMB_cap_1_cap","primitives":[{"attributes":{"POSITION":85,"NORMAL":86,"TEXCOORD_0":87},"indices":72,"material":3}]},{"name":"TMB_cap_1_lag_0","primitives":[{"attributes":{"POSITION":88,"NORMAL":89,"TEXCOORD_0":90},"indices":72,"material":3}]},{"name":"TMB_cap_1_lag_1","primitives":[{"attributes":{"POSITION":91,"NORMAL":92,"TEXCOORD_0":93},"indices":72,"material":3}]},{"name":"TMB_cap_1_post_L","primitives":[{"attributes":{"POSITION":94,"NORMAL":95,"TEXCOORD_0":96},"indices":72,"material":3}]},{"name":"TMB_cap_1_post_R","primitives":[{"attributes":{"POSITION":97,"NORMAL":98,"TEXCOORD_0":99},"indices":72,"material":3}]},{"name":"TMB_cap_2_cap","primitives":[{"attributes":{"POSITION":100,"NORMAL":101,"TEXCOORD_0":102},"indices":72,"material":3}]},{"name":"TMB_cap_2_lag_0","primitives":[{"attributes":{"POSITION":103,"NORMAL":104,"TEXCOORD_0":105},"indices":72,"material":3}]},{"name":"TMB_cap_2_lag_1","primitives":[{"attributes":{"POSITION":106,"NORMAL":107,"TEXCOORD_0":108},"indices":72,"material":3}]},{"name":"TMB_cap_2_post_L","primitives":[{"attributes":{"POSITION":109,"NORMAL":110,"TEXCOORD_0":111},"indices":72,"material":3}]},{"name":"TMB_cap_2_post_R","primitives":[{"attributes":{"POSITION":112,"NORMAL":113,"TEXCOORD_0":114},"indices":72,"material":3}]},{"name":"TMB_cap_3_cap","primitives":[{"attributes":{"POSITION":115,"NORMAL":116,"TEXCOORD_0":117},"indices":72,"material":3}]},{"name":"TMB_cap_3_lag_0","primitives":[{"attributes":{"POSITION":118,"NORMAL":119,"TEXCOORD_0":120},"indices":72,"material":3}]},{"name":"TMB_cap_3_lag_1","primitives":[{"attributes":{"POSITION":121,"NORMAL":122,"TEXCOORD_0":123},"indices":72,"material":3}]},{"name":"TMB_cap_3_post_L","primitives":[{"attributes":{"POSITION":124,"NORMAL":125,"TEXCOORD_0":126},"indices":72,"material":3}]},{"name":"TMB_cap_3_post_R","primitives":[{"attributes":{"POSITION":127,"NORMAL":128,"TEXCOORD_0":129},"indices":72,"material":3}]}],"textures":[{"sampler":0,"source":0},{"sampler":0,"source":1},{"sampler":0,"source":2},{"sampler":0,"source":3},{"sampler":0,"source":4},{"sampler":0,"source":5},{"sampler":0,"source":6},{"sampler":0,"source":7},{"sampler":0,"source":8},{"sampler":0,"source":9},{"sampler":0,"source":10},{"sampler":0,"source":11}],"images":[{"mimeType":"image/jpeg","name":"dark_rock_nor_gl","uri":"textures/rock_face_04_nor_gl.jpg"},{"mimeType":"image/jpeg","name":"dark_rock_Diffuse","uri":"textures/rock_face_04_Diffuse.jpg"},{"mimeType":"image/jpeg","name":"dark_rock_Rough","uri":"textures/rock_face_04_Rough.jpg"},{"mimeType":"image/jpeg","name":"dark_rock_02_nor_gl","uri":"textures/dark_rock_02_nor_gl.jpg"},{"mimeType":"image/jpeg","name":"dark_rock_02_Diffuse","uri":"textures/dark_rock_02_Diffuse.jpg"},{"mimeType":"image/jpeg","name":"dark_rock_02_Rough","uri":"textures/dark_rock_02_Rough.jpg"},{"mimeType":"image/jpeg","name":"brown_mud_rocks_01_nor_gl","uri":"textures/brown_mud_rocks_01_nor_gl.jpg"},{"mimeType":"image/jpeg","name":"brown_mud_rocks_01_Diffuse","uri":"textures/brown_mud_rocks_01_Diffuse.jpg"},{"mimeType":"image/jpeg","name":"brown_mud_rocks_01_Rough","uri":"textures/brown_mud_rocks_01_Rough.jpg"},{"mimeType":"image/jpeg","name":"dark_wooden_planks_nor_gl","uri":"textures/dark_wooden_planks_nor_gl.jpg"},{"mimeType":"image/jpeg","name":"dark_wooden_planks_Diffuse","uri":"textures/dark_wooden_planks_Diffuse.jpg"},{"mimeType":"image/jpeg","name":"dark_wooden_planks_Rough","uri":"textures/dark_wooden_planks_Rough.jpg"}],"accessors":[{"bufferView":0,"componentType":5126,"count":24,"max":[3.5,2.799999952316284,0.2750000059604645],"min":[-3.5,-2.799999952316284,-0.2750000059604645],"type":"VEC3"},{"bufferView":1,"componentType":5126,"count":24,"type":"VEC3"},{"bufferView":2,"componentType":5123,"count":36,"type":"SCALAR"},{"bufferView":3,"componentType":5126,"count":24,"max":[3.5,0.25,3.5],"min":[-3.5,-0.25,-3.5],"type":"VEC3"},{"bufferView":4,"componentType":5126,"count":24,"type":"VEC3"},{"bufferView":5,"componentType":5126,"count":24,"max":[0.15000000596046448,2.799999952316284,3.5],"min":[-0.15000000596046448,-2.799999952316284,-3.5],"type":"VEC3"},{"bufferView":6,"componentType":5126,"count":24,"type":"VEC3"},{"bufferView":7,"componentType":5126,"count":24,"max":[0.15000000596046448,2.799999952316284,3.5],"min":[-0.15000000596046448,-2.799999952316284,-3.5],"type":"VEC3"},{"bufferView":8,"componentType":5126,"count":24,"type":"VEC3"},{"bufferView":9,"componentType":5126,"count":1793,"max":[3.5,5.599999904632568,-2.9609439373016357],"min":[-3.5,0,-3.5],"type":"VEC3"},{"bufferView":10,"componentType":5126,"count":1793,"type":"VEC3"},{"bufferView":11,"componentType":5126,"count":1793,"type":"VEC2"},{"bufferView":12,"componentType":5123,"count":8478,"type":"SCALAR"},{"bufferView":13,"componentType":5126,"count":31,"max":[1.0794590711593628,0.923426628112793,0.9923713207244873],"min":[-1.0338447093963623,-1.1937174797058105,-1.0068213939666748],"type":"VEC3"},{"bufferView":14,"componentType":5126,"count":31,"type":"VEC3"},{"bufferView":15,"componentType":5126,"count":31,"type":"VEC2"},{"bufferView":16,"componentType":5123,"count":60,"type":"SCALAR"},{"bufferView":17,"componentType":5126,"count":30,"max":[1.0161412954330444,0.8664332032203674,0.9746922850608826],"min":[-0.763206422328949,-1.0534491539001465,-0.9810338616371155],"type":"VEC3"},{"bufferView":18,"componentType":5126,"count":30,"type":"VEC3"},{"bufferView":19,"componentType":5126,"count":30,"type":"VEC2"},{"bufferView":20,"componentType":5123,"count":60,"type":"SCALAR"},{"bufferView":21,"componentType":5126,"count":30,"max":[0.838094174861908,0.8030591011047363,0.9361575245857239],"min":[-0.8330788612365723,-0.8461570143699646,-1.062086582183838],"type":"VEC3"},{"bufferView":22,"componentType":5126,"count":30,"type":"VEC3"},{"bufferView":23,"componentType":5126,"count":30,"type":"VEC2"},{"bufferView":24,"componentType":5123,"count":60,"type":"SCALAR"},{"bufferView":25,"componentType":5126,"count":30,"max":[1.0370101928710938,1.231734037399292,1.0063438415527344],"min":[-0.888305127620697,-0.7667895555496216,-0.9643075466156006],"type":"VEC3"},{"bufferView":26,"componentType":5126,"count":30,"type":"VEC3"},{"bufferView":27,"componentType":5126,"count":30,"type":"VEC2"},{"bufferView":28,"componentType":5123,"count":60,"type":"SCALAR"},{"bufferView":29,"componentType":5126,"count":30,"max":[0.9232595562934875,1.0703164339065552,1.0408473014831543],"min":[-1.0777463912963867,-1.185333490371704,-0.7473685145378113],"type":"VEC3"},{"bufferView":30,"componentType":5126,"count":30,"type":"VEC3"},{"bufferView":31,"componentType":5126,"count":30,"type":"VEC2"},{"bufferView":32,"componentType":5123,"count":60,"type":"SCALAR"},{"bufferView":33,"componentType":5126,"count":30,"max":[0.9600251913070679,1.2427129745483398,0.9940670728683472],"min":[-0.828242301940918,-0.8608609437942505,-1.0219414234161377],"type":"VEC3"},{"bufferView":34,"componentType":5126,"count":30,"type":"VEC3"},{"bufferView":35,"componentType":5126,"count":30,"type":"VEC2"},{"bufferView":36,"componentType":5123,"count":60,"type":"SCALAR"},{"bufferView":37,"componentType":5126,"count":25,"max":[0.7168390154838562,1.10861337184906,0.7757481336593628],"min":[-0.7857568860054016,-1.1289489269256592,-0.9261958003044128],"type":"VEC3"},{"bufferView":38,"componentType":5126,"count":25,"type":"VEC3"},{"bufferView":39,"componentType":5126,"count":25,"type":"VEC2"},{"bufferView":40,"componentType":5123,"count":60,"type":"SCALAR"},{"bufferView":41,"componentType":5126,"count":31,"max":[0.9517501592636108,0.8213839530944824,0.8303664326667786],"min":[-1.0861804485321045,-0.8198813796043396,-0.996207058429718],"type":"VEC3"},{"bufferView":42,"componentType":5126,"count":31,"type":"VEC3"},{"bufferView":43,"componentType":5126,"count":31,"type":"VEC2"},{"bufferView":44,"componentType":5123,"count":60,"type":"SCALAR"},{"bufferView":45,"componentType":5126,"count":28,"max":[1.1084709167480469,0.778426468372345,0.8468150496482849],"min":[-1.046282172203064,-0.9558908343315125,-0.7802525162696838],"type":"VEC3"},{"bufferView":46,"componentType":5126,"count":28,"type":"VEC3"},{"bufferView":47,"componentType":5126,"count":28,"type":"VEC2"},{"bufferView":48,"componentType":5123,"count":60,"type":"SCALAR"},{"bufferView":49,"componentType":5126,"count":29,"max":[1.1084750890731812,0.7580142617225647,1.062488079071045],"min":[-1.0845261812210083,-0.9321399927139282,-0.762820839881897],"type":"VEC3"},{"bufferView":50,"componentType":5126,"count":29,"type":"VEC3"},{"bufferView":51,"componentType":5126,"count":29,"type":"VEC2"},{"bufferView":52,"componentType":5123,"count":60,"type":"SCALAR"},{"bufferView":53,"componentType":5126,"count":30,"max":[0.8726563453674316,1.0542778968811035,0.9656672477722168],"min":[-0.9263290762901306,-0.9676246643066406,-0.6967041492462158],"type":"VEC3"},{"bufferView":54,"componentType":5126,"count":30,"type":"VEC3"},{"bufferView":55,"componentType":5126,"count":30,"type":"VEC2"},{"bufferView":56,"componentType":5123,"count":60,"type":"SCALAR"},{"bufferView":57,"componentType":5126,"count":32,"max":[0.8913021087646484,0.7577225565910339,0.9827659130096436],"min":[-0.8533363938331604,-0.8511453866958618,-1.0056730508804321],"type":"VEC3"},{"bufferView":58,"componentType":5126,"count":32,"type":"VEC3"},{"bufferView":59,"componentType":5126,"count":32,"type":"VEC2"},{"bufferView":60,"componentType":5123,"count":60,"type":"SCALAR"},{"bufferView":61,"componentType":5126,"count":1311,"max":[3.5,5.599999904632568,3.5],"min":[-3.5,0,-3.5],"type":"VEC3"},{"bufferView":62,"componentType":5126,"count":1311,"type":"VEC3"},{"bufferView":63,"componentType":5126,"count":1311,"type":"VEC2"},{"bufferView":64,"componentType":5123,"count":7080,"type":"SCALAR"},{"bufferView":65,"componentType":5126,"count":441,"max":[3.5,0.05286344885826111,3.5],"min":[-3.5,0,-3.5],"type":"VEC3"},{"bufferView":66,"componentType":5126,"count":441,"type":"VEC3"},{"bufferView":67,"componentType":5126,"count":441,"type":"VEC2"},{"bufferView":68,"componentType":5123,"count":2400,"type":"SCALAR"},{"bufferView":69,"componentType":5126,"count":96,"max":[3.490000009536743,0.18000000715255737,0.18000000715255737],"min":[-3.490000009536743,-0.18000000715255737,-0.18000000715255737],"type":"VEC3"},{"bufferView":70,"componentType":5126,"count":96,"type":"VEC3"},{"bufferView":71,"componentType":5126,"count":96,"type":"VEC2"},{"bufferView":72,"componentType":5123,"count":132,"type":"SCALAR"},{"bufferView":73,"componentType":5126,"count":96,"max":[0.15000000596046448,0.02500000037252903,0.7875000238418579],"min":[-0.15000000596046448,-0.02500000037252903,-0.7875000238418579],"type":"VEC3"},{"bufferView":74,"componentType":5126,"count":96,"type":"VEC3"},{"bufferView":75,"componentType":5126,"count":96,"type":"VEC2"},{"bufferView":76,"componentType":5126,"count":96,"max":[0.15000000596046448,0.02500000037252903,0.7875000238418579],"min":[-0.15000000596046448,-0.02500000037252903,-0.7875000238418579],"type":"VEC3"},{"bufferView":77,"componentType":5126,"count":96,"type":"VEC3"},{"bufferView":78,"componentType":5126,"count":96,"type":"VEC2"},{"bufferView":79,"componentType":5126,"count":96,"max":[0.17000000178813934,2.4000000953674316,0.17000000178813934],"min":[-0.17000000178813934,-2.4000000953674316,-0.17000000178813934],"type":"VEC3"},{"bufferView":80,"componentType":5126,"count":96,"type":"VEC3"},{"bufferView":81,"componentType":5126,"count":96,"type":"VEC2"},{"bufferView":82,"componentType":5126,"count":96,"max":[0.17000000178813934,2.4000000953674316,0.17000000178813934],"min":[-0.17000000178813934,-2.4000000953674316,-0.17000000178813934],"type":"VEC3"},{"bufferView":83,"componentType":5126,"count":96,"type":"VEC3"},{"bufferView":84,"componentType":5126,"count":96,"type":"VEC2"},{"bufferView":85,"componentType":5126,"count":96,"max":[3.490000009536743,0.18000000715255737,0.18000000715255737],"min":[-3.490000009536743,-0.18000000715255737,-0.18000000715255737],"type":"VEC3"},{"bufferView":86,"componentType":5126,"count":96,"type":"VEC3"},{"bufferView":87,"componentType":5126,"count":96,"type":"VEC2"},{"bufferView":88,"componentType":5126,"count":96,"max":[0.15000000596046448,0.02500000037252903,0.7875000238418579],"min":[-0.15000000596046448,-0.02500000037252903,-0.7875000238418579],"type":"VEC3"},{"bufferView":89,"componentType":5126,"count":96,"type":"VEC3"},{"bufferView":90,"componentType":5126,"count":96,"type":"VEC2"},{"bufferView":91,"componentType":5126,"count":96,"max":[0.15000000596046448,0.02500000037252903,0.7875000238418579],"min":[-0.15000000596046448,-0.02500000037252903,-0.7875000238418579],"type":"VEC3"},{"bufferView":92,"componentType":5126,"count":96,"type":"VEC3"},{"bufferView":93,"componentType":5126,"count":96,"type":"VEC2"},{"bufferView":94,"componentType":5126,"count":96,"max":[0.17000000178813934,2.4000000953674316,0.17000000178813934],"min":[-0.17000000178813934,-2.4000000953674316,-0.17000000178813934],"type":"VEC3"},{"bufferView":95,"componentType":5126,"count":96,"type":"VEC3"},{"bufferView":96,"componentType":5126,"count":96,"type":"VEC2"},{"bufferView":97,"componentType":5126,"count":96,"max":[0.17000000178813934,2.4000000953674316,0.17000000178813934],"min":[-0.17000000178813934,-2.4000000953674316,-0.17000000178813934],"type":"VEC3"},{"bufferView":98,"componentType":5126,"count":96,"type":"VEC3"},{"bufferView":99,"componentType":5126,"count":96,"type":"VEC2"},{"bufferView":100,"componentType":5126,"count":96,"max":[3.490000009536743,0.18000000715255737,0.18000000715255737],"min":[-3.490000009536743,-0.18000000715255737,-0.18000000715255737],"type":"VEC3"},{"bufferView":101,"componentType":5126,"count":96,"type":"VEC3"},{"bufferView":102,"componentType":5126,"count":96,"type":"VEC2"},{"bufferView":103,"componentType":5126,"count":96,"max":[0.15000000596046448,0.02500000037252903,0.7875000238418579],"min":[-0.15000000596046448,-0.02500000037252903,-0.7875000238418579],"type":"VEC3"},{"bufferView":104,"componentType":5126,"count":96,"type":"VEC3"},{"bufferView":105,"componentType":5126,"count":96,"type":"VEC2"},{"bufferView":106,"componentType":5126,"count":96,"max":[0.15000000596046448,0.02500000037252903,0.7875000238418579],"min":[-0.15000000596046448,-0.02500000037252903,-0.7875000238418579],"type":"VEC3"},{"bufferView":107,"componentType":5126,"count":96,"type":"VEC3"},{"bufferView":108,"componentType":5126,"count":96,"type":"VEC2"},{"bufferView":109,"componentType":5126,"count":96,"max":[0.17000000178813934,2.4000000953674316,0.17000000178813934],"min":[-0.17000000178813934,-2.4000000953674316,-0.17000000178813934],"type":"VEC3"},{"bufferView":110,"componentType":5126,"count":96,"type":"VEC3"},{"bufferView":111,"componentType":5126,"count":96,"type":"VEC2"},{"bufferView":112,"componentType":5126,"count":96,"max":[0.17000000178813934,2.4000000953674316,0.17000000178813934],"min":[-0.17000000178813934,-2.4000000953674316,-0.17000000178813934],"type":"VEC3"},{"bufferView":113,"componentType":5126,"count":96,"type":"VEC3"},{"bufferView":114,"componentType":5126,"count":96,"type":"VEC2"},{"bufferView":115,"componentType":5126,"count":96,"max":[3.490000009536743,0.18000000715255737,0.18000000715255737],"min":[-3.490000009536743,-0.18000000715255737,-0.18000000715255737],"type":"VEC3"},{"bufferView":116,"componentType":5126,"count":96,"type":"VEC3"},{"bufferView":117,"componentType":5126,"count":96,"type":"VEC2"},{"bufferView":118,"componentType":5126,"count":96,"max":[0.15000000596046448,0.02500000037252903,0.7875000238418579],"min":[-0.15000000596046448,-0.02500000037252903,-0.7875000238418579],"type":"VEC3"},{"bufferView":119,"componentType":5126,"count":96,"type":"VEC3"},{"bufferView":120,"componentType":5126,"count":96,"type":"VEC2"},{"bufferView":121,"componentType":5126,"count":96,"max":[0.15000000596046448,0.02500000037252903,0.7875000238418579],"min":[-0.15000000596046448,-0.02500000037252903,-0.7875000238418579],"type":"VEC3"},{"bufferView":122,"componentType":5126,"count":96,"type":"VEC3"},{"bufferView":123,"componentType":5126,"count":96,"type":"VEC2"},{"bufferView":124,"componentType":5126,"count":96,"max":[0.17000000178813934,2.4000000953674316,0.17000000178813934],"min":[-0.17000000178813934,-2.4000000953674316,-0.17000000178813934],"type":"VEC3"},{"bufferView":125,"componentType":5126,"count":96,"type":"VEC3"},{"bufferView":126,"componentType":5126,"count":96,"type":"VEC2"},{"bufferView":127,"componentType":5126,"count":96,"max":[0.17000000178813934,2.4000000953674316,0.17000000178813934],"min":[-0.17000000178813934,-2.4000000953674316,-0.17000000178813934],"type":"VEC3"},{"bufferView":128,"componentType":5126,"count":96,"type":"VEC3"},{"bufferView":129,"componentType":5126,"count":96,"type":"VEC2"}],"bufferViews":[{"buffer":0,"byteLength":288,"byteOffset":0,"target":34962},{"buffer":0,"byteLength":288,"byteOffset":288,"target":34962},{"buffer":0,"byteLength":72,"byteOffset":576,"target":34963},{"buffer":0,"byteLength":288,"byteOffset":648,"target":34962},{"buffer":0,"byteLength":288,"byteOffset":936,"target":34962},{"buffer":0,"byteLength":288,"byteOffset":1224,"target":34962},{"buffer":0,"byteLength":288,"byteOffset":1512,"target":34962},{"buffer":0,"byteLength":288,"byteOffset":1800,"target":34962},{"buffer":0,"byteLength":288,"byteOffset":2088,"target":34962},{"buffer":0,"byteLength":21516,"byteOffset":2376,"target":34962},{"buffer":0,"byteLength":21516,"byteOffset":23892,"target":34962},{"buffer":0,"byteLength":14344,"byteOffset":45408,"target":34962},{"buffer":0,"byteLength":16956,"byteOffset":59752,"target":34963},{"buffer":0,"byteLength":372,"byteOffset":76708,"target":34962},{"buffer":0,"byteLength":372,"byteOffset":77080,"target":34962},{"buffer":0,"byteLength":248,"byteOffset":77452,"target":34962},{"buffer":0,"byteLength":120,"byteOffset":77700,"target":34963},{"buffer":0,"byteLength":360,"byteOffset":77820,"target":34962},{"buffer":0,"byteLength":360,"byteOffset":78180,"target":34962},{"buffer":0,"byteLength":240,"byteOffset":78540,"target":34962},{"buffer":0,"byteLength":120,"byteOffset":78780,"target":34963},{"buffer":0,"byteLength":360,"byteOffset":78900,"target":34962},{"buffer":0,"byteLength":360,"byteOffset":79260,"target":34962},{"buffer":0,"byteLength":240,"byteOffset":79620,"target":34962},{"buffer":0,"byteLength":120,"byteOffset":79860,"target":34963},{"buffer":0,"byteLength":360,"byteOffset":79980,"target":34962},{"buffer":0,"byteLength":360,"byteOffset":80340,"target":34962},{"buffer":0,"byteLength":240,"byteOffset":80700,"target":34962},{"buffer":0,"byteLength":120,"byteOffset":80940,"target":34963},{"buffer":0,"byteLength":360,"byteOffset":81060,"target":34962},{"buffer":0,"byteLength":360,"byteOffset":81420,"target":34962},{"buffer":0,"byteLength":240,"byteOffset":81780,"target":34962},{"buffer":0,"byteLength":120,"byteOffset":82020,"target":34963},{"buffer":0,"byteLength":360,"byteOffset":82140,"target":34962},{"buffer":0,"byteLength":360,"byteOffset":82500,"target":34962},{"buffer":0,"byteLength":240,"byteOffset":82860,"target":34962},{"buffer":0,"byteLength":120,"byteOffset":83100,"target":34963},{"buffer":0,"byteLength":300,"byteOffset":83220,"target":34962},{"buffer":0,"byteLength":300,"byteOffset":83520,"target":34962},{"buffer":0,"byteLength":200,"byteOffset":83820,"target":34962},{"buffer":0,"byteLength":120,"byteOffset":84020,"target":34963},{"buffer":0,"byteLength":372,"byteOffset":84140,"target":34962},{"buffer":0,"byteLength":372,"byteOffset":84512,"target":34962},{"buffer":0,"byteLength":248,"byteOffset":84884,"target":34962},{"buffer":0,"byteLength":120,"byteOffset":85132,"target":34963},{"buffer":0,"byteLength":336,"byteOffset":85252,"target":34962},{"buffer":0,"byteLength":336,"byteOffset":85588,"target":34962},{"buffer":0,"byteLength":224,"byteOffset":85924,"target":34962},{"buffer":0,"byteLength":120,"byteOffset":86148,"target":34963},{"buffer":0,"byteLength":348,"byteOffset":86268,"target":34962},{"buffer":0,"byteLength":348,"byteOffset":86616,"target":34962},{"buffer":0,"byteLength":232,"byteOffset":86964,"target":34962},{"buffer":0,"byteLength":120,"byteOffset":87196,"target":34963},{"buffer":0,"byteLength":360,"byteOffset":87316,"target":34962},{"buffer":0,"byteLength":360,"byteOffset":87676,"target":34962},{"buffer":0,"byteLength":240,"byteOffset":88036,"target":34962},{"buffer":0,"byteLength":120,"byteOffset":88276,"target":34963},{"buffer":0,"byteLength":384,"byteOffset":88396,"target":34962},{"buffer":0,"byteLength":384,"byteOffset":88780,"target":34962},{"buffer":0,"byteLength":256,"byteOffset":89164,"target":34962},{"buffer":0,"byteLength":120,"byteOffset":89420,"target":34963},{"buffer":0,"byteLength":15732,"byteOffset":89540,"target":34962},{"buffer":0,"byteLength":15732,"byteOffset":105272,"target":34962},{"buffer":0,"byteLength":10488,"byteOffset":121004,"target":34962},{"buffer":0,"byteLength":14160,"byteOffset":131492,"target":34963},{"buffer":0,"byteLength":5292,"byteOffset":145652,"target":34962},{"buffer":0,"byteLength":5292,"byteOffset":150944,"target":34962},{"buffer":0,"byteLength":3528,"byteOffset":156236,"target":34962},{"buffer":0,"byteLength":4800,"byteOffset":159764,"target":34963},{"buffer":0,"byteLength":1152,"byteOffset":164564,"target":34962},{"buffer":0,"byteLength":1152,"byteOffset":165716,"target":34962},{"buffer":0,"byteLength":768,"byteOffset":166868,"target":34962},{"buffer":0,"byteLength":264,"byteOffset":167636,"target":34963},{"buffer":0,"byteLength":1152,"byteOffset":167900,"target":34962},{"buffer":0,"byteLength":1152,"byteOffset":169052,"target":34962},{"buffer":0,"byteLength":768,"byteOffset":170204,"target":34962},{"buffer":0,"byteLength":1152,"byteOffset":170972,"target":34962},{"buffer":0,"byteLength":1152,"byteOffset":172124,"target":34962},{"buffer":0,"byteLength":768,"byteOffset":173276,"target":34962},{"buffer":0,"byteLength":1152,"byteOffset":174044,"target":34962},{"buffer":0,"byteLength":1152,"byteOffset":175196,"target":34962},{"buffer":0,"byteLength":768,"byteOffset":176348,"target":34962},{"buffer":0,"byteLength":1152,"byteOffset":177116,"target":34962},{"buffer":0,"byteLength":1152,"byteOffset":178268,"target":34962},{"buffer":0,"byteLength":768,"byteOffset":179420,"target":34962},{"buffer":0,"byteLength":1152,"byteOffset":180188,"target":34962},{"buffer":0,"byteLength":1152,"byteOffset":181340,"target":34962},{"buffer":0,"byteLength":768,"byteOffset":182492,"target":34962},{"buffer":0,"byteLength":1152,"byteOffset":183260,"target":34962},{"buffer":0,"byteLength":1152,"byteOffset":184412,"target":34962},{"buffer":0,"byteLength":768,"byteOffset":185564,"target":34962},{"buffer":0,"byteLength":1152,"byteOffset":186332,"target":34962},{"buffer":0,"byteLength":1152,"byteOffset":187484,"target":34962},{"buffer":0,"byteLength":768,"byteOffset":188636,"target":34962},{"buffer":0,"byteLength":1152,"byteOffset":189404,"target":34962},{"buffer":0,"byteLength":1152,"byteOffset":190556,"target":34962},{"buffer":0,"byteLength":768,"byteOffset":191708,"target":34962},{"buffer":0,"byteLength":1152,"byteOffset":192476,"target":34962},{"buffer":0,"byteLength":1152,"byteOffset":193628,"target":34962},{"buffer":0,"byteLength":768,"byteOffset":194780,"target":34962},{"buffer":0,"byteLength":1152,"byteOffset":195548,"target":34962},{"buffer":0,"byteLength":1152,"byteOffset":196700,"target":34962},{"buffer":0,"byteLength":768,"byteOffset":197852,"target":34962},{"buffer":0,"byteLength":1152,"byteOffset":198620,"target":34962},{"buffer":0,"byteLength":1152,"byteOffset":199772,"target":34962},{"buffer":0,"byteLength":768,"byteOffset":200924,"target":34962},{"buffer":0,"byteLength":1152,"byteOffset":201692,"target":34962},{"buffer":0,"byteLength":1152,"byteOffset":202844,"target":34962},{"buffer":0,"byteLength":768,"byteOffset":203996,"target":34962},{"buffer":0,"byteLength":1152,"byteOffset":204764,"target":34962},{"buffer":0,"byteLength":1152,"byteOffset":205916,"target":34962},{"buffer":0,"byteLength":768,"byteOffset":207068,"target":34962},{"buffer":0,"byteLength":1152,"byteOffset":207836,"target":34962},{"buffer":0,"byteLength":1152,"byteOffset":208988,"target":34962},{"buffer":0,"byteLength":768,"byteOffset":210140,"target":34962},{"buffer":0,"byteLength":1152,"byteOffset":210908,"target":34962},{"buffer":0,"byteLength":1152,"byteOffset":212060,"target":34962},{"buffer":0,"byteLength":768,"byteOffset":213212,"target":34962},{"buffer":0,"byteLength":1152,"byteOffset":213980,"target":34962},{"buffer":0,"byteLength":1152,"byteOffset":215132,"target":34962},{"buffer":0,"byteLength":768,"byteOffset":216284,"target":34962},{"buffer":0,"byteLength":1152,"byteOffset":217052,"target":34962},{"buffer":0,"byteLength":1152,"byteOffset":218204,"target":34962},{"buffer":0,"byteLength":768,"byteOffset":219356,"target":34962},{"buffer":0,"byteLength":1152,"byteOffset":220124,"target":34962},{"buffer":0,"byteLength":1152,"byteOffset":221276,"target":34962},{"buffer":0,"byteLength":768,"byteOffset":222428,"target":34962},{"buffer":0,"byteLength":1152,"byteOffset":223196,"target":34962},{"buffer":0,"byteLength":1152,"byteOffset":224348,"target":34962},{"buffer":0,"byteLength":768,"byteOffset":225500,"target":34962}],"samplers":[{"magFilter":9729,"minFilter":9987}],"buffers":[{"byteLength":226268,"uri":"piece_cap.bin"}]}