{"asset":{"generator":"Khronos glTF Blender I/O v5.2.39","version":"2.0"},"scene":0,"scenes":[{"name":"Scene","nodes":[0,1,2,3,4,5,6,7,8,9,10,11,12,13,14,15,16,17,18,19,20,21,22,23,24,25,26,27,28,29,30,31,32,33,34,35,36,37,38,39,40,41,42,43,44,45,46,47,48,49,50,51,52,53,54,55,56,57,58,59,60,61,62,63,64,65,66,67,68,69,70,71,72,73,74,75,76,77,78,79,80,81,82,83,84,85,86,87,88,89,90,91,92,93,94,95,96,97,98,99,100,101,102,103,104,105,106,107,108,109,110,111,112,113,114,115]}],"nodes":[{"mesh":0,"name":"COL_t_crib_0-convcolonly","translation":[3.0299999713897705,2.200000047683716,-3.0299999713897705]},{"mesh":1,"name":"COL_t_crib_1-convcolonly","translation":[3.0299999713897705,2.200000047683716,3.0299999713897705]},{"mesh":2,"name":"COL_t_floor-convcolonly","translation":[0,-0.25,0]},{"mesh":3,"name":"COL_t_wall_W-convcolonly","translation":[-3.3499999046325684,2.799999952316284,0]},{"mesh":4,"name":"PRP_t_rock_0","rotation":[-0.43084174394607544,-0.43084174394607544,0.19244980812072754,0.7692294120788574],"scale":[0.11079825460910797,0.06967989355325699,0.09480073302984238],"translation":[0.8705431222915649,0.03703968971967697,-1.2398852109909058]},{"mesh":5,"name":"PRP_t_rock_1","rotation":[-0.0931624248623848,-0.0931624174118042,0.07829718291759491,0.9881857633590698],"scale":[0.14627473056316376,0.09040427207946777,0.17527957260608673],"translation":[0.03662256523966789,0.048762135207653046,1.343095302581787]},{"mesh":6,"name":"PRP_t_rock_2","rotation":[0.09887737035751343,0.09887737035751343,-0.6696736812591553,0.7293722033500671],"scale":[0.09043966233730316,0.09869253635406494,0.11468923091888428],"translation":[-0.25443071126937866,0.044783011078834534,1.2002588510513306]},{"mesh":7,"name":"PRP_t_rock_3","rotation":[-0.11873212456703186,-0.11873214691877365,-0.6508113741874695,0.7404390573501587],"scale":[0.08478962630033493,0.04843791201710701,0.05915794149041176],"translation":[-0.9390213489532471,0.02333207055926323,1.4829611778259277]},{"mesh":8,"name":"PRP_t_rock_4","rotation":[0.16369861364364624,0.16369861364364624,-0.5801677107810974,0.7809039950370789],"scale":[0.058233603835105896,0.062124550342559814,0.08468703180551529],"translation":[-0.4177730977535248,0.028751224279403687,-1.8212318420410156]},{"mesh":9,"name":"PRP_t_rock_5","rotation":[-0.20523719489574432,-0.20523719489574432,0.1419411599636078,0.9463657736778259],"scale":[0.16951099038124084,0.06875640153884888,0.130515456199646],"translation":[-2.054844379425049,0.046158526092767715,-0.6109730005264282]},{"mesh":10,"name":"PRP_t_rock_6","rotation":[-0.19244687259197235,-0.19244687259197235,-0.4320652186870575,0.8597955107688904],"scale":[0.1031947135925293,0.1053442731499672,0.11311651766300201],"translation":[-0.5605241060256958,0.04667428508400917,-2.021104335784912]},{"mesh":11,"name":"PRP_t_rock_7","rotation":[-0.13489854335784912,-0.13489854335784912,-0.1899518370628357,0.963080108165741],"scale":[0.12592007219791412,0.09774795174598694,0.09336347877979279],"translation":[-2.2945048809051514,0.04576479271054268,-0.31171634793281555]},{"mesh":12,"name":"PRP_t_rock_8","rotation":[0.17566683888435364,0.17566683888435364,-0.30177590250968933,0.9204421043395996],"scale":[0.10723114758729935,0.06627056747674942,0.10972299426794052],"translation":[-1.3237453699111938,0.032919298857450485,-1.3178260326385498]},{"mesh":13,"name":"PRP_t_rock_9","rotation":[-0.6821810007095337,-0.6821810603141785,0.08178875595331192,0.2501375377178192],"scale":[0.06906308978796005,0.035145360976457596,0.040576159954071045],"translation":[0.019620317965745926,0.019209345802664757,0.6106868386268616]},{"mesh":14,"name":"SHL_t"},{"name":"SLOT_Pocket_t_0","translation":[-3.4200000762939453,1.899999976158142,1.75]},{"name":"SLOT_Pocket_t_1","translation":[-3.4200000762939453,1.899999976158142,-1.75]},{"mesh":15,"name":"TMB_t_0_crib_0_0","rotation":[0,-0.009563644416630268,0,0.9999542832374573],"translation":[3.0374577045440674,0.10000000149011612,-2.680000066757202]},{"mesh":16,"name":"TMB_t_0_crib_0_2","rotation":[0,0.004190223757177591,0,0.999991238117218],"translation":[3.0206449031829834,0.10000000149011612,-3.380000114440918]},{"mesh":17,"name":"TMB_t_0_crib_1_0","rotation":[0,-0.0005346344551071525,0,1],"translation":[2.680000066757202,0.30000001192092896,-3.0379140377044678]},{"mesh":18,"name":"TMB_t_0_crib_1_2","rotation":[0,-0.009996259585022926,0,0.9999500513076782],"translation":[3.380000114440918,0.30000001192092896,-3.0317435264587402]},{"mesh":19,"name":"TMB_t_0_crib_2_0","rotation":[0,0.008536442182958126,0,0.9999635815620422],"translation":[3.0278303623199463,0.5,-2.680000066757202]},{"mesh":20,"name":"TMB_t_0_crib_2_2","rotation":[0,0.007109194062650204,0,0.9999747276306152],"translation":[3.0365118980407715,0.5,-3.380000114440918]},{"mesh":21,"name":"TMB_t_0_crib_3_0","rotation":[0,-0.005030673462897539,0,0.9999873638153076],"translation":[2.680000066757202,0.699999988079071,-3.039444923400879]},{"mesh":22,"name":"TMB_t_0_crib_3_2","rotation":[0,-0.006912377662956715,0,0.9999760985374451],"translation":[3.380000114440918,0.699999988079071,-3.0221810340881348]},{"mesh":23,"name":"TMB_t_0_crib_4_0","rotation":[0,0.003641493385657668,0,0.9999933838844299],"translation":[3.030447244644165,0.8999999761581421,-2.680000066757202]},{"mesh":24,"name":"TMB_t_0_crib_4_2","rotation":[0,0.004434691276401281,0,0.9999901652336121],"translation":[3.038829803466797,0.8999999761581421,-3.380000114440918]},{"mesh":25,"name":"TMB_t_0_crib_5_0","rotation":[0,0.00529598630964756,0,0.9999859929084778],"translation":[2.680000066757202,1.100000023841858,-3.032947063446045]},{"mesh":26,"name":"TMB_t_0_crib_5_2","rotation":[0,0.0010300183203071356,0,1],"translation":[3.380000114440918,1.100000023841858,-3.029146432876587]},{"mesh":27,"name":"TMB_t_0_crib_6_0","rotation":[0,0.005645942874252796,0,0.999984085559845],"translation":[3.0207908153533936,1.2999999523162842,-2.680000066757202]},{"mesh":28,"name":"TMB_t_0_crib_6_2","rotation":[0,0.00839830469340086,0,0.9999647736549377],"translation":[3.024651527404785,1.2999999523162842,-3.380000114440918]},{"mesh":29,"name":"TMB_t_0_crib_7_0","rotation":[0,-0.0039243451319634914,0,0.999992311000824],"translation":[2.680000066757202,1.5,-3.032910108566284]},{"mesh":30,"name":"TMB_t_0_crib_7_2","rotation":[0,-0.00496410159394145,0,0.999987781047821],"translation":[3.380000114440918,1.5,-3.022559404373169]},{"mesh":31,"name":"TMB_t_0_crib_8_0","rotation":[0,0.003971627447754145,0,0.9999921321868896],"translation":[3.0327258110046387,1.7000000476837158,-2.680000066757202]},{"mesh":32,"name":"TMB_t_0_crib_8_2","rotation":[0,-0.008592857979238033,0,0.999963104724884],"translation":[3.022242546081543,1.7000000476837158,-3.380000114440918]},{"mesh":33,"name":"TMB_t_0_crib_9_0","rotation":[0,0.0016578187933191657,0,1],"translation":[2.680000066757202,1.899999976158142,-3.0304887294769287]},{"mesh":34,"name":"TMB_t_0_crib_9_2","rotation":[0,-0.005528310779482126,0,0.9999847412109375],"translation":[3.380000114440918,1.899999976158142,-3.027761697769165]},{"mesh":35,"name":"TMB_t_0_crib_10_0","rotation":[0,-0.009790610522031784,0,0.9999520778656006],"translation":[3.0320212841033936,2.0999999046325684,-2.680000066757202]},{"mesh":36,"name":"TMB_t_0_crib_10_2","rotation":[0,-0.000786187534686178,0,1],"translation":[3.0260305404663086,2.0999999046325684,-3.380000114440918]},{"mesh":37,"name":"TMB_t_0_crib_11_0","rotation":[0,0.0028915090952068567,0,0.9999958276748657],"translation":[2.680000066757202,2.299999952316284,-3.0391788482666016]},{"mesh":38,"name":"TMB_t_0_crib_11_2","rotation":[0,-0.0004939155769534409,0,1],"translation":[3.380000114440918,2.299999952316284,-3.037675380706787]},{"mesh":39,"name":"TMB_t_0_crib_12_0","rotation":[0,-0.005058811511844397,0,0.9999872446060181],"translation":[3.02469539642334,2.5,-2.680000066757202]},{"mesh":40,"name":"TMB_t_0_crib_12_2","rotation":[0,0.004093062598258257,0,0.9999917149543762],"translation":[3.039212226867676,2.5,-3.380000114440918]},{"mesh":41,"name":"TMB_t_0_crib_13_0","rotation":[0,-0.009564107283949852,0,0.9999542832374573],"translation":[2.680000066757202,2.700000047683716,-3.0261478424072266]},{"mesh":42,"name":"TMB_t_0_crib_13_2","rotation":[0,0.0034892584662884474,0,0.9999939203262329],"translation":[3.380000114440918,2.700000047683716,-3.029966115951538]},{"mesh":43,"name":"TMB_t_0_crib_14_0","rotation":[0,-0.004854858852922916,0,0.999988317489624],"translation":[3.028400421142578,2.9000000953674316,-2.680000066757202]},{"mesh":44,"name":"TMB_t_0_crib_14_2","rotation":[0,0.008503115735948086,0,0.9999639391899109],"translation":[3.0333471298217773,2.9000000953674316,-3.380000114440918]},{"mesh":45,"name":"TMB_t_0_crib_15_0","rotation":[0,-0.009317916817963123,0,0.9999566078186035],"translation":[2.680000066757202,3.0999999046325684,-3.024535655975342]},{"mesh":46,"name":"TMB_t_0_crib_15_2","rotation":[0,-0.001588862738572061,0,1],"translation":[3.380000114440918,3.0999999046325684,-3.026761054992676]},{"mesh":47,"name":"TMB_t_0_crib_16_0","rotation":[0,-0.006038371007889509,0,0.9999817609786987],"translation":[3.033651351928711,3.299999952316284,-2.680000066757202]},{"mesh":48,"name":"TMB_t_0_crib_16_2","rotation":[0,0.004782566335052252,0,0.9999885559082031],"translation":[3.0359413623809814,3.299999952316284,-3.380000114440918]},{"mesh":49,"name":"TMB_t_0_crib_17_0","rotation":[0,-0.005895595066249371,0,0.9999827146530151],"translation":[2.680000066757202,3.5,-3.030097484588623]},{"mesh":50,"name":"TMB_t_0_crib_17_2","rotation":[0,-0.003765676636248827,0,0.9999929070472717],"translation":[3.380000114440918,3.5,-3.0393972396850586]},{"mesh":51,"name":"TMB_t_0_crib_18_0","rotation":[0,-0.005383798386901617,0,0.9999855160713196],"translation":[3.036400079727173,3.700000047683716,-2.680000066757202]},{"mesh":52,"name":"TMB_t_0_crib_18_2","rotation":[0,0.005209391936659813,0,0.999986469745636],"translation":[3.0244288444519043,3.700000047683716,-3.380000114440918]},{"mesh":53,"name":"TMB_t_0_crib_19_0","rotation":[0,0.009038414806127548,0,0.9999591708183289],"translation":[2.680000066757202,3.9000000953674316,-3.0258986949920654]},{"mesh":54,"name":"TMB_t_0_crib_19_2","rotation":[0,-0.006253695115447044,0,0.9999804496765137],"translation":[3.380000114440918,3.9000000953674316,-3.0299153327941895]},{"mesh":55,"name":"TMB_t_0_crib_20_0","rotation":[0,-0.0016594176413491368,0,1],"translation":[3.0244665145874023,4.099999904632568,-2.680000066757202]},{"mesh":56,"name":"TMB_t_0_crib_20_2","rotation":[0,0.008975106291472912,0,0.9999597668647766],"translation":[3.0333058834075928,4.099999904632568,-3.380000114440918]},{"mesh":57,"name":"TMB_t_0_crib_21_0","rotation":[0,-0.002130798762664199,0,0.9999977350234985],"translation":[2.680000066757202,4.300000190734863,-3.022927761077881]},{"mesh":58,"name":"TMB_t_0_crib_21_2","rotation":[0,0.009482252411544323,0,0.9999550580978394],"translation":[3.380000114440918,4.300000190734863,-3.024259090423584]},{"mesh":59,"name":"TMB_t_1_crib_0_0","rotation":[0,-0.008963070809841156,0,0.9999598264694214],"translation":[3.0228381156921387,0.10000000149011612,3.380000114440918]},{"mesh":60,"name":"TMB_t_1_crib_0_2","rotation":[0,-0.002133564790710807,0,0.9999977350234985],"translation":[3.021202802658081,0.10000000149011612,2.680000066757202]},{"mesh":61,"name":"TMB_t_1_crib_1_0","rotation":[0,0.007671598810702562,0,0.9999706149101257],"translation":[2.680000066757202,0.30000001192092896,3.022036552429199]},{"mesh":62,"name":"TMB_t_1_crib_1_2","rotation":[0,0.009950433857738972,0,0.9999505877494812],"translation":[3.380000114440918,0.30000001192092896,3.02534556388855]},{"mesh":63,"name":"TMB_t_1_crib_2_0","rotation":[0,-0.0034151382278651,0,0.999994158744812],"translation":[3.0386319160461426,0.5,3.380000114440918]},{"mesh":64,"name":"TMB_t_1_crib_2_2","rotation":[0,0.008717522025108337,0,0.9999620914459229],"translation":[3.023710250854492,0.5,2.680000066757202]},{"mesh":65,"name":"TMB_t_1_crib_3_0","rotation":[0,-0.009361990727484226,0,0.9999561905860901],"translation":[2.680000066757202,0.699999988079071,3.025073766708374]},{"mesh":66,"name":"TMB_t_1_crib_3_2","rotation":[0,-0.0024276096373796463,0,0.999997079372406],"translation":[3.380000114440918,0.699999988079071,3.0267114639282227]},{"mesh":67,"name":"TMB_t_1_crib_4_0","rotation":[0,-0.003366044256836176,0,0.9999943375587463],"translation":[3.027477741241455,0.8999999761581421,3.380000114440918]},{"mesh":68,"name":"TMB_t_1_crib_4_2","rotation":[0,-0.009942421689629555,0,0.9999505877494812],"translation":[3.0233852863311768,0.8999999761581421,2.680000066757202]},{"mesh":69,"name":"TMB_t_1_crib_5_0","rotation":[0,-0.002970658475533128,0,0.9999955892562866],"translation":[2.680000066757202,1.100000023841858,3.0344038009643555]},{"mesh":70,"name":"TMB_t_1_crib_5_2","rotation":[0,-0.007525763940066099,0,0.9999716877937317],"translation":[3.380000114440918,1.100000023841858,3.0208897590637207]},{"mesh":71,"name":"TMB_t_1_crib_6_0","rotation":[0,-0.005851918365806341,0,0.9999828934669495],"translation":[3.03928542137146,1.2999999523162842,3.380000114440918]},{"mesh":72,"name":"TMB_t_1_crib_6_2","rotation":[0,0.006431428249925375,0,0.9999793171882629],"translation":[3.027132511138916,1.2999999523162842,2.680000066757202]},{"mesh":73,"name":"TMB_t_1_crib_7_0","rotation":[0,-0.001351012964732945,0,1],"translation":[2.680000066757202,1.5,3.023559808731079]},{"mesh":74,"name":"TMB_t_1_crib_7_2","rotation":[0,-0.0005307189421728253,0,1],"translation":[3.380000114440918,1.5,3.0390148162841797]},{"mesh":75,"name":"TMB_t_1_crib_8_0","rotation":[0,0.00839003175497055,0,0.9999648928642273],"translation":[3.027454376220703,1.7000000476837158,3.380000114440918]},{"mesh":76,"name":"TMB_t_1_crib_8_2","rotation":[0,-0.0027150195091962814,0,0.9999963045120239],"translation":[3.023860454559326,1.7000000476837158,2.680000066757202]},{"mesh":77,"name":"TMB_t_1_crib_9_0","rotation":[0,-0.009394221007823944,0,0.9999558925628662],"translation":[2.680000066757202,1.899999976158142,3.0220601558685303]},{"mesh":78,"name":"TMB_t_1_crib_9_2","rotation":[0,0.0062364498153328896,0,0.9999805688858032],"translation":[3.380000114440918,1.899999976158142,3.0317840576171875]},{"mesh":79,"name":"TMB_t_1_crib_10_0","rotation":[0,-0.009186881594359875,0,0.999957799911499],"translation":[3.0353333950042725,2.0999999046325684,3.380000114440918]},{"mesh":80,"name":"TMB_t_1_crib_10_2","rotation":[0,-0.008748289197683334,0,0.9999617338180542],"translation":[3.0206971168518066,2.0999999046325684,2.680000066757202]},{"mesh":81,"name":"TMB_t_1_crib_11_0","rotation":[0,-0.0048596616834402084,0,0.9999881982803345],"translation":[2.680000066757202,2.299999952316284,3.0215985774993896]},{"mesh":82,"name":"TMB_t_1_crib_11_2","rotation":[0,0.007970950566232204,0,0.9999682307243347],"translation":[3.380000114440918,2.299999952316284,3.0250542163848877]},{"mesh":83,"name":"TMB_t_1_crib_12_0","rotation":[0,-0.004553691018372774,0,0.9999896287918091],"translation":[3.0267813205718994,2.5,3.380000114440918]},{"mesh":84,"name":"TMB_t_1_crib_12_2","rotation":[0,0.002339567756280303,0,0.9999972581863403],"translation":[3.039153814315796,2.5,2.680000066757202]},{"mesh":85,"name":"TMB_t_1_crib_13_0","rotation":[0,0.00433270214125514,0,0.999990701675415],"translation":[2.680000066757202,2.700000047683716,3.034756660461426]},{"mesh":86,"name":"TMB_t_1_crib_13_2","rotation":[0,-0.00448737945407629,0,0.999989926815033],"translation":[3.380000114440918,2.700000047683716,3.033670425415039]},{"mesh":87,"name":"TMB_t_1_crib_14_0","rotation":[0,0.005113025661557913,0,0.9999869465827942],"translation":[3.0200753211975098,2.9000000953674316,3.380000114440918]},{"mesh":88,"name":"TMB_t_1_crib_14_2","rotation":[0,0.0026795975863933563,0,0.9999964237213135],"translation":[3.0383291244506836,2.9000000953674316,2.680000066757202]},{"mesh":89,"name":"TMB_t_1_crib_15_0","rotation":[0,-0.009514722973108292,0,0.9999548196792603],"translation":[2.680000066757202,3.0999999046325684,3.021135091781616]},{"mesh":90,"name":"TMB_t_1_crib_15_2","rotation":[0,-0.0004962188540957868,0,1],"translation":[3.380000114440918,3.0999999046325684,3.035322666168213]},{"mesh":91,"name":"TMB_t_1_crib_16_0","rotation":[0,0.009078086353838444,0,0.9999588131904602],"translation":[3.039135456085205,3.299999952316284,3.380000114440918]},{"mesh":92,"name":"TMB_t_1_crib_16_2","rotation":[0,-0.0049790432676672935,0,0.9999876022338867],"translation":[3.0277302265167236,3.299999952316284,2.680000066757202]},{"mesh":93,"name":"TMB_t_1_crib_17_0","rotation":[0,-0.00013052314170636237,0,1],"translation":[2.680000066757202,3.5,3.0314011573791504]},{"mesh":94,"name":"TMB_t_1_crib_17_2","rotation":[0,-0.006341172847896814,0,0.9999799132347107],"translation":[3.380000114440918,3.5,3.0214381217956543]},{"mesh":95,"name":"TMB_t_1_crib_18_0","rotation":[0,0.004769742488861084,0,0.9999886155128479],"translation":[3.0360512733459473,3.700000047683716,3.380000114440918]},{"mesh":96,"name":"TMB_t_1_crib_18_2","rotation":[0,0.005456161219626665,0,0.9999852180480957],"translation":[3.0364551544189453,3.700000047683716,2.680000066757202]},{"mesh":97,"name":"TMB_t_1_crib_19_0","rotation":[0,-0.003443997586145997,0,0.999994158744812],"translation":[2.680000066757202,3.9000000953674316,3.0278549194335938]},{"mesh":98,"name":"TMB_t_1_crib_19_2","rotation":[0,-0.0027628277894109488,0,0.9999961853027344],"translation":[3.380000114440918,3.9000000953674316,3.033608913421631]},{"mesh":99,"name":"TMB_t_1_crib_20_0","rotation":[0,-0.008419604040682316,0,0.9999645948410034],"translation":[3.035645008087158,4.099999904632568,3.380000114440918]},{"mesh":100,"name":"TMB_t_1_crib_20_2","rotation":[0,0.005057692993432283,0,0.9999873042106628],"translation":[3.0239462852478027,4.099999904632568,2.680000066757202]},{"mesh":101,"name":"TMB_t_1_crib_21_0","rotation":[0,-0.008705230429768562,0,0.9999621510505676],"translation":[2.680000066757202,4.300000190734863,3.0350539684295654]},{"mesh":102,"name":"TMB_t_1_crib_21_2","rotation":[0,0.0010518926428630948,0,1],"translation":[3.380000114440918,4.300000190734863,3.0393226146698]},{"mesh":103,"name":"TMB_t_capEW_0","translation":[0,4.650000095367432,2.887500047683716]},{"mesh":104,"name":"TMB_t_capEW_1","translation":[0,4.650000095367432,-2.887500047683716]},{"mesh":105,"name":"TMB_t_capNS","translation":[3.049999952316284,5.110000133514404,0]},{"mesh":106,"name":"TMB_t_lag_0","rotation":[0,0.9797853827476501,0,0.20005162060260773],"translation":[-0.7666632533073425,5.619999885559082,-2.1131253242492676]},{"mesh":107,"name":"TMB_t_lag_1","rotation":[0,0.12995938956737518,0,0.9915193319320679],"translation":[2.1464247703552246,5.619999885559082,1.0344781875610352]},{"mesh":108,"name":"TMB_t_lag_2","rotation":[0,0.8912733793258667,0,0.45346662402153015],"translation":[-1.775740623474121,5.619999885559082,0.006708818953484297]},{"mesh":109,"name":"TMB_t_lag_3","rotation":[0,0.6020795702934265,0,0.798436164855957],"translation":[-0.2333623468875885,5.619999885559082,1.1695362329483032]},{"mesh":110,"name":"TMB_t_post_0","translation":[-3.3299999237060547,2.3499999046325684,2.625]},{"mesh":111,"name":"TMB_t_post_1","translation":[-3.3299999237060547,2.3499999046325684,0.875]},{"mesh":112,"name":"TMB_t_post_2","translation":[-3.3299999237060547,2.3499999046325684,-0.875]},{"mesh":113,"name":"TMB_t_post_3","translation":[-3.3299999237060547,2.3499999046325684,-2.625]}],"materials":[{"doubleSided":true,"name":"MAT_Rock_EXPORT","normalTexture":{"index":0},"pbrMetallicRoughness":{"baseColorTexture":{"index":1},"metallicFactor":0,"metallicRoughnessTexture":{"index":2}}},{"doubleSided":true,"name":"MAT_RockWall_EXPORT","normalTexture":{"index":3},"pbrMetallicRoughness":{"baseColorTexture":{"index":4},"metallicFactor":0,"metallicRoughnessTexture":{"index":5}}},{"doubleSided":true,"name":"MAT_Floor_EXPORT","normalTexture":{"index":6},"pbrMetallicRoughness":{"baseColorTexture":{"index":7},"metallicFactor":0,"metallicRoughnessTexture":{"index":8}}},{"doubleSided":true,"name":"MAT_Timber_EXPORT","normalTexture":{"index":9},"pbrMetallicRoughness":{"baseColorTexture":{"index":10},"metallicFactor":0,"metallicRoughnessTexture":{"index":11}}}],"meshes":[{"name":"COL_t_crib_0-convcolonly","primitives":[{"attributes":{"POSITION":0,"NORMAL":1},"indices":2}]},{"name":"COL_t_crib_1-convcolonly","primitives":[{"attributes":{"POSITION":3,"NORMAL":4},"indices":2}]},{"name":"COL_t_floor-convcolonly","primitives":[{"attributes":{"POSITION":5,"NORMAL":6},"indices":2}]},{"name":"COL_t_wall_W-convcolonly","primitives":[{"attributes":{"POSITION":7,"NORMAL":8},"indices":2}]},{"name":"PRP_t_rock_0","primitives":[{"attributes":{"POSITION":9,"NORMAL":10,"TEXCOORD_0":11},"indices":12,"material":0}]},{"name":"PRP_t_rock_1","primitives":[{"attributes":{"POSITION":13,"NORMAL":14,"TEXCOORD_0":15},"indices":16,"material":0}]},{"name":"PRP_t_rock_2","primitives":[{"attributes":{"POSITION":17,"NORMAL":18,"TEXCOORD_0":19},"indices":20,"material":0}]},{"name":"PRP_t_rock_3","primitives":[{"attributes":{"POSITION":21,"NORMAL":22,"TEXCOORD_0":23},"indices":24,"material":0}]},{"name":"PRP_t_rock_4","primitives":[{"attributes":{"POSITION":25,"NORMAL":26,"TEXCOORD_0":27},"indices":28,"material":0}]},{"name":"PRP_t_rock_5","primitives":[{"attributes":{"POSITION":29,"NORMAL":30,"TEXCOORD_0":31},"indices":32,"material":0}]},{"name":"PRP_t_rock_6","primitives":[{"attributes":{"POSITION":33,"NORMAL":34,"TEXCOORD_0":35},"indices":36,"material":0}]},{"name":"PRP_t_rock_7","primitives":[{"attributes":{"POSITION":37,"NORMAL":38,"TEXCOORD_0":39},"indices":40,"material":0}]},{"name":"PRP_t_rock_8","primitives":[{"attributes":{"POSITION":41,"NORMAL":42,"TEXCOORD_0":43},"indices":44,"material":0}]},{"name":"PRP_t_rock_9","primitives":[{"attributes":{"POSITION":45,"NORMAL":46,"TEXCOORD_0":47},"indices":48,"material":0}]},{"name":"SHL_t","primitives":[{"attributes":{"POSITION":49,"NORMAL":50,"TEXCOORD_0":51},"indices":52,"material":1},{"attributes":{"POSITION":53,"NORMAL":54,"TEXCOORD_0":55},"indices":56,"material":2}]},{"name":"TMB_t_0_crib_0_0","primitives":[{"attributes":{"POSITION":57,"NORMAL":58,"TEXCOORD_0":59},"indices":2,"material":3}]},{"name":"TMB_t_0_crib_0_2","primitives":[{"attributes":{"POSITION":60,"NORMAL":61,"TEXCOORD_0":62},"indices":2,"material":3}]},{"name":"TMB_t_0_crib_1_0","primitives":[{"attributes":{"POSITION":63,"NORMAL":64,"TEXCOORD_0":65},"indices":2,"material":3}]},{"name":"TMB_t_0_crib_1_2","primitives":[{"attributes":{"POSITION":66,"NORMAL":67,"TEXCOORD_0":68},"indices":2,"material":3}]},{"name":"TMB_t_0_crib_2_0","primitives":[{"attributes":{"POSITION":69,"NORMAL":70,"TEXCOORD_0":71},"indices":2,"material":3}]},{"name":"TMB_t_0_crib_2_2","primitives":[{"attributes":{"POSITION":72,"NORMAL":73,"TEXCOORD_0":74},"indices":2,"material":3}]},{"name":"TMB_t_0_crib_3_0","primitives":[{"attributes":{"POSITION":75,"NORMAL":76,"TEXCOORD_0":77},"indices":2,"material":3}]},{"name":"TMB_t_0_crib_3_2","primitives":[{"attributes":{"POSITION":78,"NORMAL":79,"TEXCOORD_0":80},"indices":2,"material":3}]},{"name":"TMB_t_0_crib_4_0","primitives":[{"attributes":{"POSITION":81,"NORMAL":82,"TEXCOORD_0":83},"indices":2,"material":3}]},{"name":"TMB_t_0_crib_4_2","primitives":[{"attributes":{"POSITION":84,"NORMAL":85,"TEXCOORD_0":86},"indices":2,"material":3}]},{"name":"TMB_t_0_crib_5_0","primitives":[{"attributes":{"POSITION":87,"NORMAL":88,"TEXCOORD_0":89},"indices":2,"material":3}]},{"name":"TMB_t_0_crib_5_2","primitives":[{"attributes":{"POSITION":90,"NORMAL":91,"TEXCOORD_0":92},"indices":2,"material":3}]},{"name":"TMB_t_0_crib_6_0","primitives":[{"attributes":{"POSITION":93,"NORMAL":94,"TEXCOORD_0":95},"indices":2,"material":3}]},{"name":"TMB_t_0_crib_6_2","primitives":[{"attributes":{"POSITION":96,"NORMAL":97,"TEXCOORD_0":98},"indices":2,"material":3}]},{"name":"TMB_t_0_crib_7_0","primitives":[{"attributes":{"POSITION":99,"NORMAL":100,"TEXCOORD_0":101},"indices":2,"material":3}]},{"name":"TMB_t_0_crib_7_2","primitives":[{"attributes":{"POSITION":102,"NORMAL":103,"TEXCOORD_0":104},"indices":2,"material":3}]},{"name":"TMB_t_0_crib_8_0","primitives":[{"attributes":{"POSITION":105,"NORMAL":106,"TEXCOORD_0":107},"indices":2,"material":3}]},{"name":"TMB_t_0_crib_8_2","primitives":[{"attributes":{"POSITION":108,"NORMAL":109,"TEXCOORD_0":110},"indices":2,"material":3}]},{"name":"TMB_t_0_crib_9_0","primitives":[{"attributes":{"POSITION":111,"NORMAL":112,"TEXCOORD_0":113},"indices":2,"material":3}]},{"name":"TMB_t_0_crib_9_2","primitives":[{"attributes":{"POSITION":114,"NORMAL":115,"TEXCOORD_0":116},"indices":2,"material":3}]},{"name":"TMB_t_0_crib_10_0","primitives":[{"attributes":{"POSITION":117,"NORMAL":118,"TEXCOORD_0":119},"indices":2,"material":3}]},{"name":"TMB_t_0_crib_10_2","primitives":[{"attributes":{"POSITION":120,"NORMAL":121,"TEXCOORD_0":122},"indices":2,"material":3}]},{"name":"TMB_t_0_crib_11_0","primitives":[{"attributes":{"POSITION":123,"NORMAL":124,"TEXCOORD_0":125},"indices":2,"material":3}]},{"name":"TMB_t_0_crib_11_2","primitives":[{"attributes":{"POSITION":126,"NORMAL":127,"TEXCOORD_0":128},"indices":2,"material":3}]},{"name":"TMB_t_0_crib_12_0","primitives":[{"attributes":{"POSITION":129,"NORMAL":130,"TEXCOORD_0":131},"indices":2,"material":3}]},{"name":"TMB_t_0_crib_12_2","primitives":[{"attributes":{"POSITION":132,"NORMAL":133,"TEXCOORD_0":134},"indices":2,"material":3}]},{"name":"TMB_t_0_crib_13_0","primitives":[{"attributes":{"POSITION":135,"NORMAL":136,"TEXCOORD_0":137},"indices":2,"material":3}]},{"name":"TMB_t_0_crib_13_2","primitives":[{"attributes":{"POSITION":138,"NORMAL":139,"TEXCOORD_0":140},"indices":2,"material":3}]},{"name":"TMB_t_0_crib_14_0","primitives":[{"attributes":{"POSITION":141,"NORMAL":142,"TEXCOORD_0":143},"indices":2,"material":3}]},{"name":"TMB_t_0_crib_14_2","primitives":[{"attributes":{"POSITION":144,"NORMAL":145,"TEXCOORD_0":146},"indices":2,"material":3}]},{"name":"TMB_t_0_crib_15_0","primitives":[{"attributes":{"POSITION":147,"NORMAL":148,"TEXCOORD_0":149},"indices":2,"material":3}]},{"name":"TMB_t_0_crib_15_2","primitives":[{"attributes":{"POSITION":150,"NORMAL":151,"TEXCOORD_0":152},"indices":2,"material":3}]},{"name":"TMB_t_0_crib_16_0","primitives":[{"attributes":{"POSITION":153,"NORMAL":154,"TEXCOORD_0":155},"indices":2,"material":3}]},{"name":"TMB_t_0_crib_16_2","primitives":[{"attributes":{"POSITION":156,"NORMAL":157,"TEXCOORD_0":158},"indices":2,"material":3}]},{"name":"TMB_t_0_crib_17_0","primitives":[{"attributes":{"POSITION":159,"NORMAL":160,"TEXCOORD_0":161},"indices":2,"material":3}]},{"name":"TMB_t_0_crib_17_2","primitives":[{"attributes":{"POSITION":162,"NORMAL":163,"TEXCOORD_0":164},"indices":2,"material":3}]},{"name":"TMB_t_0_crib_18_0","primitives":[{"attributes":{"POSITION":165,"NORMAL":166,"TEXCOORD_0":167},"indices":2,"material":3}]},{"name":"TMB_t_0_crib_18_2","primitives":[{"attributes":{"POSITION":168,"NORMAL":169,"TEXCOORD_0":170},"indices":2,"material":3}]},{"name":"TMB_t_0_crib_19_0","primitives":[{"attributes":{"POSITION":171,"NORMAL":172,"TEXCOORD_0":173},"indices":2,"material":3}]},{"name":"TMB_t_0_crib_19_2","primitives":[{"attributes":{"POSITION":174,"NORMAL":175,"TEXCOORD_0":176},"indices":2,"material":3}]},{"name":"TMB_t_0_crib_20_0","primitives":[{"attributes":{"POSITION":177,"NORMAL":178,"TEXCOORD_0":179},"indices":2,"material":3}]},{"name":"TMB_t_0_crib_20_2","primitives":[{"attributes":{"POSITION":180,"NORMAL":181,"TEXCOORD_0":182},"indices":2,"material":3}]},{"name":"TMB_t_0_crib_21_0","primitives":[{"attributes":{"POSITION":183,"NORMAL":184,"TEXCOORD_0":185},"indices":2,"material":3}]},{"name":"TMB_t_0_crib_21_2","primitives":[{"attributes":{"POSITION":186,"NORMAL":187,"TEXCOORD_0":188},"indices":2,"material":3}]},{"name":"TMB_t_1_crib_0_0","primitives":[{"attributes":{"POSITION":189,"NORMAL":190,"TEXCOORD_0":191},"indices":2,"material":3}]},{"name":"TMB_t_1_crib_0_2","primitives":[{"attributes":{"POSITION":192,"NORMAL":193,"TEXCOORD_0":194},"indices":2,"material":3}]},{"name":"TMB_t_1_crib_1_0","primitives":[{"attributes":{"POSITION":195,"NORMAL":196,"TEXCOORD_0":197},"indices":2,"material":3}]},{"name":"TMB_t_1_crib_1_2","primitives":[{"attributes":{"POSITION":198,"NORMAL":199,"TEXCOORD_0":200},"indices":2,"material":3}]},{"name":"TMB_t_1_crib_2_0","primitives":[{"attributes":{"POSITION":201,"NORMAL":202,"TEXCOORD_0":203},"indices":2,"material":3}]},{"name":"TMB_t_1_crib_2_2","primitives":[{"attributes":{"POSITION":204,"NORMAL":205,"TEXCOORD_0":206},"indices":2,"material":3}]},{"name":"TMB_t_1_crib_3_0","primitives":[{"attributes":{"POSITION":207,"NORMAL":208,"TEXCOORD_0":209},"indices":2,"material":3}]},{"name":"TMB_t_1_crib_3_2","primitives":[{"attributes":{"POSITION":210,"NORMAL":211,"TEXCOORD_0":212},"indices":2,"material":3}]},{"name":"TMB_t_1_crib_4_0","primitives":[{"attributes":{"POSITION":213,"NORMAL":214,"TEXCOORD_0":215},"indices":2,"material":3}]},{"name":"TMB_t_1_crib_4_2","primitives":[{"attributes":{"POSITION":216,"NORMAL":217,"TEXCOORD_0":218},"indices":2,"material":3}]},{"name":"TMB_t_1_crib_5_0","primitives":[{"attributes":{"POSITION":219,"NORMAL":220,"TEXCOORD_0":221},"indices":2,"material":3}]},{"name":"TMB_t_1_crib_5_2","primitives":[{"attributes":{"POSITION":222,"NORMAL":223,"TEXCOORD_0":224},"indices":2,"material":3}]},{"name":"TMB_t_1_crib_6_0","primitives":[{"attributes":{"POSITION":225,"NORMAL":226,"TEXCOORD_0":227},"indices":2,"material":3}]},{"name":"TMB_t_1_crib_6_2","primitives":[{"attributes":{"POSITION":228,"NORMAL":229,"TEXCOORD_0":230},"indices":2,"material":3}]},{"name":"TMB_t_1_crib_7_0","primitives":[{"attributes":{"POSITION":231,"NORMAL":232,"TEXCOORD_0":233},"indices":2,"material":3}]},{"name":"TMB_t_1_crib_7_2","primitives":[{"attributes":{"POSITION":234,"NORMAL":235,"TEXCOORD_0":236},"indices":2,"material":3}]},{"name":"TMB_t_1_crib_8_0","primitives":[{"attributes":{"POSITION":237,"NORMAL":238,"TEXCOORD_0":239},"indices":2,"material":3}]},{"name":"TMB_t_1_crib_8_2","primitives":[{"attributes":{"POSITION":240,"NORMAL":241,"TEXCOORD_0":242},"indices":2,"material":3}]},{"name":"TMB_t_1_crib_9_0","primitives":[{"attributes":{"POSITION":243,"NORMAL":244,"TEXCOORD_0":245},"indices":2,"material":3}]},{"name":"TMB_t_1_crib_9_2","primitives":[{"attributes":{"POSITION":246,"NORMAL":247,"TEXCOORD_0":248},"indices":2,"material":3}]},{"name":"TMB_t_1_crib_10_0","primitives":[{"attributes":{"POSITION":249,"NORMAL":250,"TEXCOORD_0":251},"indices":2,"material":3}]},{"name":"TMB_t_1_crib_10_2","primitives":[{"attributes":{"POSITION":252,"NORMAL":253,"TEXCOORD_0":254},"indices":2,"material":3}]},{"name":"TMB_t_1_crib_11_0","primitives":[{"attributes":{"POSITION":255,"NORMAL":256,"TEXCOORD_0":257},"indices":2,"material":3}]},{"name":"TMB_t_1_crib_11_2","primitives":[{"attributes":{"POSITION":258,"NORMAL":259,"TEXCOORD_0":260},"indices":2,"material":3}]},{"name":"TMB_t_1_crib_12_0","primitives":[{"attributes":{"POSITION":261,"NORMAL":262,"TEXCOORD_0":263},"indices":2,"material":3}]},{"name":"TMB_t_1_crib_12_2","primitives":[{"attributes":{"POSITION":264,"NORMAL":265,"TEXCOORD_0":266},"indices":2,"material":3}]},{"name":"TMB_t_1_crib_13_0","primitives":[{"attributes":{"POSITION":267,"NORMAL":268,"TEXCOORD_0":269},"indices":2,"material":3}]},{"name":"TMB_t_1_crib_13_2","primitives":[{"attributes":{"POSITION":270,"NORMAL":271,"TEXCOORD_0":272},"indices":2,"material":3}]},{"name":"TMB_t_1_crib_14_0","primitives":[{"attributes":{"POSITION":273,"NORMAL":274,"TEXCOORD_0":275},"indices":2,"material":3}]},{"name":"TMB_t_1_crib_14_2","primitives":[{"attributes":{"POSITION":276,"NORMAL":277,"TEXCOORD_0":278},"indices":2,"material":3}]},{"name":"TMB_t_1_crib_15_0","primitives":[{"attributes":{"POSITION":279,"NORMAL":280,"TEXCOORD_0":281},"indices":2,"material":3}]},{"name":"TMB_t_1_crib_15_2","primitives":[{"attributes":{"POSITION":282,"NORMAL":283,"TEXCOORD_0":284},"indices":2,"material":3}]},{"name":"TMB_t_1_crib_16_0","primitives":[{"attributes":{"POSITION":285,"NORMAL":286,"TEXCOORD_0":287},"indices":2,"material":3}]},{"name":"TMB_t_1_crib_16_2","primitives":[{"attributes":{"POSITION":288,"NORMAL":289,"TEXCOORD_0":290},"indices":2,"material":3}]},{"name":"TMB_t_1_crib_17_0","primitives":[{"attributes":{"POSITION":291,"NORMAL":292,"TEXCOORD_0":293},"indices":2,"material":3}]},{"name":"TMB_t_1_crib_17_2","primitives":[{"attributes":{"POSITION":294,"NORMAL":295,"TEXCOORD_0":296},"indices":2,"material":3}]},{"name":"TMB_t_1_crib_18_0","primitives":[{"attributes":{"POSITION":297,"NORMAL":298,"TEXCOORD_0":299},"indices":2,"material":3}]},{"name":"TMB_t_1_crib_18_2","primitives":[{"attributes":{"POSITION":300,"NORMAL":301,"TEXCOORD_0":302},"indices":2,"material":3}]},{"name":"TMB_t_1_crib_19_0","primitives":[{"attributes":{"POSITION":303,"NORMAL":304,"TEXCOORD_0":305},"indices":2,"material":3}]},{"name":"TMB_t_1_crib_19_2","primitives":[{"attributes":{"POSITION":306,"NORMAL":307,"TEXCOORD_0":308},"indices":2,"material":3}]},{"name":"TMB_t_1_crib_20_0","primitives":[{"attributes":{"POSITION":309,"NORMAL":310,"TEXCOORD_0":311},"indices":2,"material":3}]},{"name":"TMB_t_1_crib_20_2","primitives":[{"attributes":{"POSITION":312,"NORMAL":313,"TEXCOORD_0":314},"indices":2,"material":3}]},{"name":"TMB_t_1_crib_21_0","primitives":[{"attributes":{"POSITION":315,"NORMAL":316,"TEXCOORD_0":317},"indices":2,"material":3}]},{"name":"TMB_t_1_crib_21_2","primitives":[{"attributes":{"POSITION":318,"NORMAL":319,"TEXCOORD_0":320},"indices":2,"material":3}]},{"name":"TMB_t_capEW_0","primitives":[{"attributes":{"POSITION":321,"NORMAL":322,"TEXCOORD_0":323},"indices":324,"material":3}]},{"name":"TMB_t_capEW_1","primitives":[{"attributes":{"POSITION":325,"NORMAL":326,"TEXCOORD_0":327},"indices":324,"material":3}]},{"name":"TMB_t_capNS","primitives":[{"attributes":{"POSITION":328,"NORMAL":329,"TEXCOORD_0":330},"indices":324,"material":3}]},{"name":"TMB_t_lag_0","primitives":[{"attributes":{"POSITION":331,"NORMAL":332,"TEXCOORD_0":333},"indices":324,"material":3}]},{"name":"TMB_t_lag_1","primitives":[{"attributes":{"POSITION":334,"NORMAL":335,"TEXCOORD_0":336},"indices":324,"material":3}]},{"name":"TMB_t_lag_2","primitives":[{"attributes":{"POSITION":337,"NORMAL":338,"TEXCOORD_0":339},"indices":324,"material":3}]},{"name":"TMB_t_lag_3","primitives":[{"attributes":{"POSITION":340,"NORMAL":341,"TEXCOORD_0":342},"indices":324,"material":3}]},{"name":"TMB_t_post_0","primitives":[{"attributes":{"POSITION":343,"NORMAL":344,"TEXCOORD_0":345},"indices":324,"material":3}]},{"name":"TMB_t_post_1","primitives":[{"attributes":{"POSITION":346,"NORMAL":347,"TEXCOORD_0":348},"indices":324,"material":3}]},{"name":"TMB_t_post_2","primitives":[{"attributes":{"POSITION":349,"NORMAL":350,"TEXCOORD_0":351},"indices":324,"material":3}]},{"name":"TMB_t_post_3","primitives":[{"attributes":{"POSITION":352,"NORMAL":353,"TEXCOORD_0":354},"indices":324,"material":3}]}],"textures":[{"sampler":0,"source":0},{"sampler":0,"source":1},{"sampler":0,"source":2},{"sampler":0,"source":3},{"sampler":0,"source":4},{"sampler":0,"source":5},{"sampler":0,"source":6},{"sampler":0,"source":7},{"sampler":0,"source":8},{"sampler":0,"source":9},{"sampler":0,"source":10},{"sampler":0,"source":11}],"images":[{"mimeType":"image/jpeg","name":"dark_rock_02_nor_gl","uri":"textures/dark_rock_02_nor_gl.jpg"},{"mimeType":"image/jpeg","name":"dark_rock_02_Diffuse","uri":"textures/dark_rock_02_Diffuse.jpg"},{"mimeType":"image/jpeg","name":"dark_rock_02_Rough","uri":"textures/dark_rock_02_Rough.jpg"},{"mimeType":"image/jpeg","name":"dark_rock_nor_gl","uri":"textures/rock_face_04_nor_gl.jpg"},{"mimeType":"image/jpeg","name":"dark_rock_Diffuse","uri":"textures/rock_face_04_Diffuse.jpg"},{"mimeType":"image/jpeg","name":"dark_rock_Rough","uri":"textures/rock_face_04_Rough.jpg"},{"mimeType":"image/jpeg","name":"brown_mud_rocks_01_nor_gl","uri":"textures/brown_mud_rocks_01_nor_gl.jpg"},{"mimeType":"image/jpeg","name":"brown_mud_rocks_01_Diffuse","uri":"textures/brown_mud_rocks_01_Diffuse.jpg"},{"mimeType":"image/jpeg","name":"brown_mud_rocks_01_Rough","uri":"textures/brown_mud_rocks_01_Rough.jpg"},{"mimeType":"image/jpeg","name":"dark_wooden_planks_nor_gl","uri":"textures/dark_wooden_planks_nor_gl.jpg"},{"mimeType":"image/jpeg","name":"dark_wooden_planks_Diffuse","uri":"textures/dark_wooden_planks_Diffuse.jpg"},{"mimeType":"image/jpeg","name":"dark_wooden_planks_Rough","uri":"textures/dark_wooden_planks_Rough.jpg"}],"accessors":[{"bufferView":0,"componentType":5126,"count":24,"max":[0.44999998807907104,2.200000047683716,0.44999998807907104],"min":[-0.44999998807907104,-2.200000047683716,-0.44999998807907104],"type":"VEC3"},{"bufferView":1,"componentType":5126,"count":24,"type":"VEC3"},{"bufferView":2,"componentType":5123,"count":36,"type":"SCALAR"},{"bufferView":3,"componentType":5126,"count":24,"max":[0.44999998807907104,2.200000047683716,0.44999998807907104],"min":[-0.44999998807907104,-2.200000047683716,-0.44999998807907104],"type":"VEC3"},{"bufferView":4,"componentType":5126,"count":24,"type":"VEC3"},{"bufferView":5,"componentType":5126,"count":24,"max":[3.5,0.25,3.5],"min":[-3.5,-0.25,-3.5],"type":"VEC3"},{"bufferView":6,"componentType":5126,"count":24,"type":"VEC3"},{"bufferView":7,"componentType":5126,"count":24,"max":[0.15000000596046448,2.799999952316284,3.5],"min":[-0.15000000596046448,-2.799999952316284,-3.5],"type":"VEC3"},{"bufferView":8,"componentType":5126,"count":24,"type":"VEC3"},{"bufferView":9,"componentType":5126,"count":30,"max":[0.7830896377563477,0.8266611099243164,0.7966114282608032],"min":[-1.0468670129776,-1.173493504524231,-0.7629304528236389],"type":"VEC3"},{"bufferView":10,"componentType":5126,"count":30,"type":"VEC3"},{"bufferView":11,"componentType":5126,"count":30,"type":"VEC2"},{"bufferView":12,"componentType":5123,"count":60,"type":"SCALAR"},{"bufferView":13,"componentType":5126,"count":29,"max":[0.8390524983406067,0.8447865843772888,1.0594555139541626],"min":[-0.8735225200653076,-1.1542214155197144,-0.8399059772491455],"type":"VEC3"},{"bufferView":14,"componentType":5126,"count":29,"type":"VEC3"},{"bufferView":15,"componentType":5126,"count":29,"type":"VEC2"},{"bufferView":16,"componentType":5123,"count":60,"type":"SCALAR"},{"bufferView":17,"componentType":5126,"count":30,"max":[0.938888430595398,1.0758213996887207,0.7947984933853149],"min":[-0.9374232292175293,-1.1388881206512451,-0.9016568064689636],"type":"VEC3"},{"bufferView":18,"componentType":5126,"count":30,"type":"VEC3"},{"bufferView":19,"componentType":5126,"count":30,"type":"VEC2"},{"bufferView":20,"componentType":5123,"count":60,"type":"SCALAR"},{"bufferView":21,"componentType":5126,"count":25,"max":[0.854081392288208,0.8916506171226501,0.9098374843597412],"min":[-0.7161603569984436,-1.147640585899353,-0.9337509274482727],"type":"VEC3"},{"bufferView":22,"componentType":5126,"count":25,"type":"VEC3"},{"bufferView":23,"componentType":5126,"count":25,"type":"VEC2"},{"bufferView":24,"componentType":5123,"count":60,"type":"SCALAR"},{"bufferView":25,"componentType":5126,"count":29,"max":[1.065635085105896,0.9804531335830688,1.021463394165039],"min":[-0.9964037537574768,-1.2483102083206177,-0.8107520937919617],"type":"VEC3"},{"bufferView":26,"componentType":5126,"count":29,"type":"VEC3"},{"bufferView":27,"componentType":5126,"count":29,"type":"VEC2"},{"bufferView":28,"componentType":5123,"count":60,"type":"SCALAR"},{"bufferView":29,"componentType":5126,"count":31,"max":[0.8775473833084106,0.8133251667022705,0.7000269889831543],"min":[-0.8338826298713684,-0.9354218244552612,-1.0492138862609863],"type":"VEC3"},{"bufferView":30,"componentType":5126,"count":31,"type":"VEC3"},{"bufferView":31,"componentType":5126,"count":31,"type":"VEC2"},{"bufferView":32,"componentType":5123,"count":60,"type":"SCALAR"},{"bufferView":33,"componentType":5126,"count":31,"max":[0.8495898842811584,1.0089462995529175,0.9979517459869385],"min":[-1.0222499370574951,-1.0601714849472046,-0.7324317097663879],"type":"VEC3"},{"bufferView":34,"componentType":5126,"count":31,"type":"VEC3"},{"bufferView":35,"componentType":5126,"count":31,"type":"VEC2"},{"bufferView":36,"componentType":5123,"count":60,"type":"SCALAR"},{"bufferView":37,"componentType":5126,"count":30,"max":[0.8612148761749268,1.0794214010238647,0.9944865703582764],"min":[-0.7234692573547363,-1.1287306547164917,-0.8929681777954102],"type":"VEC3"},{"bufferView":38,"componentType":5126,"count":30,"type":"VEC3"},{"bufferView":39,"componentType":5126,"count":30,"type":"VEC2"},{"bufferView":40,"componentType":5123,"count":60,"type":"SCALAR"},{"bufferView":41,"componentType":5126,"count":30,"max":[0.7085087895393372,1.068218469619751,0.8211220502853394],"min":[-0.8824480772018433,-1.1399874687194824,-0.8549618124961853],"type":"VEC3"},{"bufferView":42,"componentType":5126,"count":30,"type":"VEC3"},{"bufferView":43,"componentType":5126,"count":30,"type":"VEC2"},{"bufferView":44,"componentType":5123,"count":60,"type":"SCALAR"},{"bufferView":45,"componentType":5126,"count":28,"max":[1.0804840326309204,0.8325557708740234,1.002510666847229],"min":[-1.1162981986999512,-1.2254339456558228,-1.0448598861694336],"type":"VEC3"},{"bufferView":46,"componentType":5126,"count":28,"type":"VEC3"},{"bufferView":47,"componentType":5126,"count":28,"type":"VEC2"},{"bufferView":48,"componentType":5123,"count":60,"type":"SCALAR"},{"bufferView":49,"componentType":5126,"count":735,"max":[3.5,5.599999904632568,3.5],"min":[-3.5,0,-3.5],"type":"VEC3"},{"bufferView":50,"componentType":5126,"count":735,"type":"VEC3"},{"bufferView":51,"componentType":5126,"count":735,"type":"VEC2"},{"bufferView":52,"componentType":5123,"count":3960,"type":"SCALAR"},{"bufferView":53,"componentType":5126,"count":441,"max":[3.5,0.05126779153943062,3.5],"min":[-3.5,0,-3.5],"type":"VEC3"},{"bufferView":54,"componentType":5126,"count":441,"type":"VEC3"},{"bufferView":55,"componentType":5126,"count":441,"type":"VEC2"},{"bufferView":56,"componentType":5123,"count":2400,"type":"SCALAR"},{"bufferView":57,"componentType":5126,"count":24,"max":[0.44999998807907104,0.10000000149011612,0.10000000149011612],"min":[-0.44999998807907104,-0.10000000149011612,-0.10000000149011612],"type":"VEC3"},{"bufferView":58,"componentType":5126,"count":24,"type":"VEC3"},{"bufferView":59,"componentType":5126,"count":24,"type":"VEC2"},{"bufferView":60,"componentType":5126,"count":24,"max":[0.44999998807907104,0.10000000149011612,0.10000000149011612],"min":[-0.44999998807907104,-0.10000000149011612,-0.10000000149011612],"type":"VEC3"},{"bufferView":61,"componentType":5126,"count":24,"type":"VEC3"},{"bufferView":62,"componentType":5126,"count":24,"type":"VEC2"},{"bufferView":63,"componentType":5126,"count":24,"max":[0.10000000149011612,0.10000000149011612,0.44999998807907104],"min":[-0.10000000149011612,-0.10000000149011612,-0.44999998807907104],"type":"VEC3"},{"bufferView":64,"componentType":5126,"count":24,"type":"VEC3"},{"bufferView":65,"componentType":5126,"count":24,"type":"VEC2"},{"bufferView":66,"componentType":5126,"count":24,"max":[0.10000000149011612,0.10000000149011612,0.44999998807907104],"min":[-0.10000000149011612,-0.10000000149011612,-0.44999998807907104],"type":"VEC3"},{"bufferView":67,"componentType":5126,"count":24,"type":"VEC3"},{"bufferView":68,"componentType":5126,"count":24,"type":"VEC2"},{"bufferView":69,"componentType":5126,"count":24,"max":[0.44999998807907104,0.10000000149011612,0.10000000149011612],"min":[-0.44999998807907104,-0.10000000149011612,-0.10000000149011612],"type":"VEC3"},{"bufferView":70,"componentType":5126,"count":24,"type":"VEC3"},{"bufferView":71,"componentType":5126,"count":24,"type":"VEC2"},{"bufferView":72,"componentType":5126,"count":24,"max":[0.44999998807907104,0.10000000149011612,0.10000000149011612],"min":[-0.44999998807907104,-0.10000000149011612,-0.10000000149011612],"type":"VEC3"},{"bufferView":73,"componentType":5126,"count":24,"type":"VEC3"},{"bufferView":74,"componentType":5126,"count":24,"type":"VEC2"},{"bufferView":75,"componentType":5126,"count":24,"max":[0.10000000149011612,0.10000000149011612,0.44999998807907104],"min":[-0.10000000149011612,-0.10000000149011612,-0.44999998807907104],"type":"VEC3"},{"bufferView":76,"componentType":5126,"count":24,"type":"VEC3"},{"bufferView":77,"componentType":5126,"count":24,"type":"VEC2"},{"bufferView":78,"componentType":5126,"count":24,"max":[0.10000000149011612,0.10000000149011612,0.44999998807907104],"min":[-0.10000000149011612,-0.10000000149011612,-0.44999998807907104],"type":"VEC3"},{"bufferView":79,"componentType":5126,"count":24,"type":"VEC3"},{"bufferView":80,"componentType":5126,"count":24,"type":"VEC2"},{"bufferView":81,"componentType":5126,"count":24,"max":[0.44999998807907104,0.10000000149011612,0.10000000149011612],"min":[-0.44999998807907104,-0.10000000149011612,-0.10000000149011612],"type":"VEC3"},{"bufferView":82,"componentType":5126,"count":24,"type":"VEC3"},{"bufferView":83,"componentType":5126,"count":24,"type":"VEC2"},{"bufferView":84,"componentType":5126,"count":24,"max":[0.44999998807907104,0.10000000149011612,0.10000000149011612],"min":[-0.44999998807907104,-0.10000000149011612,-0.10000000149011612],"type":"VEC3"},{"bufferView":85,"componentType":5126,"count":24,"type":"VEC3"},{"bufferView":86,"componentType":5126,"count":24,"type":"VEC2"},{"bufferView":87,"componentType":5126,"count":24,"max":[0.10000000149011612,0.10000000149011612,0.44999998807907104],"min":[-0.10000000149011612,-0.10000000149011612,-0.44999998807907104],"type":"VEC3"},{"bufferView":88,"componentType":5126,"count":24,"type":"VEC3"},{"bufferView":89,"componentType":5126,"count":24,"type":"VEC2"},{"bufferView":90,"componentType":5126,"count":24,"max":[0.10000000149011612,0.10000000149011612,0.44999998807907104],"min":[-0.10000000149011612,-0.10000000149011612,-0.44999998807907104],"type":"VEC3"},{"bufferView":91,"componentType":5126,"count":24,"type":"VEC3"},{"bufferView":92,"componentType":5126,"count":24,"type":"VEC2"},{"bufferView":93,"componentType":5126,"count":24,"max":[0.44999998807907104,0.10000000149011612,0.10000000149011612],"min":[-0.44999998807907104,-0.10000000149011612,-0.10000000149011612],"type":"VEC3"},{"bufferView":94,"componentType":5126,"count":24,"type":"VEC3"},{"bufferView":95,"componentType":5126,"count":24,"type":"VEC2"},{"bufferView":96,"componentType":5126,"count":24,"max":[0.44999998807907104,0.10000000149011612,0.10000000149011612],"min":[-0.44999998807907104,-0.10000000149011612,-0.10000000149011612],"type":"VEC3"},{"bufferView":97,"componentType":5126,"count":24,"type":"VEC3"},{"bufferView":98,"componentType":5126,"count":24,"type":"VEC2"},{"bufferView":99,"componentType":5126,"count":24,"max":[0.10000000149011612,0.10000000149011612,0.44999998807907104],"min":[-0.10000000149011612,-0.10000000149011612,-0.44999998807907104],"type":"VEC3"},{"bufferView":100,"componentType":5126,"count":24,"type":"VEC3"},{"bufferView":101,"componentType":5126,"count":24,"type":"VEC2"},{"bufferView":102,"componentType":5126,"count":24,"max":[0.10000000149011612,0.10000000149011612,0.44999998807907104],"min":[-0.10000000149011612,-0.10000000149011612,-0.44999998807907104],"type":"VEC3"},{"bufferView":103,"componentType":5126,"count":24,"type":"VEC3"},{"bufferView":104,"componentType":5126,"count":24,"type":"VEC2"},{"bufferView":105,"componentType":5126,"count":24,"max":[0.44999998807907104,0.10000000149011612,0.10000000149011612],"min":[-0.44999998807907104,-0.10000000149011612,-0.10000000149011612],"type":"VEC3"},{"bufferView":106,"componentType":5126,"count":24,"type":"VEC3"},{"bufferView":107,"componentType":5126,"count":24,"type":"VEC2"},{"bufferView":108,"componentType":5126,"count":24,"max":[0.44999998807907104,0.10000000149011612,0.10000000149011612],"min":[-0.44999998807907104,-0.10000000149011612,-0.10000000149011612],"type":"VEC3"},{"bufferView":109,"componentType":5126,"count":24,"type":"VEC3"},{"bufferView":110,"componentType":5126,"count":24,"type":"VEC2"},{"bufferView":111,"componentType":5126,"count":24,"max":[0.10000000149011612,0.10000000149011612,0.44999998807907104],"min":[-0.10000000149011612,-0.10000000149011612,-0.44999998807907104],"type":"VEC3"},{"bufferView":112,"componentType":5126,"count":24,"type":"VEC3"},{"bufferView":113,"componentType":5126,"count":24,"type":"VEC2"},{"bufferView":114,"componentType":5126,"count":24,"max":[0.10000000149011612,0.10000000149011612,0.44999998807907104],"min":[-0.10000000149011612,-0.10000000149011612,-0.44999998807907104],"type":"VEC3"},{"bufferView":115,"componentType":5126,"count":24,"type":"VEC3"},{"bufferView":116,"componentType":5126,"count":24,"type":"VEC2"},{"bufferView":117,"componentType":5126,"count":24,"max":[0.44999998807907104,0.10000000149011612,0.10000000149011612],"min":[-0.44999998807907104,-0.10000000149011612,-0.10000000149011612],"type":"VEC3"},{"bufferView":118,"componentType":5126,"count":24,"type":"VEC3"},{"bufferView":119,"componentType":5126,"count":24,"type":"VEC2"},{"bufferView":120,"componentType":5126,"count":24,"max":[0.44999998807907104,0.10000000149011612,0.10000000149011612],"min":[-0.44999998807907104,-0.10000000149011612,-0.10000000149011612],"type":"VEC3"},{"bufferView":121,"componentType":5126,"count":24,"type":"VEC3"},{"bufferView":122,"componentType":5126,"count":24,"type":"VEC2"},{"bufferView":123,"componentType":5126,"count":24,"max":[0.10000000149011612,0.10000000149011612,0.44999998807907104],"min":[-0.10000000149011612,-0.10000000149011612,-0.44999998807907104],"type":"VEC3"},{"bufferView":124,"componentType":5126,"count":24,"type":"VEC3"},{"bufferView":125,"componentType":5126,"count":24,"type":"VEC2"},{"bufferView":126,"componentType":5126,"count":24,"max":[0.10000000149011612,0.10000000149011612,0.44999998807907104],"min":[-0.10000000149011612,-0.10000000149011612,-0.44999998807907104],"type":"VEC3"},{"bufferView":127,"componentType":5126,"count":24,"type":"VEC3"},{"bufferView":128,"componentType":5126,"count":24,"type":"VEC2"},{"bufferView":129,"componentType":5126,"count":24,"max":[0.44999998807907104,0.10000000149011612,0.10000000149011612],"min":[-0.44999998807907104,-0.10000000149011612,-0.10000000149011612],"type":"VEC3"},{"bufferView":130,"componentType":5126,"count":24,"type":"VEC3"},{"bufferView":131,"componentType":5126,"count":24,"type":"VEC2"},{"bufferView":132,"componentType":5126,"count":24,"max":[0.44999998807907104,0.10000000149011612,0.10000000149011612],"min":[-0.44999998807907104,-0.10000000149011612,-0.10000000149011612],"type":"VEC3"},{"bufferView":133,"componentType":5126,"count":24,"type":"VEC3"},{"bufferView":134,"componentType":5126,"count":24,"type":"VEC2"},{"bufferView":135,"componentType":5126,"count":24,"max":[0.10000000149011612,0.10000000149011612,0.44999998807907104],"min":[-0.10000000149011612,-0.10000000149011612,-0.44999998807907104],"type":"VEC3"},{"bufferView":136,"componentType":5126,"count":24,"type":"VEC3"},{"bufferView":137,"componentType":5126,"count":24,"type":"VEC2"},{"bufferView":138,"componentType":5126,"count":24,"max":[0.10000000149011612,0.10000000149011612,0.44999998807907104],"min":[-0.10000000149011612,-0.10000000149011612,-0.44999998807907104],"type":"VEC3"},{"bufferView":139,"componentType":5126,"count":24,"type":"VEC3"},{"bufferView":140,"componentType":5126,"count":24,"type":"VEC2"},{"bufferView":141,"componentType":5126,"count":24,"max":[0.44999998807907104,0.10000000149011612,0.10000000149011612],"min":[-0.44999998807907104,-0.10000000149011612,-0.10000000149011612],"type":"VEC3"},{"bufferView":142,"componentType":5126,"count":24,"type":"VEC3"},{"bufferView":143,"componentType":5126,"count":24,"type":"VEC2"},{"bufferView":144,"componentType":5126,"count":24,"max":[0.44999998807907104,0.10000000149011612,0.10000000149011612],"min":[-0.44999998807907104,-0.10000000149011612,-0.10000000149011612],"type":"VEC3"},{"bufferView":145,"componentType":5126,"count":24,"type":"VEC3"},{"bufferView":146,"componentType":5126,"count":24,"type":"VEC2"},{"bufferView":147,"componentType":5126,"count":24,"max":[0.10000000149011612,0.10000000149011612,0.44999998807907104],"min":[-0.10000000149011612,-0.10000000149011612,-0.44999998807907104],"type":"VEC3"},{"bufferView":148,"componentType":5126,"count":24,"type":"VEC3"},{"bufferView":149,"componentType":5126,"count":24,"type":"VEC2"},{"bufferView":150,"componentType":5126,"count":24,"max":[0.10000000149011612,0.10000000149011612,0.44999998807907104],"min":[-0.10000000149011612,-0.10000000149011612,-0.44999998807907104],"type":"VEC3"},{"bufferView":151,"componentType":5126,"count":24,"type":"VEC3"},{"bufferView":152,"componentType":5126,"count":24,"type":"VEC2"},{"bufferView":153,"componentType":5126,"count":24,"max":[0.44999998807907104,0.10000000149011612,0.10000000149011612],"min":[-0.44999998807907104,-0.10000000149011612,-0.10000000149011612],"type":"VEC3"},{"bufferView":154,"componentType":5126,"count":24,"type":"VEC3"},{"bufferView":155,"componentType":5126,"count":24,"type":"VEC2"},{"bufferView":156,"componentType":5126,"count":24,"max":[0.44999998807907104,0.10000000149011612,0.10000000149011612],"min":[-0.44999998807907104,-0.10000000149011612,-0.10000000149011612],"type":"VEC3"},{"bufferView":157,"componentType":5126,"count":24,"type":"VEC3"},{"bufferView":158,"componentType":5126,"count":24,"type":"VEC2"},{"bufferView":159,"componentType":5126,"count":24,"max":[0.10000000149011612,0.10000000149011612,0.44999998807907104],"min":[-0.10000000149011612,-0.10000000149011612,-0.44999998807907104],"type":"VEC3"},{"bufferView":160,"componentType":5126,"count":24,"type":"VEC3"},{"bufferView":161,"componentType":5126,"count":24,"type":"VEC2"},{"bufferView":162,"componentType":5126,"count":24,"max":[0.10000000149011612,0.10000000149011612,0.44999998807907104],"min":[-0.10000000149011612,-0.10000000149011612,-0.44999998807907104],"type":"VEC3"},{"bufferView":163,"componentType":5126,"count":24,"type":"VEC3"},{"bufferView":164,"componentType":5126,"count":24,"type":"VEC2"},{"bufferView":165,"componentType":5126,"count":24,"max":[0.44999998807907104,0.10000000149011612,0.10000000149011612],"min":[-0.44999998807907104,-0.10000000149011612,-0.10000000149011612],"type":"VEC3"},{"bufferView":166,"componentType":5126,"count":24,"type":"VEC3"},{"bufferView":167,"componentType":5126,"count":24,"type":"VEC2"},{"bufferView":168,"componentType":5126,"count":24,"max":[0.44999998807907104,0.10000000149011612,0.10000000149011612],"min":[-0.44999998807907104,-0.10000000149011612,-0.10000000149011612],"type":"VEC3"},{"bufferView":169,"componentType":5126,"count":24,"type":"VEC3"},{"bufferView":170,"componentType":5126,"count":24,"type":"VEC2"},{"bufferView":171,"componentType":5126,"count":24,"max":[0.10000000149011612,0.10000000149011612,0.44999998807907104],"min":[-0.10000000149011612,-0.10000000149011612,-0.44999998807907104],"type":"VEC3"},{"bufferView":172,"componentType":5126,"count":24,"type":"VEC3"},{"bufferView":173,"componentType":5126,"count":24,"type":"VEC2"},{"bufferView":174,"componentType":5126,"count":24,"max":[0.10000000149011612,0.10000000149011612,0.44999998807907104],"min":[-0.10000000149011612,-0.10000000149011612,-0.44999998807907104],"type":"VEC3"},{"bufferView":175,"componentType":5126,"count":24,"type":"VEC3"},{"bufferView":176,"componentType":5126,"count":24,"type":"VEC2"},{"bufferView":177,"componentType":5126,"count":24,"max":[0.44999998807907104,0.10000000149011612,0.10000000149011612],"min":[-0.44999998807907104,-0.10000000149011612,-0.10000000149011612],"type":"VEC3"},{"bufferView":178,"componentType":5126,"count":24,"type":"VEC3"},{"bufferView":179,"componentType":5126,"count":24,"type":"VEC2"},{"bufferView":180,"componentType":5126,"count":24,"max":[0.44999998807907104,0.10000000149011612,0.10000000149011612],"min":[-0.44999998807907104,-0.10000000149011612,-0.10000000149011612],"type":"VEC3"},{"bufferView":181,"componentType":5126,"count":24,"type":"VEC3"},{"bufferView":182,"componentType":5126,"count":24,"type":"VEC2"},{"bufferView":183,"componentType":5126,"count":24,"max":[0.10000000149011612,0.10000000149011612,0.44999998807907104],"min":[-0.10000000149011612,-0.10000000149011612,-0.44999998807907104],"type":"VEC3"},{"bufferView":184,"componentType":5126,"count":24,"type":"VEC3"},{"bufferView":185,"componentType":5126,"count":24,"type":"VEC2"},{"bufferView":186,"componentType":5126,"count":24,"max":[0.10000000149011612,0.10000000149011612,0.44999998807907104],"min":[-0.10000000149011612,-0.10000000149011612,-0.44999998807907104],"type":"VEC3"},{"bufferView":187,"componentType":5126,"count":24,"type":"VEC3"},{"bufferView":188,"componentType":5126,"count":24,"type":"VEC2"},{"bufferView":189,"componentType":5126,"count":24,"max":[0.44999998807907104,0.10000000149011612,0.10000000149011612],"min":[-0.44999998807907104,-0.10000000149011612,-0.10000000149011612],"type":"VEC3"},{"bufferView":190,"componentType":5126,"count":24,"type":"VEC3"},{"bufferView":191,"componentType":5126,"count":24,"type":"VEC2"},{"bufferView":192,"componentType":5126,"count":24,"max":[0.44999998807907104,0.10000000149011612,0.10000000149011612],"min":[-0.44999998807907104,-0.10000000149011612,-0.10000000149011612],"type":"VEC3"},{"bufferView":193,"componentType":5126,"count":24,"type":"VEC3"},{"bufferView":194,"componentType":5126,"count":24,"type":"VEC2"},{"bufferView":195,"componentType":5126,"count":24,"max":[0.10000000149011612,0.10000000149011612,0.44999998807907104],"min":[-0.10000000149011612,-0.10000000149011612,-0.44999998807907104],"type":"VEC3"},{"bufferView":196,"componentType":5126,"count":24,"type":"VEC3"},{"bufferView":197,"componentType":5126,"count":24,"type":"VEC2"},{"bufferView":198,"componentType":5126,"count":24,"max":[0.10000000149011612,0.10000000149011612,0.44999998807907104],"min":[-0.10000000149011612,-0.10000000149011612,-0.44999998807907104],"type":"VEC3"},{"bufferView":199,"componentType":5126,"count":24,"type":"VEC3"},{"bufferView":200,"componentType":5126,"count":24,"type":"VEC2"},{"bufferView":201,"componentType":5126,"count":24,"max":[0.44999998807907104,0.10000000149011612,0.10000000149011612],"min":[-0.44999998807907104,-0.10000000149011612,-0.10000000149011612],"type":"VEC3"},{"bufferView":202,"componentType":5126,"count":24,"type":"VEC3"},{"bufferView":203,"componentType":5126,"count":24,"type":"VEC2"},{"bufferView":204,"componentType":5126,"count":24,"max":[0.44999998807907104,0.10000000149011612,0.10000000149011612],"min":[-0.44999998807907104,-0.10000000149011612,-0.10000000149011612],"type":"VEC3"},{"bufferView":205,"componentType":5126,"count":24,"type":"VEC3"},{"bufferView":206,"componentType":5126,"count":24,"type":"VEC2"},{"bufferView":207,"componentType":5126,"count":24,"max":[0.10000000149011612,0.10000000149011612,0.44999998807907104],"min":[-0.10000000149011612,-0.10000000149011612,-0.44999998807907104],"type":"VEC3"},{"bufferView":208,"componentType":5126,"count":24,"type":"VEC3"},{"bufferView":209,"componentType":5126,"count":24,"type":"VEC2"},{"bufferView":210,"componentType":5126,"count":24,"max":[0.10000000149011612,0.10000000149011612,0.44999998807907104],"min":[-0.10000000149011612,-0.10000000149011612,-0.44999998807907104],"type":"VEC3"},{"bufferView":211,"componentType":5126,"count":24,"type":"VEC3"},{"bufferView":212,"componentType":5126,"count":24,"type":"VEC2"},{"bufferView":213,"componentType":5126,"count":24,"max":[0.44999998807907104,0.10000000149011612,0.10000000149011612],"min":[-0.44999998807907104,-0.10000000149011612,-0.10000000149011612],"type":"VEC3"},{"bufferView":214,"componentType":5126,"count":24,"type":"VEC3"},{"bufferView":215,"componentType":5126,"count":24,"type":"VEC2"},{"bufferView":216,"componentType":5126,"count":24,"max":[0.44999998807907104,0.10000000149011612,0.10000000149011612],"min":[-0.44999998807907104,-0.10000000149011612,-0.10000000149011612],"type":"VEC3"},{"bufferView":217,"componentType":5126,"count":24,"type":"VEC3"},{"bufferView":218,"componentType":5126,"count":24,"type":"VEC2"},{"bufferView":219,"componentType":5126,"count":24,"max":[0.10000000149011612,0.10000000149011612,0.44999998807907104],"min":[-0.10000000149011612,-0.10000000149011612,-0.44999998807907104],"type":"VEC3"},{"bufferView":220,"componentType":5126,"count":24,"type":"VEC3"},{"bufferView":221,"componentType":5126,"count":24,"type":"VEC2"},{"bufferView":222,"componentType":5126,"count":24,"max":[0.10000000149011612,0.10000000149011612,0.44999998807907104],"min":[-0.10000000149011612,-0.10000000149011612,-0.44999998807907104],"type":"VEC3"},{"bufferView":223,"componentType":5126,"count":24,"type":"VEC3"},{"bufferView":224,"componentType":5126,"count":24,"type":"VEC2"},{"bufferView":225,"componentType":5126,"count":24,"max":[0.44999998807907104,0.10000000149011612,0.10000000149011612],"min":[-0.44999998807907104,-0.10000000149011612,-0.10000000149011612],"type":"VEC3"},{"bufferView":226,"componentType":5126,"count":24,"type":"VEC3"},{"bufferView":227,"componentType":5126,"count":24,"type":"VEC2"},{"bufferView":228,"componentType":5126,"count":24,"max":[0.44999998807907104,0.10000000149011612,0.10000000149011612],"min":[-0.44999998807907104,-0.10000000149011612,-0.10000000149011612],"type":"VEC3"},{"bufferView":229,"componentType":5126,"count":24,"type":"VEC3"},{"bufferView":230,"componentType":5126,"count":24,"type":"VEC2"},{"bufferView":231,"componentType":5126,"count":24,"max":[0.10000000149011612,0.10000000149011612,0.44999998807907104],"min":[-0.10000000149011612,-0.10000000149011612,-0.44999998807907104],"type":"VEC3"},{"bufferView":232,"componentType":5126,"count":24,"type":"VEC3"},{"bufferView":233,"componentType":5126,"count":24,"type":"VEC2"},{"bufferView":234,"componentType":5126,"count":24,"max":[0.10000000149011612,0.10000000149011612,0.44999998807907104],"min":[-0.10000000149011612,-0.10000000149011612,-0.44999998807907104],"type":"VEC3"},{"bufferView":235,"componentType":5126,"count":24,"type":"VEC3"},{"bufferView":236,"componentType":5126,"count":24,"type":"VEC2"},{"bufferView":237,"componentType":5126,"count":24,"max":[0.44999998807907104,0.10000000149011612,0.10000000149011612],"min":[-0.44999998807907104,-0.10000000149011612,-0.10000000149011612],"type":"VEC3"},{"bufferView":238,"componentType":5126,"count":24,"type":"VEC3"},{"bufferView":239,"componentType":5126,"count":24,"type":"VEC2"},{"bufferView":240,"componentType":5126,"count":24,"max":[0.44999998807907104,0.10000000149011612,0.10000000149011612],"min":[-0.44999998807907104,-0.10000000149011612,-0.10000000149011612],"type":"VEC3"},{"bufferView":241,"componentType":5126,"count":24,"type":"VEC3"},{"bufferView":242,"componentType":5126,"count":24,"type":"VEC2"},{"bufferView":243,"componentType":5126,"count":24,"max":[0.10000000149011612,0.10000000149011612,0.44999998807907104],"min":[-0.10000000149011612,-0.10000000149011612,-0.44999998807907104],"type":"VEC3"},{"bufferView":244,"componentType":5126,"count":24,"type":"VEC3"},{"bufferView":245,"componentType":5126,"count":24,"type":"VEC2"},{"bufferView":246,"componentType":5126,"count":24,"max":[0.10000000149011612,0.10000000149011612,0.44999998807907104],"min":[-0.10000000149011612,-0.10000000149011612,-0.44999998807907104],"type":"VEC3"},{"bufferView":247,"componentType":5126,"count":24,"type":"VEC3"},{"bufferView":248,"componentType":5126,"count":24,"type":"VEC2"},{"bufferView":249,"componentType":5126,"count":24,"max":[0.44999998807907104,0.10000000149011612,0.10000000149011612],"min":[-0.44999998807907104,-0.10000000149011612,-0.10000000149011612],"type":"VEC3"},{"bufferView":250,"componentType":5126,"count":24,"type":"VEC3"},{"bufferView":251,"componentType":5126,"count":24,"type":"VEC2"},{"bufferView":252,"componentType":5126,"count":24,"max":[0.44999998807907104,0.10000000149011612,0.10000000149011612],"min":[-0.44999998807907104,-0.10000000149011612,-0.10000000149011612],"type":"VEC3"},{"bufferView":253,"componentType":5126,"count":24,"type":"VEC3"},{"bufferView":254,"componentType":5126,"count":24,"type":"VEC2"},{"bufferView":255,"componentType":5126,"count":24,"max":[0.10000000149011612,0.10000000149011612,0.44999998807907104],"min":[-0.10000000149011612,-0.10000000149011612,-0.44999998807907104],"type":"VEC3"},{"bufferView":256,"componentType":5126,"count":24,"type":"VEC3"},{"bufferView":257,"componentType":5126,"count":24,"type":"VEC2"},{"bufferView":258,"componentType":5126,"count":24,"max":[0.10000000149011612,0.10000000149011612,0.44999998807907104],"min":[-0.10000000149011612,-0.10000000149011612,-0.44999998807907104],"type":"VEC3"},{"bufferView":259,"componentType":5126,"count":24,"type":"VEC3"},{"bufferView":260,"componentType":5126,"count":24,"type":"VEC2"},{"bufferView":261,"componentType":5126,"count":24,"max":[0.44999998807907104,0.10000000149011612,0.10000000149011612],"min":[-0.44999998807907104,-0.10000000149011612,-0.10000000149011612],"type":"VEC3"},{"bufferView":262,"componentType":5126,"count":24,"type":"VEC3"},{"bufferView":263,"componentType":5126,"count":24,"type":"VEC2"},{"bufferView":264,"componentType":5126,"count":24,"max":[0.44999998807907104,0.10000000149011612,0.10000000149011612],"min":[-0.44999998807907104,-0.10000000149011612,-0.10000000149011612],"type":"VEC3"},{"bufferView":265,"componentType":5126,"count":24,"type":"VEC3"},{"bufferView":266,"componentType":5126,"count":24,"type":"VEC2"},{"bufferView":267,"componentType":5126,"count":24,"max":[0.10000000149011612,0.10000000149011612,0.44999998807907104],"min":[-0.10000000149011612,-0.10000000149011612,-0.44999998807907104],"type":"VEC3"},{"bufferView":268,"componentType":5126,"count":24,"type":"VEC3"},{"bufferView":269,"componentType":5126,"count":24,"type":"VEC2"},{"bufferView":270,"componentType":5126,"count":24,"max":[0.10000000149011612,0.10000000149011612,0.44999998807907104],"min":[-0.10000000149011612,-0.10000000149011612,-0.44999998807907104],"type":"VEC3"},{"bufferView":271,"componentType":5126,"count":24,"type":"VEC3"},{"bufferView":272,"componentType":5126,"count":24,"type":"VEC2"},{"bufferView":273,"componentType":5126,"count":24,"max":[0.44999998807907104,0.10000000149011612,0.10000000149011612],"min":[-0.44999998807907104,-0.10000000149011612,-0.10000000149011612],"type":"VEC3"},{"bufferView":274,"componentType":5126,"count":24,"type":"VEC3"},{"bufferView":275,"componentType":5126,"count":24,"type":"VEC2"},{"bufferView":276,"componentType":5126,"count":24,"max":[0.44999998807907104,0.10000000149011612,0.10000000149011612],"min":[-0.44999998807907104,-0.10000000149011612,-0.10000000149011612],"type":"VEC3"},{"bufferView":277,"componentType":5126,"count":24,"type":"VEC3"},{"bufferView":278,"componentType":5126,"count":24,"type":"VEC2"},{"bufferView":279,"componentType":5126,"count":24,"max":[0.10000000149011612,0.10000000149011612,0.44999998807907104],"min":[-0.10000000149011612,-0.10000000149011612,-0.44999998807907104],"type":"VEC3"},{"bufferView":280,"componentType":5126,"count":24,"type":"VEC3"},{"bufferView":281,"componentType":5126,"count":24,"type":"VEC2"},{"bufferView":282,"componentType":5126,"count":24,"max":[0.10000000149011612,0.10000000149011612,0.44999998807907104],"min":[-0.10000000149011612,-0.10000000149011612,-0.44999998807907104],"type":"VEC3"},{"bufferView":283,"componentType":5126,"count":24,"type":"VEC3"},{"bufferView":284,"componentType":5126,"count":24,"type":"VEC2"},{"bufferView":285,"componentType":5126,"count":24,"max":[0.44999998807907104,0.10000000149011612,0.10000000149011612],"min":[-0.44999998807907104,-0.10000000149011612,-0.10000000149011612],"type":"VEC3"},{"bufferView":286,"componentType":5126,"count":24,"type":"VEC3"},{"bufferView":287,"componentType":5126,"count":24,"type":"VEC2"},{"bufferView":288,"componentType":5126,"count":24,"max":[0.44999998807907104,0.10000000149011612,0.10000000149011612],"min":[-0.44999998807907104,-0.10000000149011612,-0.10000000149011612],"type":"VEC3"},{"bufferView":289,"componentType":5126,"count":24,"type":"VEC3"},{"bufferView":290,"componentType":5126,"count":24,"type":"VEC2"},{"bufferView":291,"componentType":5126,"count":24,"max":[0.10000000149011612,0.10000000149011612,0.44999998807907104],"min":[-0.10000000149011612,-0.10000000149011612,-0.44999998807907104],"type":"VEC3"},{"bufferView":292,"componentType":5126,"count":24,"type":"VEC3"},{"bufferView":293,"componentType":5126,"count":24,"type":"VEC2"},{"bufferView":294,"componentType":5126,"count":24,"max":[0.10000000149011612,0.10000000149011612,0.44999998807907104],"min":[-0.10000000149011612,-0.10000000149011612,-0.44999998807907104],"type":"VEC3"},{"bufferView":295,"componentType":5126,"count":24,"type":"VEC3"},{"bufferView":296,"componentType":5126,"count":24,"type":"VEC2"},{"bufferView":297,"componentType":5126,"count":24,"max":[0.44999998807907104,0.10000000149011612,0.10000000149011612],"min":[-0.44999998807907104,-0.10000000149011612,-0.10000000149011612],"type":"VEC3"},{"bufferView":298,"componentType":5126,"count":24,"type":"VEC3"},{"bufferView":299,"componentType":5126,"count":24,"type":"VEC2"},{"bufferView":300,"componentType":5126,"count":24,"max":[0.44999998807907104,0.10000000149011612,0.10000000149011612],"min":[-0.44999998807907104,-0.10000000149011612,-0.10000000149011612],"type":"VEC3"},{"bufferView":301,"componentType":5126,"count":24,"type":"VEC3"},{"bufferView":302,"componentType":5126,"count":24,"type":"VEC2"},{"bufferView":303,"componentType":5126,"count":24,"max":[0.10000000149011612,0.10000000149011612,0.44999998807907104],"min":[-0.10000000149011612,-0.10000000149011612,-0.44999998807907104],"type":"VEC3"},{"bufferView":304,"componentType":5126,"count":24,"type":"VEC3"},{"bufferView":305,"componentType":5126,"count":24,"type":"VEC2"},{"bufferView":306,"componentType":5126,"count":24,"max":[0.10000000149011612,0.10000000149011612,0.44999998807907104],"min":[-0.10000000149011612,-0.10000000149011612,-0.44999998807907104],"type":"VEC3"},{"bufferView":307,"componentType":5126,"count":24,"type":"VEC3"},{"bufferView":308,"componentType":5126,"count":24,"type":"VEC2"},{"bufferView":309,"componentType":5126,"count":24,"max":[0.44999998807907104,0.10000000149011612,0.10000000149011612],"min":[-0.44999998807907104,-0.10000000149011612,-0.10000000149011612],"type":"VEC3"},{"bufferView":310,"componentType":5126,"count":24,"type":"VEC3"},{"bufferView":311,"componentType":5126,"count":24,"type":"VEC2"},{"bufferView":312,"componentType":5126,"count":24,"max":[0.44999998807907104,0.10000000149011612,0.10000000149011612],"min":[-0.44999998807907104,-0.10000000149011612,-0.10000000149011612],"type":"VEC3"},{"bufferView":313,"componentType":5126,"count":24,"type":"VEC3"},{"bufferView":314,"componentType":5126,"count":24,"type":"VEC2"},{"bufferView":315,"componentType":5126,"count":24,"max":[0.10000000149011612,0.10000000149011612,0.44999998807907104],"min":[-0.10000000149011612,-0.10000000149011612,-0.44999998807907104],"type":"VEC3"},{"bufferView":316,"componentType":5126,"count":24,"type":"VEC3"},{"bufferView":317,"componentType":5126,"count":24,"type":"VEC2"},{"bufferView":318,"componentType":5126,"count":24,"max":[0.10000000149011612,0.10000000149011612,0.44999998807907104],"min":[-0.10000000149011612,-0.10000000149011612,-0.44999998807907104],"type":"VEC3"},{"bufferView":319,"componentType":5126,"count":24,"type":"VEC3"},{"bufferView":320,"componentType":5126,"count":24,"type":"VEC2"},{"bufferView":321,"componentType":5126,"count":96,"max":[3.490000009536743,0.23000000417232513,0.23000000417232513],"min":[-3.490000009536743,-0.23000000417232513,-0.23000000417232513],"type":"VEC3"},{"bufferView":322,"componentType":5126,"count":96,"type":"VEC3"},{"bufferView":323,"componentType":5126,"count":96,"type":"VEC2"},{"bufferView":324,"componentType":5123,"count":132,"type":"SCALAR"},{"bufferView":325,"componentType":5126,"count":96,"max":[3.490000009536743,0.23000000417232513,0.23000000417232513],"min":[-3.490000009536743,-0.23000000417232513,-0.23000000417232513],"type":"VEC3"},{"bufferView":326,"componentType":5126,"count":96,"type":"VEC3"},{"bufferView":327,"componentType":5126,"count":96,"type":"VEC2"},{"bufferView":328,"componentType":5126,"count":96,"max":[0.23000000417232513,0.23000000417232513,3.490000009536743],"min":[-0.23000000417232513,-0.23000000417232513,-3.490000009536743],"type":"VEC3"},{"bufferView":329,"componentType":5126,"count":96,"type":"VEC3"},{"bufferView":330,"componentType":5126,"count":96,"type":"VEC2"},{"bufferView":331,"componentType":5126,"count":96,"max":[0.15000000596046448,0.02500000037252903,1],"min":[-0.15000000596046448,-0.02500000037252903,-1],"type":"VEC3"},{"bufferView":332,"componentType":5126,"count":96,"type":"VEC3"},{"bufferView":333,"componentType":5126,"count":96,"type":"VEC2"},{"bufferView":334,"componentType":5126,"count":96,"max":[0.15000000596046448,0.02500000037252903,1],"min":[-0.15000000596046448,-0.02500000037252903,-1],"type":"VEC3"},{"bufferView":335,"componentType":5126,"count":96,"type":"VEC3"},{"bufferView":336,"componentType":5126,"count":96,"type":"VEC2"},{"bufferView":337,"componentType":5126,"count":96,"max":[0.15000000596046448,0.02500000037252903,1],"min":[-0.15000000596046448,-0.02500000037252903,-1],"type":"VEC3"},{"bufferView":338,"componentType":5126,"count":96,"type":"VEC3"},{"bufferView":339,"componentType":5126,"count":96,"type":"VEC2"},{"bufferView":340,"componentType":5126,"count":96,"max":[0.15000000596046448,0.02500000037252903,1],"min":[-0.15000000596046448,-0.02500000037252903,-1],"type":"VEC3"},{"bufferView":341,"componentType":5126,"count":96,"type":"VEC3"},{"bufferView":342,"componentType":5126,"count":96,"type":"VEC2"},{"bufferView":343,"componentType":5126,"count":96,"max":[0.17000000178813934,2.4000000953674316,0.17000000178813934],"min":[-0.17000000178813934,-2.4000000953674316,-0.17000000178813934],"type":"VEC3"},{"bufferView":344,"componentType":5126,"count":96,"type":"VEC3"},{"bufferView":345,"componentType":5126,"count":96,"type":"VEC2"},{"bufferView":346,"componentType":5126,"count":96,"max":[0.17000000178813934,2.4000000953674316,0.17000000178813934],"min":[-0.17000000178813934,-2.4000000953674316,-0.17000000178813934],"type":"VEC3"},{"bufferView":347,"componentType":5126,"count":96,"type":"VEC3"},{"bufferView":348,"componentType":5126,"count":96,"type":"VEC2"},{"bufferView":349,"componentType":5126,"count":96,"max":[0.17000000178813934,2.4000000953674316,0.17000000178813934],"min":[-0.17000000178813934,-2.4000000953674316,-0.17000000178813934],"type":"VEC3"},{"bufferView":350,"componentType":5126,"count":96,"type":"VEC3"},{"bufferView":351,"componentType":5126,"count":96,"type":"VEC2"},{"bufferView":352,"componentType":5126,"count":96,"max":[0.17000000178813934,2.4000000953674316,0.17000000178813934],"min":[-0.17000000178813934,-2.4000000953674316,-0.17000000178813934],"type":"VEC3"},{"bufferView":353,"componentType":5126,"count":96,"type":"VEC3"},{"bufferView":354,"componentType":5126,"count":96,"type":"VEC2"}],"bufferViews":[{"buffer":0,"byteLength":288,"byteOffset":0,"target":34962},{"buffer":0,"byteLength":288,"byteOffset":288,"target":34962},{"buffer":0,"byteLength":72,"byteOffset":576,"target":34963},{"buffer":0,"byteLength":288,"byteOffset":648,"target":34962},{"buffer":0,"byteLength":288,"byteOffset":936,"target":34962},{"buffer":0,"byteLength":288,"byteOffset":1224,"target":34962},{"buffer":0,"byteLength":288,"byteOffset":1512,"target":34962},{"buffer":0,"byteLength":288,"byteOffset":1800,"target":34962},{"buffer":0,"byteLength":288,"byteOffset":2088,"target":34962},{"buffer":0,"byteLength":360,"byteOffset":2376,"target":34962},{"buffer":0,"byteLength":360,"byteOffset":2736,"target":34962},{"buffer":0,"byteLength":240,"byteOffset":3096,"target":34962},{"buffer":0,"byteLength":120,"byteOffset":3336,"target":34963},{"buffer":0,"byteLength":348,"byteOffset":3456,"target":34962},{"buffer":0,"byteLength":348,"byteOffset":3804,"target":34962},{"buffer":0,"byteLength":232,"byteOffset":4152,"target":34962},{"buffer":0,"byteLength":120,"byteOffset":4384,"target":34963},{"buffer":0,"byteLength":360,"byteOffset":4504,"target":34962},{"buffer":0,"byteLength":360,"byteOffset":4864,"target":34962},{"buffer":0,"byteLength":240,"byteOffset":5224,"target":34962},{"buffer":0,"byteLength":120,"byteOffset":5464,"target":34963},{"buffer":0,"byteLength":300,"byteOffset":5584,"target":34962},{"buffer":0,"byteLength":300,"byteOffset":5884,"target":34962},{"buffer":0,"byteLength":200,"byteOffset":6184,"target":34962},{"buffer":0,"byteLength":120,"byteOffset":6384,"target":34963},{"buffer":0,"byteLength":348,"byteOffset":6504,"target":34962},{"buffer":0,"byteLength":348,"byteOffset":6852,"target":34962},{"buffer":0,"byteLength":232,"byteOffset":7200,"target":34962},{"buffer":0,"byteLength":120,"byteOffset":7432,"target":34963},{"buffer":0,"byteLength":372,"byteOffset":7552,"target":34962},{"buffer":0,"byteLength":372,"byteOffset":7924,"target":34962},{"buffer":0,"byteLength":248,"byteOffset":8296,"target":34962},{"buffer":0,"byteLength":120,"byteOffset":8544,"target":34963},{"buffer":0,"byteLength":372,"byteOffset":8664,"target":34962},{"buffer":0,"byteLength":372,"byteOffset":9036,"target":34962},{"buffer":0,"byteLength":248,"byteOffset":9408,"target":34962},{"buffer":0,"byteLength":120,"byteOffset":9656,"target":34963},{"buffer":0,"byteLength":360,"byteOffset":9776,"target":34962},{"buffer":0,"byteLength":360,"byteOffset":10136,"target":34962},{"buffer":0,"byteLength":240,"byteOffset":10496,"target":34962},{"buffer":0,"byteLength":120,"byteOffset":10736,"target":34963},{"buffer":0,"byteLength":360,"byteOffset":10856,"target":34962},{"buffer":0,"byteLength":360,"byteOffset":11216,"target":34962},{"buffer":0,"byteLength":240,"byteOffset":11576,"target":34962},{"buffer":0,"byteLength":120,"byteOffset":11816,"target":34963},{"buffer":0,"byteLength":336,"byteOffset":11936,"target":34962},{"buffer":0,"byteLength":336,"byteOffset":12272,"target":34962},{"buffer":0,"byteLength":224,"byteOffset":12608,"target":34962},{"buffer":0,"byteLength":120,"byteOffset":12832,"target":34963},{"buffer":0,"byteLength":8820,"byteOffset":12952,"target":34962},{"buffer":0,"byteLength":8820,"byteOffset":21772,"target":34962},{"buffer":0,"byteLength":5880,"byteOffset":30592,"target":34962},{"buffer":0,"byteLength":7920,"byteOffset":36472,"target":34963},{"buffer":0,"byteLength":5292,"byteOffset":44392,"target":34962},{"buffer":0,"byteLength":5292,"byteOffset":49684,"target":34962},{"buffer":0,"byteLength":3528,"byteOffset":54976,"target":34962},{"buffer":0,"byteLength":4800,"byteOffset":58504,"target":34963},{"buffer":0,"byteLength":288,"byteOffset":63304,"target":34962},{"buffer":0,"byteLength":288,"byteOffset":63592,"target":34962},{"buffer":0,"byteLength":192,"byteOffset":63880,"target":34962},{"buffer":0,"byteLength":288,"byteOffset":64072,"target":34962},{"buffer":0,"byteLength":288,"byteOffset":64360,"target":34962},{"buffer":0,"byteLength":192,"byteOffset":64648,"target":34962},{"buffer":0,"byteLength":288,"byteOffset":64840,"target":34962},{"buffer":0,"byteLength":288,"byteOffset":65128,"target":34962},{"buffer":0,"byteLength":192,"byteOffset":65416,"target":34962},{"buffer":0,"byteLength":288,"byteOffset":65608,"target":34962},{"buffer":0,"byteLength":288,"byteOffset":65896,"target":34962},{"buffer":0,"byteLength":192,"byteOffset":66184,"target":34962},{"buffer":0,"byteLength":288,"byteOffset":66376,"target":34962},{"buffer":0,"byteLength":288,"byteOffset":66664,"target":34962},{"buffer":0,"byteLength":192,"byteOffset":66952,"target":34962},{"buffer":0,"byteLength":288,"byteOffset":67144,"target":34962},{"buffer":0,"byteLength":288,"byteOffset":67432,"target":34962},{"buffer":0,"byteLength":192,"byteOffset":67720,"target":34962},{"buffer":0,"byteLength":288,"byteOffset":67912,"target":34962},{"buffer":0,"byteLength":288,"byteOffset":68200,"target":34962},{"buffer":0,"byteLength":192,"byteOffset":68488,"target":34962},{"buffer":0,"byteLength":288,"byteOffset":68680,"target":34962},{"buffer":0,"byteLength":288,"byteOffset":68968,"target":34962},{"buffer":0,"byteLength":192,"byteOffset":69256,"target":34962},{"buffer":0,"byteLength":288,"byteOffset":69448,"target":34962},{"buffer":0,"byteLength":288,"byteOffset":69736,"target":34962},{"buffer":0,"byteLength":192,"byteOffset":70024,"target":34962},{"buffer":0,"byteLength":288,"byteOffset":70216,"target":34962},{"buffer":0,"byteLength":288,"byteOffset":70504,"target":34962},{"buffer":0,"byteLength":192,"byteOffset":70792,"target":34962},{"buffer":0,"byteLength":288,"byteOffset":70984,"target":34962},{"buffer":0,"byteLength":288,"byteOffset":71272,"target":34962},{"buffer":0,"byteLength":192,"byteOffset":71560,"target":34962},{"buffer":0,"byteLength":288,"byteOffset":71752,"target":34962},{"buffer":0,"byteLength":288,"byteOffset":72040,"target":34962},{"buffer":0,"byteLength":192,"byteOffset":72328,"target":34962},{"buffer":0,"byteLength":288,"byteOffset":72520,"target":34962},{"buffer":0,"byteLength":288,"byteOffset":72808,"target":34962},{"buffer":0,"byteLength":192,"byteOffset":73096,"target":34962},{"buffer":0,"byteLength":288,"byteOffset":73288,"target":34962},{"buffer":0,"byteLength":288,"byteOffset":73576,"target":34962},{"buffer":0,"byteLength":192,"byteOffset":73864,"target":34962},{"buffer":0,"byteLength":288,"byteOffset":74056,"target":34962},{"buffer":0,"byteLength":288,"byteOffset":74344,"target":34962},{"buffer":0,"byteLength":192,"byteOffset":74632,"target":34962},{"buffer":0,"byteLength":288,"byteOffset":74824,"target":34962},{"buffer":0,"byteLength":288,"byteOffset":75112,"target":34962},{"buffer":0,"byteLength":192,"byteOffset":75400,"target":34962},{"buffer":0,"byteLength":288,"byteOffset":75592,"target":34962},{"buffer":0,"byteLength":288,"byteOffset":75880,"target":34962},{"buffer":0,"byteLength":192,"byteOffset":76168,"target":34962},{"buffer":0,"byteLength":288,"byteOffset":76360,"target":34962},{"buffer":0,"byteLength":288,"byteOffset":76648,"target":34962},{"buffer":0,"byteLength":192,"byteOffset":76936,"target":34962},{"buffer":0,"byteLength":288,"byteOffset":77128,"target":34962},{"buffer":0,"byteLength":288,"byteOffset":77416,"target":34962},{"buffer":0,"byteLength":192,"byteOffset":77704,"target":34962},{"buffer":0,"byteLength":288,"byteOffset":77896,"target":34962},{"buffer":0,"byteLength":288,"byteOffset":78184,"target":34962},{"buffer":0,"byteLength":192,"byteOffset":78472,"target":34962},{"buffer":0,"byteLength":288,"byteOffset":78664,"target":34962},{"buffer":0,"byteLength":288,"byteOffset":78952,"target":34962},{"buffer":0,"byteLength":192,"byteOffset":79240,"target":34962},{"buffer":0,"byteLength":288,"byteOffset":79432,"target":34962},{"buffer":0,"byteLength":288,"byteOffset":79720,"target":34962},{"buffer":0,"byteLength":192,"byteOffset":80008,"target":34962},{"buffer":0,"byteLength":288,"byteOffset":80200,"target":34962},{"buffer":0,"byteLength":288,"byteOffset":80488,"target":34962},{"buffer":0,"byteLength":192,"byteOffset":80776,"target":34962},{"buffer":0,"byteLength":288,"byteOffset":80968,"target":34962},{"buffer":0,"byteLength":288,"byteOffset":81256,"target":34962},{"buffer":0,"byteLength":192,"byteOffset":81544,"target":34962},{"buffer":0,"byteLength":288,"byteOffset":81736,"target":34962},{"buffer":0,"byteLength":288,"byteOffset":82024,"target":34962},{"buffer":0,"byteLength":192,"byteOffset":82312,"target":34962},{"buffer":0,"byteLength":288,"byteOffset":82504,"target":34962},{"buffer":0,"byteLength":288,"byteOffset":82792,"target":34962},{"buffer":0,"byteLength":192,"byteOffset":83080,"target":34962},{"buffer":0,"byteLength":288,"byteOffset":83272,"target":34962},{"buffer":0,"byteLength":288,"byteOffset":83560,"target":34962},{"buffer":0,"byteLength":192,"byteOffset":83848,"target":34962},{"buffer":0,"byteLength":288,"byteOffset":84040,"target":34962},{"buffer":0,"byteLength":288,"byteOffset":84328,"target":34962},{"buffer":0,"byteLength":192,"byteOffset":84616,"target":34962},{"buffer":0,"byteLength":288,"byteOffset":84808,"target":34962},{"buffer":0,"byteLength":288,"byteOffset":85096,"target":34962},{"buffer":0,"byteLength":192,"byteOffset":85384,"target":34962},{"buffer":0,"byteLength":288,"byteOffset":85576,"target":34962},{"buffer":0,"byteLength":288,"byteOffset":85864,"target":34962},{"buffer":0,"byteLength":192,"byteOffset":86152,"target":34962},{"buffer":0,"byteLength":288,"byteOffset":86344,"target":34962},{"buffer":0,"byteLength":288,"byteOffset":86632,"target":34962},{"buffer":0,"byteLength":192,"byteOffset":86920,"target":34962},{"buffer":0,"byteLength":288,"byteOffset":87112,"target":34962},{"buffer":0,"byteLength":288,"byteOffset":87400,"target":34962},{"buffer":0,"byteLength":192,"byteOffset":87688,"target":34962},{"buffer":0,"byteLength":288,"byteOffset":87880,"target":34962},{"buffer":0,"byteLength":288,"byteOffset":88168,"target":34962},{"buffer":0,"byteLength":192,"byteOffset":88456,"target":34962},{"buffer":0,"byteLength":288,"byteOffset":88648,"target":34962},{"buffer":0,"byteLength":288,"byteOffset":88936,"target":34962},{"buffer":0,"byteLength":192,"byteOffset":89224,"target":34962},{"buffer":0,"byteLength":288,"byteOffset":89416,"target":34962},{"buffer":0,"byteLength":288,"byteOffset":89704,"target":34962},{"buffer":0,"byteLength":192,"byteOffset":89992,"target":34962},{"buffer":0,"byteLength":288,"byteOffset":90184,"target":34962},{"buffer":0,"byteLength":288,"byteOffset":90472,"target":34962},{"buffer":0,"byteLength":192,"byteOffset":90760,"target":34962},{"buffer":0,"byteLength":288,"byteOffset":90952,"target":34962},{"buffer":0,"byteLength":288,"byteOffset":91240,"target":34962},{"buffer":0,"byteLength":192,"byteOffset":91528,"target":34962},{"buffer":0,"byteLength":288,"byteOffset":91720,"target":34962},{"buffer":0,"byteLength":288,"byteOffset":92008,"target":34962},{"buffer":0,"byteLength":192,"byteOffset":92296,"target":34962},{"buffer":0,"byteLength":288,"byteOffset":92488,"target":34962},{"buffer":0,"byteLength":288,"byteOffset":92776,"target":34962},{"buffer":0,"byteLength":192,"byteOffset":93064,"target":34962},{"buffer":0,"byteLength":288,"byteOffset":93256,"target":34962},{"buffer":0,"byteLength":288,"byteOffset":93544,"target":34962},{"buffer":0,"byteLength":192,"byteOffset":93832,"target":34962},{"buffer":0,"byteLength":288,"byteOffset":94024,"target":34962},{"buffer":0,"byteLength":288,"byteOffset":94312,"target":34962},{"buffer":0,"byteLength":192,"byteOffset":94600,"target":34962},{"buffer":0,"byteLength":288,"byteOffset":94792,"target":34962},{"buffer":0,"byteLength":288,"byteOffset":95080,"target":34962},{"buffer":0,"byteLength":192,"byteOffset":95368,"target":34962},{"buffer":0,"byteLength":288,"byteOffset":95560,"target":34962},{"buffer":0,"byteLength":288,"byteOffset":95848,"target":34962},{"buffer":0,"byteLength":192,"byteOffset":96136,"target":34962},{"buffer":0,"byteLength":288,"byteOffset":96328,"target":34962},{"buffer":0,"byteLength":288,"byteOffset":96616,"target":34962},{"buffer":0,"byteLength":192,"byteOffset":96904,"target":34962},{"buffer":0,"byteLength":288,"byteOffset":97096,"target":34962},{"buffer":0,"byteLength":288,"byteOffset":97384,"target":34962},{"buffer":0,"byteLength":192,"byteOffset":97672,"target":34962},{"buffer":0,"byteLength":288,"byteOffset":97864,"target":34962},{"buffer":0,"byteLength":288,"byteOffset":98152,"target":34962},{"buffer":0,"byteLength":192,"byteOffset":98440,"target":34962},{"buffer":0,"byteLength":288,"byteOffset":98632,"target":34962},{"buffer":0,"byteLength":288,"byteOffset":98920,"target":34962},{"buffer":0,"byteLength":192,"byteOffset":99208,"target":34962},{"buffer":0,"byteLength":288,"byteOffset":99400,"target":34962},{"buffer":0,"byteLength":288,"byteOffset":99688,"target":34962},{"buffer":0,"byteLength":192,"byteOffset":99976,"target":34962},{"buffer":0,"byteLength":288,"byteOffset":100168,"target":34962},{"buffer":0,"byteLength":288,"byteOffset":100456,"target":34962},{"buffer":0,"byteLength":192,"byteOffset":100744,"target":34962},{"buffer":0,"byteLength":288,"byteOffset":100936,"target":34962},{"buffer":0,"byteLength":288,"byteOffset":101224,"target":34962},{"buffer":0,"byteLength":192,"byteOffset":101512,"target":34962},{"buffer":0,"byteLength":288,"byteOffset":101704,"target":34962},{"buffer":0,"byteLength":288,"byteOffset":101992,"target":34962},{"buffer":0,"byteLength":192,"byteOffset":102280,"target":34962},{"buffer":0,"byteLength":288,"byteOffset":102472,"target":34962},{"buffer":0,"byteLength":288,"byteOffset":102760,"target":34962},{"buffer":0,"byteLength":192,"byteOffset":103048,"target":34962},{"buffer":0,"byteLength":288,"byteOffset":103240,"target":34962},{"buffer":0,"byteLength":288,"byteOffset":103528,"target":34962},{"buffer":0,"byteLength":192,"byteOffset":103816,"target":34962},{"buffer":0,"byteLength":288,"byteOffset":104008,"target":34962},{"buffer":0,"byteLength":288,"byteOffset":104296,"target":34962},{"buffer":0,"byteLength":192,"byteOffset":104584,"target":34962},{"buffer":0,"byteLength":288,"byteOffset":104776,"target":34962},{"buffer":0,"byteLength":288,"byteOffset":105064,"target":34962},{"buffer":0,"byteLength":192,"byteOffset":105352,"target":34962},{"buffer":0,"byteLength":288,"byteOffset":105544,"target":34962},{"buffer":0,"byteLength":288,"byteOffset":105832,"target":34962},{"buffer":0,"byteLength":192,"byteOffset":106120,"target":34962},{"buffer":0,"byteLength":288,"byteOffset":106312,"target":34962},{"buffer":0,"byteLength":288,"byteOffset":106600,"target":34962},{"buffer":0,"byteLength":192,"byteOffset":106888,"target":34962},{"buffer":0,"byteLength":288,"byteOffset":107080,"target":34962},{"buffer":0,"byteLength":288,"byteOffset":107368,"target":34962},{"buffer":0,"byteLength":192,"byteOffset":107656,"target":34962},{"buffer":0,"byteLength":288,"byteOffset":107848,"target":34962},{"buffer":0,"byteLength":288,"byteOffset":108136,"target":34962},{"buffer":0,"byteLength":192,"byteOffset":108424,"target":34962},{"buffer":0,"byteLength":288,"byteOffset":108616,"target":34962},{"buffer":0,"byteLength":288,"byteOffset":108904,"target":34962},{"buffer":0,"byteLength":192,"byteOffset":109192,"target":34962},{"buffer":0,"byteLength":288,"byteOffset":109384,"target":34962},{"buffer":0,"byteLength":288,"byteOffset":109672,"target":34962},{"buffer":0,"byteLength":192,"byteOffset":109960,"target":34962},{"buffer":0,"byteLength":288,"byteOffset":110152,"target":34962},{"buffer":0,"byteLength":288,"byteOffset":110440,"target":34962},{"buffer":0,"byteLength":192,"byteOffset":110728,"target":34962},{"buffer":0,"byteLength":288,"byteOffset":110920,"target":34962},{"buffer":0,"byteLength":288,"byteOffset":111208,"target":34962},{"buffer":0,"byteLength":192,"byteOffset":111496,"target":34962},{"buffer":0,"byteLength":288,"byteOffset":111688,"target":34962},{"buffer":0,"byteLength":288,"byteOffset":111976,"target":34962},{"buffer":0,"byteLength":192,"byteOffset":112264,"target":34962},{"buffer":0,"byteLength":288,"byteOffset":112456,"target":34962},{"buffer":0,"byteLength":288,"byteOffset":112744,"target":34962},{"buffer":0,"byteLength":192,"byteOffset":113032,"target":34962},{"buffer":0,"byteLength":288,"byteOffset":113224,"target":34962},{"buffer":0,"byteLength":288,"byteOffset":113512,"target":34962},{"buffer":0,"byteLength":192,"byteOffset":113800,"target":34962},{"buffer":0,"byteLength":288,"byteOffset":113992,"target":34962},{"buffer":0,"byteLength":288,"byteOffset":114280,"target":34962},{"buffer":0,"byteLength":192,"byteOffset":114568,"target":34962},{"buffer":0,"byteLength":288,"byteOffset":114760,"target":34962},{"buffer":0,"byteLength":288,"byteOffset":115048,"target":34962},{"buffer":0,"byteLength":192,"byteOffset":115336,"target":34962},{"buffer":0,"byteLength":288,"byteOffset":115528,"target":34962},{"buffer":0,"byteLength":288,"byteOffset":115816,"target":34962},{"buffer":0,"byteLength":192,"byteOffset":116104,"target":34962},{"buffer":0,"byteLength":288,"byteOffset":116296,"target":34962},{"buffer":0,"byteLength":288,"byteOffset":116584,"target":34962},{"buffer":0,"byteLength":192,"byteOffset":116872,"target":34962},{"buffer":0,"byteLength":288,"byteOffset":117064,"target":34962},{"buffer":0,"byteLength":288,"byteOffset":117352,"target":34962},{"buffer":0,"byteLength":192,"byteOffset":117640,"target":34962},{"buffer":0,"byteLength":288,"byteOffset":117832,"target":34962},{"buffer":0,"byteLength":288,"byteOffset":118120,"target":34962},{"buffer":0,"byteLength":192,"byteOffset":118408,"target":34962},{"buffer":0,"byteLength":288,"byteOffset":118600,"target":34962},{"buffer":0,"byteLength":288,"byteOffset":118888,"target":34962},{"buffer":0,"byteLength":192,"byteOffset":119176,"target":34962},{"buffer":0,"byteLength":288,"byteOffset":119368,"target":34962},{"buffer":0,"byteLength":288,"byteOffset":119656,"target":34962},{"buffer":0,"byteLength":192,"byteOffset":119944,"target":34962},{"buffer":0,"byteLength":288,"byteOffset":120136,"target":34962},{"buffer":0,"byteLength":288,"byteOffset":120424,"target":34962},{"buffer":0,"byteLength":192,"byteOffset":120712,"target":34962},{"buffer":0,"byteLength":288,"byteOffset":120904,"target":34962},{"buffer":0,"byteLength":288,"byteOffset":121192,"target":34962},{"buffer":0,"byteLength":192,"byteOffset":121480,"target":34962},{"buffer":0,"byteLength":288,"byteOffset":121672,"target":34962},{"buffer":0,"byteLength":288,"byteOffset":121960,"target":34962},{"buffer":0,"byteLength":192,"byteOffset":122248,"target":34962},{"buffer":0,"byteLength":288,"byteOffset":122440,"target":34962},{"buffer":0,"byteLength":288,"byteOffset":122728,"target":34962},{"buffer":0,"byteLength":192,"byteOffset":123016,"target":34962},{"buffer":0,"byteLength":288,"byteOffset":123208,"target":34962},{"buffer":0,"byteLength":288,"byteOffset":123496,"target":34962},{"buffer":0,"byteLength":192,"byteOffset":123784,"target":34962},{"buffer":0,"byteLength":288,"byteOffset":123976,"target":34962},{"buffer":0,"byteLength":288,"byteOffset":124264,"target":34962},{"buffer":0,"byteLength":192,"byteOffset":124552,"target":34962},{"buffer":0,"byteLength":288,"byteOffset":124744,"target":34962},{"buffer":0,"byteLength":288,"byteOffset":125032,"target":34962},{"buffer":0,"byteLength":192,"byteOffset":125320,"target":34962},{"buffer":0,"byteLength":288,"byteOffset":125512,"target":34962},{"buffer":0,"byteLength":288,"byteOffset":125800,"target":34962},{"buffer":0,"byteLength":192,"byteOffset":126088,"target":34962},{"buffer":0,"byteLength":288,"byteOffset":126280,"target":34962},{"buffer":0,"byteLength":288,"byteOffset":126568,"target":34962},{"buffer":0,"byteLength":192,"byteOffset":126856,"target":34962},{"buffer":0,"byteLength":288,"byteOffset":127048,"target":34962},{"buffer":0,"byteLength":288,"byteOffset":127336,"target":34962},{"buffer":0,"byteLength":192,"byteOffset":127624,"target":34962},{"buffer":0,"byteLength":288,"byteOffset":127816,"target":34962},{"buffer":0,"byteLength":288,"byteOffset":128104,"target":34962},{"buffer":0,"byteLength":192,"byteOffset":128392,"target":34962},{"buffer":0,"byteLength":288,"byteOffset":128584,"target":34962},{"buffer":0,"byteLength":288,"byteOffset":128872,"target":34962},{"buffer":0,"byteLength":192,"byteOffset":129160,"target":34962},{"buffer":0,"byteLength":288,"byteOffset":129352,"target":34962},{"buffer":0,"byteLength":288,"byteOffset":129640,"target":34962},{"buffer":0,"byteLength":192,"byteOffset":129928,"target":34962},{"buffer":0,"byteLength":288,"byteOffset":130120,"target":34962},{"buffer":0,"byteLength":288,"byteOffset":130408,"target":34962},{"buffer":0,"byteLength":192,"byteOffset":130696,"target":34962},{"buffer":0,"byteLength":1152,"byteOffset":130888,"target":34962},{"buffer":0,"byteLength":1152,"byteOffset":132040,"target":34962},{"buffer":0,"byteLength":768,"byteOffset":133192,"target":34962},{"buffer":0,"byteLength":264,"byteOffset":133960,"target":34963},{"buffer":0,"byteLength":1152,"byteOffset":134224,"target":34962},{"buffer":0,"byteLength":1152,"byteOffset":135376,"target":34962},{"buffer":0,"byteLength":768,"byteOffset":136528,"target":34962},{"buffer":0,"byteLength":1152,"byteOffset":137296,"target":34962},{"buffer":0,"byteLength":1152,"byteOffset":138448,"target":34962},{"buffer":0,"byteLength":768,"byteOffset":139600,"target":34962},{"buffer":0,"byteLength":1152,"byteOffset":140368,"target":34962},{"buffer":0,"byteLength":1152,"byteOffset":141520,"target":34962},{"buffer":0,"byteLength":768,"byteOffset":142672,"target":34962},{"buffer":0,"byteLength":1152,"byteOffset":143440,"target":34962},{"buffer":0,"byteLength":1152,"byteOffset":144592,"target":34962},{"buffer":0,"byteLength":768,"byteOffset":145744,"target":34962},{"buffer":0,"byteLength":1152,"byteOffset":146512,"target":34962},{"buffer":0,"byteLength":1152,"byteOffset":147664,"target":34962},{"buffer":0,"byteLength":768,"byteOffset":148816,"target":34962},{"buffer":0,"byteLength":1152,"byteOffset":149584,"target":34962},{"buffer":0,"byteLength":1152,"byteOffset":150736,"target":34962},{"buffer":0,"byteLength":768,"byteOffset":151888,"target":34962},{"buffer":0,"byteLength":1152,"byteOffset":152656,"target":34962},{"buffer":0,"byteLength":1152,"byteOffset":153808,"target":34962},{"buffer":0,"byteLength":768,"byteOffset":154960,"target":34962},{"buffer":0,"byteLength":1152,"byteOffset":155728,"target":34962},{"buffer":0,"byteLength":1152,"byteOffset":156880,"target":34962},{"buffer":0,"byteLength":768,"byteOffset":158032,"target":34962},{"buffer":0,"byteLength":1152,"byteOffset":158800,"target":34962},{"buffer":0,"byteLength":1152,"byteOffset":159952,"target":34962},{"buffer":0,"byteLength":768,"byteOffset":161104,"target":34962},{"buffer":0,"byteLength":1152,"byteOffset":161872,"target":34962},{"buffer":0,"byteLength":1152,"byteOffset":163024,"target":34962},{"buffer":0,"byteLength":768,"byteOffset":164176,"target":34962}],"samplers":[{"magFilter":9729,"minFilter":9987}],"buffers":[{"byteLength":164944,"uri":"piece_t.bin"}]}