{"asset":{"generator":"Khronos glTF Blender I/O v5.2.39","version":"2.0"},"scene":0,"scenes":[{"name":"Scene","nodes":[0,1,2,3,4,5,6,7,8,9,10,11,12,13,14,15,16,17,18,19,20,21,22,23,24,25,26,27,28,29,30,31,32]}],"nodes":[{"mesh":0,"name":"COL_neck_floor-convcolonly","translation":[0,-0.25,0]},{"mesh":1,"name":"COL_neck_lintel-convcolonly","translation":[0,4.400000095367432,-3.3499999046325684]},{"mesh":2,"name":"COL_neck_wall_E-convcolonly","rotation":[0,0.12218327075242996,0,0.9925075769424438],"translation":[2.770521402359009,2.799999952316284,0]},{"mesh":3,"name":"COL_neck_wall_W-convcolonly","rotation":[0,-0.12218327075242996,0,0.9925075769424438],"translation":[-2.770521402359009,2.799999952316284,0]},{"mesh":4,"name":"PRP_neck_rock_0","rotation":[-0.24853360652923584,-0.24853359162807465,0.1593209207057953,0.9225394129753113],"scale":[0.051303427666425705,0.0454540029168129,0.0535915270447731],"translation":[-1.1185882091522217,0.018627027049660683,2.3306522369384766]},{"mesh":5,"name":"PRP_neck_rock_1","rotation":[-0.6280094981193542,-0.628009557723999,0.1370754837989807,0.43865519762039185],"scale":[0.09514176100492477,0.07620075345039368,0.11918910592794418],"translation":[0.21656587719917297,0.046341028064489365,1.4923839569091797]},{"mesh":6,"name":"PRP_neck_rock_2","rotation":[-0.17475086450576782,-0.17475087940692902,-0.5506401062011719,0.7973203659057617],"scale":[0.10851339995861053,0.08264985680580139,0.10014329105615616],"translation":[1.3148962259292603,0.034696340560913086,0.8195009827613831]},{"mesh":7,"name":"PRP_neck_rock_3","rotation":[-0.28709426522254944,-0.28709423542022705,0.17170391976833344,0.8975921869277954],"scale":[0.10621508955955505,0.06158825755119324,0.07050739973783493],"translation":[0.7359681129455566,0.028654569759964943,0.13488933444023132]},{"mesh":8,"name":"PRP_neck_rock_4","rotation":[0.6502968072891235,0.6502969264984131,0.11920391023159027,0.37419044971466064],"scale":[0.09329945594072342,0.06853722035884857,0.0974397361278534],"translation":[0.5698051452636719,0.03741222992539406,0.7283141016960144]},{"mesh":9,"name":"PRP_neck_rock_5","rotation":[-0.10769820958375931,-0.10769820958375931,0.08822084963321686,0.9843878746032715],"scale":[0.10366426408290863,0.06136298552155495,0.08231915533542633],"translation":[0.26717740297317505,0.03407283127307892,-0.5651065111160278]},{"mesh":10,"name":"PRP_neck_rock_6","rotation":[0.10929503291845322,0.10929503291845322,-0.1415359377861023,0.9777917861938477],"scale":[0.15202856063842773,0.06931626796722412,0.13361896574497223],"translation":[1.0955109596252441,0.048121798783540726,-2.2575271129608154]},{"mesh":11,"name":"PRP_neck_rock_7","rotation":[0.18413659930229187,0.18413659930229187,-0.3404865264892578,0.9034690856933594],"scale":[0.051519617438316345,0.02975839003920555,0.051652368158102036],"translation":[-0.758039116859436,0.019650474190711975,0.7476449608802795]},{"mesh":12,"name":"SHL_neck"},{"mesh":13,"name":"TMB_neck_0_cap","rotation":[0.002134304493665695,0.0036478915717452765,-0.003173164092004299,0.9999860525131226],"translation":[0,4.4910807609558105,2.625]},{"mesh":14,"name":"TMB_neck_0_lag_0","rotation":[0.01566321961581707,-0.03911585733294487,0.006872533820569515,0.9990882873535156],"translation":[-0.9958055019378662,4.700828552246094,1.75]},{"mesh":15,"name":"TMB_neck_0_lag_1","rotation":[0.001272677443921566,-0.047914184629917145,-0.0010601825779303908,0.9988501667976379],"translation":[1.2846364974975586,4.697048664093018,1.75]},{"mesh":16,"name":"TMB_neck_0_post_L","rotation":[-0.0020129543263465166,-0.0038750364910811186,0.005039905197918415,0.9999777674674988],"translation":[-3.130182981491089,2.1781249046325684,2.6117351055145264]},{"mesh":17,"name":"TMB_neck_0_post_R","rotation":[0.0002977260737679899,0.00046900450251996517,0.0008133496739901602,1],"translation":[3.1214208602905273,2.1781249046325684,2.6448144912719727]},{"mesh":18,"name":"TMB_neck_1_cap","rotation":[0.000993806985206902,0.0002283522771904245,-0.0007650525658391416,1],"translation":[0,3.999457597732544,0.875]},{"mesh":19,"name":"TMB_neck_1_lag_0","rotation":[-0.01645665429532528,-0.02284909039735794,0.009258313104510307,0.9995605945587158],"translation":[0.9499000310897827,4.19979190826416,1.75]},{"mesh":20,"name":"TMB_neck_1_lag_1","rotation":[-0.01518453098833561,0.004333583638072014,-0.011468496173620224,0.9998095631599426],"translation":[-0.1647873967885971,4.185352325439453,0]},{"mesh":21,"name":"TMB_neck_1_post_L","rotation":[-0.004808472469449043,-0.007514361757785082,0.005923934746533632,0.9999426603317261],"translation":[-2.674177885055542,1.9343750476837158,0.8860520124435425]},{"mesh":22,"name":"TMB_neck_1_post_R","rotation":[-0.006025312468409538,-0.009129052981734276,-0.003039692994207144,0.9999355673789978],"translation":[2.7055611610412598,1.9343750476837158,0.8937970399856567]},{"mesh":23,"name":"TMB_neck_2_cap","rotation":[-0.004616733640432358,-0.004458409268409014,-0.004725581966340542,0.9999682307243347],"translation":[0,3.5353615283966064,-0.875]},{"mesh":24,"name":"TMB_neck_2_lag_0","rotation":[-0.00649604294449091,0.048089660704135895,0.0022475847508758307,0.9988194704055786],"translation":[-0.5213414430618286,3.7056727409362793,-1.75]},{"mesh":25,"name":"TMB_neck_2_lag_1","rotation":[0.013926777988672256,0.001923351432196796,0.013367533683776855,0.9998118281364441],"translation":[1.16044282913208,3.740152597427368,-1.75]},{"mesh":26,"name":"TMB_neck_2_post_L","rotation":[0.0025298534892499447,-0.003100175177678466,0.0005770268617197871,0.9999918341636658],"translation":[-2.2790277004241943,1.6906249523162842,-0.8640813231468201]},{"mesh":27,"name":"TMB_neck_2_post_R","rotation":[0.002016388112679124,0.0029052961617708206,-0.00291391066275537,0.9999895095825195],"translation":[2.286052703857422,1.6906249523162842,-0.8557403683662415]},{"mesh":28,"name":"TMB_neck_3_cap","rotation":[-0.0036188627127557993,0.002782680792734027,-0.004686923697590828,0.9999786019325256],"translation":[0,3.024583101272583,-2.625]},{"mesh":29,"name":"TMB_neck_3_lag_0","rotation":[0.015893656760454178,-0.0467144250869751,-0.0108095807954669,0.9987234473228455],"translation":[1.2834956645965576,3.2523062229156494,-1.75]},{"mesh":30,"name":"TMB_neck_3_lag_1","rotation":[0.004818615037947893,0.03060860000550747,-0.0039968849159777164,0.9995118379592896],"translation":[0.4158746600151062,3.2588257789611816,-3.5]},{"mesh":31,"name":"TMB_neck_3_post_L","rotation":[-0.0037560437340289354,0.003976261243224144,0.001182910636998713,0.9999844431877136],"translation":[-1.8250606060028076,1.446874976158142,-2.6423733234405518]},{"mesh":32,"name":"TMB_neck_3_post_R","rotation":[-0.006460844539105892,0.00013674730143975466,0.0010052963625639677,0.9999786615371704],"translation":[1.8379522562026978,1.446874976158142,-2.6262319087982178]}],"materials":[{"doubleSided":true,"name":"MAT_Rock_EXPORT","normalTexture":{"index":0},"pbrMetallicRoughness":{"baseColorTexture":{"index":1},"metallicFactor":0,"metallicRoughnessTexture":{"index":2}}},{"doubleSided":true,"name":"MAT_RockWall_EXPORT","normalTexture":{"index":3},"pbrMetallicRoughness":{"baseColorTexture":{"index":4},"metallicFactor":0,"metallicRoughnessTexture":{"index":5}}},{"doubleSided":true,"name":"MAT_Floor_EXPORT","normalTexture":{"index":6},"pbrMetallicRoughness":{"baseColorTexture":{"index":7},"metallicFactor":0,"metallicRoughnessTexture":{"index":8}}},{"doubleSided":true,"name":"MAT_Timber_EXPORT","normalTexture":{"index":9},"pbrMetallicRoughness":{"baseColorTexture":{"index":10},"metallicFactor":0,"metallicRoughnessTexture":{"index":11}}}],"meshes":[{"name":"COL_neck_floor-convcolonly","primitives":[{"attributes":{"POSITION":0,"NORMAL":1},"indices":2}]},{"name":"COL_neck_lintel-convcolonly","primitives":[{"attributes":{"POSITION":3,"NORMAL":4},"indices":2}]},{"name":"COL_neck_wall_E-convcolonly","primitives":[{"attributes":{"POSITION":5,"NORMAL":6},"indices":2}]},{"name":"COL_neck_wall_W-convcolonly","primitives":[{"attributes":{"POSITION":7,"NORMAL":8},"indices":2}]},{"name":"PRP_neck_rock_0","primitives":[{"attributes":{"POSITION":9,"NORMAL":10,"TEXCOORD_0":11},"indices":12,"material":0}]},{"name":"PRP_neck_rock_1","primitives":[{"attributes":{"POSITION":13,"NORMAL":14,"TEXCOORD_0":15},"indices":16,"material":0}]},{"name":"PRP_neck_rock_2","primitives":[{"attributes":{"POSITION":17,"NORMAL":18,"TEXCOORD_0":19},"indices":20,"material":0}]},{"name":"PRP_neck_rock_3","primitives":[{"attributes":{"POSITION":21,"NORMAL":22,"TEXCOORD_0":23},"indices":24,"material":0}]},{"name":"PRP_neck_rock_4","primitives":[{"attributes":{"POSITION":25,"NORMAL":26,"TEXCOORD_0":27},"indices":28,"material":0}]},{"name":"PRP_neck_rock_5","primitives":[{"attributes":{"POSITION":29,"NORMAL":30,"TEXCOORD_0":31},"indices":32,"material":0}]},{"name":"PRP_neck_rock_6","primitives":[{"attributes":{"POSITION":33,"NORMAL":34,"TEXCOORD_0":35},"indices":36,"material":0}]},{"name":"PRP_neck_rock_7","primitives":[{"attributes":{"POSITION":37,"NORMAL":38,"TEXCOORD_0":39},"indices":40,"material":0}]},{"name":"SHL_neck","primitives":[{"attributes":{"POSITION":41,"NORMAL":42,"TEXCOORD_0":43},"indices":44,"material":1},{"attributes":{"POSITION":45,"NORMAL":46,"TEXCOORD_0":47},"indices":48,"material":2}]},{"name":"TMB_neck_0_cap","primitives":[{"attributes":{"POSITION":49,"NORMAL":50,"TEXCOORD_0":51},"indices":52,"material":3}]},{"name":"TMB_neck_0_lag_0","primitives":[{"attributes":{"POSITION":53,"NORMAL":54,"TEXCOORD_0":55},"indices":52,"material":3}]},{"name":"TMB_neck_0_lag_1","primitives":[{"attributes":{"POSITION":56,"NORMAL":57,"TEXCOORD_0":58},"indices":52,"material":3}]},{"name":"TMB_neck_0_post_L","primitives":[{"attributes":{"POSITION":59,"NORMAL":60,"TEXCOORD_0":61},"indices":52,"material":3}]},{"name":"TMB_neck_0_post_R","primitives":[{"attributes":{"POSITION":62,"NORMAL":63,"TEXCOORD_0":64},"indices":52,"material":3}]},{"name":"TMB_neck_1_cap","primitives":[{"attributes":{"POSITION":65,"NORMAL":66,"TEXCOORD_0":67},"indices":52,"material":3}]},{"name":"TMB_neck_1_lag_0","primitives":[{"attributes":{"POSITION":68,"NORMAL":69,"TEXCOORD_0":70},"indices":52,"material":3}]},{"name":"TMB_neck_1_lag_1","primitives":[{"attributes":{"POSITION":71,"NORMAL":72,"TEXCOORD_0":73},"indices":52,"material":3}]},{"name":"TMB_neck_1_post_L","primitives":[{"attributes":{"POSITION":74,"NORMAL":75,"TEXCOORD_0":76},"indices":52,"material":3}]},{"name":"TMB_neck_1_post_R","primitives":[{"attributes":{"POSITION":77,"NORMAL":78,"TEXCOORD_0":79},"indices":52,"material":3}]},{"name":"TMB_neck_2_cap","primitives":[{"attributes":{"POSITION":80,"NORMAL":81,"TEXCOORD_0":82},"indices":52,"material":3}]},{"name":"TMB_neck_2_lag_0","primitives":[{"attributes":{"POSITION":83,"NORMAL":84,"TEXCOORD_0":85},"indices":52,"material":3}]},{"name":"TMB_neck_2_lag_1","primitives":[{"attributes":{"POSITION":86,"NORMAL":87,"TEXCOORD_0":88},"indices":52,"material":3}]},{"name":"TMB_neck_2_post_L","primitives":[{"attributes":{"POSITION":89,"NORMAL":90,"TEXCOORD_0":91},"indices":52,"material":3}]},{"name":"TMB_neck_2_post_R","primitives":[{"attributes":{"POSITION":92,"NORMAL":93,"TEXCOORD_0":94},"indices":52,"material":3}]},{"name":"TMB_neck_3_cap","primitives":[{"attributes":{"POSITION":95,"NORMAL":96,"TEXCOORD_0":97},"indices":52,"material":3}]},{"name":"TMB_neck_3_lag_0","primitives":[{"attributes":{"POSITION":98,"NORMAL":99,"TEXCOORD_0":100},"indices":52,"material":3}]},{"name":"TMB_neck_3_lag_1","primitives":[{"attributes":{"POSITION":101,"NORMAL":102,"TEXCOORD_0":103},"indices":52,"material":3}]},{"name":"TMB_neck_3_post_L","primitives":[{"attributes":{"POSITION":104,"NORMAL":105,"TEXCOORD_0":106},"indices":52,"material":3}]},{"name":"TMB_neck_3_post_R","primitives":[{"attributes":{"POSITION":107,"NORMAL":108,"TEXCOORD_0":109},"indices":52,"material":3}]}],"textures":[{"sampler":0,"source":0},{"sampler":0,"source":1},{"sampler":0,"source":2},{"sampler":0,"source":3},{"sampler":0,"source":4},{"sampler":0,"source":5},{"sampler":0,"source":6},{"sampler":0,"source":7},{"sampler":0,"source":8},{"sampler":0,"source":9},{"sampler":0,"source":10},{"sampler":0,"source":11}],"images":[{"mimeType":"image/jpeg","name":"dark_rock_02_nor_gl","uri":"textures/dark_rock_02_nor_gl.jpg"},{"mimeType":"image/jpeg","name":"dark_rock_02_Diffuse","uri":"textures/dark_rock_02_Diffuse.jpg"},{"mimeType":"image/jpeg","name":"dark_rock_02_Rough","uri":"textures/dark_rock_02_Rough.jpg"},{"mimeType":"image/jpeg","name":"dark_rock_nor_gl","uri":"textures/rock_face_04_nor_gl.jpg"},{"mimeType":"image/jpeg","name":"dark_rock_Diffuse","uri":"textures/rock_face_04_Diffuse.jpg"},{"mimeType":"image/jpeg","name":"dark_rock_Rough","uri":"textures/rock_face_04_Rough.jpg"},{"mimeType":"image/jpeg","name":"brown_mud_rocks_01_nor_gl","uri":"textures/brown_mud_rocks_01_nor_gl.jpg"},{"mimeType":"image/jpeg","name":"brown_mud_rocks_01_Diffuse","uri":"textures/brown_mud_rocks_01_Diffuse.jpg"},{"mimeType":"image/jpeg","name":"brown_mud_rocks_01_Rough","uri":"textures/brown_mud_rocks_01_Rough.jpg"},{"mimeType":"image/jpeg","name":"dark_wooden_planks_nor_gl","uri":"textures/dark_wooden_planks_nor_gl.jpg"},{"mimeType":"image/jpeg","name":"dark_wooden_planks_Diffuse","uri":"textures/dark_wooden_planks_Diffuse.jpg"},{"mimeType":"image/jpeg","name":"dark_wooden_planks_Rough","uri":"textures/dark_wooden_planks_Rough.jpg"}],"accessors":[{"bufferView":0,"componentType":5126,"count":24,"max":[3.5,0.25,3.5],"min":[-3.5,-0.25,-3.5],"type":"VEC3"},{"bufferView":1,"componentType":5126,"count":24,"type":"VEC3"},{"bufferView":2,"componentType":5123,"count":36,"type":"SCALAR"},{"bufferView":3,"componentType":5126,"count":24,"max":[3.5,1.399999976158142,0.15000000596046448],"min":[-3.5,-1.399999976158142,-0.15000000596046448],"type":"VEC3"},{"bufferView":4,"componentType":5126,"count":24,"type":"VEC3"},{"bufferView":5,"componentType":5126,"count":24,"max":[0.15000000596046448,2.799999952316284,3.7577173709869385],"min":[-0.15000000596046448,-2.799999952316284,-3.7577173709869385],"type":"VEC3"},{"bufferView":6,"componentType":5126,"count":24,"type":"VEC3"},{"bufferView":7,"componentType":5126,"count":24,"max":[0.15000000596046448,2.799999952316284,3.7577173709869385],"min":[-0.15000000596046448,-2.799999952316284,-3.7577173709869385],"type":"VEC3"},{"bufferView":8,"componentType":5126,"count":24,"type":"VEC3"},{"bufferView":9,"componentType":5126,"count":31,"max":[0.7085963487625122,1.0451240539550781,0.6636414527893066],"min":[-0.8896974921226501,-0.7568336129188538,-1.021374225616455],"type":"VEC3"},{"bufferView":10,"componentType":5126,"count":31,"type":"VEC3"},{"bufferView":11,"componentType":5126,"count":31,"type":"VEC2"},{"bufferView":12,"componentType":5123,"count":60,"type":"SCALAR"},{"bufferView":13,"componentType":5126,"count":31,"max":[0.8105788826942444,0.9889279007911682,0.8024300932884216],"min":[-0.8739163875579834,-1.1179654598236084,-1.0172861814498901],"type":"VEC3"},{"bufferView":14,"componentType":5126,"count":31,"type":"VEC3"},{"bufferView":15,"componentType":5126,"count":31,"type":"VEC2"},{"bufferView":16,"componentType":5123,"count":60,"type":"SCALAR"},{"bufferView":17,"componentType":5126,"count":30,"max":[0.9172903299331665,1.0529621839523315,1.0429199934005737],"min":[-0.8156942129135132,-1.2120959758758545,-0.7764114141464233],"type":"VEC3"},{"bufferView":18,"componentType":5126,"count":30,"type":"VEC3"},{"bufferView":19,"componentType":5126,"count":30,"type":"VEC2"},{"bufferView":20,"componentType":5123,"count":60,"type":"SCALAR"},{"bufferView":21,"componentType":5126,"count":30,"max":[0.7878777384757996,1.1781314611434937,1.0352097749710083],"min":[-0.857195258140564,-1.244653344154358,-0.9948107004165649],"type":"VEC3"},{"bufferView":22,"componentType":5126,"count":30,"type":"VEC3"},{"bufferView":23,"componentType":5126,"count":30,"type":"VEC2"},{"bufferView":24,"componentType":5123,"count":60,"type":"SCALAR"},{"bufferView":25,"componentType":5126,"count":32,"max":[0.9019418358802795,1.1758426427841187,0.8718833923339844],"min":[-0.8502119183540344,-0.8016782402992249,-0.9022742509841919],"type":"VEC3"},{"bufferView":26,"componentType":5126,"count":32,"type":"VEC3"},{"bufferView":27,"componentType":5126,"count":32,"type":"VEC2"},{"bufferView":28,"componentType":5123,"count":60,"type":"SCALAR"},{"bufferView":29,"componentType":5126,"count":30,"max":[1.0382657051086426,0.9150404930114746,1.058933138847351],"min":[-0.8410608768463135,-0.7533810138702393,-0.7655847668647766],"type":"VEC3"},{"bufferView":30,"componentType":5126,"count":30,"type":"VEC3"},{"bufferView":31,"componentType":5126,"count":30,"type":"VEC2"},{"bufferView":32,"componentType":5123,"count":60,"type":"SCALAR"},{"bufferView":33,"componentType":5126,"count":29,"max":[0.8631452322006226,0.9821242094039917,1.0190224647521973],"min":[-0.8414308428764343,-0.7627875804901123,-0.9472377300262451],"type":"VEC3"},{"bufferView":34,"componentType":5126,"count":29,"type":"VEC3"},{"bufferView":35,"componentType":5126,"count":29,"type":"VEC2"},{"bufferView":36,"componentType":5123,"count":60,"type":"SCALAR"},{"bufferView":37,"componentType":5126,"count":31,"max":[0.9801012277603149,1.1232337951660156,1.0328543186187744],"min":[-0.8680150508880615,-1.0004544258117676,-0.8878145217895508],"type":"VEC3"},{"bufferView":38,"componentType":5126,"count":31,"type":"VEC3"},{"bufferView":39,"componentType":5126,"count":31,"type":"VEC2"},{"bufferView":40,"componentType":5123,"count":60,"type":"SCALAR"},{"bufferView":41,"componentType":5126,"count":1029,"max":[3.5,5.599999904632568,3.5],"min":[-3.5,0,-3.5],"type":"VEC3"},{"bufferView":42,"componentType":5126,"count":1029,"type":"VEC3"},{"bufferView":43,"componentType":5126,"count":1029,"type":"VEC2"},{"bufferView":44,"componentType":5123,"count":5520,"type":"SCALAR"},{"bufferView":45,"componentType":5126,"count":441,"max":[3.5,0.052715450525283813,3.5],"min":[-3.5,0,-3.5],"type":"VEC3"},{"bufferView":46,"componentType":5126,"count":441,"type":"VEC3"},{"bufferView":47,"componentType":5126,"count":441,"type":"VEC2"},{"bufferView":48,"componentType":5123,"count":2400,"type":"SCALAR"},{"bufferView":49,"componentType":5126,"count":96,"max":[3.271250009536743,0.17100000381469727,0.17100000381469727],"min":[-3.271250009536743,-0.17100000381469727,-0.17100000381469727],"type":"VEC3"},{"bufferView":50,"componentType":5126,"count":96,"type":"VEC3"},{"bufferView":51,"componentType":5126,"count":96,"type":"VEC2"},{"bufferView":52,"componentType":5123,"count":132,"type":"SCALAR"},{"bufferView":53,"componentType":5126,"count":96,"max":[0.15000000596046448,0.02500000037252903,0.7875000238418579],"min":[-0.15000000596046448,-0.02500000037252903,-0.7875000238418579],"type":"VEC3"},{"bufferView":54,"componentType":5126,"count":96,"type":"VEC3"},{"bufferView":55,"componentType":5126,"count":96,"type":"VEC2"},{"bufferView":56,"componentType":5126,"count":96,"max":[0.15000000596046448,0.02500000037252903,0.7875000238418579],"min":[-0.15000000596046448,-0.02500000037252903,-0.7875000238418579],"type":"VEC3"},{"bufferView":57,"componentType":5126,"count":96,"type":"VEC3"},{"bufferView":58,"componentType":5126,"count":96,"type":"VEC2"},{"bufferView":59,"componentType":5126,"count":96,"max":[0.16362500190734863,2.2281250953674316,0.16362500190734863],"min":[-0.16362500190734863,-2.2281250953674316,-0.16362500190734863],"type":"VEC3"},{"bufferView":60,"componentType":5126,"count":96,"type":"VEC3"},{"bufferView":61,"componentType":5126,"count":96,"type":"VEC2"},{"bufferView":62,"componentType":5126,"count":96,"max":[0.16362500190734863,2.2281250953674316,0.16362500190734863],"min":[-0.16362500190734863,-2.2281250953674316,-0.16362500190734863],"type":"VEC3"},{"bufferView":63,"componentType":5126,"count":96,"type":"VEC3"},{"bufferView":64,"componentType":5126,"count":96,"type":"VEC2"},{"bufferView":65,"componentType":5126,"count":96,"max":[2.833750009536743,0.15299999713897705,0.15299999713897705],"min":[-2.833750009536743,-0.15299999713897705,-0.15299999713897705],"type":"VEC3"},{"bufferView":66,"componentType":5126,"count":96,"type":"VEC3"},{"bufferView":67,"componentType":5126,"count":96,"type":"VEC2"},{"bufferView":68,"componentType":5126,"count":96,"max":[0.15000000596046448,0.02500000037252903,0.7875000238418579],"min":[-0.15000000596046448,-0.02500000037252903,-0.7875000238418579],"type":"VEC3"},{"bufferView":69,"componentType":5126,"count":96,"type":"VEC3"},{"bufferView":70,"componentType":5126,"count":96,"type":"VEC2"},{"bufferView":71,"componentType":5126,"count":96,"max":[0.15000000596046448,0.02500000037252903,0.7875000238418579],"min":[-0.15000000596046448,-0.02500000037252903,-0.7875000238418579],"type":"VEC3"},{"bufferView":72,"componentType":5126,"count":96,"type":"VEC3"},{"bufferView":73,"componentType":5126,"count":96,"type":"VEC2"},{"bufferView":74,"componentType":5126,"count":96,"max":[0.1508750021457672,1.984375,0.1508750021457672],"min":[-0.1508750021457672,-1.984375,-0.1508750021457672],"type":"VEC3"},{"bufferView":75,"componentType":5126,"count":96,"type":"VEC3"},{"bufferView":76,"componentType":5126,"count":96,"type":"VEC2"},{"bufferView":77,"componentType":5126,"count":96,"max":[0.1508750021457672,1.984375,0.1508750021457672],"min":[-0.1508750021457672,-1.984375,-0.1508750021457672],"type":"VEC3"},{"bufferView":78,"componentType":5126,"count":96,"type":"VEC3"},{"bufferView":79,"componentType":5126,"count":96,"type":"VEC2"},{"bufferView":80,"componentType":5126,"count":96,"max":[2.396250009536743,0.13500000536441803,0.13500000536441803],"min":[-2.396250009536743,-0.13500000536441803,-0.13500000536441803],"type":"VEC3"},{"bufferView":81,"componentType":5126,"count":96,"type":"VEC3"},{"bufferView":82,"componentType":5126,"count":96,"type":"VEC2"},{"bufferView":83,"componentType":5126,"count":96,"max":[0.15000000596046448,0.02500000037252903,0.7875000238418579],"min":[-0.15000000596046448,-0.02500000037252903,-0.7875000238418579],"type":"VEC3"},{"bufferView":84,"componentType":5126,"count":96,"type":"VEC3"},{"bufferView":85,"componentType":5126,"count":96,"type":"VEC2"},{"bufferView":86,"componentType":5126,"count":96,"max":[0.15000000596046448,0.02500000037252903,0.7875000238418579],"min":[-0.15000000596046448,-0.02500000037252903,-0.7875000238418579],"type":"VEC3"},{"bufferView":87,"componentType":5126,"count":96,"type":"VEC3"},{"bufferView":88,"componentType":5126,"count":96,"type":"VEC2"},{"bufferView":89,"componentType":5126,"count":96,"max":[0.1381250023841858,1.740625023841858,0.1381250023841858],"min":[-0.1381250023841858,-1.740625023841858,-0.1381250023841858],"type":"VEC3"},{"bufferView":90,"componentType":5126,"count":96,"type":"VEC3"},{"bufferView":91,"componentType":5126,"count":96,"type":"VEC2"},{"bufferView":92,"componentType":5126,"count":96,"max":[0.1381250023841858,1.740625023841858,0.1381250023841858],"min":[-0.1381250023841858,-1.740625023841858,-0.1381250023841858],"type":"VEC3"},{"bufferView":93,"componentType":5126,"count":96,"type":"VEC3"},{"bufferView":94,"componentType":5126,"count":96,"type":"VEC2"},{"bufferView":95,"componentType":5126,"count":96,"max":[1.9587500095367432,0.11699999868869781,0.11699999868869781],"min":[-1.9587500095367432,-0.11699999868869781,-0.11699999868869781],"type":"VEC3"},{"bufferView":96,"componentType":5126,"count":96,"type":"VEC3"},{"bufferView":97,"componentType":5126,"count":96,"type":"VEC2"},{"bufferView":98,"componentType":5126,"count":96,"max":[0.15000000596046448,0.02500000037252903,0.7875000238418579],"min":[-0.15000000596046448,-0.02500000037252903,-0.7875000238418579],"type":"VEC3"},{"bufferView":99,"componentType":5126,"count":96,"type":"VEC3"},{"bufferView":100,"componentType":5126,"count":96,"type":"VEC2"},{"bufferView":101,"componentType":5126,"count":96,"max":[0.15000000596046448,0.02500000037252903,0.7875000238418579],"min":[-0.15000000596046448,-0.02500000037252903,-0.7875000238418579],"type":"VEC3"},{"bufferView":102,"componentType":5126,"count":96,"type":"VEC3"},{"bufferView":103,"componentType":5126,"count":96,"type":"VEC2"},{"bufferView":104,"componentType":5126,"count":96,"max":[0.12537500262260437,1.4968750476837158,0.12537500262260437],"min":[-0.12537500262260437,-1.4968750476837158,-0.12537500262260437],"type":"VEC3"},{"bufferView":105,"componentType":5126,"count":96,"type":"VEC3"},{"bufferView":106,"componentType":5126,"count":96,"type":"VEC2"},{"bufferView":107,"componentType":5126,"count":96,"max":[0.12537500262260437,1.4968750476837158,0.12537500262260437],"min":[-0.12537500262260437,-1.4968750476837158,-0.12537500262260437],"type":"VEC3"},{"bufferView":108,"componentType":5126,"count":96,"type":"VEC3"},{"bufferView":109,"componentType":5126,"count":96,"type":"VEC2"}],"bufferViews":[{"buffer":0,"byteLength":288,"byteOffset":0,"target":34962},{"buffer":0,"byteLength":288,"byteOffset":288,"target":34962},{"buffer":0,"byteLength":72,"byteOffset":576,"target":34963},{"buffer":0,"byteLength":288,"byteOffset":648,"target":34962},{"buffer":0,"byteLength":288,"byteOffset":936,"target":34962},{"buffer":0,"byteLength":288,"byteOffset":1224,"target":34962},{"buffer":0,"byteLength":288,"byteOffset":1512,"target":34962},{"buffer":0,"byteLength":288,"byteOffset":1800,"target":34962},{"buffer":0,"byteLength":288,"byteOffset":2088,"target":34962},{"buffer":0,"byteLength":372,"byteOffset":2376,"target":34962},{"buffer":0,"byteLength":372,"byteOffset":2748,"target":34962},{"buffer":0,"byteLength":248,"byteOffset":3120,"target":34962},{"buffer":0,"byteLength":120,"byteOffset":3368,"target":34963},{"buffer":0,"byteLength":372,"byteOffset":3488,"target":34962},{"buffer":0,"byteLength":372,"byteOffset":3860,"target":34962},{"buffer":0,"byteLength":248,"byteOffset":4232,"target":34962},{"buffer":0,"byteLength":120,"byteOffset":4480,"target":34963},{"buffer":0,"byteLength":360,"byteOffset":4600,"target":34962},{"buffer":0,"byteLength":360,"byteOffset":4960,"target":34962},{"buffer":0,"byteLength":240,"byteOffset":5320,"target":34962},{"buffer":0,"byteLength":120,"byteOffset":5560,"target":34963},{"buffer":0,"byteLength":360,"byteOffset":5680,"target":34962},{"buffer":0,"byteLength":360,"byteOffset":6040,"target":34962},{"buffer":0,"byteLength":240,"byteOffset":6400,"target":34962},{"buffer":0,"byteLength":120,"byteOffset":6640,"target":34963},{"buffer":0,"byteLength":384,"byteOffset":6760,"target":34962},{"buffer":0,"byteLength":384,"byteOffset":7144,"target":34962},{"buffer":0,"byteLength":256,"byteOffset":7528,"target":34962},{"buffer":0,"byteLength":120,"byteOffset":7784,"target":34963},{"buffer":0,"byteLength":360,"byteOffset":7904,"target":34962},{"buffer":0,"byteLength":360,"byteOffset":8264,"target":34962},{"buffer":0,"byteLength":240,"byteOffset":8624,"target":34962},{"buffer":0,"byteLength":120,"byteOffset":8864,"target":34963},{"buffer":0,"byteLength":348,"byteOffset":8984,"target":34962},{"buffer":0,"byteLength":348,"byteOffset":9332,"target":34962},{"buffer":0,"byteLength":232,"byteOffset":9680,"target":34962},{"buffer":0,"byteLength":120,"byteOffset":9912,"target":34963},{"buffer":0,"byteLength":372,"byteOffset":10032,"target":34962},{"buffer":0,"byteLength":372,"byteOffset":10404,"target":34962},{"buffer":0,"byteLength":248,"byteOffset":10776,"target":34962},{"buffer":0,"byteLength":120,"byteOffset":11024,"target":34963},{"buffer":0,"byteLength":12348,"byteOffset":11144,"target":34962},{"buffer":0,"byteLength":12348,"byteOffset":23492,"target":34962},{"buffer":0,"byteLength":8232,"byteOffset":35840,"target":34962},{"buffer":0,"byteLength":11040,"byteOffset":44072,"target":34963},{"buffer":0,"byteLength":5292,"byteOffset":55112,"target":34962},{"buffer":0,"byteLength":5292,"byteOffset":60404,"target":34962},{"buffer":0,"byteLength":3528,"byteOffset":65696,"target":34962},{"buffer":0,"byteLength":4800,"byteOffset":69224,"target":34963},{"buffer":0,"byteLength":1152,"byteOffset":74024,"target":34962},{"buffer":0,"byteLength":1152,"byteOffset":75176,"target":34962},{"buffer":0,"byteLength":768,"byteOffset":76328,"target":34962},{"buffer":0,"byteLength":264,"byteOffset":77096,"target":34963},{"buffer":0,"byteLength":1152,"byteOffset":77360,"target":34962},{"buffer":0,"byteLength":1152,"byteOffset":78512,"target":34962},{"buffer":0,"byteLength":768,"byteOffset":79664,"target":34962},{"buffer":0,"byteLength":1152,"byteOffset":80432,"target":34962},{"buffer":0,"byteLength":1152,"byteOffset":81584,"target":34962},{"buffer":0,"byteLength":768,"byteOffset":82736,"target":34962},{"buffer":0,"byteLength":1152,"byteOffset":83504,"target":34962},{"buffer":0,"byteLength":1152,"byteOffset":84656,"target":34962},{"buffer":0,"byteLength":768,"byteOffset":85808,"target":34962},{"buffer":0,"byteLength":1152,"byteOffset":86576,"target":34962},{"buffer":0,"byteLength":1152,"byteOffset":87728,"target":34962},{"buffer":0,"byteLength":768,"byteOffset":88880,"target":34962},{"buffer":0,"byteLength":1152,"byteOffset":89648,"target":34962},{"buffer":0,"byteLength":1152,"byteOffset":90800,"target":34962},{"buffer":0,"byteLength":768,"byteOffset":91952,"target":34962},{"buffer":0,"byteLength":1152,"byteOffset":92720,"target":34962},{"buffer":0,"byteLength":1152,"byteOffset":93872,"target":34962},{"buffer":0,"byteLength":768,"byteOffset":95024,"target":34962},{"buffer":0,"byteLength":1152,"byteOffset":95792,"target":34962},{"buffer":0,"byteLength":1152,"byteOffset":96944,"target":34962},{"buffer":0,"byteLength":768,"byteOffset":98096,"target":34962},{"buffer":0,"byteLength":1152,"byteOffset":98864,"target":34962},{"buffer":0,"byteLength":1152,"byteOffset":100016,"target":34962},{"buffer":0,"byteLength":768,"byteOffset":101168,"target":34962},{"buffer":0,"byteLength":1152,"byteOffset":101936,"target":34962},{"buffer":0,"byteLength":1152,"byteOffset":103088,"target":34962},{"buffer":0,"byteLength":768,"byteOffset":104240,"target":34962},{"buffer":0,"byteLength":1152,"byteOffset":105008,"target":34962},{"buffer":0,"byteLength":1152,"byteOffset":106160,"target":34962},{"buffer":0,"byteLength":768,"byteOffset":107312,"target":34962},{"buffer":0,"byteLength":1152,"byteOffset":108080,"target":34962},{"buffer":0,"byteLength":1152,"byteOffset":109232,"target":34962},{"buffer":0,"byteLength":768,"byteOffset":110384,"target":34962},{"buffer":0,"byteLength":1152,"byteOffset":111152,"target":34962},{"buffer":0,"byteLength":1152,"byteOffset":112304,"target":34962},{"buffer":0,"byteLength":768,"byteOffset":113456,"target":34962},{"buffer":0,"byteLength":1152,"byteOffset":114224,"target":34962},{"buffer":0,"byteLength":1152,"byteOffset":115376,"target":34962},{"buffer":0,"byteLength":768,"byteOffset":116528,"target":34962},{"buffer":0,"byteLength":1152,"byteOffset":117296,"target":34962},{"buffer":0,"byteLength":1152,"byteOffset":118448,"target":34962},{"buffer":0,"byteLength":768,"byteOffset":119600,"target":34962},{"buffer":0,"byteLength":1152,"byteOffset":120368,"target":34962},{"buffer":0,"byteLength":1152,"byteOffset":121520,"target":34962},{"buffer":0,"byteLength":768,"byteOffset":122672,"target":34962},{"buffer":0,"byteLength":1152,"byteOffset":123440,"target":34962},{"buffer":0,"byteLength":1152,"byteOffset":124592,"target":34962},{"buffer":0,"byteLength":768,"byteOffset":125744,"target":34962},{"buffer":0,"byteLength":1152,"byteOffset":126512,"target":34962},{"buffer":0,"byteLength":1152,"byteOffset":127664,"target":34962},{"buffer":0,"byteLength":768,"byteOffset":128816,"target":34962},{"buffer":0,"byteLength":1152,"byteOffset":129584,"target":34962},{"buffer":0,"byteLength":1152,"byteOffset":130736,"target":34962},{"buffer":0,"byteLength":768,"byteOffset":131888,"target":34962},{"buffer":0,"byteLength":1152,"byteOffset":132656,"target":34962},{"buffer":0,"byteLength":1152,"byteOffset":133808,"target":34962},{"buffer":0,"byteLength":768,"byteOffset":134960,"target":34962}],"samplers":[{"magFilter":9729,"minFilter":9987}],"buffers":[{"byteLength":135728,"uri":"piece_neck.bin"}]}