{"asset":{"generator":"Khronos glTF Blender I/O v5.2.39","version":"2.0"},"scene":0,"scenes":[{"name":"Scene","nodes":[0,1,2,3,4,5,6,7,8,9,10,11,12,13,14,15,16,17,29,30,31,32,33,34,35,36,37,38,39,40,41,42,43,44,45,46,47,48,49,50,51,52,53,54,55,56,57,58,59,60,61,62,63,64]}],"nodes":[{"mesh":0,"name":"COL_refuge_back-convcolonly","translation":[5.949999809265137,1.5750000476837158,0]},{"mesh":1,"name":"COL_refuge_ceilA-convcolonly","translation":[4.800000190734863,3.299999952316284,0]},{"mesh":2,"name":"COL_refuge_floor-convcolonly","translation":[1.2999999523162842,-0.25,0]},{"mesh":3,"name":"COL_refuge_lintel-convcolonly","translation":[3.3499999046325684,4.375,0]},{"mesh":4,"name":"COL_refuge_side_0-convcolonly","translation":[4.800000190734863,1.5750000476837158,1.600000023841858]},{"mesh":5,"name":"COL_refuge_side_1-convcolonly","translation":[4.800000190734863,1.5750000476837158,-1.600000023841858]},{"mesh":6,"name":"COL_refuge_wall_E0-convcolonly","translation":[3.3499999046325684,2.799999952316284,2.625]},{"mesh":7,"name":"COL_refuge_wall_E1-convcolonly","translation":[3.3499999046325684,2.799999952316284,-2.625]},{"mesh":8,"name":"COL_refuge_wall_W-convcolonly","translation":[-3.3499999046325684,2.799999952316284,0]},{"mesh":9,"name":"PRP_refuge_airpipe","rotation":[0,0,-0.7071068286895752,0.7071068286895752],"translation":[4.800000190734863,3,-1.6299999952316284]},{"mesh":10,"name":"PRP_refuge_bench","translation":[5.800000190734863,0.44999998807907104,0]},{"mesh":11,"name":"PRP_refuge_benchleg_0","translation":[5.800000190734863,0.20999999344348907,1.4500000476837158]},{"mesh":12,"name":"PRP_refuge_benchleg_2","translation":[5.800000190734863,0.20999999344348907,-1.4500000476837158]},{"mesh":13,"name":"PRP_refuge_bracket_0","translation":[-3.2899999618530273,1.25,2.625]},{"mesh":14,"name":"PRP_refuge_bracket_1","translation":[-3.2899999618530273,1.25,0.875]},{"mesh":15,"name":"PRP_refuge_bracket_2","translation":[-3.2899999618530273,1.25,-0.875]},{"mesh":16,"name":"PRP_refuge_bracket_3","translation":[-3.2899999618530273,1.25,-2.625]},{"mesh":17,"name":"PRP_refuge_cable"},{"mesh":18,"name":"PRP_refuge_batten_0","translation":[0.04500013589859009,0.5,-1.5750001668930054]},{"mesh":19,"name":"PRP_refuge_batten_1","translation":[0.04500013589859009,1.5750000476837158,-1.5750001668930054]},{"mesh":20,"name":"PRP_refuge_batten_2","translation":[0.04500013589859009,2.6500000953674316,-1.5750001668930054]},{"mesh":21,"name":"PRP_refuge_handle","translation":[0.06999987363815308,1.0499999523162842,-2.9499998092651367]},{"mesh":22,"name":"PRP_refuge_plank_0","translation":[0,1.5449999570846558,-0.2200000286102295]},{"mesh":23,"name":"PRP_refuge_plank_1","translation":[0,1.5449999570846558,-0.6599999070167542]},{"mesh":24,"name":"PRP_refuge_plank_2","translation":[0,1.5449999570846558,-1.100000023841858]},{"mesh":25,"name":"PRP_refuge_plank_3","translation":[0,1.5449999570846558,-1.5399999618530273]},{"mesh":26,"name":"PRP_refuge_plank_4","translation":[0,1.5449999570846558,-1.9800001382827759]},{"mesh":27,"name":"PRP_refuge_plank_5","translation":[0,1.5449999570846558,-2.4200000762939453]},{"mesh":28,"name":"PRP_refuge_plank_6","translation":[0,1.5449999570846558,-2.859999895095825]},{"children":[18,19,20,21,22,23,24,25,26,27,28],"name":"PRP_refuge_door","rotation":[0,-0.2588190734386444,0,0.965925931930542],"translation":[3.440000057220459,0,1.590000033378601]},{"mesh":29,"name":"PRP_refuge_pipe","rotation":[0.7071068286895752,0,0,0.7071068286895752],"translation":[-3.0999999046325684,1.25,0]},{"mesh":30,"name":"PRP_refuge_rock_0","rotation":[0.5203039050102234,0.5203039050102234,0.18293088674545288,0.6520000100135803],"scale":[0.07574721425771713,0.050549235194921494,0.11172279715538025],"translation":[-1.0990699529647827,0.0301583930850029,2.8160927295684814]},{"mesh":31,"name":"PRP_refuge_rock_1","rotation":[0.28904545307159424,0.2890454828739166,0.17225435376167297,0.8962332010269165],"scale":[0.12451735138893127,0.086415596306324,0.08362731337547302],"translation":[-2.655208110809326,0.03543998301029205,-2.3236477375030518]},{"mesh":32,"name":"PRP_refuge_rock_2","rotation":[0.15589813888072968,0.15589812397956848,-0.5967159271240234,0.7715710401535034],"scale":[0.09147251397371292,0.05241208150982857,0.062165770679712296],"translation":[-1.2844072580337524,0.028851477429270744,-2.325427532196045]},{"mesh":33,"name":"PRP_refuge_rock_3","rotation":[-0.1337626576423645,-0.1337626725435257,-0.6325937509536743,0.7510262727737427],"scale":[0.16279929876327515,0.09219466894865036,0.10245449095964432],"translation":[-1.4240154027938843,0.046432845294475555,-2.444488525390625]},{"mesh":34,"name":"PRP_refuge_rock_4","rotation":[0.7008418440818787,0.7008418440818787,0.041822291910648346,0.126064732670784],"scale":[0.05374715104699135,0.03769833967089653,0.05017232149839401],"translation":[-2.0573554039001465,0.02177802473306656,2.05452036857605]},{"mesh":35,"name":"PRP_refuge_rock_5","rotation":[-0.18910887837409973,-0.18910887837409973,-0.3738120198249817,0.8881106376647949],"scale":[0.050074465572834015,0.049974165856838226,0.05347644165158272],"translation":[-2.9049761295318604,0.019671006128191948,-0.056008294224739075]},{"mesh":36,"name":"PRP_refuge_rock_6","rotation":[-0.6875938773155212,-0.6875938177108765,0.07278579473495483,0.2216567099094391],"scale":[0.10563159734010696,0.06597565859556198,0.061906058341264725],"translation":[-2.152087450027466,0.02969294600188732,0.5761762857437134]},{"mesh":37,"name":"PRP_refuge_rock_7","rotation":[0.6819122433662415,0.6819121837615967,0.08220482617616653,0.2514634430408478],"scale":[0.0741342231631279,0.0590091347694397,0.08044128865003586],"translation":[-1.5783082246780396,0.027717744931578636,-0.313268780708313]},{"mesh":38,"name":"PRP_refuge_sign","translation":[3.4000000953674316,3.5999999046325684,0]},{"mesh":39,"name":"PRP_refuge_signtext","rotation":[0.5,-0.5,0.5,0.5],"translation":[3.375,3.5,0]},{"mesh":40,"name":"SHL_refuge"},{"name":"SLOT_Pocket_refuge_0","translation":[-3.4200000762939453,1.899999976158142,2.5]},{"name":"SLOT_Pocket_refuge_1","translation":[-3.4200000762939453,1.899999976158142,-2.5]},{"mesh":41,"name":"TMB_refuge_0_cap","rotation":[-0.004717645701020956,0.0036688484251499176,0.0018018617993220687,0.999980628490448],"translation":[0,4.842916011810303,2.625]},{"mesh":42,"name":"TMB_refuge_0_lag_0","rotation":[0.006936089135706425,-0.044204290956258774,0.005178540479391813,0.9989851117134094],"translation":[-2.837491989135742,5.034318923950195,1.75]},{"mesh":43,"name":"TMB_refuge_0_lag_1","rotation":[0.004102445673197508,0.04872368276119232,-0.008488793857395649,0.9987679123878479],"translation":[-0.5143687725067139,5.015232086181641,3.5]},{"mesh":44,"name":"TMB_refuge_0_post_L","rotation":[-0.006408942397683859,0.0022947455290704966,-0.004730870481580496,0.9999656677246094],"translation":[-3.344839334487915,2.3499999046325684,2.6430559158325195]},{"mesh":45,"name":"TMB_refuge_0_post_R","rotation":[-0.0034090359695255756,-0.014541806653141975,-0.0021870997734367847,0.9998860955238342],"translation":[3.3387606143951416,2.3499999046325684,2.6447980403900146]},{"mesh":46,"name":"TMB_refuge_1_cap","rotation":[-0.0018638434121385217,0.0020998502150177956,0.0008525673183612525,0.9999957084655762],"translation":[0,4.856163501739502,0.875]},{"mesh":47,"name":"TMB_refuge_1_lag_0","rotation":[-0.013459844514727592,0.02656422182917595,0.011082584038376808,0.9994951486587524],"translation":[2.009531021118164,5.015606880187988,1.75]},{"mesh":48,"name":"TMB_refuge_1_lag_1","rotation":[0.001531808404251933,0.00549531914293766,-0.0026631292421370745,0.9999802708625793],"translation":[-2.460792064666748,5.035393714904785,0]},{"mesh":49,"name":"TMB_refuge_1_post_L","rotation":[0.0055603813380002975,-0.005453162826597691,0.0071443673223257065,0.9999441504478455],"translation":[-3.334017753601074,2.3499999046325684,0.8573904633522034]},{"mesh":50,"name":"TMB_refuge_2_cap","rotation":[0.0026383320800960064,-0.0019147248240187764,-0.002754876622930169,0.9999908804893494],"translation":[0,4.858457088470459,-0.875]},{"mesh":51,"name":"TMB_refuge_2_lag_0","rotation":[-0.005524261388927698,-0.022599957883358,-0.0010141481179744005,0.9997289180755615],"translation":[1.6356357336044312,5.043558120727539,-1.75]},{"mesh":52,"name":"TMB_refuge_2_lag_1","rotation":[0.012858453206717968,-0.035104140639305115,-0.013863361440598965,0.9992047548294067],"translation":[-1.482507348060608,5.015987396240234,-1.75]},{"mesh":53,"name":"TMB_refuge_2_post_L","rotation":[-0.0025110517162829638,-0.007255763281136751,-0.0036345655098557472,0.9999639987945557],"translation":[-3.3237056732177734,2.3499999046325684,-0.8790627717971802]},{"mesh":54,"name":"TMB_refuge_3_cap","rotation":[0.00236098887398839,0.003698731539770961,-0.004037335515022278,0.9999822378158569],"translation":[0,4.85424280166626,-2.625]},{"mesh":55,"name":"TMB_refuge_3_lag_0","rotation":[-0.005929865874350071,-0.005806518718600273,-0.0063235945999622345,0.9999455809593201],"translation":[2.134105920791626,5.041709899902344,-1.75]},{"mesh":56,"name":"TMB_refuge_3_lag_1","rotation":[-0.0061945682391524315,-0.0039336783811450005,-0.009040521457791328,0.9999322295188904],"translation":[2.1590089797973633,5.048167705535889,-1.75]},{"mesh":57,"name":"TMB_refuge_3_post_L","rotation":[0.0071615069173276424,0.0036916115786880255,-0.00658086221665144,0.999945878982544],"translation":[-3.324843645095825,2.3499999046325684,-2.6210336685180664]},{"mesh":58,"name":"TMB_refuge_3_post_R","rotation":[-0.0043956865556538105,-0.00720799807459116,-0.004192388616502285,0.9999555945396423],"translation":[3.3148889541625977,2.3499999046325684,-2.6267309188842773]},{"mesh":59,"name":"TMB_refuge_head","translation":[3.4200000762939453,3.2300000190734863,0]},{"mesh":60,"name":"TMB_refuge_jamb_0","translation":[3.4200000762939453,1.625,1.6699999570846558]},{"mesh":61,"name":"TMB_refuge_jamb_2","translation":[3.4200000762939453,1.625,-1.6699999570846558]}],"materials":[{"doubleSided":true,"name":"MAT_RustyMetal_EXPORT","normalTexture":{"index":0},"pbrMetallicRoughness":{"baseColorTexture":{"index":1},"metallicFactor":0,"metallicRoughnessTexture":{"index":2}}},{"doubleSided":true,"name":"MAT_Timber_EXPORT","normalTexture":{"index":3},"pbrMetallicRoughness":{"baseColorTexture":{"index":4},"metallicFactor":0,"metallicRoughnessTexture":{"index":5}}},{"doubleSided":true,"name":"MAT_Cable","pbrMetallicRoughness":{"baseColorFactor":[0.019999999552965164,0.019999999552965164,0.019999999552965164,1],"metallicFactor":0,"roughnessFactor":0.550000011920929}},{"doubleSided":true,"name":"MAT_Rock_EXPORT","normalTexture":{"index":6},"pbrMetallicRoughness":{"baseColorTexture":{"index":7},"metallicFactor":0,"metallicRoughnessTexture":{"index":8}}},{"doubleSided":true,"name":"MAT_RockWall_EXPORT","normalTexture":{"index":9},"pbrMetallicRoughness":{"baseColorTexture":{"index":10},"metallicFactor":0,"metallicRoughnessTexture":{"index":11}}},{"doubleSided":true,"name":"MAT_Floor_EXPORT","normalTexture":{"index":12},"pbrMetallicRoughness":{"baseColorTexture":{"index":13},"metallicFactor":0,"metallicRoughnessTexture":{"index":14}}}],"meshes":[{"name":"COL_refuge_back-convcolonly","primitives":[{"attributes":{"POSITION":0,"NORMAL":1},"indices":2}]},{"name":"COL_refuge_ceilA-convcolonly","primitives":[{"attributes":{"POSITION":3,"NORMAL":4},"indices":2}]},{"name":"COL_refuge_floor-convcolonly","primitives":[{"attributes":{"POSITION":5,"NORMAL":6},"indices":2}]},{"name":"COL_refuge_lintel-convcolonly","primitives":[{"attributes":{"POSITION":7,"NORMAL":8},"indices":2}]},{"name":"COL_refuge_side_0-convcolonly","primitives":[{"attributes":{"POSITION":9,"NORMAL":10},"indices":2}]},{"name":"COL_refuge_side_1-convcolonly","primitives":[{"attributes":{"POSITION":11,"NORMAL":12},"indices":2}]},{"name":"COL_refuge_wall_E0-convcolonly","primitives":[{"attributes":{"POSITION":13,"NORMAL":14},"indices":2}]},{"name":"COL_refuge_wall_E1-convcolonly","primitives":[{"attributes":{"POSITION":15,"NORMAL":16},"indices":2}]},{"name":"COL_refuge_wall_W-convcolonly","primitives":[{"attributes":{"POSITION":17,"NORMAL":18},"indices":2}]},{"name":"PRP_refuge_airpipe","primitives":[{"attributes":{"POSITION":19,"NORMAL":20,"TEXCOORD_0":21},"indices":22,"material":0}]},{"name":"PRP_refuge_bench","primitives":[{"attributes":{"POSITION":23,"NORMAL":24,"TEXCOORD_0":25},"indices":26,"material":1}]},{"name":"PRP_refuge_benchleg_0","primitives":[{"attributes":{"POSITION":27,"NORMAL":28,"TEXCOORD_0":29},"indices":26,"material":1}]},{"name":"PRP_refuge_benchleg_2","primitives":[{"attributes":{"POSITION":30,"NORMAL":31,"TEXCOORD_0":32},"indices":26,"material":1}]},{"name":"PRP_refuge_bracket_0","primitives":[{"attributes":{"POSITION":33,"NORMAL":34,"TEXCOORD_0":35},"indices":2,"material":0}]},{"name":"PRP_refuge_bracket_1","primitives":[{"attributes":{"POSITION":36,"NORMAL":37,"TEXCOORD_0":38},"indices":2,"material":0}]},{"name":"PRP_refuge_bracket_2","primitives":[{"attributes":{"POSITION":39,"NORMAL":40,"TEXCOORD_0":41},"indices":2,"material":0}]},{"name":"PRP_refuge_bracket_3","primitives":[{"attributes":{"POSITION":42,"NORMAL":43,"TEXCOORD_0":44},"indices":2,"material":0}]},{"name":"PRP_refuge_cable","primitives":[{"attributes":{"POSITION":45,"NORMAL":46,"TEXCOORD_0":47},"indices":48,"material":2}]},{"name":"PRP_refuge_batten_0","primitives":[{"attributes":{"POSITION":49,"NORMAL":50,"TEXCOORD_0":51},"indices":26,"material":1}]},{"name":"PRP_refuge_batten_1","primitives":[{"attributes":{"POSITION":52,"NORMAL":53,"TEXCOORD_0":54},"indices":26,"material":1}]},{"name":"PRP_refuge_batten_2","primitives":[{"attributes":{"POSITION":55,"NORMAL":56,"TEXCOORD_0":57},"indices":26,"material":1}]},{"name":"PRP_refuge_handle","primitives":[{"attributes":{"POSITION":58,"NORMAL":59,"TEXCOORD_0":60},"indices":26,"material":0}]},{"name":"PRP_refuge_plank_0","primitives":[{"attributes":{"POSITION":61,"NORMAL":62,"TEXCOORD_0":63},"indices":26,"material":1}]},{"name":"PRP_refuge_plank_1","primitives":[{"attributes":{"POSITION":64,"NORMAL":65,"TEXCOORD_0":66},"indices":26,"material":1}]},{"name":"PRP_refuge_plank_2","primitives":[{"attributes":{"POSITION":67,"NORMAL":68,"TEXCOORD_0":69},"indices":26,"material":1}]},{"name":"PRP_refuge_plank_3","primitives":[{"attributes":{"POSITION":70,"NORMAL":71,"TEXCOORD_0":72},"indices":26,"material":1}]},{"name":"PRP_refuge_plank_4","primitives":[{"attributes":{"POSITION":73,"NORMAL":74,"TEXCOORD_0":75},"indices":26,"material":1}]},{"name":"PRP_refuge_plank_5","primitives":[{"attributes":{"POSITION":76,"NORMAL":77,"TEXCOORD_0":78},"indices":26,"material":1}]},{"name":"PRP_refuge_plank_6","primitives":[{"attributes":{"POSITION":79,"NORMAL":80,"TEXCOORD_0":81},"indices":26,"material":1}]},{"name":"PRP_refuge_pipe","primitives":[{"attributes":{"POSITION":82,"NORMAL":83,"TEXCOORD_0":84},"indices":85,"material":0}]},{"name":"PRP_refuge_rock_0","primitives":[{"attributes":{"POSITION":86,"NORMAL":87,"TEXCOORD_0":88},"indices":89,"material":3}]},{"name":"PRP_refuge_rock_1","primitives":[{"attributes":{"POSITION":90,"NORMAL":91,"TEXCOORD_0":92},"indices":93,"material":3}]},{"name":"PRP_refuge_rock_2","primitives":[{"attributes":{"POSITION":94,"NORMAL":95,"TEXCOORD_0":96},"indices":97,"material":3}]},{"name":"PRP_refuge_rock_3","primitives":[{"attributes":{"POSITION":98,"NORMAL":99,"TEXCOORD_0":100},"indices":101,"material":3}]},{"name":"PRP_refuge_rock_4","primitives":[{"attributes":{"POSITION":102,"NORMAL":103,"TEXCOORD_0":104},"indices":105,"material":3}]},{"name":"PRP_refuge_rock_5","primitives":[{"attributes":{"POSITION":106,"NORMAL":107,"TEXCOORD_0":108},"indices":109,"material":3}]},{"name":"PRP_refuge_rock_6","primitives":[{"attributes":{"POSITION":110,"NORMAL":111,"TEXCOORD_0":112},"indices":113,"material":3}]},{"name":"PRP_refuge_rock_7","primitives":[{"attributes":{"POSITION":114,"NORMAL":115,"TEXCOORD_0":116},"indices":117,"material":3}]},{"name":"PRP_refuge_sign","primitives":[{"attributes":{"POSITION":118,"NORMAL":119,"TEXCOORD_0":120},"indices":26,"material":1}]},{"name":"PRP_refuge_signtext","primitives":[{"attributes":{"POSITION":121,"NORMAL":122,"TEXCOORD_0":123},"indices":124,"material":0}]},{"name":"SHL_refuge","primitives":[{"attributes":{"POSITION":125,"NORMAL":126,"TEXCOORD_0":127},"indices":128,"material":4},{"attributes":{"POSITION":129,"NORMAL":130,"TEXCOORD_0":131},"indices":132,"material":5}]},{"name":"TMB_refuge_0_cap","primitives":[{"attributes":{"POSITION":133,"NORMAL":134,"TEXCOORD_0":135},"indices":26,"material":1}]},{"name":"TMB_refuge_0_lag_0","primitives":[{"attributes":{"POSITION":136,"NORMAL":137,"TEXCOORD_0":138},"indices":26,"material":1}]},{"name":"TMB_refuge_0_lag_1","primitives":[{"attributes":{"POSITION":139,"NORMAL":140,"TEXCOORD_0":141},"indices":26,"material":1}]},{"name":"TMB_refuge_0_post_L","primitives":[{"attributes":{"POSITION":142,"NORMAL":143,"TEXCOORD_0":144},"indices":26,"material":1}]},{"name":"TMB_refuge_0_post_R","primitives":[{"attributes":{"POSITION":145,"NORMAL":146,"TEXCOORD_0":147},"indices":26,"material":1}]},{"name":"TMB_refuge_1_cap","primitives":[{"attributes":{"POSITION":148,"NORMAL":149,"TEXCOORD_0":150},"indices":26,"material":1}]},{"name":"TMB_refuge_1_lag_0","primitives":[{"attributes":{"POSITION":151,"NORMAL":152,"TEXCOORD_0":153},"indices":26,"material":1}]},{"name":"TMB_refuge_1_lag_1","primitives":[{"attributes":{"POSITION":154,"NORMAL":155,"TEXCOORD_0":156},"indices":26,"material":1}]},{"name":"TMB_refuge_1_post_L","primitives":[{"attributes":{"POSITION":157,"NORMAL":158,"TEXCOORD_0":159},"indices":26,"material":1}]},{"name":"TMB_refuge_2_cap","primitives":[{"attributes":{"POSITION":160,"NORMAL":161,"TEXCOORD_0":162},"indices":26,"material":1}]},{"name":"TMB_refuge_2_lag_0","primitives":[{"attributes":{"POSITION":163,"NORMAL":164,"TEXCOORD_0":165},"indices":26,"material":1}]},{"name":"TMB_refuge_2_lag_1","primitives":[{"attributes":{"POSITION":166,"NORMAL":167,"TEXCOORD_0":168},"indices":26,"material":1}]},{"name":"TMB_refuge_2_post_L","primitives":[{"attributes":{"POSITION":169,"NORMAL":170,"TEXCOORD_0":171},"indices":26,"material":1}]},{"name":"TMB_refuge_3_cap","primitives":[{"attributes":{"POSITION":172,"NORMAL":173,"TEXCOORD_0":174},"indices":26,"material":1}]},{"name":"TMB_refuge_3_lag_0","primitives":[{"attributes":{"POSITION":175,"NORMAL":176,"TEXCOORD_0":177},"indices":26,"material":1}]},{"name":"TMB_refuge_3_lag_1","primitives":[{"attributes":{"POSITION":178,"NORMAL":179,"TEXCOORD_0":180},"indices":26,"material":1}]},{"name":"TMB_refuge_3_post_L","primitives":[{"attributes":{"POSITION":181,"NORMAL":182,"TEXCOORD_0":183},"indices":26,"material":1}]},{"name":"TMB_refuge_3_post_R","primitives":[{"attributes":{"POSITION":184,"NORMAL":185,"TEXCOORD_0":186},"indices":26,"material":1}]},{"name":"TMB_refuge_head","primitives":[{"attributes":{"POSITION":187,"NORMAL":188,"TEXCOORD_0":189},"indices":26,"material":1}]},{"name":"TMB_refuge_jamb_0","primitives":[{"attributes":{"POSITION":190,"NORMAL":191,"TEXCOORD_0":192},"indices":26,"material":1}]},{"name":"TMB_refuge_jamb_2","primitives":[{"attributes":{"POSITION":193,"NORMAL":194,"TEXCOORD_0":195},"indices":26,"material":1}]}],"textures":[{"sampler":0,"source":0},{"sampler":0,"source":1},{"sampler":0,"source":2},{"sampler":0,"source":3},{"sampler":0,"source":4},{"sampler":0,"source":5},{"sampler":0,"source":6},{"sampler":0,"source":7},{"sampler":0,"source":8},{"sampler":0,"source":9},{"sampler":0,"source":10},{"sampler":0,"source":11},{"sampler":0,"source":12},{"sampler":0,"source":13},{"sampler":0,"source":14}],"images":[{"mimeType":"image/jpeg","name":"rusty_metal_02_nor_gl","uri":"textures/rusty_metal_02_nor_gl.jpg"},{"mimeType":"image/jpeg","name":"rusty_metal_02_Diffuse","uri":"textures/rusty_metal_02_Diffuse.jpg"},{"mimeType":"image/jpeg","name":"rusty_metal_02_Rough","uri":"textures/rusty_metal_02_Rough.jpg"},{"mimeType":"image/jpeg","name":"dark_wooden_planks_nor_gl","uri":"textures/dark_wooden_planks_nor_gl.jpg"},{"mimeType":"image/jpeg","name":"dark_wooden_planks_Diffuse","uri":"textures/dark_wooden_planks_Diffuse.jpg"},{"mimeType":"image/jpeg","name":"dark_wooden_planks_Rough","uri":"textures/dark_wooden_planks_Rough.jpg"},{"mimeType":"image/jpeg","name":"dark_rock_02_nor_gl","uri":"textures/dark_rock_02_nor_gl.jpg"},{"mimeType":"image/jpeg","name":"dark_rock_02_Diffuse","uri":"textures/dark_rock_02_Diffuse.jpg"},{"mimeType":"image/jpeg","name":"dark_rock_02_Rough","uri":"textures/dark_rock_02_Rough.jpg"},{"mimeType":"image/jpeg","name":"dark_rock_nor_gl","uri":"textures/rock_face_04_nor_gl.jpg"},{"mimeType":"image/jpeg","name":"dark_rock_Diffuse","uri":"textures/rock_face_04_Diffuse.jpg"},{"mimeType":"image/jpeg","name":"dark_rock_Rough","uri":"textures/rock_face_04_Rough.jpg"},{"mimeType":"image/jpeg","name":"brown_mud_rocks_01_nor_gl","uri":"textures/brown_mud_rocks_01_nor_gl.jpg"},{"mimeType":"image/jpeg","name":"brown_mud_rocks_01_Diffuse","uri":"textures/brown_mud_rocks_01_Diffuse.jpg"},{"mimeType":"image/jpeg","name":"brown_mud_rocks_01_Rough","uri":"textures/brown_mud_rocks_01_Rough.jpg"}],"accessors":[{"bufferView":0,"componentType":5126,"count":24,"max":[0.15000000596046448,1.5750000476837158,1.75],"min":[-0.15000000596046448,-1.5750000476837158,-1.75],"type":"VEC3"},{"bufferView":1,"componentType":5126,"count":24,"type":"VEC3"},{"bufferView":2,"componentType":5123,"count":36,"type":"SCALAR"},{"bufferView":3,"componentType":5126,"count":24,"max":[1.2999999523162842,0.15000000596046448,1.75],"min":[-1.2999999523162842,-0.15000000596046448,-1.75],"type":"VEC3"},{"bufferView":4,"componentType":5126,"count":24,"type":"VEC3"},{"bufferView":5,"componentType":5126,"count":24,"max":[4.800000190734863,0.25,3.5],"min":[-4.800000190734863,-0.25,-3.5],"type":"VEC3"},{"bufferView":6,"componentType":5126,"count":24,"type":"VEC3"},{"bufferView":7,"componentType":5126,"count":24,"max":[0.15000000596046448,1.225000023841858,1.75],"min":[-0.15000000596046448,-1.225000023841858,-1.75],"type":"VEC3"},{"bufferView":8,"componentType":5126,"count":24,"type":"VEC3"},{"bufferView":9,"componentType":5126,"count":24,"max":[1.2999999523162842,1.5750000476837158,0.15000000596046448],"min":[-1.2999999523162842,-1.5750000476837158,-0.15000000596046448],"type":"VEC3"},{"bufferView":10,"componentType":5126,"count":24,"type":"VEC3"},{"bufferView":11,"componentType":5126,"count":24,"max":[1.2999999523162842,1.5750000476837158,0.15000000596046448],"min":[-1.2999999523162842,-1.5750000476837158,-0.15000000596046448],"type":"VEC3"},{"bufferView":12,"componentType":5126,"count":24,"type":"VEC3"},{"bufferView":13,"componentType":5126,"count":24,"max":[0.15000000596046448,2.799999952316284,0.875],"min":[-0.15000000596046448,-2.799999952316284,-0.875],"type":"VEC3"},{"bufferView":14,"componentType":5126,"count":24,"type":"VEC3"},{"bufferView":15,"componentType":5126,"count":24,"max":[0.15000000596046448,2.799999952316284,0.875],"min":[-0.15000000596046448,-2.799999952316284,-0.875],"type":"VEC3"},{"bufferView":16,"componentType":5126,"count":24,"type":"VEC3"},{"bufferView":17,"componentType":5126,"count":24,"max":[0.15000000596046448,2.799999952316284,3.5],"min":[-0.15000000596046448,-2.799999952316284,-3.5],"type":"VEC3"},{"bufferView":18,"componentType":5126,"count":24,"type":"VEC3"},{"bufferView":19,"componentType":5126,"count":56,"max":[0.029999999329447746,1.4500000476837158,0.029999999329447746],"min":[-0.029999999329447746,-1.4500000476837158,-0.029999999329447746],"type":"VEC3"},{"bufferView":20,"componentType":5126,"count":56,"type":"VEC3"},{"bufferView":21,"componentType":5126,"count":56,"type":"VEC2"},{"bufferView":22,"componentType":5123,"count":132,"type":"SCALAR"},{"bufferView":23,"componentType":5126,"count":96,"max":[0.25,0.029999999329447746,1.600000023841858],"min":[-0.25,-0.029999999329447746,-1.600000023841858],"type":"VEC3"},{"bufferView":24,"componentType":5126,"count":96,"type":"VEC3"},{"bufferView":25,"componentType":5126,"count":96,"type":"VEC2"},{"bufferView":26,"componentType":5123,"count":132,"type":"SCALAR"},{"bufferView":27,"componentType":5126,"count":96,"max":[0.20000000298023224,0.20999999344348907,0.029999999329447746],"min":[-0.20000000298023224,-0.20999999344348907,-0.029999999329447746],"type":"VEC3"},{"bufferView":28,"componentType":5126,"count":96,"type":"VEC3"},{"bufferView":29,"componentType":5126,"count":96,"type":"VEC2"},{"bufferView":30,"componentType":5126,"count":96,"max":[0.20000000298023224,0.20999999344348907,0.029999999329447746],"min":[-0.20000000298023224,-0.20999999344348907,-0.029999999329447746],"type":"VEC3"},{"bufferView":31,"componentType":5126,"count":96,"type":"VEC3"},{"bufferView":32,"componentType":5126,"count":96,"type":"VEC2"},{"bufferView":33,"componentType":5126,"count":24,"max":[0.20999999344348907,0.029999999329447746,0.029999999329447746],"min":[-0.20999999344348907,-0.029999999329447746,-0.029999999329447746],"type":"VEC3"},{"bufferView":34,"componentType":5126,"count":24,"type":"VEC3"},{"bufferView":35,"componentType":5126,"count":24,"type":"VEC2"},{"bufferView":36,"componentType":5126,"count":24,"max":[0.20999999344348907,0.029999999329447746,0.029999999329447746],"min":[-0.20999999344348907,-0.029999999329447746,-0.029999999329447746],"type":"VEC3"},{"bufferView":37,"componentType":5126,"count":24,"type":"VEC3"},{"bufferView":38,"componentType":5126,"count":24,"type":"VEC2"},{"bufferView":39,"componentType":5126,"count":24,"max":[0.20999999344348907,0.029999999329447746,0.029999999329447746],"min":[-0.20999999344348907,-0.029999999329447746,-0.029999999329447746],"type":"VEC3"},{"bufferView":40,"componentType":5126,"count":24,"type":"VEC3"},{"bufferView":41,"componentType":5126,"count":24,"type":"VEC2"},{"bufferView":42,"componentType":5126,"count":24,"max":[0.20999999344348907,0.029999999329447746,0.029999999329447746],"min":[-0.20999999344348907,-0.029999999329447746,-0.029999999329447746],"type":"VEC3"},{"bufferView":43,"componentType":5126,"count":24,"type":"VEC3"},{"bufferView":44,"componentType":5126,"count":24,"type":"VEC2"},{"bufferView":45,"componentType":5126,"count":540,"max":[-3.28130841255188,4.711940288543701,3.5011937618255615],"min":[-3.32088303565979,4.548059463500977,-3.5011937618255615],"type":"VEC3"},{"bufferView":46,"componentType":5126,"count":540,"type":"VEC3"},{"bufferView":47,"componentType":5126,"count":540,"type":"VEC2"},{"bufferView":48,"componentType":5123,"count":2832,"type":"SCALAR"},{"bufferView":49,"componentType":5126,"count":96,"max":[0.019999999552965164,0.05999999865889549,1.5499999523162842],"min":[-0.019999999552965164,-0.05999999865889549,-1.5499999523162842],"type":"VEC3"},{"bufferView":50,"componentType":5126,"count":96,"type":"VEC3"},{"bufferView":51,"componentType":5126,"count":96,"type":"VEC2"},{"bufferView":52,"componentType":5126,"count":96,"max":[0.019999999552965164,0.05999999865889549,1.5499999523162842],"min":[-0.019999999552965164,-0.05999999865889549,-1.5499999523162842],"type":"VEC3"},{"bufferView":53,"componentType":5126,"count":96,"type":"VEC3"},{"bufferView":54,"componentType":5126,"count":96,"type":"VEC2"},{"bufferView":55,"componentType":5126,"count":96,"max":[0.019999999552965164,0.05999999865889549,1.5499999523162842],"min":[-0.019999999552965164,-0.05999999865889549,-1.5499999523162842],"type":"VEC3"},{"bufferView":56,"componentType":5126,"count":96,"type":"VEC3"},{"bufferView":57,"componentType":5126,"count":96,"type":"VEC2"},{"bufferView":58,"componentType":5126,"count":96,"max":[0.02500000037252903,0.09000000357627869,0.014999999664723873],"min":[-0.02500000037252903,-0.09000000357627869,-0.014999999664723873],"type":"VEC3"},{"bufferView":59,"componentType":5126,"count":96,"type":"VEC3"},{"bufferView":60,"componentType":5126,"count":96,"type":"VEC2"},{"bufferView":61,"componentType":5126,"count":96,"max":[0.02500000037252903,1.5149999856948853,0.20999999344348907],"min":[-0.02500000037252903,-1.5149999856948853,-0.20999999344348907],"type":"VEC3"},{"bufferView":62,"componentType":5126,"count":96,"type":"VEC3"},{"bufferView":63,"componentType":5126,"count":96,"type":"VEC2"},{"bufferView":64,"componentType":5126,"count":96,"max":[0.02500000037252903,1.5149999856948853,0.20999999344348907],"min":[-0.02500000037252903,-1.5149999856948853,-0.20999999344348907],"type":"VEC3"},{"bufferView":65,"componentType":5126,"count":96,"type":"VEC3"},{"bufferView":66,"componentType":5126,"count":96,"type":"VEC2"},{"bufferView":67,"componentType":5126,"count":96,"max":[0.02500000037252903,1.5149999856948853,0.20999999344348907],"min":[-0.02500000037252903,-1.5149999856948853,-0.20999999344348907],"type":"VEC3"},{"bufferView":68,"componentType":5126,"count":96,"type":"VEC3"},{"bufferView":69,"componentType":5126,"count":96,"type":"VEC2"},{"bufferView":70,"componentType":5126,"count":96,"max":[0.02500000037252903,1.5149999856948853,0.20999999344348907],"min":[-0.02500000037252903,-1.5149999856948853,-0.20999999344348907],"type":"VEC3"},{"bufferView":71,"componentType":5126,"count":96,"type":"VEC3"},{"bufferView":72,"componentType":5126,"count":96,"type":"VEC2"},{"bufferView":73,"componentType":5126,"count":96,"max":[0.02500000037252903,1.5149999856948853,0.20999999344348907],"min":[-0.02500000037252903,-1.5149999856948853,-0.20999999344348907],"type":"VEC3"},{"bufferView":74,"componentType":5126,"count":96,"type":"VEC3"},{"bufferView":75,"componentType":5126,"count":96,"type":"VEC2"},{"bufferView":76,"componentType":5126,"count":96,"max":[0.02500000037252903,1.5149999856948853,0.20999999344348907],"min":[-0.02500000037252903,-1.5149999856948853,-0.20999999344348907],"type":"VEC3"},{"bufferView":77,"componentType":5126,"count":96,"type":"VEC3"},{"bufferView":78,"componentType":5126,"count":96,"type":"VEC2"},{"bufferView":79,"componentType":5126,"count":96,"max":[0.02500000037252903,1.5149999856948853,0.20999999344348907],"min":[-0.02500000037252903,-1.5149999856948853,-0.20999999344348907],"type":"VEC3"},{"bufferView":80,"componentType":5126,"count":96,"type":"VEC3"},{"bufferView":81,"componentType":5126,"count":96,"type":"VEC2"},{"bufferView":82,"componentType":5126,"count":56,"max":[0.04500000178813934,3.5,0.04500000178813934],"min":[-0.04500000178813934,-3.5,-0.04500000178813934],"type":"VEC3"},{"bufferView":83,"componentType":5126,"count":56,"type":"VEC3"},{"bufferView":84,"componentType":5126,"count":56,"type":"VEC2"},{"bufferView":85,"componentType":5123,"count":132,"type":"SCALAR"},{"bufferView":86,"componentType":5126,"count":29,"max":[0.7616944909095764,1.129583716392517,1.0289061069488525],"min":[-1.0934127569198608,-1.0321005582809448,-0.9047084450721741],"type":"VEC3"},{"bufferView":87,"componentType":5126,"count":29,"type":"VEC3"},{"bufferView":88,"componentType":5126,"count":29,"type":"VEC2"},{"bufferView":89,"componentType":5123,"count":60,"type":"SCALAR"},{"bufferView":90,"componentType":5126,"count":29,"max":[0.9380694627761841,0.9765239357948303,0.9576259851455688],"min":[-1.0387986898422241,-1.1846323013305664,-0.9283779859542847],"type":"VEC3"},{"bufferView":91,"componentType":5126,"count":29,"type":"VEC3"},{"bufferView":92,"componentType":5126,"count":29,"type":"VEC2"},{"bufferView":93,"componentType":5123,"count":60,"type":"SCALAR"},{"bufferView":94,"componentType":5126,"count":31,"max":[0.9999744296073914,0.7987741827964783,1.0611004829406738],"min":[-0.872520923614502,-0.8411486148834229,-0.7021176815032959],"type":"VEC3"},{"bufferView":95,"componentType":5126,"count":31,"type":"VEC3"},{"bufferView":96,"componentType":5126,"count":31,"type":"VEC2"},{"bufferView":97,"componentType":5123,"count":60,"type":"SCALAR"},{"bufferView":98,"componentType":5126,"count":24,"max":[0.6797336339950562,1.245389699935913,0.8526734709739685],"min":[-1.025061011314392,-1.2398250102996826,-0.9312212467193604],"type":"VEC3"},{"bufferView":99,"componentType":5126,"count":24,"type":"VEC3"},{"bufferView":100,"componentType":5126,"count":24,"type":"VEC2"},{"bufferView":101,"componentType":5123,"count":60,"type":"SCALAR"},{"bufferView":102,"componentType":5126,"count":30,"max":[1.1034973859786987,1.1915771961212158,0.951957106590271],"min":[-0.8947508931159973,-1.0926952362060547,-0.7294809222221375],"type":"VEC3"},{"bufferView":103,"componentType":5126,"count":30,"type":"VEC3"},{"bufferView":104,"componentType":5126,"count":30,"type":"VEC2"},{"bufferView":105,"componentType":5123,"count":60,"type":"SCALAR"},{"bufferView":106,"componentType":5126,"count":30,"max":[1.0617156028747559,1.1088799238204956,0.8693413734436035],"min":[-0.7924468517303467,-0.9540612101554871,-1.055800199508667],"type":"VEC3"},{"bufferView":107,"componentType":5126,"count":30,"type":"VEC3"},{"bufferView":108,"componentType":5126,"count":30,"type":"VEC2"},{"bufferView":109,"componentType":5123,"count":60,"type":"SCALAR"},{"bufferView":110,"componentType":5126,"count":28,"max":[0.9039065837860107,1.171528697013855,0.897811770439148],"min":[-0.9426479339599609,-0.8215258121490479,-1.0319488048553467],"type":"VEC3"},{"bufferView":111,"componentType":5126,"count":28,"type":"VEC3"},{"bufferView":112,"componentType":5126,"count":28,"type":"VEC2"},{"bufferView":113,"componentType":5123,"count":60,"type":"SCALAR"},{"bufferView":114,"componentType":5126,"count":28,"max":[1.0032345056533813,0.939417839050293,0.8898948431015015],"min":[-1.004531741142273,-0.9078080654144287,-1.0009806156158447],"type":"VEC3"},{"bufferView":115,"componentType":5126,"count":28,"type":"VEC3"},{"bufferView":116,"componentType":5126,"count":28,"type":"VEC2"},{"bufferView":117,"componentType":5123,"count":60,"type":"SCALAR"},{"bufferView":118,"componentType":5126,"count":96,"max":[0.019999999552965164,0.20000000298023224,0.6000000238418579],"min":[-0.019999999552965164,-0.20000000298023224,-0.6000000238418579],"type":"VEC3"},{"bufferView":119,"componentType":5126,"count":96,"type":"VEC3"},{"bufferView":120,"componentType":5126,"count":96,"type":"VEC2"},{"bufferView":121,"componentType":5126,"count":794,"max":[0.394360214471817,0.006000000052154064,0.01937888190150261],"min":[-0.37982606887817383,-0.006000000052154064,-0.18829813599586487],"type":"VEC3"},{"bufferView":122,"componentType":5126,"count":794,"type":"VEC3"},{"bufferView":123,"componentType":5126,"count":794,"type":"VEC2"},{"bufferView":124,"componentType":5123,"count":2256,"type":"SCALAR"},{"bufferView":125,"componentType":5126,"count":1337,"max":[6.099999904632568,5.599999904632568,3.5],"min":[-3.5,0,-3.5],"type":"VEC3"},{"bufferView":126,"componentType":5126,"count":1337,"type":"VEC3"},{"bufferView":127,"componentType":5126,"count":1337,"type":"VEC2"},{"bufferView":128,"componentType":5123,"count":6864,"type":"SCALAR"},{"bufferView":129,"componentType":5126,"count":529,"max":[6.099999904632568,0.05070440471172333,3.5],"min":[-3.5,0,-3.5],"type":"VEC3"},{"bufferView":130,"componentType":5126,"count":529,"type":"VEC3"},{"bufferView":131,"componentType":5126,"count":529,"type":"VEC2"},{"bufferView":132,"componentType":5123,"count":2880,"type":"SCALAR"},{"bufferView":133,"componentType":5126,"count":96,"max":[3.490000009536743,0.18000000715255737,0.18000000715255737],"min":[-3.490000009536743,-0.18000000715255737,-0.18000000715255737],"type":"VEC3"},{"bufferView":134,"componentType":5126,"count":96,"type":"VEC3"},{"bufferView":135,"componentType":5126,"count":96,"type":"VEC2"},{"bufferView":136,"componentType":5126,"count":96,"max":[0.15000000596046448,0.02500000037252903,0.7875000238418579],"min":[-0.15000000596046448,-0.02500000037252903,-0.7875000238418579],"type":"VEC3"},{"bufferView":137,"componentType":5126,"count":96,"type":"VEC3"},{"bufferView":138,"componentType":5126,"count":96,"type":"VEC2"},{"bufferView":139,"componentType":5126,"count":96,"max":[0.15000000596046448,0.02500000037252903,0.7875000238418579],"min":[-0.15000000596046448,-0.02500000037252903,-0.7875000238418579],"type":"VEC3"},{"bufferView":140,"componentType":5126,"count":96,"type":"VEC3"},{"bufferView":141,"componentType":5126,"count":96,"type":"VEC2"},{"bufferView":142,"componentType":5126,"count":96,"max":[0.17000000178813934,2.4000000953674316,0.17000000178813934],"min":[-0.17000000178813934,-2.4000000953674316,-0.17000000178813934],"type":"VEC3"},{"bufferView":143,"componentType":5126,"count":96,"type":"VEC3"},{"bufferView":144,"componentType":5126,"count":96,"type":"VEC2"},{"bufferView":145,"componentType":5126,"count":96,"max":[0.17000000178813934,2.4000000953674316,0.17000000178813934],"min":[-0.17000000178813934,-2.4000000953674316,-0.17000000178813934],"type":"VEC3"},{"bufferView":146,"componentType":5126,"count":96,"type":"VEC3"},{"bufferView":147,"componentType":5126,"count":96,"type":"VEC2"},{"bufferView":148,"componentType":5126,"count":96,"max":[3.490000009536743,0.18000000715255737,0.18000000715255737],"min":[-3.490000009536743,-0.18000000715255737,-0.18000000715255737],"type":"VEC3"},{"bufferView":149,"componentType":5126,"count":96,"type":"VEC3"},{"bufferView":150,"componentType":5126,"count":96,"type":"VEC2"},{"bufferView":151,"componentType":5126,"count":96,"max":[0.15000000596046448,0.02500000037252903,0.7875000238418579],"min":[-0.15000000596046448,-0.02500000037252903,-0.7875000238418579],"type":"VEC3"},{"bufferView":152,"componentType":5126,"count":96,"type":"VEC3"},{"bufferView":153,"componentType":5126,"count":96,"type":"VEC2"},{"bufferView":154,"componentType":5126,"count":96,"max":[0.15000000596046448,0.02500000037252903,0.7875000238418579],"min":[-0.15000000596046448,-0.02500000037252903,-0.7875000238418579],"type":"VEC3"},{"bufferView":155,"componentType":5126,"count":96,"type":"VEC3"},{"bufferView":156,"componentType":5126,"count":96,"type":"VEC2"},{"bufferView":157,"componentType":5126,"count":96,"max":[0.17000000178813934,2.4000000953674316,0.17000000178813934],"min":[-0.17000000178813934,-2.4000000953674316,-0.17000000178813934],"type":"VEC3"},{"bufferView":158,"componentType":5126,"count":96,"type":"VEC3"},{"bufferView":159,"componentType":5126,"count":96,"type":"VEC2"},{"bufferView":160,"componentType":5126,"count":96,"max":[3.490000009536743,0.18000000715255737,0.18000000715255737],"min":[-3.490000009536743,-0.18000000715255737,-0.18000000715255737],"type":"VEC3"},{"bufferView":161,"componentType":5126,"count":96,"type":"VEC3"},{"bufferView":162,"componentType":5126,"count":96,"type":"VEC2"},{"bufferView":163,"componentType":5126,"count":96,"max":[0.15000000596046448,0.02500000037252903,0.7875000238418579],"min":[-0.15000000596046448,-0.02500000037252903,-0.7875000238418579],"type":"VEC3"},{"bufferView":164,"componentType":5126,"count":96,"type":"VEC3"},{"bufferView":165,"componentType":5126,"count":96,"type":"VEC2"},{"bufferView":166,"componentType":5126,"count":96,"max":[0.15000000596046448,0.02500000037252903,0.7875000238418579],"min":[-0.15000000596046448,-0.02500000037252903,-0.7875000238418579],"type":"VEC3"},{"bufferView":167,"componentType":5126,"count":96,"type":"VEC3"},{"bufferView":168,"componentType":5126,"count":96,"type":"VEC2"},{"bufferView":169,"componentType":5126,"count":96,"max":[0.17000000178813934,2.4000000953674316,0.17000000178813934],"min":[-0.17000000178813934,-2.4000000953674316,-0.17000000178813934],"type":"VEC3"},{"bufferView":170,"componentType":5126,"count":96,"type":"VEC3"},{"bufferView":171,"componentType":5126,"count":96,"type":"VEC2"},{"bufferView":172,"componentType":5126,"count":96,"max":[3.490000009536743,0.18000000715255737,0.18000000715255737],"min":[-3.490000009536743,-0.18000000715255737,-0.18000000715255737],"type":"VEC3"},{"bufferView":173,"componentType":5126,"count":96,"type":"VEC3"},{"bufferView":174,"componentType":5126,"count":96,"type":"VEC2"},{"bufferView":175,"componentType":5126,"count":96,"max":[0.15000000596046448,0.02500000037252903,0.7875000238418579],"min":[-0.15000000596046448,-0.02500000037252903,-0.7875000238418579],"type":"VEC3"},{"bufferView":176,"componentType":5126,"count":96,"type":"VEC3"},{"bufferView":177,"componentType":5126,"count":96,"type":"VEC2"},{"bufferView":178,"componentType":5126,"count":96,"max":[0.15000000596046448,0.02500000037252903,0.7875000238418579],"min":[-0.15000000596046448,-0.02500000037252903,-0.7875000238418579],"type":"VEC3"},{"bufferView":179,"componentType":5126,"count":96,"type":"VEC3"},{"bufferView":180,"componentType":5126,"count":96,"type":"VEC2"},{"bufferView":181,"componentType":5126,"count":96,"max":[0.17000000178813934,2.4000000953674316,0.17000000178813934],"min":[-0.17000000178813934,-2.4000000953674316,-0.17000000178813934],"type":"VEC3"},{"bufferView":182,"componentType":5126,"count":96,"type":"VEC3"},{"bufferView":183,"componentType":5126,"count":96,"type":"VEC2"},{"bufferView":184,"componentType":5126,"count":96,"max":[0.17000000178813934,2.4000000953674316,0.17000000178813934],"min":[-0.17000000178813934,-2.4000000953674316,-0.17000000178813934],"type":"VEC3"},{"bufferView":185,"componentType":5126,"count":96,"type":"VEC3"},{"bufferView":186,"componentType":5126,"count":96,"type":"VEC2"},{"bufferView":187,"componentType":5126,"count":96,"max":[0.07999999821186066,0.07999999821186066,1.7999999523162842],"min":[-0.07999999821186066,-0.07999999821186066,-1.7999999523162842],"type":"VEC3"},{"bufferView":188,"componentType":5126,"count":96,"type":"VEC3"},{"bufferView":189,"componentType":5126,"count":96,"type":"VEC2"},{"bufferView":190,"componentType":5126,"count":96,"max":[0.07999999821186066,1.625,0.07999999821186066],"min":[-0.07999999821186066,-1.625,-0.07999999821186066],"type":"VEC3"},{"bufferView":191,"componentType":5126,"count":96,"type":"VEC3"},{"bufferView":192,"componentType":5126,"count":96,"type":"VEC2"},{"bufferView":193,"componentType":5126,"count":96,"max":[0.07999999821186066,1.625,0.07999999821186066],"min":[-0.07999999821186066,-1.625,-0.07999999821186066],"type":"VEC3"},{"bufferView":194,"componentType":5126,"count":96,"type":"VEC3"},{"bufferView":195,"componentType":5126,"count":96,"type":"VEC2"}],"bufferViews":[{"buffer":0,"byteLength":288,"byteOffset":0,"target":34962},{"buffer":0,"byteLength":288,"byteOffset":288,"target":34962},{"buffer":0,"byteLength":72,"byteOffset":576,"target":34963},{"buffer":0,"byteLength":288,"byteOffset":648,"target":34962},{"buffer":0,"byteLength":288,"byteOffset":936,"target":34962},{"buffer":0,"byteLength":288,"byteOffset":1224,"target":34962},{"buffer":0,"byteLength":288,"byteOffset":1512,"target":34962},{"buffer":0,"byteLength":288,"byteOffset":1800,"target":34962},{"buffer":0,"byteLength":288,"byteOffset":2088,"target":34962},{"buffer":0,"byteLength":288,"byteOffset":2376,"target":34962},{"buffer":0,"byteLength":288,"byteOffset":2664,"target":34962},{"buffer":0,"byteLength":288,"byteOffset":2952,"target":34962},{"buffer":0,"byteLength":288,"byteOffset":3240,"target":34962},{"buffer":0,"byteLength":288,"byteOffset":3528,"target":34962},{"buffer":0,"byteLength":288,"byteOffset":3816,"target":34962},{"buffer":0,"byteLength":288,"byteOffset":4104,"target":34962},{"buffer":0,"byteLength":288,"byteOffset":4392,"target":34962},{"buffer":0,"byteLength":288,"byteOffset":4680,"target":34962},{"buffer":0,"byteLength":288,"byteOffset":4968,"target":34962},{"buffer":0,"byteLength":672,"byteOffset":5256,"target":34962},{"buffer":0,"byteLength":672,"byteOffset":5928,"target":34962},{"buffer":0,"byteLength":448,"byteOffset":6600,"target":34962},{"buffer":0,"byteLength":264,"byteOffset":7048,"target":34963},{"buffer":0,"byteLength":1152,"byteOffset":7312,"target":34962},{"buffer":0,"byteLength":1152,"byteOffset":8464,"target":34962},{"buffer":0,"byteLength":768,"byteOffset":9616,"target":34962},{"buffer":0,"byteLength":264,"byteOffset":10384,"target":34963},{"buffer":0,"byteLength":1152,"byteOffset":10648,"target":34962},{"buffer":0,"byteLength":1152,"byteOffset":11800,"target":34962},{"buffer":0,"byteLength":768,"byteOffset":12952,"target":34962},{"buffer":0,"byteLength":1152,"byteOffset":13720,"target":34962},{"buffer":0,"byteLength":1152,"byteOffset":14872,"target":34962},{"buffer":0,"byteLength":768,"byteOffset":16024,"target":34962},{"buffer":0,"byteLength":288,"byteOffset":16792,"target":34962},{"buffer":0,"byteLength":288,"byteOffset":17080,"target":34962},{"buffer":0,"byteLength":192,"byteOffset":17368,"target":34962},{"buffer":0,"byteLength":288,"byteOffset":17560,"target":34962},{"buffer":0,"byteLength":288,"byteOffset":17848,"target":34962},{"buffer":0,"byteLength":192,"byteOffset":18136,"target":34962},{"buffer":0,"byteLength":288,"byteOffset":18328,"target":34962},{"buffer":0,"byteLength":288,"byteOffset":18616,"target":34962},{"buffer":0,"byteLength":192,"byteOffset":18904,"target":34962},{"buffer":0,"byteLength":288,"byteOffset":19096,"target":34962},{"buffer":0,"byteLength":288,"byteOffset":19384,"target":34962},{"buffer":0,"byteLength":192,"byteOffset":19672,"target":34962},{"buffer":0,"byteLength":6480,"byteOffset":19864,"target":34962},{"buffer":0,"byteLength":6480,"byteOffset":26344,"target":34962},{"buffer":0,"byteLength":4320,"byteOffset":32824,"target":34962},{"buffer":0,"byteLength":5664,"byteOffset":37144,"target":34963},{"buffer":0,"byteLength":1152,"byteOffset":42808,"target":34962},{"buffer":0,"byteLength":1152,"byteOffset":43960,"target":34962},{"buffer":0,"byteLength":768,"byteOffset":45112,"target":34962},{"buffer":0,"byteLength":1152,"byteOffset":45880,"target":34962},{"buffer":0,"byteLength":1152,"byteOffset":47032,"target":34962},{"buffer":0,"byteLength":768,"byteOffset":48184,"target":34962},{"buffer":0,"byteLength":1152,"byteOffset":48952,"target":34962},{"buffer":0,"byteLength":1152,"byteOffset":50104,"target":34962},{"buffer":0,"byteLength":768,"byteOffset":51256,"target":34962},{"buffer":0,"byteLength":1152,"byteOffset":52024,"target":34962},{"buffer":0,"byteLength":1152,"byteOffset":53176,"target":34962},{"buffer":0,"byteLength":768,"byteOffset":54328,"target":34962},{"buffer":0,"byteLength":1152,"byteOffset":55096,"target":34962},{"buffer":0,"byteLength":1152,"byteOffset":56248,"target":34962},{"buffer":0,"byteLength":768,"byteOffset":57400,"target":34962},{"buffer":0,"byteLength":1152,"byteOffset":58168,"target":34962},{"buffer":0,"byteLength":1152,"byteOffset":59320,"target":34962},{"buffer":0,"byteLength":768,"byteOffset":60472,"target":34962},{"buffer":0,"byteLength":1152,"byteOffset":61240,"target":34962},{"buffer":0,"byteLength":1152,"byteOffset":62392,"target":34962},{"buffer":0,"byteLength":768,"byteOffset":63544,"target":34962},{"buffer":0,"byteLength":1152,"byteOffset":64312,"target":34962},{"buffer":0,"byteLength":1152,"byteOffset":65464,"target":34962},{"buffer":0,"byteLength":768,"byteOffset":66616,"target":34962},{"buffer":0,"byteLength":1152,"byteOffset":67384,"target":34962},{"buffer":0,"byteLength":1152,"byteOffset":68536,"target":34962},{"buffer":0,"byteLength":768,"byteOffset":69688,"target":34962},{"buffer":0,"byteLength":1152,"byteOffset":70456,"target":34962},{"buffer":0,"byteLength":1152,"byteOffset":71608,"target":34962},{"buffer":0,"byteLength":768,"byteOffset":72760,"target":34962},{"buffer":0,"byteLength":1152,"byteOffset":73528,"target":34962},{"buffer":0,"byteLength":1152,"byteOffset":74680,"target":34962},{"buffer":0,"byteLength":768,"byteOffset":75832,"target":34962},{"buffer":0,"byteLength":672,"byteOffset":76600,"target":34962},{"buffer":0,"byteLength":672,"byteOffset":77272,"target":34962},{"buffer":0,"byteLength":448,"byteOffset":77944,"target":34962},{"buffer":0,"byteLength":264,"byteOffset":78392,"target":34963},{"buffer":0,"byteLength":348,"byteOffset":78656,"target":34962},{"buffer":0,"byteLength":348,"byteOffset":79004,"target":34962},{"buffer":0,"byteLength":232,"byteOffset":79352,"target":34962},{"buffer":0,"byteLength":120,"byteOffset":79584,"target":34963},{"buffer":0,"byteLength":348,"byteOffset":79704,"target":34962},{"buffer":0,"byteLength":348,"byteOffset":80052,"target":34962},{"buffer":0,"byteLength":232,"byteOffset":80400,"target":34962},{"buffer":0,"byteLength":120,"byteOffset":80632,"target":34963},{"buffer":0,"byteLength":372,"byteOffset":80752,"target":34962},{"buffer":0,"byteLength":372,"byteOffset":81124,"target":34962},{"buffer":0,"byteLength":248,"byteOffset":81496,"target":34962},{"buffer":0,"byteLength":120,"byteOffset":81744,"target":34963},{"buffer":0,"byteLength":288,"byteOffset":81864,"target":34962},{"buffer":0,"byteLength":288,"byteOffset":82152,"target":34962},{"buffer":0,"byteLength":192,"byteOffset":82440,"target":34962},{"buffer":0,"byteLength":120,"byteOffset":82632,"target":34963},{"buffer":0,"byteLength":360,"byteOffset":82752,"target":34962},{"buffer":0,"byteLength":360,"byteOffset":83112,"target":34962},{"buffer":0,"byteLength":240,"byteOffset":83472,"target":34962},{"buffer":0,"byteLength":120,"byteOffset":83712,"target":34963},{"buffer":0,"byteLength":360,"byteOffset":83832,"target":34962},{"buffer":0,"byteLength":360,"byteOffset":84192,"target":34962},{"buffer":0,"byteLength":240,"byteOffset":84552,"target":34962},{"buffer":0,"byteLength":120,"byteOffset":84792,"target":34963},{"buffer":0,"byteLength":336,"byteOffset":84912,"target":34962},{"buffer":0,"byteLength":336,"byteOffset":85248,"target":34962},{"buffer":0,"byteLength":224,"byteOffset":85584,"target":34962},{"buffer":0,"byteLength":120,"byteOffset":85808,"target":34963},{"buffer":0,"byteLength":336,"byteOffset":85928,"target":34962},{"buffer":0,"byteLength":336,"byteOffset":86264,"target":34962},{"buffer":0,"byteLength":224,"byteOffset":86600,"target":34962},{"buffer":0,"byteLength":120,"byteOffset":86824,"target":34963},{"buffer":0,"byteLength":1152,"byteOffset":86944,"target":34962},{"buffer":0,"byteLength":1152,"byteOffset":88096,"target":34962},{"buffer":0,"byteLength":768,"byteOffset":89248,"target":34962},{"buffer":0,"byteLength":9528,"byteOffset":90016,"target":34962},{"buffer":0,"byteLength":9528,"byteOffset":99544,"target":34962},{"buffer":0,"byteLength":6352,"byteOffset":109072,"target":34962},{"buffer":0,"byteLength":4512,"byteOffset":115424,"target":34963},{"buffer":0,"byteLength":16044,"byteOffset":119936,"target":34962},{"buffer":0,"byteLength":16044,"byteOffset":135980,"target":34962},{"buffer":0,"byteLength":10696,"byteOffset":152024,"target":34962},{"buffer":0,"byteLength":13728,"byteOffset":162720,"target":34963},{"buffer":0,"byteLength":6348,"byteOffset":176448,"target":34962},{"buffer":0,"byteLength":6348,"byteOffset":182796,"target":34962},{"buffer":0,"byteLength":4232,"byteOffset":189144,"target":34962},{"buffer":0,"byteLength":5760,"byteOffset":193376,"target":34963},{"buffer":0,"byteLength":1152,"byteOffset":199136,"target":34962},{"buffer":0,"byteLength":1152,"byteOffset":200288,"target":34962},{"buffer":0,"byteLength":768,"byteOffset":201440,"target":34962},{"buffer":0,"byteLength":1152,"byteOffset":202208,"target":34962},{"buffer":0,"byteLength":1152,"byteOffset":203360,"target":34962},{"buffer":0,"byteLength":768,"byteOffset":204512,"target":34962},{"buffer":0,"byteLength":1152,"byteOffset":205280,"target":34962},{"buffer":0,"byteLength":1152,"byteOffset":206432,"target":34962},{"buffer":0,"byteLength":768,"byteOffset":207584,"target":34962},{"buffer":0,"byteLength":1152,"byteOffset":208352,"target":34962},{"buffer":0,"byteLength":1152,"byteOffset":209504,"target":34962},{"buffer":0,"byteLength":768,"byteOffset":210656,"target":34962},{"buffer":0,"byteLength":1152,"byteOffset":211424,"target":34962},{"buffer":0,"byteLength":1152,"byteOffset":212576,"target":34962},{"buffer":0,"byteLength":768,"byteOffset":213728,"target":34962},{"buffer":0,"byteLength":1152,"byteOffset":214496,"target":34962},{"buffer":0,"byteLength":1152,"byteOffset":215648,"target":34962},{"buffer":0,"byteLength":768,"byteOffset":216800,"target":34962},{"buffer":0,"byteLength":1152,"byteOffset":217568,"target":34962},{"buffer":0,"byteLength":1152,"byteOffset":218720,"target":34962},{"buffer":0,"byteLength":768,"byteOffset":219872,"target":34962},{"buffer":0,"byteLength":1152,"byteOffset":220640,"target":34962},{"buffer":0,"byteLength":1152,"byteOffset":221792,"target":34962},{"buffer":0,"byteLength":768,"byteOffset":222944,"target":34962},{"buffer":0,"byteLength":1152,"byteOffset":223712,"target":34962},{"buffer":0,"byteLength":1152,"byteOffset":224864,"target":34962},{"buffer":0,"byteLength":768,"byteOffset":226016,"target":34962},{"buffer":0,"byteLength":1152,"byteOffset":226784,"target":34962},{"buffer":0,"byteLength":1152,"byteOffset":227936,"target":34962},{"buffer":0,"byteLength":768,"byteOffset":229088,"target":34962},{"buffer":0,"byteLength":1152,"byteOffset":229856,"target":34962},{"buffer":0,"byteLength":1152,"byteOffset":231008,"target":34962},{"buffer":0,"byteLength":768,"byteOffset":232160,"target":34962},{"buffer":0,"byteLength":1152,"byteOffset":232928,"target":34962},{"buffer":0,"byteLength":1152,"byteOffset":234080,"target":34962},{"buffer":0,"byteLength":768,"byteOffset":235232,"target":34962},{"buffer":0,"byteLength":1152,"byteOffset":236000,"target":34962},{"buffer":0,"byteLength":1152,"byteOffset":237152,"target":34962},{"buffer":0,"byteLength":768,"byteOffset":238304,"target":34962},{"buffer":0,"byteLength":1152,"byteOffset":239072,"target":34962},{"buffer":0,"byteLength":1152,"byteOffset":240224,"target":34962},{"buffer":0,"byteLength":768,"byteOffset":241376,"target":34962},{"buffer":0,"byteLength":1152,"byteOffset":242144,"target":34962},{"buffer":0,"byteLength":1152,"byteOffset":243296,"target":34962},{"buffer":0,"byteLength":768,"byteOffset":244448,"target":34962},{"buffer":0,"byteLength":1152,"byteOffset":245216,"target":34962},{"buffer":0,"byteLength":1152,"byteOffset":246368,"target":34962},{"buffer":0,"byteLength":768,"byteOffset":247520,"target":34962},{"buffer":0,"byteLength":1152,"byteOffset":248288,"target":34962},{"buffer":0,"byteLength":1152,"byteOffset":249440,"target":34962},{"buffer":0,"byteLength":768,"byteOffset":250592,"target":34962},{"buffer":0,"byteLength":1152,"byteOffset":251360,"target":34962},{"buffer":0,"byteLength":1152,"byteOffset":252512,"target":34962},{"buffer":0,"byteLength":768,"byteOffset":253664,"target":34962},{"buffer":0,"byteLength":1152,"byteOffset":254432,"target":34962},{"buffer":0,"byteLength":1152,"byteOffset":255584,"target":34962},{"buffer":0,"byteLength":768,"byteOffset":256736,"target":34962},{"buffer":0,"byteLength":1152,"byteOffset":257504,"target":34962},{"buffer":0,"byteLength":1152,"byteOffset":258656,"target":34962},{"buffer":0,"byteLength":768,"byteOffset":259808,"target":34962},{"buffer":0,"byteLength":1152,"byteOffset":260576,"target":34962},{"buffer":0,"byteLength":1152,"byteOffset":261728,"target":34962},{"buffer":0,"byteLength":768,"byteOffset":262880,"target":34962}],"samplers":[{"magFilter":9729,"minFilter":9987}],"buffers":[{"byteLength":263648,"uri":"piece_refuge.bin"}]}