{
	"asset":{
		"generator":"Khronos glTF Blender I/O v5.2.39",
		"version":"2.0"
	},
	"scene":0,
	"scenes":[
		{
			"name":"Scene",
			"nodes":[
				0,
				1,
				2,
				3,
				4,
				5,
				6,
				7,
				8,
				9,
				10,
				11,
				12,
				13,
				14,
				15,
				16,
				17,
				18,
				19
			]
		}
	],
	"nodes":[
		{
			"mesh":0,
			"name":"COL_end_buffer-convcolonly",
			"translation":[
				0,
				0.44999998807907104,
				-2.9000000953674316
			]
		},
		{
			"mesh":1,
			"name":"RL_end_bufbeam",
			"translation":[
				0,
				0.75,
				-2.9000000953674316
			]
		},
		{
			"mesh":2,
			"name":"RL_end_bufbrace_0",
			"rotation":[
				-0.3826834559440613,
				0,
				0,
				0.9238795638084412
			],
			"translation":[
				-0.550000011920929,
				0.44999998807907104,
				-3.25
			]
		},
		{
			"mesh":3,
			"name":"RL_end_bufbrace_2",
			"rotation":[
				-0.3826834559440613,
				0,
				0,
				0.9238795638084412
			],
			"translation":[
				0.550000011920929,
				0.44999998807907104,
				-3.25
			]
		},
		{
			"mesh":4,
			"name":"RL_end_bufpost_0",
			"translation":[
				-0.550000011920929,
				0.3499999940395355,
				-2.9000000953674316
			]
		},
		{
			"mesh":5,
			"name":"RL_end_bufpost_2",
			"translation":[
				0.550000011920929,
				0.3499999940395355,
				-2.9000000953674316
			]
		},
		{
			"mesh":6,
			"name":"RL_end_foot_L",
			"translation":[
				-0.30000001192092896,
				0.10999999940395355,
				0.4000000059604645
			]
		},
		{
			"mesh":7,
			"name":"RL_end_foot_R",
			"translation":[
				0.30000001192092896,
				0.10999999940395355,
				0.4000000059604645
			]
		},
		{
			"mesh":8,
			"name":"RL_end_rail_L",
			"translation":[
				-0.30000001192092896,
				0.15000000596046448,
				0.4000000059604645
			]
		},
		{
			"mesh":9,
			"name":"RL_end_rail_R",
			"translation":[
				0.30000001192092896,
				0.15000000596046448,
				0.4000000059604645
			]
		},
		{
			"mesh":10,
			"name":"RL_end_sleeper_0",
			"rotation":[
				6.423657760024071e-05,
				-0.008949162438511848,
				-0.007177471183240414,
				0.999934196472168
			],
			"translation":[
				0.0054457178339362144,
				0.05000000074505806,
				3.200000047683716
			]
		},
		{
			"mesh":11,
			"name":"RL_end_sleeper_1",
			"rotation":[
				-2.067131754301954e-05,
				0.003535777097567916,
				-0.00584619352594018,
				0.9999767541885376
			],
			"translation":[
				-0.0030741735827177763,
				0.05000000074505806,
				2.5999999046325684
			]
		},
		{
			"mesh":12,
			"name":"RL_end_sleeper_2",
			"rotation":[
				-1.5727007848909125e-05,
				-0.0017240274464711547,
				0.009121858514845371,
				0.9999569058418274
			],
			"translation":[
				-0.005135242827236652,
				0.05000000074505806,
				2
			]
		},
		{
			"mesh":13,
			"name":"RL_end_sleeper_3",
			"rotation":[
				2.6110283215530217e-05,
				-0.006142506841570139,
				-0.004250634927302599,
				0.9999721050262451
			],
			"translation":[
				-0.005313022993505001,
				0.05000000074505806,
				1.399999976158142
			]
		},
		{
			"mesh":14,
			"name":"RL_end_sleeper_4",
			"rotation":[
				-2.763562042673584e-05,
				0.009324617683887482,
				-0.002963585313409567,
				0.9999521374702454
			],
			"translation":[
				-0.0036830282770097256,
				0.05000000074505806,
				0.800000011920929
			]
		},
		{
			"mesh":15,
			"name":"RL_end_sleeper_5",
			"rotation":[
				5.413483904703753e-06,
				0.002361019141972065,
				0.0022928467951714993,
				0.9999945759773254
			],
			"translation":[
				-0.005905899219214916,
				0.05000000074505806,
				0.20000000298023224
			]
		},
		{
			"mesh":16,
			"name":"RL_end_sleeper_6",
			"rotation":[
				8.721720951143652e-05,
				0.014140551909804344,
				0.006167146842926741,
				0.9998810887336731
			],
			"translation":[
				0.016992682591080666,
				0.05000000074505806,
				-0.4000000059604645
			]
		},
		{
			"mesh":17,
			"name":"RL_end_sleeper_7",
			"rotation":[
				1.2682756278081797e-05,
				0.004968005698174238,
				0.0025528466794639826,
				0.9999844431877136
			],
			"translation":[
				0.008475840091705322,
				0.05000000074505806,
				-1
			]
		},
		{
			"mesh":18,
			"name":"RL_end_sleeper_8",
			"rotation":[
				6.593664875254035e-05,
				0.007680793758481741,
				0.008584044873714447,
				0.999933660030365
			],
			"translation":[
				-0.006821976974606514,
				0.05000000074505806,
				-1.600000023841858
			]
		},
		{
			"mesh":19,
			"name":"RL_end_sleeper_9",
			"rotation":[
				0,
				-0.0001020079871523194,
				-0.0005163012538105249,
				1
			],
			"translation":[
				-0.004823876544833183,
				0.05000000074505806,
				-2.200000047683716
			]
		}
	],
	"materials":[
		{
			"doubleSided":true,
			"name":"MAT_Timber_EXPORT",
			"normalTexture":{
				"index":0
			},
			"pbrMetallicRoughness":{
				"baseColorTexture":{
					"index":1
				},
				"metallicFactor":0,
				"metallicRoughnessTexture":{
					"index":2
				}
			}
		},
		{
			"doubleSided":true,
			"name":"MAT_RustyMetal_EXPORT",
			"normalTexture":{
				"index":3
			},
			"pbrMetallicRoughness":{
				"baseColorTexture":{
					"index":4
				},
				"metallicFactor":0,
				"metallicRoughnessTexture":{
					"index":5
				}
			}
		}
	],
	"meshes":[
		{
			"name":"COL_end_buffer-convcolonly",
			"primitives":[
				{
					"attributes":{
						"POSITION":0,
						"NORMAL":1
					},
					"indices":2
				}
			]
		},
		{
			"name":"RL_end_bufbeam",
			"primitives":[
				{
					"attributes":{
						"POSITION":3,
						"NORMAL":4,
						"TEXCOORD_0":5
					},
					"indices":6,
					"material":0
				}
			]
		},
		{
			"name":"RL_end_bufbrace_0",
			"primitives":[
				{
					"attributes":{
						"POSITION":7,
						"NORMAL":8,
						"TEXCOORD_0":9
					},
					"indices":6,
					"material":0
				}
			]
		},
		{
			"name":"RL_end_bufbrace_2",
			"primitives":[
				{
					"attributes":{
						"POSITION":10,
						"NORMAL":11,
						"TEXCOORD_0":12
					},
					"indices":6,
					"material":0
				}
			]
		},
		{
			"name":"RL_end_bufpost_0",
			"primitives":[
				{
					"attributes":{
						"POSITION":13,
						"NORMAL":14,
						"TEXCOORD_0":15
					},
					"indices":6,
					"material":0
				}
			]
		},
		{
			"name":"RL_end_bufpost_2",
			"primitives":[
				{
					"attributes":{
						"POSITION":16,
						"NORMAL":17,
						"TEXCOORD_0":18
					},
					"indices":6,
					"material":0
				}
			]
		},
		{
			"name":"RL_end_foot_L",
			"primitives":[
				{
					"attributes":{
						"POSITION":19,
						"NORMAL":20,
						"TEXCOORD_0":21
					},
					"indices":2,
					"material":1
				}
			]
		},
		{
			"name":"RL_end_foot_R",
			"primitives":[
				{
					"attributes":{
						"POSITION":22,
						"NORMAL":23,
						"TEXCOORD_0":24
					},
					"indices":2,
					"material":1
				}
			]
		},
		{
			"name":"RL_end_rail_L",
			"primitives":[
				{
					"attributes":{
						"POSITION":25,
						"NORMAL":26,
						"TEXCOORD_0":27
					},
					"indices":2,
					"material":1
				}
			]
		},
		{
			"name":"RL_end_rail_R",
			"primitives":[
				{
					"attributes":{
						"POSITION":28,
						"NORMAL":29,
						"TEXCOORD_0":30
					},
					"indices":2,
					"material":1
				}
			]
		},
		{
			"name":"RL_end_sleeper_0",
			"primitives":[
				{
					"attributes":{
						"POSITION":31,
						"NORMAL":32,
						"TEXCOORD_0":33
					},
					"indices":6,
					"material":0
				}
			]
		},
		{
			"name":"RL_end_sleeper_1",
			"primitives":[
				{
					"attributes":{
						"POSITION":34,
						"NORMAL":35,
						"TEXCOORD_0":36
					},
					"indices":6,
					"material":0
				}
			]
		},
		{
			"name":"RL_end_sleeper_2",
			"primitives":[
				{
					"attributes":{
						"POSITION":37,
						"NORMAL":38,
						"TEXCOORD_0":39
					},
					"indices":6,
					"material":0
				}
			]
		},
		{
			"name":"RL_end_sleeper_3",
			"primitives":[
				{
					"attributes":{
						"POSITION":40,
						"NORMAL":41,
						"TEXCOORD_0":42
					},
					"indices":6,
					"material":0
				}
			]
		},
		{
			"name":"RL_end_sleeper_4",
			"primitives":[
				{
					"attributes":{
						"POSITION":43,
						"NORMAL":44,
						"TEXCOORD_0":45
					},
					"indices":6,
					"material":0
				}
			]
		},
		{
			"name":"RL_end_sleeper_5",
			"primitives":[
				{
					"attributes":{
						"POSITION":46,
						"NORMAL":47,
						"TEXCOORD_0":48
					},
					"indices":6,
					"material":0
				}
			]
		},
		{
			"name":"RL_end_sleeper_6",
			"primitives":[
				{
					"attributes":{
						"POSITION":49,
						"NORMAL":50,
						"TEXCOORD_0":51
					},
					"indices":6,
					"material":0
				}
			]
		},
		{
			"name":"RL_end_sleeper_7",
			"primitives":[
				{
					"attributes":{
						"POSITION":52,
						"NORMAL":53,
						"TEXCOORD_0":54
					},
					"indices":6,
					"material":0
				}
			]
		},
		{
			"name":"RL_end_sleeper_8",
			"primitives":[
				{
					"attributes":{
						"POSITION":55,
						"NORMAL":56,
						"TEXCOORD_0":57
					},
					"indices":6,
					"material":0
				}
			]
		},
		{
			"name":"RL_end_sleeper_9",
			"primitives":[
				{
					"attributes":{
						"POSITION":58,
						"NORMAL":59,
						"TEXCOORD_0":60
					},
					"indices":6,
					"material":0
				}
			]
		}
	],
	"textures":[
		{
			"sampler":0,
			"source":0
		},
		{
			"sampler":0,
			"source":1
		},
		{
			"sampler":0,
			"source":2
		},
		{
			"sampler":0,
			"source":3
		},
		{
			"sampler":0,
			"source":4
		},
		{
			"sampler":0,
			"source":5
		}
	],
	"images":[
		{
			"mimeType":"image/jpeg",
			"name":"dark_wooden_planks_nor_gl",
			"uri":"textures/dark_wooden_planks_nor_gl.jpg"
		},
		{
			"mimeType":"image/jpeg",
			"name":"dark_wooden_planks_Diffuse",
			"uri":"textures/dark_wooden_planks_Diffuse.jpg"
		},
		{
			"mimeType":"image/jpeg",
			"name":"dark_wooden_planks_Rough",
			"uri":"textures/dark_wooden_planks_Rough.jpg"
		},
		{
			"mimeType":"image/jpeg",
			"name":"rusty_metal_02_nor_gl",
			"uri":"textures/rusty_metal_02_nor_gl.jpg"
		},
		{
			"mimeType":"image/jpeg",
			"name":"rusty_metal_02_Diffuse",
			"uri":"textures/rusty_metal_02_Diffuse.jpg"
		},
		{
			"mimeType":"image/jpeg",
			"name":"rusty_metal_02_Rough",
			"uri":"textures/rusty_metal_02_Rough.jpg"
		}
	],
	"accessors":[
		{
			"bufferView":0,
			"componentType":5126,
			"count":24,
			"max":[
				0.75,
				0.44999998807907104,
				0.15000000596046448
			],
			"min":[
				-0.75,
				-0.44999998807907104,
				-0.15000000596046448
			],
			"type":"VEC3"
		},
		{
			"bufferView":1,
			"componentType":5126,
			"count":24,
			"type":"VEC3"
		},
		{
			"bufferView":2,
			"componentType":5123,
			"count":36,
			"type":"SCALAR"
		},
		{
			"bufferView":3,
			"componentType":5126,
			"count":96,
			"max":[
				0.75,
				0.15000000596046448,
				0.15000000596046448
			],
			"min":[
				-0.75,
				-0.15000000596046448,
				-0.15000000596046448
			],
			"type":"VEC3"
		},
		{
			"bufferView":4,
			"componentType":5126,
			"count":96,
			"type":"VEC3"
		},
		{
			"bufferView":5,
			"componentType":5126,
			"count":96,
			"type":"VEC2"
		},
		{
			"bufferView":6,
			"componentType":5123,
			"count":132,
			"type":"SCALAR"
		},
		{
			"bufferView":7,
			"componentType":5126,
			"count":96,
			"max":[
				0.05999999865889549,
				0.05999999865889549,
				0.44999998807907104
			],
			"min":[
				-0.05999999865889549,
				-0.05999999865889549,
				-0.44999998807907104
			],
			"type":"VEC3"
		},
		{
			"bufferView":8,
			"componentType":5126,
			"count":96,
			"type":"VEC3"
		},
		{
			"bufferView":9,
			"componentType":5126,
			"count":96,
			"type":"VEC2"
		},
		{
			"bufferView":10,
			"componentType":5126,
			"count":96,
			"max":[
				0.05999999865889549,
				0.05999999865889549,
				0.44999998807907104
			],
			"min":[
				-0.05999999865889549,
				-0.05999999865889549,
				-0.44999998807907104
			],
			"type":"VEC3"
		},
		{
			"bufferView":11,
			"componentType":5126,
			"count":96,
			"type":"VEC3"
		},
		{
			"bufferView":12,
			"componentType":5126,
			"count":96,
			"type":"VEC2"
		},
		{
			"bufferView":13,
			"componentType":5126,
			"count":96,
			"max":[
				0.10000000149011612,
				0.3499999940395355,
				0.10000000149011612
			],
			"min":[
				-0.10000000149011612,
				-0.3499999940395355,
				-0.10000000149011612
			],
			"type":"VEC3"
		},
		{
			"bufferView":14,
			"componentType":5126,
			"count":96,
			"type":"VEC3"
		},
		{
			"bufferView":15,
			"componentType":5126,
			"count":96,
			"type":"VEC2"
		},
		{
			"bufferView":16,
			"componentType":5126,
			"count":96,
			"max":[
				0.10000000149011612,
				0.3499999940395355,
				0.10000000149011612
			],
			"min":[
				-0.10000000149011612,
				-0.3499999940395355,
				-0.10000000149011612
			],
			"type":"VEC3"
		},
		{
			"bufferView":17,
			"componentType":5126,
			"count":96,
			"type":"VEC3"
		},
		{
			"bufferView":18,
			"componentType":5126,
			"count":96,
			"type":"VEC2"
		},
		{
			"bufferView":19,
			"componentType":5126,
			"count":24,
			"max":[
				0.05999999865889549,
				0.009999999776482582,
				3.0999999046325684
			],
			"min":[
				-0.05999999865889549,
				-0.009999999776482582,
				-3.0999999046325684
			],
			"type":"VEC3"
		},
		{
			"bufferView":20,
			"componentType":5126,
			"count":24,
			"type":"VEC3"
		},
		{
			"bufferView":21,
			"componentType":5126,
			"count":24,
			"type":"VEC2"
		},
		{
			"bufferView":22,
			"componentType":5126,
			"count":24,
			"max":[
				0.05999999865889549,
				0.009999999776482582,
				3.0999999046325684
			],
			"min":[
				-0.05999999865889549,
				-0.009999999776482582,
				-3.0999999046325684
			],
			"type":"VEC3"
		},
		{
			"bufferView":23,
			"componentType":5126,
			"count":24,
			"type":"VEC3"
		},
		{
			"bufferView":24,
			"componentType":5126,
			"count":24,
			"type":"VEC2"
		},
		{
			"bufferView":25,
			"componentType":5126,
			"count":24,
			"max":[
				0.029999999329447746,
				0.05000000074505806,
				3.0999999046325684
			],
			"min":[
				-0.029999999329447746,
				-0.05000000074505806,
				-3.0999999046325684
			],
			"type":"VEC3"
		},
		{
			"bufferView":26,
			"componentType":5126,
			"count":24,
			"type":"VEC3"
		},
		{
			"bufferView":27,
			"componentType":5126,
			"count":24,
			"type":"VEC2"
		},
		{
			"bufferView":28,
			"componentType":5126,
			"count":24,
			"max":[
				0.029999999329447746,
				0.05000000074505806,
				3.0999999046325684
			],
			"min":[
				-0.029999999329447746,
				-0.05000000074505806,
				-3.0999999046325684
			],
			"type":"VEC3"
		},
		{
			"bufferView":29,
			"componentType":5126,
			"count":24,
			"type":"VEC3"
		},
		{
			"bufferView":30,
			"componentType":5126,
			"count":24,
			"type":"VEC2"
		},
		{
			"bufferView":31,
			"componentType":5126,
			"count":96,
			"max":[
				0.6000000238418579,
				0.05000000074505806,
				0.10000000149011612
			],
			"min":[
				-0.6000000238418579,
				-0.05000000074505806,
				-0.10000000149011612
			],
			"type":"VEC3"
		},
		{
			"bufferView":32,
			"componentType":5126,
			"count":96,
			"type":"VEC3"
		},
		{
			"bufferView":33,
			"componentType":5126,
			"count":96,
			"type":"VEC2"
		},
		{
			"bufferView":34,
			"componentType":5126,
			"count":96,
			"max":[
				0.6000000238418579,
				0.05000000074505806,
				0.10000000149011612
			],
			"min":[
				-0.6000000238418579,
				-0.05000000074505806,
				-0.10000000149011612
			],
			"type":"VEC3"
		},
		{
			"bufferView":35,
			"componentType":5126,
			"count":96,
			"type":"VEC3"
		},
		{
			"bufferView":36,
			"componentType":5126,
			"count":96,
			"type":"VEC2"
		},
		{
			"bufferView":37,
			"componentType":5126,
			"count":96,
			"max":[
				0.6000000238418579,
				0.05000000074505806,
				0.10000000149011612
			],
			"min":[
				-0.6000000238418579,
				-0.05000000074505806,
				-0.10000000149011612
			],
			"type":"VEC3"
		},
		{
			"bufferView":38,
			"componentType":5126,
			"count":96,
			"type":"VEC3"
		},
		{
			"bufferView":39,
			"componentType":5126,
			"count":96,
			"type":"VEC2"
		},
		{
			"bufferView":40,
			"componentType":5126,
			"count":96,
			"max":[
				0.6000000238418579,
				0.05000000074505806,
				0.10000000149011612
			],
			"min":[
				-0.6000000238418579,
				-0.05000000074505806,
				-0.10000000149011612
			],
			"type":"VEC3"
		},
		{
			"bufferView":41,
			"componentType":5126,
			"count":96,
			"type":"VEC3"
		},
		{
			"bufferView":42,
			"componentType":5126,
			"count":96,
			"type":"VEC2"
		},
		{
			"bufferView":43,
			"componentType":5126,
			"count":96,
			"max":[
				0.6000000238418579,
				0.05000000074505806,
				0.10000000149011612
			],
			"min":[
				-0.6000000238418579,
				-0.05000000074505806,
				-0.10000000149011612
			],
			"type":"VEC3"
		},
		{
			"bufferView":44,
			"componentType":5126,
			"count":96,
			"type":"VEC3"
		},
		{
			"bufferView":45,
			"componentType":5126,
			"count":96,
			"type":"VEC2"
		},
		{
			"bufferView":46,
			"componentType":5126,
			"count":96,
			"max":[
				0.6000000238418579,
				0.05000000074505806,
				0.10000000149011612
			],
			"min":[
				-0.6000000238418579,
				-0.05000000074505806,
				-0.10000000149011612
			],
			"type":"VEC3"
		},
		{
			"bufferView":47,
			"componentType":5126,
			"count":96,
			"type":"VEC3"
		},
		{
			"bufferView":48,
			"componentType":5126,
			"count":96,
			"type":"VEC2"
		},
		{
			"bufferView":49,
			"componentType":5126,
			"count":96,
			"max":[
				0.6000000238418579,
				0.05000000074505806,
				0.10000000149011612
			],
			"min":[
				-0.6000000238418579,
				-0.05000000074505806,
				-0.10000000149011612
			],
			"type":"VEC3"
		},
		{
			"bufferView":50,
			"componentType":5126,
			"count":96,
			"type":"VEC3"
		},
		{
			"bufferView":51,
			"componentType":5126,
			"count":96,
			"type":"VEC2"
		},
		{
			"bufferView":52,
			"componentType":5126,
			"count":96,
			"max":[
				0.6000000238418579,
				0.05000000074505806,
				0.10000000149011612
			],
			"min":[
				-0.6000000238418579,
				-0.05000000074505806,
				-0.10000000149011612
			],
			"type":"VEC3"
		},
		{
			"bufferView":53,
			"componentType":5126,
			"count":96,
			"type":"VEC3"
		},
		{
			"bufferView":54,
			"componentType":5126,
			"count":96,
			"type":"VEC2"
		},
		{
			"bufferView":55,
			"componentType":5126,
			"count":96,
			"max":[
				0.6000000238418579,
				0.05000000074505806,
				0.10000000149011612
			],
			"min":[
				-0.6000000238418579,
				-0.05000000074505806,
				-0.10000000149011612
			],
			"type":"VEC3"
		},
		{
			"bufferView":56,
			"componentType":5126,
			"count":96,
			"type":"VEC3"
		},
		{
			"bufferView":57,
			"componentType":5126,
			"count":96,
			"type":"VEC2"
		},
		{
			"bufferView":58,
			"componentType":5126,
			"count":96,
			"max":[
				0.6000000238418579,
				0.05000000074505806,
				0.10000000149011612
			],
			"min":[
				-0.6000000238418579,
				-0.05000000074505806,
				-0.10000000149011612
			],
			"type":"VEC3"
		},
		{
			"bufferView":59,
			"componentType":5126,
			"count":96,
			"type":"VEC3"
		},
		{
			"bufferView":60,
			"componentType":5126,
			"count":96,
			"type":"VEC2"
		}
	],
	"bufferViews":[
		{
			"buffer":0,
			"byteLength":288,
			"byteOffset":0,
			"target":34962
		},
		{
			"buffer":0,
			"byteLength":288,
			"byteOffset":288,
			"target":34962
		},
		{
			"buffer":0,
			"byteLength":72,
			"byteOffset":576,
			"target":34963
		},
		{
			"buffer":0,
			"byteLength":1152,
			"byteOffset":648,
			"target":34962
		},
		{
			"buffer":0,
			"byteLength":1152,
			"byteOffset":1800,
			"target":34962
		},
		{
			"buffer":0,
			"byteLength":768,
			"byteOffset":2952,
			"target":34962
		},
		{
			"buffer":0,
			"byteLength":264,
			"byteOffset":3720,
			"target":34963
		},
		{
			"buffer":0,
			"byteLength":1152,
			"byteOffset":3984,
			"target":34962
		},
		{
			"buffer":0,
			"byteLength":1152,
			"byteOffset":5136,
			"target":34962
		},
		{
			"buffer":0,
			"byteLength":768,
			"byteOffset":6288,
			"target":34962
		},
		{
			"buffer":0,
			"byteLength":1152,
			"byteOffset":7056,
			"target":34962
		},
		{
			"buffer":0,
			"byteLength":1152,
			"byteOffset":8208,
			"target":34962
		},
		{
			"buffer":0,
			"byteLength":768,
			"byteOffset":9360,
			"target":34962
		},
		{
			"buffer":0,
			"byteLength":1152,
			"byteOffset":10128,
			"target":34962
		},
		{
			"buffer":0,
			"byteLength":1152,
			"byteOffset":11280,
			"target":34962
		},
		{
			"buffer":0,
			"byteLength":768,
			"byteOffset":12432,
			"target":34962
		},
		{
			"buffer":0,
			"byteLength":1152,
			"byteOffset":13200,
			"target":34962
		},
		{
			"buffer":0,
			"byteLength":1152,
			"byteOffset":14352,
			"target":34962
		},
		{
			"buffer":0,
			"byteLength":768,
			"byteOffset":15504,
			"target":34962
		},
		{
			"buffer":0,
			"byteLength":288,
			"byteOffset":16272,
			"target":34962
		},
		{
			"buffer":0,
			"byteLength":288,
			"byteOffset":16560,
			"target":34962
		},
		{
			"buffer":0,
			"byteLength":192,
			"byteOffset":16848,
			"target":34962
		},
		{
			"buffer":0,
			"byteLength":288,
			"byteOffset":17040,
			"target":34962
		},
		{
			"buffer":0,
			"byteLength":288,
			"byteOffset":17328,
			"target":34962
		},
		{
			"buffer":0,
			"byteLength":192,
			"byteOffset":17616,
			"target":34962
		},
		{
			"buffer":0,
			"byteLength":288,
			"byteOffset":17808,
			"target":34962
		},
		{
			"buffer":0,
			"byteLength":288,
			"byteOffset":18096,
			"target":34962
		},
		{
			"buffer":0,
			"byteLength":192,
			"byteOffset":18384,
			"target":34962
		},
		{
			"buffer":0,
			"byteLength":288,
			"byteOffset":18576,
			"target":34962
		},
		{
			"buffer":0,
			"byteLength":288,
			"byteOffset":18864,
			"target":34962
		},
		{
			"buffer":0,
			"byteLength":192,
			"byteOffset":19152,
			"target":34962
		},
		{
			"buffer":0,
			"byteLength":1152,
			"byteOffset":19344,
			"target":34962
		},
		{
			"buffer":0,
			"byteLength":1152,
			"byteOffset":20496,
			"target":34962
		},
		{
			"buffer":0,
			"byteLength":768,
			"byteOffset":21648,
			"target":34962
		},
		{
			"buffer":0,
			"byteLength":1152,
			"byteOffset":22416,
			"target":34962
		},
		{
			"buffer":0,
			"byteLength":1152,
			"byteOffset":23568,
			"target":34962
		},
		{
			"buffer":0,
			"byteLength":768,
			"byteOffset":24720,
			"target":34962
		},
		{
			"buffer":0,
			"byteLength":1152,
			"byteOffset":25488,
			"target":34962
		},
		{
			"buffer":0,
			"byteLength":1152,
			"byteOffset":26640,
			"target":34962
		},
		{
			"buffer":0,
			"byteLength":768,
			"byteOffset":27792,
			"target":34962
		},
		{
			"buffer":0,
			"byteLength":1152,
			"byteOffset":28560,
			"target":34962
		},
		{
			"buffer":0,
			"byteLength":1152,
			"byteOffset":29712,
			"target":34962
		},
		{
			"buffer":0,
			"byteLength":768,
			"byteOffset":30864,
			"target":34962
		},
		{
			"buffer":0,
			"byteLength":1152,
			"byteOffset":31632,
			"target":34962
		},
		{
			"buffer":0,
			"byteLength":1152,
			"byteOffset":32784,
			"target":34962
		},
		{
			"buffer":0,
			"byteLength":768,
			"byteOffset":33936,
			"target":34962
		},
		{
			"buffer":0,
			"byteLength":1152,
			"byteOffset":34704,
			"target":34962
		},
		{
			"buffer":0,
			"byteLength":1152,
			"byteOffset":35856,
			"target":34962
		},
		{
			"buffer":0,
			"byteLength":768,
			"byteOffset":37008,
			"target":34962
		},
		{
			"buffer":0,
			"byteLength":1152,
			"byteOffset":37776,
			"target":34962
		},
		{
			"buffer":0,
			"byteLength":1152,
			"byteOffset":38928,
			"target":34962
		},
		{
			"buffer":0,
			"byteLength":768,
			"byteOffset":40080,
			"target":34962
		},
		{
			"buffer":0,
			"byteLength":1152,
			"byteOffset":40848,
			"target":34962
		},
		{
			"buffer":0,
			"byteLength":1152,
			"byteOffset":42000,
			"target":34962
		},
		{
			"buffer":0,
			"byteLength":768,
			"byteOffset":43152,
			"target":34962
		},
		{
			"buffer":0,
			"byteLength":1152,
			"byteOffset":43920,
			"target":34962
		},
		{
			"buffer":0,
			"byteLength":1152,
			"byteOffset":45072,
			"target":34962
		},
		{
			"buffer":0,
			"byteLength":768,
			"byteOffset":46224,
			"target":34962
		},
		{
			"buffer":0,
			"byteLength":1152,
			"byteOffset":46992,
			"target":34962
		},
		{
			"buffer":0,
			"byteLength":1152,
			"byteOffset":48144,
			"target":34962
		},
		{
			"buffer":0,
			"byteLength":768,
			"byteOffset":49296,
			"target":34962
		}
	],
	"samplers":[
		{
			"magFilter":9729,
			"minFilter":9987
		}
	],
	"buffers":[
		{
			"byteLength":50064,
			"uri":"rail_end.bin"
		}
	]
}
