{
	"asset":{
		"generator":"Khronos glTF Blender I/O v5.2.39",
		"version":"2.0"
	},
	"scene":0,
	"scenes":[
		{
			"name":"Scene",
			"nodes":[
				0,
				1,
				2,
				3,
				4,
				5,
				6,
				7,
				8,
				9,
				10,
				11,
				12,
				13,
				14
			]
		}
	],
	"nodes":[
		{
			"mesh":0,
			"name":"RL_straight_foot_L",
			"translation":[
				-0.30000001192092896,
				0.10999999940395355,
				0
			]
		},
		{
			"mesh":1,
			"name":"RL_straight_foot_R",
			"translation":[
				0.30000001192092896,
				0.10999999940395355,
				0
			]
		},
		{
			"mesh":2,
			"name":"RL_straight_rail_L",
			"translation":[
				-0.30000001192092896,
				0.15000000596046448,
				0
			]
		},
		{
			"mesh":3,
			"name":"RL_straight_rail_R",
			"translation":[
				0.30000001192092896,
				0.15000000596046448,
				0
			]
		},
		{
			"mesh":4,
			"name":"RL_straight_sleeper_0",
			"rotation":[
				1.3755952750216238e-05,
				0.003866984508931637,
				0.0035572329070419073,
				0.9999862909317017
			],
			"translation":[
				0.007088111713528633,
				0.05000000074505806,
				3.200000047683716
			]
		},
		{
			"mesh":5,
			"name":"RL_straight_sleeper_1",
			"rotation":[
				1.8682492736843415e-05,
				0.0033754725009202957,
				0.005534662865102291,
				0.9999790787696838
			],
			"translation":[
				0.0017227053176611662,
				0.05000000074505806,
				2.5999999046325684
			]
		},
		{
			"mesh":6,
			"name":"RL_straight_sleeper_2",
			"rotation":[
				6.5538165472389665e-06,
				-0.0008016782230697572,
				-0.008174847811460495,
				0.9999663233757019
			],
			"translation":[
				-0.009402780793607235,
				0.05000000074505806,
				2
			]
		},
		{
			"mesh":7,
			"name":"RL_straight_sleeper_3",
			"rotation":[
				0,
				-0.000701453594956547,
				-0.00044086595880798995,
				1
			],
			"translation":[
				0.008862453512847424,
				0.05000000074505806,
				1.399999976158142
			]
		},
		{
			"mesh":8,
			"name":"RL_straight_sleeper_4",
			"rotation":[
				9.176394087262452e-05,
				0.012819181196391582,
				0.007157559040933847,
				0.9998922348022461
			],
			"translation":[
				-0.01115103904157877,
				0.05000000074505806,
				0.800000011920929
			]
		},
		{
			"mesh":9,
			"name":"RL_straight_sleeper_5",
			"rotation":[
				0,
				0.0008242272888310254,
				-0.0004786339704878628,
				1
			],
			"translation":[
				0.0011499886168166995,
				0.05000000074505806,
				0.20000000298023224
			]
		},
		{
			"mesh":10,
			"name":"RL_straight_sleeper_6",
			"rotation":[
				-5.137892730999738e-05,
				-0.00982914213091135,
				0.00522688077762723,
				0.9999381303787231
			],
			"translation":[
				0.012534120120108128,
				0.05000000074505806,
				-0.4000000059604645
			]
		},
		{
			"mesh":11,
			"name":"RL_straight_sleeper_7",
			"rotation":[
				3.347419578858535e-06,
				0.004215762484818697,
				0.0007940175128169358,
				0.9999908208847046
			],
			"translation":[
				0.012875400483608246,
				0.05000000074505806,
				-1
			]
		},
		{
			"mesh":12,
			"name":"RL_straight_sleeper_8",
			"rotation":[
				-8.694615098647773e-05,
				0.011032859794795513,
				-0.007879931479692459,
				0.9999081492424011
			],
			"translation":[
				0.013097751885652542,
				0.05000000074505806,
				-1.600000023841858
			]
		},
		{
			"mesh":13,
			"name":"RL_straight_sleeper_9",
			"rotation":[
				2.3660790247959085e-05,
				0.009963433258235455,
				0.0023746381048113108,
				0.9999475479125977
			],
			"translation":[
				-0.018269633874297142,
				0.05000000074505806,
				-2.200000047683716
			]
		},
		{
			"mesh":14,
			"name":"RL_straight_sleeper_10",
			"rotation":[
				-7.829118840163574e-05,
				-0.010384186170995235,
				0.007538842502981424,
				0.99991774559021
			],
			"translation":[
				0.01271082740277052,
				0.05000000074505806,
				-2.799999952316284
			]
		}
	],
	"materials":[
		{
			"doubleSided":true,
			"name":"MAT_RustyMetal_EXPORT",
			"normalTexture":{
				"index":0
			},
			"pbrMetallicRoughness":{
				"baseColorTexture":{
					"index":1
				},
				"metallicFactor":0,
				"metallicRoughnessTexture":{
					"index":2
				}
			}
		},
		{
			"doubleSided":true,
			"name":"MAT_Timber_EXPORT",
			"normalTexture":{
				"index":3
			},
			"pbrMetallicRoughness":{
				"baseColorTexture":{
					"index":4
				},
				"metallicFactor":0,
				"metallicRoughnessTexture":{
					"index":5
				}
			}
		}
	],
	"meshes":[
		{
			"name":"RL_straight_foot_L",
			"primitives":[
				{
					"attributes":{
						"POSITION":0,
						"NORMAL":1,
						"TEXCOORD_0":2
					},
					"indices":3,
					"material":0
				}
			]
		},
		{
			"name":"RL_straight_foot_R",
			"primitives":[
				{
					"attributes":{
						"POSITION":4,
						"NORMAL":5,
						"TEXCOORD_0":6
					},
					"indices":3,
					"material":0
				}
			]
		},
		{
			"name":"RL_straight_rail_L",
			"primitives":[
				{
					"attributes":{
						"POSITION":7,
						"NORMAL":8,
						"TEXCOORD_0":9
					},
					"indices":3,
					"material":0
				}
			]
		},
		{
			"name":"RL_straight_rail_R",
			"primitives":[
				{
					"attributes":{
						"POSITION":10,
						"NORMAL":11,
						"TEXCOORD_0":12
					},
					"indices":3,
					"material":0
				}
			]
		},
		{
			"name":"RL_straight_sleeper_0",
			"primitives":[
				{
					"attributes":{
						"POSITION":13,
						"NORMAL":14,
						"TEXCOORD_0":15
					},
					"indices":16,
					"material":1
				}
			]
		},
		{
			"name":"RL_straight_sleeper_1",
			"primitives":[
				{
					"attributes":{
						"POSITION":17,
						"NORMAL":18,
						"TEXCOORD_0":19
					},
					"indices":16,
					"material":1
				}
			]
		},
		{
			"name":"RL_straight_sleeper_2",
			"primitives":[
				{
					"attributes":{
						"POSITION":20,
						"NORMAL":21,
						"TEXCOORD_0":22
					},
					"indices":16,
					"material":1
				}
			]
		},
		{
			"name":"RL_straight_sleeper_3",
			"primitives":[
				{
					"attributes":{
						"POSITION":23,
						"NORMAL":24,
						"TEXCOORD_0":25
					},
					"indices":16,
					"material":1
				}
			]
		},
		{
			"name":"RL_straight_sleeper_4",
			"primitives":[
				{
					"attributes":{
						"POSITION":26,
						"NORMAL":27,
						"TEXCOORD_0":28
					},
					"indices":16,
					"material":1
				}
			]
		},
		{
			"name":"RL_straight_sleeper_5",
			"primitives":[
				{
					"attributes":{
						"POSITION":29,
						"NORMAL":30,
						"TEXCOORD_0":31
					},
					"indices":16,
					"material":1
				}
			]
		},
		{
			"name":"RL_straight_sleeper_6",
			"primitives":[
				{
					"attributes":{
						"POSITION":32,
						"NORMAL":33,
						"TEXCOORD_0":34
					},
					"indices":16,
					"material":1
				}
			]
		},
		{
			"name":"RL_straight_sleeper_7",
			"primitives":[
				{
					"attributes":{
						"POSITION":35,
						"NORMAL":36,
						"TEXCOORD_0":37
					},
					"indices":16,
					"material":1
				}
			]
		},
		{
			"name":"RL_straight_sleeper_8",
			"primitives":[
				{
					"attributes":{
						"POSITION":38,
						"NORMAL":39,
						"TEXCOORD_0":40
					},
					"indices":16,
					"material":1
				}
			]
		},
		{
			"name":"RL_straight_sleeper_9",
			"primitives":[
				{
					"attributes":{
						"POSITION":41,
						"NORMAL":42,
						"TEXCOORD_0":43
					},
					"indices":16,
					"material":1
				}
			]
		},
		{
			"name":"RL_straight_sleeper_10",
			"primitives":[
				{
					"attributes":{
						"POSITION":44,
						"NORMAL":45,
						"TEXCOORD_0":46
					},
					"indices":16,
					"material":1
				}
			]
		}
	],
	"textures":[
		{
			"sampler":0,
			"source":0
		},
		{
			"sampler":0,
			"source":1
		},
		{
			"sampler":0,
			"source":2
		},
		{
			"sampler":0,
			"source":3
		},
		{
			"sampler":0,
			"source":4
		},
		{
			"sampler":0,
			"source":5
		}
	],
	"images":[
		{
			"mimeType":"image/jpeg",
			"name":"rusty_metal_02_nor_gl",
			"uri":"textures/rusty_metal_02_nor_gl.jpg"
		},
		{
			"mimeType":"image/jpeg",
			"name":"rusty_metal_02_Diffuse",
			"uri":"textures/rusty_metal_02_Diffuse.jpg"
		},
		{
			"mimeType":"image/jpeg",
			"name":"rusty_metal_02_Rough",
			"uri":"textures/rusty_metal_02_Rough.jpg"
		},
		{
			"mimeType":"image/jpeg",
			"name":"dark_wooden_planks_nor_gl",
			"uri":"textures/dark_wooden_planks_nor_gl.jpg"
		},
		{
			"mimeType":"image/jpeg",
			"name":"dark_wooden_planks_Diffuse",
			"uri":"textures/dark_wooden_planks_Diffuse.jpg"
		},
		{
			"mimeType":"image/jpeg",
			"name":"dark_wooden_planks_Rough",
			"uri":"textures/dark_wooden_planks_Rough.jpg"
		}
	],
	"accessors":[
		{
			"bufferView":0,
			"componentType":5126,
			"count":24,
			"max":[
				0.05999999865889549,
				0.009999999776482582,
				3.5
			],
			"min":[
				-0.05999999865889549,
				-0.009999999776482582,
				-3.5
			],
			"type":"VEC3"
		},
		{
			"bufferView":1,
			"componentType":5126,
			"count":24,
			"type":"VEC3"
		},
		{
			"bufferView":2,
			"componentType":5126,
			"count":24,
			"type":"VEC2"
		},
		{
			"bufferView":3,
			"componentType":5123,
			"count":36,
			"type":"SCALAR"
		},
		{
			"bufferView":4,
			"componentType":5126,
			"count":24,
			"max":[
				0.05999999865889549,
				0.009999999776482582,
				3.5
			],
			"min":[
				-0.05999999865889549,
				-0.009999999776482582,
				-3.5
			],
			"type":"VEC3"
		},
		{
			"bufferView":5,
			"componentType":5126,
			"count":24,
			"type":"VEC3"
		},
		{
			"bufferView":6,
			"componentType":5126,
			"count":24,
			"type":"VEC2"
		},
		{
			"bufferView":7,
			"componentType":5126,
			"count":24,
			"max":[
				0.029999999329447746,
				0.05000000074505806,
				3.5
			],
			"min":[
				-0.029999999329447746,
				-0.05000000074505806,
				-3.5
			],
			"type":"VEC3"
		},
		{
			"bufferView":8,
			"componentType":5126,
			"count":24,
			"type":"VEC3"
		},
		{
			"bufferView":9,
			"componentType":5126,
			"count":24,
			"type":"VEC2"
		},
		{
			"bufferView":10,
			"componentType":5126,
			"count":24,
			"max":[
				0.029999999329447746,
				0.05000000074505806,
				3.5
			],
			"min":[
				-0.029999999329447746,
				-0.05000000074505806,
				-3.5
			],
			"type":"VEC3"
		},
		{
			"bufferView":11,
			"componentType":5126,
			"count":24,
			"type":"VEC3"
		},
		{
			"bufferView":12,
			"componentType":5126,
			"count":24,
			"type":"VEC2"
		},
		{
			"bufferView":13,
			"componentType":5126,
			"count":96,
			"max":[
				0.6000000238418579,
				0.05000000074505806,
				0.10000000149011612
			],
			"min":[
				-0.6000000238418579,
				-0.05000000074505806,
				-0.10000000149011612
			],
			"type":"VEC3"
		},
		{
			"bufferView":14,
			"componentType":5126,
			"count":96,
			"type":"VEC3"
		},
		{
			"bufferView":15,
			"componentType":5126,
			"count":96,
			"type":"VEC2"
		},
		{
			"bufferView":16,
			"componentType":5123,
			"count":132,
			"type":"SCALAR"
		},
		{
			"bufferView":17,
			"componentType":5126,
			"count":96,
			"max":[
				0.6000000238418579,
				0.05000000074505806,
				0.10000000149011612
			],
			"min":[
				-0.6000000238418579,
				-0.05000000074505806,
				-0.10000000149011612
			],
			"type":"VEC3"
		},
		{
			"bufferView":18,
			"componentType":5126,
			"count":96,
			"type":"VEC3"
		},
		{
			"bufferView":19,
			"componentType":5126,
			"count":96,
			"type":"VEC2"
		},
		{
			"bufferView":20,
			"componentType":5126,
			"count":96,
			"max":[
				0.6000000238418579,
				0.05000000074505806,
				0.10000000149011612
			],
			"min":[
				-0.6000000238418579,
				-0.05000000074505806,
				-0.10000000149011612
			],
			"type":"VEC3"
		},
		{
			"bufferView":21,
			"componentType":5126,
			"count":96,
			"type":"VEC3"
		},
		{
			"bufferView":22,
			"componentType":5126,
			"count":96,
			"type":"VEC2"
		},
		{
			"bufferView":23,
			"componentType":5126,
			"count":96,
			"max":[
				0.6000000238418579,
				0.05000000074505806,
				0.10000000149011612
			],
			"min":[
				-0.6000000238418579,
				-0.05000000074505806,
				-0.10000000149011612
			],
			"type":"VEC3"
		},
		{
			"bufferView":24,
			"componentType":5126,
			"count":96,
			"type":"VEC3"
		},
		{
			"bufferView":25,
			"componentType":5126,
			"count":96,
			"type":"VEC2"
		},
		{
			"bufferView":26,
			"componentType":5126,
			"count":96,
			"max":[
				0.6000000238418579,
				0.05000000074505806,
				0.10000000149011612
			],
			"min":[
				-0.6000000238418579,
				-0.05000000074505806,
				-0.10000000149011612
			],
			"type":"VEC3"
		},
		{
			"bufferView":27,
			"componentType":5126,
			"count":96,
			"type":"VEC3"
		},
		{
			"bufferView":28,
			"componentType":5126,
			"count":96,
			"type":"VEC2"
		},
		{
			"bufferView":29,
			"componentType":5126,
			"count":96,
			"max":[
				0.6000000238418579,
				0.05000000074505806,
				0.10000000149011612
			],
			"min":[
				-0.6000000238418579,
				-0.05000000074505806,
				-0.10000000149011612
			],
			"type":"VEC3"
		},
		{
			"bufferView":30,
			"componentType":5126,
			"count":96,
			"type":"VEC3"
		},
		{
			"bufferView":31,
			"componentType":5126,
			"count":96,
			"type":"VEC2"
		},
		{
			"bufferView":32,
			"componentType":5126,
			"count":96,
			"max":[
				0.6000000238418579,
				0.05000000074505806,
				0.10000000149011612
			],
			"min":[
				-0.6000000238418579,
				-0.05000000074505806,
				-0.10000000149011612
			],
			"type":"VEC3"
		},
		{
			"bufferView":33,
			"componentType":5126,
			"count":96,
			"type":"VEC3"
		},
		{
			"bufferView":34,
			"componentType":5126,
			"count":96,
			"type":"VEC2"
		},
		{
			"bufferView":35,
			"componentType":5126,
			"count":96,
			"max":[
				0.6000000238418579,
				0.05000000074505806,
				0.10000000149011612
			],
			"min":[
				-0.6000000238418579,
				-0.05000000074505806,
				-0.10000000149011612
			],
			"type":"VEC3"
		},
		{
			"bufferView":36,
			"componentType":5126,
			"count":96,
			"type":"VEC3"
		},
		{
			"bufferView":37,
			"componentType":5126,
			"count":96,
			"type":"VEC2"
		},
		{
			"bufferView":38,
			"componentType":5126,
			"count":96,
			"max":[
				0.6000000238418579,
				0.05000000074505806,
				0.10000000149011612
			],
			"min":[
				-0.6000000238418579,
				-0.05000000074505806,
				-0.10000000149011612
			],
			"type":"VEC3"
		},
		{
			"bufferView":39,
			"componentType":5126,
			"count":96,
			"type":"VEC3"
		},
		{
			"bufferView":40,
			"componentType":5126,
			"count":96,
			"type":"VEC2"
		},
		{
			"bufferView":41,
			"componentType":5126,
			"count":96,
			"max":[
				0.6000000238418579,
				0.05000000074505806,
				0.10000000149011612
			],
			"min":[
				-0.6000000238418579,
				-0.05000000074505806,
				-0.10000000149011612
			],
			"type":"VEC3"
		},
		{
			"bufferView":42,
			"componentType":5126,
			"count":96,
			"type":"VEC3"
		},
		{
			"bufferView":43,
			"componentType":5126,
			"count":96,
			"type":"VEC2"
		},
		{
			"bufferView":44,
			"componentType":5126,
			"count":96,
			"max":[
				0.6000000238418579,
				0.05000000074505806,
				0.10000000149011612
			],
			"min":[
				-0.6000000238418579,
				-0.05000000074505806,
				-0.10000000149011612
			],
			"type":"VEC3"
		},
		{
			"bufferView":45,
			"componentType":5126,
			"count":96,
			"type":"VEC3"
		},
		{
			"bufferView":46,
			"componentType":5126,
			"count":96,
			"type":"VEC2"
		}
	],
	"bufferViews":[
		{
			"buffer":0,
			"byteLength":288,
			"byteOffset":0,
			"target":34962
		},
		{
			"buffer":0,
			"byteLength":288,
			"byteOffset":288,
			"target":34962
		},
		{
			"buffer":0,
			"byteLength":192,
			"byteOffset":576,
			"target":34962
		},
		{
			"buffer":0,
			"byteLength":72,
			"byteOffset":768,
			"target":34963
		},
		{
			"buffer":0,
			"byteLength":288,
			"byteOffset":840,
			"target":34962
		},
		{
			"buffer":0,
			"byteLength":288,
			"byteOffset":1128,
			"target":34962
		},
		{
			"buffer":0,
			"byteLength":192,
			"byteOffset":1416,
			"target":34962
		},
		{
			"buffer":0,
			"byteLength":288,
			"byteOffset":1608,
			"target":34962
		},
		{
			"buffer":0,
			"byteLength":288,
			"byteOffset":1896,
			"target":34962
		},
		{
			"buffer":0,
			"byteLength":192,
			"byteOffset":2184,
			"target":34962
		},
		{
			"buffer":0,
			"byteLength":288,
			"byteOffset":2376,
			"target":34962
		},
		{
			"buffer":0,
			"byteLength":288,
			"byteOffset":2664,
			"target":34962
		},
		{
			"buffer":0,
			"byteLength":192,
			"byteOffset":2952,
			"target":34962
		},
		{
			"buffer":0,
			"byteLength":1152,
			"byteOffset":3144,
			"target":34962
		},
		{
			"buffer":0,
			"byteLength":1152,
			"byteOffset":4296,
			"target":34962
		},
		{
			"buffer":0,
			"byteLength":768,
			"byteOffset":5448,
			"target":34962
		},
		{
			"buffer":0,
			"byteLength":264,
			"byteOffset":6216,
			"target":34963
		},
		{
			"buffer":0,
			"byteLength":1152,
			"byteOffset":6480,
			"target":34962
		},
		{
			"buffer":0,
			"byteLength":1152,
			"byteOffset":7632,
			"target":34962
		},
		{
			"buffer":0,
			"byteLength":768,
			"byteOffset":8784,
			"target":34962
		},
		{
			"buffer":0,
			"byteLength":1152,
			"byteOffset":9552,
			"target":34962
		},
		{
			"buffer":0,
			"byteLength":1152,
			"byteOffset":10704,
			"target":34962
		},
		{
			"buffer":0,
			"byteLength":768,
			"byteOffset":11856,
			"target":34962
		},
		{
			"buffer":0,
			"byteLength":1152,
			"byteOffset":12624,
			"target":34962
		},
		{
			"buffer":0,
			"byteLength":1152,
			"byteOffset":13776,
			"target":34962
		},
		{
			"buffer":0,
			"byteLength":768,
			"byteOffset":14928,
			"target":34962
		},
		{
			"buffer":0,
			"byteLength":1152,
			"byteOffset":15696,
			"target":34962
		},
		{
			"buffer":0,
			"byteLength":1152,
			"byteOffset":16848,
			"target":34962
		},
		{
			"buffer":0,
			"byteLength":768,
			"byteOffset":18000,
			"target":34962
		},
		{
			"buffer":0,
			"byteLength":1152,
			"byteOffset":18768,
			"target":34962
		},
		{
			"buffer":0,
			"byteLength":1152,
			"byteOffset":19920,
			"target":34962
		},
		{
			"buffer":0,
			"byteLength":768,
			"byteOffset":21072,
			"target":34962
		},
		{
			"buffer":0,
			"byteLength":1152,
			"byteOffset":21840,
			"target":34962
		},
		{
			"buffer":0,
			"byteLength":1152,
			"byteOffset":22992,
			"target":34962
		},
		{
			"buffer":0,
			"byteLength":768,
			"byteOffset":24144,
			"target":34962
		},
		{
			"buffer":0,
			"byteLength":1152,
			"byteOffset":24912,
			"target":34962
		},
		{
			"buffer":0,
			"byteLength":1152,
			"byteOffset":26064,
			"target":34962
		},
		{
			"buffer":0,
			"byteLength":768,
			"byteOffset":27216,
			"target":34962
		},
		{
			"buffer":0,
			"byteLength":1152,
			"byteOffset":27984,
			"target":34962
		},
		{
			"buffer":0,
			"byteLength":1152,
			"byteOffset":29136,
			"target":34962
		},
		{
			"buffer":0,
			"byteLength":768,
			"byteOffset":30288,
			"target":34962
		},
		{
			"buffer":0,
			"byteLength":1152,
			"byteOffset":31056,
			"target":34962
		},
		{
			"buffer":0,
			"byteLength":1152,
			"byteOffset":32208,
			"target":34962
		},
		{
			"buffer":0,
			"byteLength":768,
			"byteOffset":33360,
			"target":34962
		},
		{
			"buffer":0,
			"byteLength":1152,
			"byteOffset":34128,
			"target":34962
		},
		{
			"buffer":0,
			"byteLength":1152,
			"byteOffset":35280,
			"target":34962
		},
		{
			"buffer":0,
			"byteLength":768,
			"byteOffset":36432,
			"target":34962
		}
	],
	"samplers":[
		{
			"magFilter":9729,
			"minFilter":9987
		}
	],
	"buffers":[
		{
			"byteLength":37200,
			"uri":"rail_straight.bin"
		}
	]
}
