{
	"asset":{
		"generator":"Khronos glTF Blender I/O v5.2.39",
		"version":"2.0"
	},
	"scene":0,
	"scenes":[
		{
			"name":"Scene",
			"nodes":[
				0,
				1,
				2,
				3,
				4,
				5,
				6,
				7,
				8,
				9,
				10,
				11,
				12,
				13,
				14,
				15,
				16,
				17,
				18,
				19,
				20,
				21,
				22,
				23,
				24
			]
		}
	],
	"nodes":[
		{
			"mesh":0,
			"name":"RL_turnout_c_foot_L"
		},
		{
			"mesh":1,
			"name":"RL_turnout_c_foot_R"
		},
		{
			"mesh":2,
			"name":"RL_turnout_c_rail_L"
		},
		{
			"mesh":3,
			"name":"RL_turnout_c_rail_R"
		},
		{
			"mesh":4,
			"name":"RL_turnout_c_sleeper_0",
			"rotation":[
				0,
				0.3420201539993286,
				0,
				0.9396926760673523
			],
			"translation":[
				-0.8188445568084717,
				0.05000000074505806,
				1.2502431869506836
			]
		},
		{
			"mesh":5,
			"name":"RL_turnout_c_sleeper_1",
			"rotation":[
				0,
				0.4226182699203491,
				0,
				0.9063078165054321
			],
			"translation":[
				-1.2502431869506836,
				0.05000000074505806,
				0.8188445568084717
			]
		},
		{
			"mesh":6,
			"name":"RL_turnout_c_sleeper_2",
			"rotation":[
				0,
				0.5,
				0,
				0.8660253882408142
			],
			"translation":[
				-1.75,
				0.05000000074505806,
				0.46891117095947266
			]
		},
		{
			"mesh":7,
			"name":"RL_turnout_c_sleeper_3",
			"rotation":[
				0,
				0.5735764503479004,
				0,
				0.8191521763801575
			],
			"translation":[
				-2.302929401397705,
				0.05000000074505806,
				0.2110757827758789
			]
		},
		{
			"mesh":8,
			"name":"RL_turnout_c_sleeper_4",
			"rotation":[
				0,
				0.6427876949310303,
				0,
				0.7660444378852844
			],
			"translation":[
				-2.8922314643859863,
				0.05000000074505806,
				0.053173065185546875
			]
		},
		{
			"mesh":9,
			"name":"RL_turnout_c_sleeper_5",
			"rotation":[
				0,
				0.7071068286895752,
				0,
				0.7071068286895752
			],
			"translation":[
				-3.5,
				0.05000000074505806,
				0
			]
		},
		{
			"mesh":10,
			"name":"RL_turnout_foot_L",
			"translation":[
				-0.30000001192092896,
				0.10999999940395355,
				0
			]
		},
		{
			"mesh":11,
			"name":"RL_turnout_foot_R",
			"translation":[
				0.30000001192092896,
				0.10999999940395355,
				0
			]
		},
		{
			"mesh":12,
			"name":"RL_turnout_rail_L",
			"translation":[
				-0.30000001192092896,
				0.15000000596046448,
				0
			]
		},
		{
			"mesh":13,
			"name":"RL_turnout_rail_R",
			"translation":[
				0.30000001192092896,
				0.15000000596046448,
				0
			]
		},
		{
			"mesh":14,
			"name":"RL_turnout_sleeper_0",
			"rotation":[
				-3.4163258533226326e-05,
				-0.0043004523031413555,
				0.007943784818053246,
				0.9999592304229736
			],
			"translation":[
				-0.00994072761386633,
				0.05000000074505806,
				3.200000047683716
			]
		},
		{
			"mesh":15,
			"name":"RL_turnout_sleeper_1",
			"rotation":[
				0,
				-0.0014158474514260888,
				-0.00042705406667664647,
				1
			],
			"translation":[
				0.01212852168828249,
				0.05000000074505806,
				2.5999999046325684
			]
		},
		{
			"mesh":16,
			"name":"RL_turnout_sleeper_2",
			"rotation":[
				3.1143947126111016e-05,
				0.014908275566995144,
				0.002088801236823201,
				0.999886691570282
			],
			"translation":[
				-0.016479989513754845,
				0.05000000074505806,
				2
			]
		},
		{
			"mesh":17,
			"name":"RL_turnout_sleeper_3",
			"rotation":[
				0,
				-0.000649800174869597,
				0.0010137079516425729,
				1
			],
			"translation":[
				0.007800627499818802,
				0.05000000074505806,
				1.399999976158142
			]
		},
		{
			"mesh":18,
			"name":"RL_turnout_sleeper_4",
			"rotation":[
				5.436591527541168e-05,
				-0.0105032529681921,
				-0.005175748839974403,
				0.9999315142631531
			],
			"translation":[
				0.011931264773011208,
				0.05000000074505806,
				0.800000011920929
			]
		},
		{
			"mesh":19,
			"name":"RL_turnout_sleeper_5",
			"rotation":[
				0,
				0.0006208103732205927,
				0.0026614880189299583,
				0.9999963045120239
			],
			"translation":[
				0.007207197602838278,
				0.05000000074505806,
				0.20000000298023224
			]
		},
		{
			"mesh":20,
			"name":"RL_turnout_sleeper_6",
			"rotation":[
				-1.2398320905049331e-05,
				-0.004797128029167652,
				0.0025844916235655546,
				0.9999851584434509
			],
			"translation":[
				-0.010494829155504704,
				0.05000000074505806,
				-0.4000000059604645
			]
		},
		{
			"mesh":21,
			"name":"RL_turnout_sleeper_7",
			"rotation":[
				-8.65527254063636e-05,
				-0.00897387694567442,
				0.009644129313528538,
				0.9999133348464966
			],
			"translation":[
				-0.004754671826958656,
				0.05000000074505806,
				-1
			]
		},
		{
			"mesh":22,
			"name":"RL_turnout_sleeper_8",
			"rotation":[
				-8.532928040949628e-05,
				-0.009646590799093246,
				0.008844781666994095,
				0.9999144673347473
			],
			"translation":[
				0.002821998903527856,
				0.05000000074505806,
				-1.600000023841858
			]
		},
		{
			"mesh":23,
			"name":"RL_turnout_sleeper_9",
			"rotation":[
				-2.3800652343197726e-05,
				-0.005279504228383303,
				0.004508013371378183,
				0.9999759197235107
			],
			"translation":[
				0.008727220818400383,
				0.05000000074505806,
				-2.200000047683716
			]
		},
		{
			"mesh":24,
			"name":"RL_turnout_sleeper_10",
			"rotation":[
				8.192972745746374e-05,
				-0.012259557843208313,
				-0.006682275328785181,
				0.9999025464057922
			],
			"translation":[
				-0.010326736606657505,
				0.05000000074505806,
				-2.799999952316284
			]
		}
	],
	"materials":[
		{
			"doubleSided":true,
			"name":"MAT_RustyMetal_EXPORT",
			"normalTexture":{
				"index":0
			},
			"pbrMetallicRoughness":{
				"baseColorTexture":{
					"index":1
				},
				"metallicFactor":0,
				"metallicRoughnessTexture":{
					"index":2
				}
			}
		},
		{
			"doubleSided":true,
			"name":"MAT_Timber_EXPORT",
			"normalTexture":{
				"index":3
			},
			"pbrMetallicRoughness":{
				"baseColorTexture":{
					"index":4
				},
				"metallicFactor":0,
				"metallicRoughnessTexture":{
					"index":5
				}
			}
		}
	],
	"meshes":[
		{
			"name":"RL_turnout_c_foot_L",
			"primitives":[
				{
					"attributes":{
						"POSITION":0,
						"NORMAL":1,
						"TEXCOORD_0":2
					},
					"indices":3,
					"material":0
				}
			]
		},
		{
			"name":"RL_turnout_c_foot_R",
			"primitives":[
				{
					"attributes":{
						"POSITION":4,
						"NORMAL":5,
						"TEXCOORD_0":6
					},
					"indices":3,
					"material":0
				}
			]
		},
		{
			"name":"RL_turnout_c_rail_L",
			"primitives":[
				{
					"attributes":{
						"POSITION":7,
						"NORMAL":8,
						"TEXCOORD_0":9
					},
					"indices":3,
					"material":0
				}
			]
		},
		{
			"name":"RL_turnout_c_rail_R",
			"primitives":[
				{
					"attributes":{
						"POSITION":10,
						"NORMAL":11,
						"TEXCOORD_0":12
					},
					"indices":3,
					"material":0
				}
			]
		},
		{
			"name":"RL_turnout_c_sleeper_0",
			"primitives":[
				{
					"attributes":{
						"POSITION":13,
						"NORMAL":14,
						"TEXCOORD_0":15
					},
					"indices":16,
					"material":1
				}
			]
		},
		{
			"name":"RL_turnout_c_sleeper_1",
			"primitives":[
				{
					"attributes":{
						"POSITION":17,
						"NORMAL":18,
						"TEXCOORD_0":19
					},
					"indices":16,
					"material":1
				}
			]
		},
		{
			"name":"RL_turnout_c_sleeper_2",
			"primitives":[
				{
					"attributes":{
						"POSITION":20,
						"NORMAL":21,
						"TEXCOORD_0":22
					},
					"indices":16,
					"material":1
				}
			]
		},
		{
			"name":"RL_turnout_c_sleeper_3",
			"primitives":[
				{
					"attributes":{
						"POSITION":23,
						"NORMAL":24,
						"TEXCOORD_0":25
					},
					"indices":16,
					"material":1
				}
			]
		},
		{
			"name":"RL_turnout_c_sleeper_4",
			"primitives":[
				{
					"attributes":{
						"POSITION":26,
						"NORMAL":27,
						"TEXCOORD_0":28
					},
					"indices":16,
					"material":1
				}
			]
		},
		{
			"name":"RL_turnout_c_sleeper_5",
			"primitives":[
				{
					"attributes":{
						"POSITION":29,
						"NORMAL":30,
						"TEXCOORD_0":31
					},
					"indices":16,
					"material":1
				}
			]
		},
		{
			"name":"RL_turnout_foot_L",
			"primitives":[
				{
					"attributes":{
						"POSITION":32,
						"NORMAL":33,
						"TEXCOORD_0":34
					},
					"indices":35,
					"material":0
				}
			]
		},
		{
			"name":"RL_turnout_foot_R",
			"primitives":[
				{
					"attributes":{
						"POSITION":36,
						"NORMAL":37,
						"TEXCOORD_0":38
					},
					"indices":35,
					"material":0
				}
			]
		},
		{
			"name":"RL_turnout_rail_L",
			"primitives":[
				{
					"attributes":{
						"POSITION":39,
						"NORMAL":40,
						"TEXCOORD_0":41
					},
					"indices":35,
					"material":0
				}
			]
		},
		{
			"name":"RL_turnout_rail_R",
			"primitives":[
				{
					"attributes":{
						"POSITION":42,
						"NORMAL":43,
						"TEXCOORD_0":44
					},
					"indices":35,
					"material":0
				}
			]
		},
		{
			"name":"RL_turnout_sleeper_0",
			"primitives":[
				{
					"attributes":{
						"POSITION":45,
						"NORMAL":46,
						"TEXCOORD_0":47
					},
					"indices":16,
					"material":1
				}
			]
		},
		{
			"name":"RL_turnout_sleeper_1",
			"primitives":[
				{
					"attributes":{
						"POSITION":48,
						"NORMAL":49,
						"TEXCOORD_0":50
					},
					"indices":16,
					"material":1
				}
			]
		},
		{
			"name":"RL_turnout_sleeper_2",
			"primitives":[
				{
					"attributes":{
						"POSITION":51,
						"NORMAL":52,
						"TEXCOORD_0":53
					},
					"indices":16,
					"material":1
				}
			]
		},
		{
			"name":"RL_turnout_sleeper_3",
			"primitives":[
				{
					"attributes":{
						"POSITION":54,
						"NORMAL":55,
						"TEXCOORD_0":56
					},
					"indices":16,
					"material":1
				}
			]
		},
		{
			"name":"RL_turnout_sleeper_4",
			"primitives":[
				{
					"attributes":{
						"POSITION":57,
						"NORMAL":58,
						"TEXCOORD_0":59
					},
					"indices":16,
					"material":1
				}
			]
		},
		{
			"name":"RL_turnout_sleeper_5",
			"primitives":[
				{
					"attributes":{
						"POSITION":60,
						"NORMAL":61,
						"TEXCOORD_0":62
					},
					"indices":16,
					"material":1
				}
			]
		},
		{
			"name":"RL_turnout_sleeper_6",
			"primitives":[
				{
					"attributes":{
						"POSITION":63,
						"NORMAL":64,
						"TEXCOORD_0":65
					},
					"indices":16,
					"material":1
				}
			]
		},
		{
			"name":"RL_turnout_sleeper_7",
			"primitives":[
				{
					"attributes":{
						"POSITION":66,
						"NORMAL":67,
						"TEXCOORD_0":68
					},
					"indices":16,
					"material":1
				}
			]
		},
		{
			"name":"RL_turnout_sleeper_8",
			"primitives":[
				{
					"attributes":{
						"POSITION":69,
						"NORMAL":70,
						"TEXCOORD_0":71
					},
					"indices":16,
					"material":1
				}
			]
		},
		{
			"name":"RL_turnout_sleeper_9",
			"primitives":[
				{
					"attributes":{
						"POSITION":72,
						"NORMAL":73,
						"TEXCOORD_0":74
					},
					"indices":16,
					"material":1
				}
			]
		},
		{
			"name":"RL_turnout_sleeper_10",
			"primitives":[
				{
					"attributes":{
						"POSITION":75,
						"NORMAL":76,
						"TEXCOORD_0":77
					},
					"indices":16,
					"material":1
				}
			]
		}
	],
	"textures":[
		{
			"sampler":0,
			"source":0
		},
		{
			"sampler":0,
			"source":1
		},
		{
			"sampler":0,
			"source":2
		},
		{
			"sampler":0,
			"source":3
		},
		{
			"sampler":0,
			"source":4
		},
		{
			"sampler":0,
			"source":5
		}
	],
	"images":[
		{
			"mimeType":"image/jpeg",
			"name":"rusty_metal_02_nor_gl",
			"uri":"textures/rusty_metal_02_nor_gl.jpg"
		},
		{
			"mimeType":"image/jpeg",
			"name":"rusty_metal_02_Diffuse",
			"uri":"textures/rusty_metal_02_Diffuse.jpg"
		},
		{
			"mimeType":"image/jpeg",
			"name":"rusty_metal_02_Rough",
			"uri":"textures/rusty_metal_02_Rough.jpg"
		},
		{
			"mimeType":"image/jpeg",
			"name":"dark_wooden_planks_nor_gl",
			"uri":"textures/dark_wooden_planks_nor_gl.jpg"
		},
		{
			"mimeType":"image/jpeg",
			"name":"dark_wooden_planks_Diffuse",
			"uri":"textures/dark_wooden_planks_Diffuse.jpg"
		},
		{
			"mimeType":"image/jpeg",
			"name":"dark_wooden_planks_Rough",
			"uri":"textures/dark_wooden_planks_Rough.jpg"
		}
	],
	"accessors":[
		{
			"bufferView":0,
			"componentType":5126,
			"count":204,
			"max":[
				-0.24000000953674316,
				0.11999999731779099,
				3.5
			],
			"min":[
				-3.5,
				0.10000000149011612,
				0.24000000953674316
			],
			"type":"VEC3"
		},
		{
			"bufferView":1,
			"componentType":5126,
			"count":204,
			"type":"VEC3"
		},
		{
			"bufferView":2,
			"componentType":5126,
			"count":204,
			"type":"VEC2"
		},
		{
			"bufferView":3,
			"componentType":5123,
			"count":396,
			"type":"SCALAR"
		},
		{
			"bufferView":4,
			"componentType":5126,
			"count":204,
			"max":[
				0.3599998950958252,
				0.11999999731779099,
				3.5
			],
			"min":[
				-3.5,
				0.10000000149011612,
				-0.3599998950958252
			],
			"type":"VEC3"
		},
		{
			"bufferView":5,
			"componentType":5126,
			"count":204,
			"type":"VEC3"
		},
		{
			"bufferView":6,
			"componentType":5126,
			"count":204,
			"type":"VEC2"
		},
		{
			"bufferView":7,
			"componentType":5126,
			"count":204,
			"max":[
				-0.26999998092651367,
				0.20000000298023224,
				3.5
			],
			"min":[
				-3.5,
				0.10000000149011612,
				0.26999998092651367
			],
			"type":"VEC3"
		},
		{
			"bufferView":8,
			"componentType":5126,
			"count":204,
			"type":"VEC3"
		},
		{
			"bufferView":9,
			"componentType":5126,
			"count":204,
			"type":"VEC2"
		},
		{
			"bufferView":10,
			"componentType":5126,
			"count":204,
			"max":[
				0.3299999237060547,
				0.20000000298023224,
				3.5
			],
			"min":[
				-3.5,
				0.10000000149011612,
				-0.3299999237060547
			],
			"type":"VEC3"
		},
		{
			"bufferView":11,
			"componentType":5126,
			"count":204,
			"type":"VEC3"
		},
		{
			"bufferView":12,
			"componentType":5126,
			"count":204,
			"type":"VEC2"
		},
		{
			"bufferView":13,
			"componentType":5126,
			"count":96,
			"max":[
				0.6000000238418579,
				0.05000000074505806,
				0.10000000149011612
			],
			"min":[
				-0.6000000238418579,
				-0.05000000074505806,
				-0.10000000149011612
			],
			"type":"VEC3"
		},
		{
			"bufferView":14,
			"componentType":5126,
			"count":96,
			"type":"VEC3"
		},
		{
			"bufferView":15,
			"componentType":5126,
			"count":96,
			"type":"VEC2"
		},
		{
			"bufferView":16,
			"componentType":5123,
			"count":132,
			"type":"SCALAR"
		},
		{
			"bufferView":17,
			"componentType":5126,
			"count":96,
			"max":[
				0.6000000238418579,
				0.05000000074505806,
				0.10000000149011612
			],
			"min":[
				-0.6000000238418579,
				-0.05000000074505806,
				-0.10000000149011612
			],
			"type":"VEC3"
		},
		{
			"bufferView":18,
			"componentType":5126,
			"count":96,
			"type":"VEC3"
		},
		{
			"bufferView":19,
			"componentType":5126,
			"count":96,
			"type":"VEC2"
		},
		{
			"bufferView":20,
			"componentType":5126,
			"count":96,
			"max":[
				0.6000000238418579,
				0.05000000074505806,
				0.10000000149011612
			],
			"min":[
				-0.6000000238418579,
				-0.05000000074505806,
				-0.10000000149011612
			],
			"type":"VEC3"
		},
		{
			"bufferView":21,
			"componentType":5126,
			"count":96,
			"type":"VEC3"
		},
		{
			"bufferView":22,
			"componentType":5126,
			"count":96,
			"type":"VEC2"
		},
		{
			"bufferView":23,
			"componentType":5126,
			"count":96,
			"max":[
				0.6000000238418579,
				0.05000000074505806,
				0.10000000149011612
			],
			"min":[
				-0.6000000238418579,
				-0.05000000074505806,
				-0.10000000149011612
			],
			"type":"VEC3"
		},
		{
			"bufferView":24,
			"componentType":5126,
			"count":96,
			"type":"VEC3"
		},
		{
			"bufferView":25,
			"componentType":5126,
			"count":96,
			"type":"VEC2"
		},
		{
			"bufferView":26,
			"componentType":5126,
			"count":96,
			"max":[
				0.6000000238418579,
				0.05000000074505806,
				0.10000000149011612
			],
			"min":[
				-0.6000000238418579,
				-0.05000000074505806,
				-0.10000000149011612
			],
			"type":"VEC3"
		},
		{
			"bufferView":27,
			"componentType":5126,
			"count":96,
			"type":"VEC3"
		},
		{
			"bufferView":28,
			"componentType":5126,
			"count":96,
			"type":"VEC2"
		},
		{
			"bufferView":29,
			"componentType":5126,
			"count":96,
			"max":[
				0.6000000238418579,
				0.05000000074505806,
				0.10000000149011612
			],
			"min":[
				-0.6000000238418579,
				-0.05000000074505806,
				-0.10000000149011612
			],
			"type":"VEC3"
		},
		{
			"bufferView":30,
			"componentType":5126,
			"count":96,
			"type":"VEC3"
		},
		{
			"bufferView":31,
			"componentType":5126,
			"count":96,
			"type":"VEC2"
		},
		{
			"bufferView":32,
			"componentType":5126,
			"count":24,
			"max":[
				0.05999999865889549,
				0.009999999776482582,
				3.5
			],
			"min":[
				-0.05999999865889549,
				-0.009999999776482582,
				-3.5
			],
			"type":"VEC3"
		},
		{
			"bufferView":33,
			"componentType":5126,
			"count":24,
			"type":"VEC3"
		},
		{
			"bufferView":34,
			"componentType":5126,
			"count":24,
			"type":"VEC2"
		},
		{
			"bufferView":35,
			"componentType":5123,
			"count":36,
			"type":"SCALAR"
		},
		{
			"bufferView":36,
			"componentType":5126,
			"count":24,
			"max":[
				0.05999999865889549,
				0.009999999776482582,
				3.5
			],
			"min":[
				-0.05999999865889549,
				-0.009999999776482582,
				-3.5
			],
			"type":"VEC3"
		},
		{
			"bufferView":37,
			"componentType":5126,
			"count":24,
			"type":"VEC3"
		},
		{
			"bufferView":38,
			"componentType":5126,
			"count":24,
			"type":"VEC2"
		},
		{
			"bufferView":39,
			"componentType":5126,
			"count":24,
			"max":[
				0.029999999329447746,
				0.05000000074505806,
				3.5
			],
			"min":[
				-0.029999999329447746,
				-0.05000000074505806,
				-3.5
			],
			"type":"VEC3"
		},
		{
			"bufferView":40,
			"componentType":5126,
			"count":24,
			"type":"VEC3"
		},
		{
			"bufferView":41,
			"componentType":5126,
			"count":24,
			"type":"VEC2"
		},
		{
			"bufferView":42,
			"componentType":5126,
			"count":24,
			"max":[
				0.029999999329447746,
				0.05000000074505806,
				3.5
			],
			"min":[
				-0.029999999329447746,
				-0.05000000074505806,
				-3.5
			],
			"type":"VEC3"
		},
		{
			"bufferView":43,
			"componentType":5126,
			"count":24,
			"type":"VEC3"
		},
		{
			"bufferView":44,
			"componentType":5126,
			"count":24,
			"type":"VEC2"
		},
		{
			"bufferView":45,
			"componentType":5126,
			"count":96,
			"max":[
				0.6000000238418579,
				0.05000000074505806,
				0.10000000149011612
			],
			"min":[
				-0.6000000238418579,
				-0.05000000074505806,
				-0.10000000149011612
			],
			"type":"VEC3"
		},
		{
			"bufferView":46,
			"componentType":5126,
			"count":96,
			"type":"VEC3"
		},
		{
			"bufferView":47,
			"componentType":5126,
			"count":96,
			"type":"VEC2"
		},
		{
			"bufferView":48,
			"componentType":5126,
			"count":96,
			"max":[
				0.6000000238418579,
				0.05000000074505806,
				0.10000000149011612
			],
			"min":[
				-0.6000000238418579,
				-0.05000000074505806,
				-0.10000000149011612
			],
			"type":"VEC3"
		},
		{
			"bufferView":49,
			"componentType":5126,
			"count":96,
			"type":"VEC3"
		},
		{
			"bufferView":50,
			"componentType":5126,
			"count":96,
			"type":"VEC2"
		},
		{
			"bufferView":51,
			"componentType":5126,
			"count":96,
			"max":[
				0.6000000238418579,
				0.05000000074505806,
				0.10000000149011612
			],
			"min":[
				-0.6000000238418579,
				-0.05000000074505806,
				-0.10000000149011612
			],
			"type":"VEC3"
		},
		{
			"bufferView":52,
			"componentType":5126,
			"count":96,
			"type":"VEC3"
		},
		{
			"bufferView":53,
			"componentType":5126,
			"count":96,
			"type":"VEC2"
		},
		{
			"bufferView":54,
			"componentType":5126,
			"count":96,
			"max":[
				0.6000000238418579,
				0.05000000074505806,
				0.10000000149011612
			],
			"min":[
				-0.6000000238418579,
				-0.05000000074505806,
				-0.10000000149011612
			],
			"type":"VEC3"
		},
		{
			"bufferView":55,
			"componentType":5126,
			"count":96,
			"type":"VEC3"
		},
		{
			"bufferView":56,
			"componentType":5126,
			"count":96,
			"type":"VEC2"
		},
		{
			"bufferView":57,
			"componentType":5126,
			"count":96,
			"max":[
				0.6000000238418579,
				0.05000000074505806,
				0.10000000149011612
			],
			"min":[
				-0.6000000238418579,
				-0.05000000074505806,
				-0.10000000149011612
			],
			"type":"VEC3"
		},
		{
			"bufferView":58,
			"componentType":5126,
			"count":96,
			"type":"VEC3"
		},
		{
			"bufferView":59,
			"componentType":5126,
			"count":96,
			"type":"VEC2"
		},
		{
			"bufferView":60,
			"componentType":5126,
			"count":96,
			"max":[
				0.6000000238418579,
				0.05000000074505806,
				0.10000000149011612
			],
			"min":[
				-0.6000000238418579,
				-0.05000000074505806,
				-0.10000000149011612
			],
			"type":"VEC3"
		},
		{
			"bufferView":61,
			"componentType":5126,
			"count":96,
			"type":"VEC3"
		},
		{
			"bufferView":62,
			"componentType":5126,
			"count":96,
			"type":"VEC2"
		},
		{
			"bufferView":63,
			"componentType":5126,
			"count":96,
			"max":[
				0.6000000238418579,
				0.05000000074505806,
				0.10000000149011612
			],
			"min":[
				-0.6000000238418579,
				-0.05000000074505806,
				-0.10000000149011612
			],
			"type":"VEC3"
		},
		{
			"bufferView":64,
			"componentType":5126,
			"count":96,
			"type":"VEC3"
		},
		{
			"bufferView":65,
			"componentType":5126,
			"count":96,
			"type":"VEC2"
		},
		{
			"bufferView":66,
			"componentType":5126,
			"count":96,
			"max":[
				0.6000000238418579,
				0.05000000074505806,
				0.10000000149011612
			],
			"min":[
				-0.6000000238418579,
				-0.05000000074505806,
				-0.10000000149011612
			],
			"type":"VEC3"
		},
		{
			"bufferView":67,
			"componentType":5126,
			"count":96,
			"type":"VEC3"
		},
		{
			"bufferView":68,
			"componentType":5126,
			"count":96,
			"type":"VEC2"
		},
		{
			"bufferView":69,
			"componentType":5126,
			"count":96,
			"max":[
				0.6000000238418579,
				0.05000000074505806,
				0.10000000149011612
			],
			"min":[
				-0.6000000238418579,
				-0.05000000074505806,
				-0.10000000149011612
			],
			"type":"VEC3"
		},
		{
			"bufferView":70,
			"componentType":5126,
			"count":96,
			"type":"VEC3"
		},
		{
			"bufferView":71,
			"componentType":5126,
			"count":96,
			"type":"VEC2"
		},
		{
			"bufferView":72,
			"componentType":5126,
			"count":96,
			"max":[
				0.6000000238418579,
				0.05000000074505806,
				0.10000000149011612
			],
			"min":[
				-0.6000000238418579,
				-0.05000000074505806,
				-0.10000000149011612
			],
			"type":"VEC3"
		},
		{
			"bufferView":73,
			"componentType":5126,
			"count":96,
			"type":"VEC3"
		},
		{
			"bufferView":74,
			"componentType":5126,
			"count":96,
			"type":"VEC2"
		},
		{
			"bufferView":75,
			"componentType":5126,
			"count":96,
			"max":[
				0.6000000238418579,
				0.05000000074505806,
				0.10000000149011612
			],
			"min":[
				-0.6000000238418579,
				-0.05000000074505806,
				-0.10000000149011612
			],
			"type":"VEC3"
		},
		{
			"bufferView":76,
			"componentType":5126,
			"count":96,
			"type":"VEC3"
		},
		{
			"bufferView":77,
			"componentType":5126,
			"count":96,
			"type":"VEC2"
		}
	],
	"bufferViews":[
		{
			"buffer":0,
			"byteLength":2448,
			"byteOffset":0,
			"target":34962
		},
		{
			"buffer":0,
			"byteLength":2448,
			"byteOffset":2448,
			"target":34962
		},
		{
			"buffer":0,
			"byteLength":1632,
			"byteOffset":4896,
			"target":34962
		},
		{
			"buffer":0,
			"byteLength":792,
			"byteOffset":6528,
			"target":34963
		},
		{
			"buffer":0,
			"byteLength":2448,
			"byteOffset":7320,
			"target":34962
		},
		{
			"buffer":0,
			"byteLength":2448,
			"byteOffset":9768,
			"target":34962
		},
		{
			"buffer":0,
			"byteLength":1632,
			"byteOffset":12216,
			"target":34962
		},
		{
			"buffer":0,
			"byteLength":2448,
			"byteOffset":13848,
			"target":34962
		},
		{
			"buffer":0,
			"byteLength":2448,
			"byteOffset":16296,
			"target":34962
		},
		{
			"buffer":0,
			"byteLength":1632,
			"byteOffset":18744,
			"target":34962
		},
		{
			"buffer":0,
			"byteLength":2448,
			"byteOffset":20376,
			"target":34962
		},
		{
			"buffer":0,
			"byteLength":2448,
			"byteOffset":22824,
			"target":34962
		},
		{
			"buffer":0,
			"byteLength":1632,
			"byteOffset":25272,
			"target":34962
		},
		{
			"buffer":0,
			"byteLength":1152,
			"byteOffset":26904,
			"target":34962
		},
		{
			"buffer":0,
			"byteLength":1152,
			"byteOffset":28056,
			"target":34962
		},
		{
			"buffer":0,
			"byteLength":768,
			"byteOffset":29208,
			"target":34962
		},
		{
			"buffer":0,
			"byteLength":264,
			"byteOffset":29976,
			"target":34963
		},
		{
			"buffer":0,
			"byteLength":1152,
			"byteOffset":30240,
			"target":34962
		},
		{
			"buffer":0,
			"byteLength":1152,
			"byteOffset":31392,
			"target":34962
		},
		{
			"buffer":0,
			"byteLength":768,
			"byteOffset":32544,
			"target":34962
		},
		{
			"buffer":0,
			"byteLength":1152,
			"byteOffset":33312,
			"target":34962
		},
		{
			"buffer":0,
			"byteLength":1152,
			"byteOffset":34464,
			"target":34962
		},
		{
			"buffer":0,
			"byteLength":768,
			"byteOffset":35616,
			"target":34962
		},
		{
			"buffer":0,
			"byteLength":1152,
			"byteOffset":36384,
			"target":34962
		},
		{
			"buffer":0,
			"byteLength":1152,
			"byteOffset":37536,
			"target":34962
		},
		{
			"buffer":0,
			"byteLength":768,
			"byteOffset":38688,
			"target":34962
		},
		{
			"buffer":0,
			"byteLength":1152,
			"byteOffset":39456,
			"target":34962
		},
		{
			"buffer":0,
			"byteLength":1152,
			"byteOffset":40608,
			"target":34962
		},
		{
			"buffer":0,
			"byteLength":768,
			"byteOffset":41760,
			"target":34962
		},
		{
			"buffer":0,
			"byteLength":1152,
			"byteOffset":42528,
			"target":34962
		},
		{
			"buffer":0,
			"byteLength":1152,
			"byteOffset":43680,
			"target":34962
		},
		{
			"buffer":0,
			"byteLength":768,
			"byteOffset":44832,
			"target":34962
		},
		{
			"buffer":0,
			"byteLength":288,
			"byteOffset":45600,
			"target":34962
		},
		{
			"buffer":0,
			"byteLength":288,
			"byteOffset":45888,
			"target":34962
		},
		{
			"buffer":0,
			"byteLength":192,
			"byteOffset":46176,
			"target":34962
		},
		{
			"buffer":0,
			"byteLength":72,
			"byteOffset":46368,
			"target":34963
		},
		{
			"buffer":0,
			"byteLength":288,
			"byteOffset":46440,
			"target":34962
		},
		{
			"buffer":0,
			"byteLength":288,
			"byteOffset":46728,
			"target":34962
		},
		{
			"buffer":0,
			"byteLength":192,
			"byteOffset":47016,
			"target":34962
		},
		{
			"buffer":0,
			"byteLength":288,
			"byteOffset":47208,
			"target":34962
		},
		{
			"buffer":0,
			"byteLength":288,
			"byteOffset":47496,
			"target":34962
		},
		{
			"buffer":0,
			"byteLength":192,
			"byteOffset":47784,
			"target":34962
		},
		{
			"buffer":0,
			"byteLength":288,
			"byteOffset":47976,
			"target":34962
		},
		{
			"buffer":0,
			"byteLength":288,
			"byteOffset":48264,
			"target":34962
		},
		{
			"buffer":0,
			"byteLength":192,
			"byteOffset":48552,
			"target":34962
		},
		{
			"buffer":0,
			"byteLength":1152,
			"byteOffset":48744,
			"target":34962
		},
		{
			"buffer":0,
			"byteLength":1152,
			"byteOffset":49896,
			"target":34962
		},
		{
			"buffer":0,
			"byteLength":768,
			"byteOffset":51048,
			"target":34962
		},
		{
			"buffer":0,
			"byteLength":1152,
			"byteOffset":51816,
			"target":34962
		},
		{
			"buffer":0,
			"byteLength":1152,
			"byteOffset":52968,
			"target":34962
		},
		{
			"buffer":0,
			"byteLength":768,
			"byteOffset":54120,
			"target":34962
		},
		{
			"buffer":0,
			"byteLength":1152,
			"byteOffset":54888,
			"target":34962
		},
		{
			"buffer":0,
			"byteLength":1152,
			"byteOffset":56040,
			"target":34962
		},
		{
			"buffer":0,
			"byteLength":768,
			"byteOffset":57192,
			"target":34962
		},
		{
			"buffer":0,
			"byteLength":1152,
			"byteOffset":57960,
			"target":34962
		},
		{
			"buffer":0,
			"byteLength":1152,
			"byteOffset":59112,
			"target":34962
		},
		{
			"buffer":0,
			"byteLength":768,
			"byteOffset":60264,
			"target":34962
		},
		{
			"buffer":0,
			"byteLength":1152,
			"byteOffset":61032,
			"target":34962
		},
		{
			"buffer":0,
			"byteLength":1152,
			"byteOffset":62184,
			"target":34962
		},
		{
			"buffer":0,
			"byteLength":768,
			"byteOffset":63336,
			"target":34962
		},
		{
			"buffer":0,
			"byteLength":1152,
			"byteOffset":64104,
			"target":34962
		},
		{
			"buffer":0,
			"byteLength":1152,
			"byteOffset":65256,
			"target":34962
		},
		{
			"buffer":0,
			"byteLength":768,
			"byteOffset":66408,
			"target":34962
		},
		{
			"buffer":0,
			"byteLength":1152,
			"byteOffset":67176,
			"target":34962
		},
		{
			"buffer":0,
			"byteLength":1152,
			"byteOffset":68328,
			"target":34962
		},
		{
			"buffer":0,
			"byteLength":768,
			"byteOffset":69480,
			"target":34962
		},
		{
			"buffer":0,
			"byteLength":1152,
			"byteOffset":70248,
			"target":34962
		},
		{
			"buffer":0,
			"byteLength":1152,
			"byteOffset":71400,
			"target":34962
		},
		{
			"buffer":0,
			"byteLength":768,
			"byteOffset":72552,
			"target":34962
		},
		{
			"buffer":0,
			"byteLength":1152,
			"byteOffset":73320,
			"target":34962
		},
		{
			"buffer":0,
			"byteLength":1152,
			"byteOffset":74472,
			"target":34962
		},
		{
			"buffer":0,
			"byteLength":768,
			"byteOffset":75624,
			"target":34962
		},
		{
			"buffer":0,
			"byteLength":1152,
			"byteOffset":76392,
			"target":34962
		},
		{
			"buffer":0,
			"byteLength":1152,
			"byteOffset":77544,
			"target":34962
		},
		{
			"buffer":0,
			"byteLength":768,
			"byteOffset":78696,
			"target":34962
		},
		{
			"buffer":0,
			"byteLength":1152,
			"byteOffset":79464,
			"target":34962
		},
		{
			"buffer":0,
			"byteLength":1152,
			"byteOffset":80616,
			"target":34962
		},
		{
			"buffer":0,
			"byteLength":768,
			"byteOffset":81768,
			"target":34962
		}
	],
	"samplers":[
		{
			"magFilter":9729,
			"minFilter":9987
		}
	],
	"buffers":[
		{
			"byteLength":82536,
			"uri":"rail_turnout.bin"
		}
	]
}
