{
	"asset":{
		"generator":"Khronos glTF Blender I/O v5.2.39",
		"version":"2.0"
	},
	"scene":0,
	"scenes":[
		{
			"name":"Scene",
			"nodes":[
				0,
				1,
				2,
				3,
				4,
				5,
				6,
				7,
				8,
				9,
				10,
				11,
				12
			]
		}
	],
	"nodes":[
		{
			"mesh":0,
			"name":"RL_curve_foot_L"
		},
		{
			"mesh":1,
			"name":"RL_curve_foot_R"
		},
		{
			"mesh":2,
			"name":"RL_curve_rail_L"
		},
		{
			"mesh":3,
			"name":"RL_curve_rail_R"
		},
		{
			"mesh":4,
			"name":"RL_curve_sleeper_0",
			"rotation":[
				0,
				0.08715575188398361,
				0,
				0.9961947202682495
			],
			"translation":[
				-0.053173065185546875,
				0.05000000074505806,
				2.8922314643859863
			]
		},
		{
			"mesh":5,
			"name":"RL_curve_sleeper_1",
			"rotation":[
				0,
				0.1736481636762619,
				0,
				0.9848077893257141
			],
			"translation":[
				-0.2110757827758789,
				0.05000000074505806,
				2.302929401397705
			]
		},
		{
			"mesh":6,
			"name":"RL_curve_sleeper_2",
			"rotation":[
				0,
				0.2588190734386444,
				0,
				0.965925931930542
			],
			"translation":[
				-0.46891117095947266,
				0.05000000074505806,
				1.75
			]
		},
		{
			"mesh":7,
			"name":"RL_curve_sleeper_3",
			"rotation":[
				0,
				0.3420201539993286,
				0,
				0.9396926760673523
			],
			"translation":[
				-0.8188445568084717,
				0.05000000074505806,
				1.2502431869506836
			]
		},
		{
			"mesh":8,
			"name":"RL_curve_sleeper_4",
			"rotation":[
				0,
				0.4226182699203491,
				0,
				0.9063078165054321
			],
			"translation":[
				-1.2502431869506836,
				0.05000000074505806,
				0.8188445568084717
			]
		},
		{
			"mesh":9,
			"name":"RL_curve_sleeper_5",
			"rotation":[
				0,
				0.5,
				0,
				0.8660253882408142
			],
			"translation":[
				-1.75,
				0.05000000074505806,
				0.46891117095947266
			]
		},
		{
			"mesh":10,
			"name":"RL_curve_sleeper_6",
			"rotation":[
				0,
				0.5735764503479004,
				0,
				0.8191521763801575
			],
			"translation":[
				-2.302929401397705,
				0.05000000074505806,
				0.2110757827758789
			]
		},
		{
			"mesh":11,
			"name":"RL_curve_sleeper_7",
			"rotation":[
				0,
				0.6427876949310303,
				0,
				0.7660444378852844
			],
			"translation":[
				-2.8922314643859863,
				0.05000000074505806,
				0.053173065185546875
			]
		},
		{
			"mesh":12,
			"name":"RL_curve_sleeper_8",
			"rotation":[
				0,
				0.7071068286895752,
				0,
				0.7071068286895752
			],
			"translation":[
				-3.5,
				0.05000000074505806,
				0
			]
		}
	],
	"materials":[
		{
			"doubleSided":true,
			"name":"MAT_RustyMetal_EXPORT",
			"normalTexture":{
				"index":0
			},
			"pbrMetallicRoughness":{
				"baseColorTexture":{
					"index":1
				},
				"metallicFactor":0,
				"metallicRoughnessTexture":{
					"index":2
				}
			}
		},
		{
			"doubleSided":true,
			"name":"MAT_Timber_EXPORT",
			"normalTexture":{
				"index":3
			},
			"pbrMetallicRoughness":{
				"baseColorTexture":{
					"index":4
				},
				"metallicFactor":0,
				"metallicRoughnessTexture":{
					"index":5
				}
			}
		}
	],
	"meshes":[
		{
			"name":"RL_curve_foot_L",
			"primitives":[
				{
					"attributes":{
						"POSITION":0,
						"NORMAL":1,
						"TEXCOORD_0":2
					},
					"indices":3,
					"material":0
				}
			]
		},
		{
			"name":"RL_curve_foot_R",
			"primitives":[
				{
					"attributes":{
						"POSITION":4,
						"NORMAL":5,
						"TEXCOORD_0":6
					},
					"indices":3,
					"material":0
				}
			]
		},
		{
			"name":"RL_curve_rail_L",
			"primitives":[
				{
					"attributes":{
						"POSITION":7,
						"NORMAL":8,
						"TEXCOORD_0":9
					},
					"indices":3,
					"material":0
				}
			]
		},
		{
			"name":"RL_curve_rail_R",
			"primitives":[
				{
					"attributes":{
						"POSITION":10,
						"NORMAL":11,
						"TEXCOORD_0":12
					},
					"indices":3,
					"material":0
				}
			]
		},
		{
			"name":"RL_curve_sleeper_0",
			"primitives":[
				{
					"attributes":{
						"POSITION":13,
						"NORMAL":14,
						"TEXCOORD_0":15
					},
					"indices":16,
					"material":1
				}
			]
		},
		{
			"name":"RL_curve_sleeper_1",
			"primitives":[
				{
					"attributes":{
						"POSITION":17,
						"NORMAL":18,
						"TEXCOORD_0":19
					},
					"indices":16,
					"material":1
				}
			]
		},
		{
			"name":"RL_curve_sleeper_2",
			"primitives":[
				{
					"attributes":{
						"POSITION":20,
						"NORMAL":21,
						"TEXCOORD_0":22
					},
					"indices":16,
					"material":1
				}
			]
		},
		{
			"name":"RL_curve_sleeper_3",
			"primitives":[
				{
					"attributes":{
						"POSITION":23,
						"NORMAL":24,
						"TEXCOORD_0":25
					},
					"indices":16,
					"material":1
				}
			]
		},
		{
			"name":"RL_curve_sleeper_4",
			"primitives":[
				{
					"attributes":{
						"POSITION":26,
						"NORMAL":27,
						"TEXCOORD_0":28
					},
					"indices":16,
					"material":1
				}
			]
		},
		{
			"name":"RL_curve_sleeper_5",
			"primitives":[
				{
					"attributes":{
						"POSITION":29,
						"NORMAL":30,
						"TEXCOORD_0":31
					},
					"indices":16,
					"material":1
				}
			]
		},
		{
			"name":"RL_curve_sleeper_6",
			"primitives":[
				{
					"attributes":{
						"POSITION":32,
						"NORMAL":33,
						"TEXCOORD_0":34
					},
					"indices":16,
					"material":1
				}
			]
		},
		{
			"name":"RL_curve_sleeper_7",
			"primitives":[
				{
					"attributes":{
						"POSITION":35,
						"NORMAL":36,
						"TEXCOORD_0":37
					},
					"indices":16,
					"material":1
				}
			]
		},
		{
			"name":"RL_curve_sleeper_8",
			"primitives":[
				{
					"attributes":{
						"POSITION":38,
						"NORMAL":39,
						"TEXCOORD_0":40
					},
					"indices":16,
					"material":1
				}
			]
		}
	],
	"textures":[
		{
			"sampler":0,
			"source":0
		},
		{
			"sampler":0,
			"source":1
		},
		{
			"sampler":0,
			"source":2
		},
		{
			"sampler":0,
			"source":3
		},
		{
			"sampler":0,
			"source":4
		},
		{
			"sampler":0,
			"source":5
		}
	],
	"images":[
		{
			"mimeType":"image/jpeg",
			"name":"rusty_metal_02_nor_gl",
			"uri":"textures/rusty_metal_02_nor_gl.jpg"
		},
		{
			"mimeType":"image/jpeg",
			"name":"rusty_metal_02_Diffuse",
			"uri":"textures/rusty_metal_02_Diffuse.jpg"
		},
		{
			"mimeType":"image/jpeg",
			"name":"rusty_metal_02_Rough",
			"uri":"textures/rusty_metal_02_Rough.jpg"
		},
		{
			"mimeType":"image/jpeg",
			"name":"dark_wooden_planks_nor_gl",
			"uri":"textures/dark_wooden_planks_nor_gl.jpg"
		},
		{
			"mimeType":"image/jpeg",
			"name":"dark_wooden_planks_Diffuse",
			"uri":"textures/dark_wooden_planks_Diffuse.jpg"
		},
		{
			"mimeType":"image/jpeg",
			"name":"dark_wooden_planks_Rough",
			"uri":"textures/dark_wooden_planks_Rough.jpg"
		}
	],
	"accessors":[
		{
			"bufferView":0,
			"componentType":5126,
			"count":204,
			"max":[
				-0.24000000953674316,
				0.11999999731779099,
				3.5
			],
			"min":[
				-3.5,
				0.10000000149011612,
				0.24000000953674316
			],
			"type":"VEC3"
		},
		{
			"bufferView":1,
			"componentType":5126,
			"count":204,
			"type":"VEC3"
		},
		{
			"bufferView":2,
			"componentType":5126,
			"count":204,
			"type":"VEC2"
		},
		{
			"bufferView":3,
			"componentType":5123,
			"count":396,
			"type":"SCALAR"
		},
		{
			"bufferView":4,
			"componentType":5126,
			"count":204,
			"max":[
				0.3599998950958252,
				0.11999999731779099,
				3.5
			],
			"min":[
				-3.5,
				0.10000000149011612,
				-0.3599998950958252
			],
			"type":"VEC3"
		},
		{
			"bufferView":5,
			"componentType":5126,
			"count":204,
			"type":"VEC3"
		},
		{
			"bufferView":6,
			"componentType":5126,
			"count":204,
			"type":"VEC2"
		},
		{
			"bufferView":7,
			"componentType":5126,
			"count":204,
			"max":[
				-0.26999998092651367,
				0.20000000298023224,
				3.5
			],
			"min":[
				-3.5,
				0.10000000149011612,
				0.26999998092651367
			],
			"type":"VEC3"
		},
		{
			"bufferView":8,
			"componentType":5126,
			"count":204,
			"type":"VEC3"
		},
		{
			"bufferView":9,
			"componentType":5126,
			"count":204,
			"type":"VEC2"
		},
		{
			"bufferView":10,
			"componentType":5126,
			"count":204,
			"max":[
				0.3299999237060547,
				0.20000000298023224,
				3.5
			],
			"min":[
				-3.5,
				0.10000000149011612,
				-0.3299999237060547
			],
			"type":"VEC3"
		},
		{
			"bufferView":11,
			"componentType":5126,
			"count":204,
			"type":"VEC3"
		},
		{
			"bufferView":12,
			"componentType":5126,
			"count":204,
			"type":"VEC2"
		},
		{
			"bufferView":13,
			"componentType":5126,
			"count":96,
			"max":[
				0.6000000238418579,
				0.05000000074505806,
				0.10000000149011612
			],
			"min":[
				-0.6000000238418579,
				-0.05000000074505806,
				-0.10000000149011612
			],
			"type":"VEC3"
		},
		{
			"bufferView":14,
			"componentType":5126,
			"count":96,
			"type":"VEC3"
		},
		{
			"bufferView":15,
			"componentType":5126,
			"count":96,
			"type":"VEC2"
		},
		{
			"bufferView":16,
			"componentType":5123,
			"count":132,
			"type":"SCALAR"
		},
		{
			"bufferView":17,
			"componentType":5126,
			"count":96,
			"max":[
				0.6000000238418579,
				0.05000000074505806,
				0.10000000149011612
			],
			"min":[
				-0.6000000238418579,
				-0.05000000074505806,
				-0.10000000149011612
			],
			"type":"VEC3"
		},
		{
			"bufferView":18,
			"componentType":5126,
			"count":96,
			"type":"VEC3"
		},
		{
			"bufferView":19,
			"componentType":5126,
			"count":96,
			"type":"VEC2"
		},
		{
			"bufferView":20,
			"componentType":5126,
			"count":96,
			"max":[
				0.6000000238418579,
				0.05000000074505806,
				0.10000000149011612
			],
			"min":[
				-0.6000000238418579,
				-0.05000000074505806,
				-0.10000000149011612
			],
			"type":"VEC3"
		},
		{
			"bufferView":21,
			"componentType":5126,
			"count":96,
			"type":"VEC3"
		},
		{
			"bufferView":22,
			"componentType":5126,
			"count":96,
			"type":"VEC2"
		},
		{
			"bufferView":23,
			"componentType":5126,
			"count":96,
			"max":[
				0.6000000238418579,
				0.05000000074505806,
				0.10000000149011612
			],
			"min":[
				-0.6000000238418579,
				-0.05000000074505806,
				-0.10000000149011612
			],
			"type":"VEC3"
		},
		{
			"bufferView":24,
			"componentType":5126,
			"count":96,
			"type":"VEC3"
		},
		{
			"bufferView":25,
			"componentType":5126,
			"count":96,
			"type":"VEC2"
		},
		{
			"bufferView":26,
			"componentType":5126,
			"count":96,
			"max":[
				0.6000000238418579,
				0.05000000074505806,
				0.10000000149011612
			],
			"min":[
				-0.6000000238418579,
				-0.05000000074505806,
				-0.10000000149011612
			],
			"type":"VEC3"
		},
		{
			"bufferView":27,
			"componentType":5126,
			"count":96,
			"type":"VEC3"
		},
		{
			"bufferView":28,
			"componentType":5126,
			"count":96,
			"type":"VEC2"
		},
		{
			"bufferView":29,
			"componentType":5126,
			"count":96,
			"max":[
				0.6000000238418579,
				0.05000000074505806,
				0.10000000149011612
			],
			"min":[
				-0.6000000238418579,
				-0.05000000074505806,
				-0.10000000149011612
			],
			"type":"VEC3"
		},
		{
			"bufferView":30,
			"componentType":5126,
			"count":96,
			"type":"VEC3"
		},
		{
			"bufferView":31,
			"componentType":5126,
			"count":96,
			"type":"VEC2"
		},
		{
			"bufferView":32,
			"componentType":5126,
			"count":96,
			"max":[
				0.6000000238418579,
				0.05000000074505806,
				0.10000000149011612
			],
			"min":[
				-0.6000000238418579,
				-0.05000000074505806,
				-0.10000000149011612
			],
			"type":"VEC3"
		},
		{
			"bufferView":33,
			"componentType":5126,
			"count":96,
			"type":"VEC3"
		},
		{
			"bufferView":34,
			"componentType":5126,
			"count":96,
			"type":"VEC2"
		},
		{
			"bufferView":35,
			"componentType":5126,
			"count":96,
			"max":[
				0.6000000238418579,
				0.05000000074505806,
				0.10000000149011612
			],
			"min":[
				-0.6000000238418579,
				-0.05000000074505806,
				-0.10000000149011612
			],
			"type":"VEC3"
		},
		{
			"bufferView":36,
			"componentType":5126,
			"count":96,
			"type":"VEC3"
		},
		{
			"bufferView":37,
			"componentType":5126,
			"count":96,
			"type":"VEC2"
		},
		{
			"bufferView":38,
			"componentType":5126,
			"count":96,
			"max":[
				0.6000000238418579,
				0.05000000074505806,
				0.10000000149011612
			],
			"min":[
				-0.6000000238418579,
				-0.05000000074505806,
				-0.10000000149011612
			],
			"type":"VEC3"
		},
		{
			"bufferView":39,
			"componentType":5126,
			"count":96,
			"type":"VEC3"
		},
		{
			"bufferView":40,
			"componentType":5126,
			"count":96,
			"type":"VEC2"
		}
	],
	"bufferViews":[
		{
			"buffer":0,
			"byteLength":2448,
			"byteOffset":0,
			"target":34962
		},
		{
			"buffer":0,
			"byteLength":2448,
			"byteOffset":2448,
			"target":34962
		},
		{
			"buffer":0,
			"byteLength":1632,
			"byteOffset":4896,
			"target":34962
		},
		{
			"buffer":0,
			"byteLength":792,
			"byteOffset":6528,
			"target":34963
		},
		{
			"buffer":0,
			"byteLength":2448,
			"byteOffset":7320,
			"target":34962
		},
		{
			"buffer":0,
			"byteLength":2448,
			"byteOffset":9768,
			"target":34962
		},
		{
			"buffer":0,
			"byteLength":1632,
			"byteOffset":12216,
			"target":34962
		},
		{
			"buffer":0,
			"byteLength":2448,
			"byteOffset":13848,
			"target":34962
		},
		{
			"buffer":0,
			"byteLength":2448,
			"byteOffset":16296,
			"target":34962
		},
		{
			"buffer":0,
			"byteLength":1632,
			"byteOffset":18744,
			"target":34962
		},
		{
			"buffer":0,
			"byteLength":2448,
			"byteOffset":20376,
			"target":34962
		},
		{
			"buffer":0,
			"byteLength":2448,
			"byteOffset":22824,
			"target":34962
		},
		{
			"buffer":0,
			"byteLength":1632,
			"byteOffset":25272,
			"target":34962
		},
		{
			"buffer":0,
			"byteLength":1152,
			"byteOffset":26904,
			"target":34962
		},
		{
			"buffer":0,
			"byteLength":1152,
			"byteOffset":28056,
			"target":34962
		},
		{
			"buffer":0,
			"byteLength":768,
			"byteOffset":29208,
			"target":34962
		},
		{
			"buffer":0,
			"byteLength":264,
			"byteOffset":29976,
			"target":34963
		},
		{
			"buffer":0,
			"byteLength":1152,
			"byteOffset":30240,
			"target":34962
		},
		{
			"buffer":0,
			"byteLength":1152,
			"byteOffset":31392,
			"target":34962
		},
		{
			"buffer":0,
			"byteLength":768,
			"byteOffset":32544,
			"target":34962
		},
		{
			"buffer":0,
			"byteLength":1152,
			"byteOffset":33312,
			"target":34962
		},
		{
			"buffer":0,
			"byteLength":1152,
			"byteOffset":34464,
			"target":34962
		},
		{
			"buffer":0,
			"byteLength":768,
			"byteOffset":35616,
			"target":34962
		},
		{
			"buffer":0,
			"byteLength":1152,
			"byteOffset":36384,
			"target":34962
		},
		{
			"buffer":0,
			"byteLength":1152,
			"byteOffset":37536,
			"target":34962
		},
		{
			"buffer":0,
			"byteLength":768,
			"byteOffset":38688,
			"target":34962
		},
		{
			"buffer":0,
			"byteLength":1152,
			"byteOffset":39456,
			"target":34962
		},
		{
			"buffer":0,
			"byteLength":1152,
			"byteOffset":40608,
			"target":34962
		},
		{
			"buffer":0,
			"byteLength":768,
			"byteOffset":41760,
			"target":34962
		},
		{
			"buffer":0,
			"byteLength":1152,
			"byteOffset":42528,
			"target":34962
		},
		{
			"buffer":0,
			"byteLength":1152,
			"byteOffset":43680,
			"target":34962
		},
		{
			"buffer":0,
			"byteLength":768,
			"byteOffset":44832,
			"target":34962
		},
		{
			"buffer":0,
			"byteLength":1152,
			"byteOffset":45600,
			"target":34962
		},
		{
			"buffer":0,
			"byteLength":1152,
			"byteOffset":46752,
			"target":34962
		},
		{
			"buffer":0,
			"byteLength":768,
			"byteOffset":47904,
			"target":34962
		},
		{
			"buffer":0,
			"byteLength":1152,
			"byteOffset":48672,
			"target":34962
		},
		{
			"buffer":0,
			"byteLength":1152,
			"byteOffset":49824,
			"target":34962
		},
		{
			"buffer":0,
			"byteLength":768,
			"byteOffset":50976,
			"target":34962
		},
		{
			"buffer":0,
			"byteLength":1152,
			"byteOffset":51744,
			"target":34962
		},
		{
			"buffer":0,
			"byteLength":1152,
			"byteOffset":52896,
			"target":34962
		},
		{
			"buffer":0,
			"byteLength":768,
			"byteOffset":54048,
			"target":34962
		}
	],
	"samplers":[
		{
			"magFilter":9729,
			"minFilter":9987
		}
	],
	"buffers":[
		{
			"byteLength":54816,
			"uri":"rail_curve.bin"
		}
	]
}
