{
	"asset":{
		"generator":"Khronos glTF Blender I/O v5.2.39",
		"version":"2.0"
	},
	"scene":0,
	"scenes":[
		{
			"name":"Scene",
			"nodes":[
				0,
				1,
				2,
				3,
				4,
				5,
				6,
				7,
				8,
				9,
				10,
				11,
				12,
				13,
				14,
				15,
				16,
				17,
				18,
				19
			]
		}
	],
	"nodes":[
		{
			"mesh":0,
			"name":"PIT_BrokenLag",
			"rotation":[
				0.11822536587715149,
				0.37768521904945374,
				-0.1036381796002388,
				0.9124887585639954
			],
			"translation":[
				-0.8999999761581421,
				-1.7999999523162842,
				-1.7999999523162842
			]
		},
		{
			"mesh":1,
			"name":"PIT_BrokenPost",
			"rotation":[
				0.39709779620170593,
				0.17958711087703705,
				-0.19417472183704376,
				0.8788391351699829
			],
			"translation":[
				0.6000000238418579,
				-1.649999976158142,
				0.4000000059604645
			]
		},
		{
			"mesh":2,
			"name":"PIT_Floor"
		},
		{
			"mesh":3,
			"name":"PIT_Rubble_0",
			"rotation":[
				0.5682134628295898,
				0.5682134628295898,
				0.16858157515525818,
				0.5708302855491638
			],
			"scale":[
				0.28392937779426575,
				0.1580190509557724,
				0.23217275738716125
			],
			"translation":[
				-0.8002861142158508,
				-1.8488174676895142,
				0.6880835294723511
			]
		},
		{
			"mesh":4,
			"name":"PIT_Rubble_1",
			"rotation":[
				0.104567751288414,
				0.104567751288414,
				-0.13355013728141785,
				0.9799467325210571
			],
			"scale":[
				0.18180124461650848,
				0.11175280809402466,
				0.16731636226177216
			],
			"translation":[
				0.90728360414505,
				-1.828763723373413,
				-0.6469489932060242
			]
		},
		{
			"mesh":5,
			"name":"PIT_Rubble_2",
			"rotation":[
				0.6750791668891907,
				0.6750792264938354,
				0.0920017659664154,
				0.28296959400177
			],
			"scale":[
				0.15331529080867767,
				0.09464340656995773,
				0.1460091769695282
			],
			"translation":[
				1.2568433284759521,
				-1.9135935306549072,
				-1.1367461681365967
			]
		},
		{
			"mesh":6,
			"name":"PIT_Rubble_3",
			"rotation":[
				-0.16765029728412628,
				-0.16765029728412628,
				0.1237415298819542,
				0.9635739922523499
			],
			"scale":[
				0.25749728083610535,
				0.1360982209444046,
				0.19677263498306274
			],
			"translation":[
				0.4661836624145508,
				-1.886709451675415,
				0.7727043628692627
			]
		},
		{
			"mesh":7,
			"name":"PIT_Rubble_4",
			"rotation":[
				0.5271426439285278,
				0.5271427035331726,
				0.18133817613124847,
				0.6413718461990356
			],
			"scale":[
				0.18414974212646484,
				0.15784765779972076,
				0.18964101374149323
			],
			"translation":[
				-0.23871612548828125,
				-1.8304634094238281,
				0.760402262210846
			]
		},
		{
			"mesh":8,
			"name":"PIT_Rubble_5",
			"rotation":[
				0.11574576795101166,
				0.11574576795101166,
				0.09348440915346146,
				0.9820725321769714
			],
			"scale":[
				0.16218796372413635,
				0.1372251957654953,
				0.1512967199087143
			],
			"translation":[
				-1.0893911123275757,
				-1.841898798942566,
				0.535819947719574
			]
		},
		{
			"mesh":9,
			"name":"PIT_Rubble_6",
			"rotation":[
				-0.06052176654338837,
				-0.06052175909280777,
				-0.6937916278839111,
				0.7150716185569763
			],
			"scale":[
				0.210606649518013,
				0.15713626146316528,
				0.2626195251941681
			],
			"translation":[
				0.8505251407623291,
				-1.8780854940414429,
				0.3407492935657501
			]
		},
		{
			"mesh":10,
			"name":"PIT_Rubble_7",
			"rotation":[
				0.03533059358596802,
				0.03533058986067772,
				-0.7026526927947998,
				0.7097765207290649
			],
			"scale":[
				0.33709222078323364,
				0.17070139944553375,
				0.2875828146934509
			],
			"translation":[
				-0.3522554934024811,
				-1.8449958562850952,
				-1.6140661239624023
			]
		},
		{
			"mesh":11,
			"name":"PIT_Rubble_8",
			"rotation":[
				-0.18607118725776672,
				-0.18607117235660553,
				0.1330331414937973,
				0.9555402994155884
			],
			"scale":[
				0.2167455106973648,
				0.12245408445596695,
				0.20213209092617035
			],
			"translation":[
				0.583245575428009,
				-1.8759664297103882,
				-0.6234527826309204
			]
		},
		{
			"mesh":12,
			"name":"PIT_Rubble_9",
			"rotation":[
				0.1281631588935852,
				0.1281631588935852,
				-0.17623694241046906,
				0.9675168991088867
			],
			"scale":[
				0.0949622169137001,
				0.08522263169288635,
				0.13376252353191376
			],
			"translation":[
				-0.8259071111679077,
				-1.894707441329956,
				1.2164303064346313
			]
		},
		{
			"mesh":13,
			"name":"PIT_Rubble_10",
			"rotation":[
				-0.5684086680412292,
				-0.5684086680412292,
				0.16850654780864716,
				0.5704636573791504
			],
			"scale":[
				0.2803216278553009,
				0.12691199779510498,
				0.25483009219169617
			],
			"translation":[
				-1.1181304454803467,
				-1.7609467506408691,
				-0.18239954113960266
			]
		},
		{
			"mesh":14,
			"name":"PIT_Rubble_11",
			"rotation":[
				-0.6660555005073547,
				-0.6660555601119995,
				0.1031341478228569,
				0.3195364773273468
			],
			"scale":[
				0.24618929624557495,
				0.1629650890827179,
				0.23378343880176544
			],
			"translation":[
				0.6347701549530029,
				-1.8314971923828125,
				-0.3574811816215515
			]
		},
		{
			"mesh":15,
			"name":"PIT_WallE"
		},
		{
			"mesh":16,
			"name":"PIT_WallN"
		},
		{
			"mesh":17,
			"name":"PIT_WallS"
		},
		{
			"mesh":18,
			"name":"PIT_WallW"
		},
		{
			"mesh":19,
			"name":"PRP_Cable_mesh"
		}
	],
	"materials":[
		{
			"doubleSided":true,
			"name":"MAT_Timber_EXPORT",
			"normalTexture":{
				"index":0
			},
			"pbrMetallicRoughness":{
				"baseColorTexture":{
					"index":1
				},
				"metallicFactor":0,
				"metallicRoughnessTexture":{
					"index":2
				}
			}
		},
		{
			"doubleSided":true,
			"name":"MAT_Floor_EXPORT",
			"normalTexture":{
				"index":3
			},
			"pbrMetallicRoughness":{
				"baseColorTexture":{
					"index":4
				},
				"metallicFactor":0,
				"metallicRoughnessTexture":{
					"index":5
				}
			}
		},
		{
			"doubleSided":true,
			"name":"MAT_Rock_EXPORT",
			"normalTexture":{
				"index":6
			},
			"pbrMetallicRoughness":{
				"baseColorTexture":{
					"index":7
				},
				"metallicFactor":0,
				"metallicRoughnessTexture":{
					"index":8
				}
			}
		},
		{
			"doubleSided":true,
			"name":"MAT_RockWall_EXPORT",
			"normalTexture":{
				"index":9
			},
			"pbrMetallicRoughness":{
				"baseColorTexture":{
					"index":10
				},
				"metallicFactor":0,
				"metallicRoughnessTexture":{
					"index":11
				}
			}
		},
		{
			"doubleSided":true,
			"name":"MAT_Cable",
			"pbrMetallicRoughness":{
				"baseColorFactor":[
					0.019999999552965164,
					0.019999999552965164,
					0.019999999552965164,
					1
				],
				"metallicFactor":0,
				"roughnessFactor":0.550000011920929
			}
		}
	],
	"meshes":[
		{
			"name":"PIT_BrokenLag",
			"primitives":[
				{
					"attributes":{
						"POSITION":0,
						"NORMAL":1,
						"TEXCOORD_0":2
					},
					"indices":3,
					"material":0
				}
			]
		},
		{
			"name":"PIT_BrokenPost",
			"primitives":[
				{
					"attributes":{
						"POSITION":4,
						"NORMAL":5,
						"TEXCOORD_0":6
					},
					"indices":3,
					"material":0
				}
			]
		},
		{
			"name":"PIT_Floor",
			"primitives":[
				{
					"attributes":{
						"POSITION":7,
						"NORMAL":8,
						"TEXCOORD_0":9
					},
					"indices":10,
					"material":1
				}
			]
		},
		{
			"name":"PIT_Rubble_0",
			"primitives":[
				{
					"attributes":{
						"POSITION":11,
						"NORMAL":12,
						"TEXCOORD_0":13
					},
					"indices":14,
					"material":2
				}
			]
		},
		{
			"name":"PIT_Rubble_1",
			"primitives":[
				{
					"attributes":{
						"POSITION":15,
						"NORMAL":16,
						"TEXCOORD_0":17
					},
					"indices":18,
					"material":2
				}
			]
		},
		{
			"name":"PIT_Rubble_2",
			"primitives":[
				{
					"attributes":{
						"POSITION":19,
						"NORMAL":20,
						"TEXCOORD_0":21
					},
					"indices":22,
					"material":2
				}
			]
		},
		{
			"name":"PIT_Rubble_3",
			"primitives":[
				{
					"attributes":{
						"POSITION":23,
						"NORMAL":24,
						"TEXCOORD_0":25
					},
					"indices":26,
					"material":2
				}
			]
		},
		{
			"name":"PIT_Rubble_4",
			"primitives":[
				{
					"attributes":{
						"POSITION":27,
						"NORMAL":28,
						"TEXCOORD_0":29
					},
					"indices":30,
					"material":2
				}
			]
		},
		{
			"name":"PIT_Rubble_5",
			"primitives":[
				{
					"attributes":{
						"POSITION":31,
						"NORMAL":32,
						"TEXCOORD_0":33
					},
					"indices":34,
					"material":2
				}
			]
		},
		{
			"name":"PIT_Rubble_6",
			"primitives":[
				{
					"attributes":{
						"POSITION":35,
						"NORMAL":36,
						"TEXCOORD_0":37
					},
					"indices":38,
					"material":2
				}
			]
		},
		{
			"name":"PIT_Rubble_7",
			"primitives":[
				{
					"attributes":{
						"POSITION":39,
						"NORMAL":40,
						"TEXCOORD_0":41
					},
					"indices":42,
					"material":2
				}
			]
		},
		{
			"name":"PIT_Rubble_8",
			"primitives":[
				{
					"attributes":{
						"POSITION":43,
						"NORMAL":44,
						"TEXCOORD_0":45
					},
					"indices":46,
					"material":2
				}
			]
		},
		{
			"name":"PIT_Rubble_9",
			"primitives":[
				{
					"attributes":{
						"POSITION":47,
						"NORMAL":48,
						"TEXCOORD_0":49
					},
					"indices":50,
					"material":2
				}
			]
		},
		{
			"name":"PIT_Rubble_10",
			"primitives":[
				{
					"attributes":{
						"POSITION":51,
						"NORMAL":52,
						"TEXCOORD_0":53
					},
					"indices":54,
					"material":2
				}
			]
		},
		{
			"name":"PIT_Rubble_11",
			"primitives":[
				{
					"attributes":{
						"POSITION":55,
						"NORMAL":56,
						"TEXCOORD_0":57
					},
					"indices":58,
					"material":2
				}
			]
		},
		{
			"name":"PIT_WallE",
			"primitives":[
				{
					"attributes":{
						"POSITION":59,
						"NORMAL":60,
						"TEXCOORD_0":61
					},
					"indices":62,
					"material":3
				}
			]
		},
		{
			"name":"PIT_WallN",
			"primitives":[
				{
					"attributes":{
						"POSITION":63,
						"NORMAL":64,
						"TEXCOORD_0":65
					},
					"indices":66,
					"material":3
				}
			]
		},
		{
			"name":"PIT_WallS",
			"primitives":[
				{
					"attributes":{
						"POSITION":67,
						"NORMAL":68,
						"TEXCOORD_0":69
					},
					"indices":70,
					"material":3
				}
			]
		},
		{
			"name":"PIT_WallW",
			"primitives":[
				{
					"attributes":{
						"POSITION":71,
						"NORMAL":72,
						"TEXCOORD_0":73
					},
					"indices":74,
					"material":3
				}
			]
		},
		{
			"name":"PRP_Cable",
			"primitives":[
				{
					"attributes":{
						"POSITION":75,
						"NORMAL":76,
						"TEXCOORD_0":77
					},
					"indices":78,
					"material":4
				}
			]
		}
	],
	"textures":[
		{
			"sampler":0,
			"source":0
		},
		{
			"sampler":0,
			"source":1
		},
		{
			"sampler":0,
			"source":2
		},
		{
			"sampler":0,
			"source":3
		},
		{
			"sampler":0,
			"source":4
		},
		{
			"sampler":0,
			"source":5
		},
		{
			"sampler":0,
			"source":6
		},
		{
			"sampler":0,
			"source":7
		},
		{
			"sampler":0,
			"source":8
		},
		{
			"sampler":0,
			"source":9
		},
		{
			"sampler":0,
			"source":10
		},
		{
			"sampler":0,
			"source":11
		}
	],
	"images":[
		{
			"mimeType":"image/jpeg",
			"name":"dark_wooden_planks_nor_gl",
			"uri":"textures/dark_wooden_planks_nor_gl.jpg"
		},
		{
			"mimeType":"image/jpeg",
			"name":"dark_wooden_planks_Diffuse",
			"uri":"textures/dark_wooden_planks_Diffuse.jpg"
		},
		{
			"mimeType":"image/jpeg",
			"name":"dark_wooden_planks_Rough",
			"uri":"textures/dark_wooden_planks_Rough.jpg"
		},
		{
			"mimeType":"image/jpeg",
			"name":"brown_mud_rocks_01_nor_gl",
			"uri":"textures/brown_mud_rocks_01_nor_gl.jpg"
		},
		{
			"mimeType":"image/jpeg",
			"name":"brown_mud_rocks_01_Diffuse",
			"uri":"textures/brown_mud_rocks_01_Diffuse.jpg"
		},
		{
			"mimeType":"image/jpeg",
			"name":"brown_mud_rocks_01_Rough",
			"uri":"textures/brown_mud_rocks_01_Rough.jpg"
		},
		{
			"mimeType":"image/jpeg",
			"name":"dark_rock_02_nor_gl",
			"uri":"textures/dark_rock_02_nor_gl.jpg"
		},
		{
			"mimeType":"image/jpeg",
			"name":"dark_rock_02_Diffuse",
			"uri":"textures/dark_rock_02_Diffuse.jpg"
		},
		{
			"mimeType":"image/jpeg",
			"name":"dark_rock_02_Rough",
			"uri":"textures/dark_rock_02_Rough.jpg"
		},
		{
			"mimeType":"image/jpeg",
			"name":"rock_face_04_nor_gl",
			"uri":"textures/rock_face_04_nor_gl.jpg"
		},
		{
			"mimeType":"image/jpeg",
			"name":"rock_face_04_Diffuse",
			"uri":"textures/rock_face_04_Diffuse.jpg"
		},
		{
			"mimeType":"image/jpeg",
			"name":"rock_face_04_Rough",
			"uri":"textures/rock_face_04_Rough.jpg"
		}
	],
	"accessors":[
		{
			"bufferView":0,
			"componentType":5126,
			"count":216,
			"max":[
				0.02500000037252903,
				0.11999999731779099,
				0.550000011920929
			],
			"min":[
				-0.02500000037252903,
				-0.11999999731779099,
				-0.550000011920929
			],
			"type":"VEC3"
		},
		{
			"bufferView":1,
			"componentType":5126,
			"count":216,
			"type":"VEC3"
		},
		{
			"bufferView":2,
			"componentType":5126,
			"count":216,
			"type":"VEC2"
		},
		{
			"bufferView":3,
			"componentType":5123,
			"count":324,
			"type":"SCALAR"
		},
		{
			"bufferView":4,
			"componentType":5126,
			"count":216,
			"max":[
				0.10999999940395355,
				0.800000011920929,
				0.10999999940395355
			],
			"min":[
				-0.10999999940395355,
				-0.800000011920929,
				-0.10999999940395355
			],
			"type":"VEC3"
		},
		{
			"bufferView":5,
			"componentType":5126,
			"count":216,
			"type":"VEC3"
		},
		{
			"bufferView":6,
			"componentType":5126,
			"count":216,
			"type":"VEC2"
		},
		{
			"bufferView":7,
			"componentType":5126,
			"count":4761,
			"max":[
				3.345651865005493,
				-1.9578502178192139,
				2.7454779148101807
			],
			"min":[
				-3.3456201553344727,
				-2.0445964336395264,
				-4.145573616027832
			],
			"type":"VEC3"
		},
		{
			"bufferView":8,
			"componentType":5126,
			"count":4761,
			"type":"VEC3"
		},
		{
			"bufferView":9,
			"componentType":5126,
			"count":4761,
			"type":"VEC2"
		},
		{
			"bufferView":10,
			"componentType":5123,
			"count":27744,
			"type":"SCALAR"
		},
		{
			"bufferView":11,
			"componentType":5126,
			"count":31,
			"max":[
				0.8480184078216553,
				0.8282074928283691,
				1.0140289068222046
			],
			"min":[
				-0.9798902869224548,
				-0.7895211577415466,
				-0.9767851233482361
			],
			"type":"VEC3"
		},
		{
			"bufferView":12,
			"componentType":5126,
			"count":31,
			"type":"VEC3"
		},
		{
			"bufferView":13,
			"componentType":5126,
			"count":31,
			"type":"VEC2"
		},
		{
			"bufferView":14,
			"componentType":5123,
			"count":60,
			"type":"SCALAR"
		},
		{
			"bufferView":15,
			"componentType":5126,
			"count":31,
			"max":[
				1.0668768882751465,
				0.9050867557525635,
				0.9516624212265015
			],
			"min":[
				-0.9005828499794006,
				-1.0840120315551758,
				-0.9858226776123047
			],
			"type":"VEC3"
		},
		{
			"bufferView":16,
			"componentType":5126,
			"count":31,
			"type":"VEC3"
		},
		{
			"bufferView":17,
			"componentType":5126,
			"count":31,
			"type":"VEC2"
		},
		{
			"bufferView":18,
			"componentType":5123,
			"count":60,
			"type":"SCALAR"
		},
		{
			"bufferView":19,
			"componentType":5126,
			"count":29,
			"max":[
				0.9229260087013245,
				0.8146845102310181,
				0.9330748319625854
			],
			"min":[
				-0.8524125218391418,
				-0.948692798614502,
				-0.9079641699790955
			],
			"type":"VEC3"
		},
		{
			"bufferView":20,
			"componentType":5126,
			"count":29,
			"type":"VEC3"
		},
		{
			"bufferView":21,
			"componentType":5126,
			"count":29,
			"type":"VEC2"
		},
		{
			"bufferView":22,
			"componentType":5123,
			"count":60,
			"type":"SCALAR"
		},
		{
			"bufferView":23,
			"componentType":5126,
			"count":29,
			"max":[
				0.9685613512992859,
				0.9433313608169556,
				1.0521644353866577
			],
			"min":[
				-0.8818291425704956,
				-0.8959782719612122,
				-0.933081328868866
			],
			"type":"VEC3"
		},
		{
			"bufferView":24,
			"componentType":5126,
			"count":29,
			"type":"VEC3"
		},
		{
			"bufferView":25,
			"componentType":5126,
			"count":29,
			"type":"VEC2"
		},
		{
			"bufferView":26,
			"componentType":5123,
			"count":60,
			"type":"SCALAR"
		},
		{
			"bufferView":27,
			"componentType":5126,
			"count":31,
			"max":[
				0.7708473801612854,
				1.1109365224838257,
				1.0227826833724976
			],
			"min":[
				-1.0432443618774414,
				-1.1508214473724365,
				-1.0018677711486816
			],
			"type":"VEC3"
		},
		{
			"bufferView":28,
			"componentType":5126,
			"count":31,
			"type":"VEC3"
		},
		{
			"bufferView":29,
			"componentType":5126,
			"count":31,
			"type":"VEC2"
		},
		{
			"bufferView":30,
			"componentType":5123,
			"count":60,
			"type":"SCALAR"
		},
		{
			"bufferView":31,
			"componentType":5126,
			"count":32,
			"max":[
				0.8497698307037354,
				0.9110717177391052,
				1.0193573236465454
			],
			"min":[
				-1.0646015405654907,
				-1.166918396949768,
				-0.821982741355896
			],
			"type":"VEC3"
		},
		{
			"bufferView":32,
			"componentType":5126,
			"count":32,
			"type":"VEC3"
		},
		{
			"bufferView":33,
			"componentType":5126,
			"count":32,
			"type":"VEC2"
		},
		{
			"bufferView":34,
			"componentType":5123,
			"count":60,
			"type":"SCALAR"
		},
		{
			"bufferView":35,
			"componentType":5126,
			"count":25,
			"max":[
				0.766945481300354,
				1.0583537817001343,
				0.6974093317985535
			],
			"min":[
				-1.0236973762512207,
				-0.7520093321800232,
				-1.0597468614578247
			],
			"type":"VEC3"
		},
		{
			"bufferView":36,
			"componentType":5126,
			"count":25,
			"type":"VEC3"
		},
		{
			"bufferView":37,
			"componentType":5126,
			"count":25,
			"type":"VEC2"
		},
		{
			"bufferView":38,
			"componentType":5123,
			"count":60,
			"type":"SCALAR"
		},
		{
			"bufferView":39,
			"componentType":5126,
			"count":31,
			"max":[
				1.0672568082809448,
				0.7818522453308105,
				1.0397818088531494
			],
			"min":[
				-0.911870002746582,
				-0.7734951376914978,
				-0.9250016808509827
			],
			"type":"VEC3"
		},
		{
			"bufferView":40,
			"componentType":5126,
			"count":31,
			"type":"VEC3"
		},
		{
			"bufferView":41,
			"componentType":5126,
			"count":31,
			"type":"VEC2"
		},
		{
			"bufferView":42,
			"componentType":5123,
			"count":60,
			"type":"SCALAR"
		},
		{
			"bufferView":43,
			"componentType":5126,
			"count":31,
			"max":[
				0.846585750579834,
				0.9118099212646484,
				0.9646148085594177
			],
			"min":[
				-1.0894713401794434,
				-1.082956314086914,
				-0.8430197834968567
			],
			"type":"VEC3"
		},
		{
			"bufferView":44,
			"componentType":5126,
			"count":31,
			"type":"VEC3"
		},
		{
			"bufferView":45,
			"componentType":5126,
			"count":31,
			"type":"VEC2"
		},
		{
			"bufferView":46,
			"componentType":5123,
			"count":60,
			"type":"SCALAR"
		},
		{
			"bufferView":47,
			"componentType":5126,
			"count":32,
			"max":[
				0.7576819062232971,
				0.9363996386528015,
				0.750530481338501
			],
			"min":[
				-0.7663484215736389,
				-1.0766606330871582,
				-0.7857680320739746
			],
			"type":"VEC3"
		},
		{
			"bufferView":48,
			"componentType":5126,
			"count":32,
			"type":"VEC3"
		},
		{
			"bufferView":49,
			"componentType":5126,
			"count":32,
			"type":"VEC2"
		},
		{
			"bufferView":50,
			"componentType":5123,
			"count":60,
			"type":"SCALAR"
		},
		{
			"bufferView":51,
			"componentType":5126,
			"count":31,
			"max":[
				1.067841649055481,
				1.1562916040420532,
				0.8393032550811768
			],
			"min":[
				-0.9342603087425232,
				-0.7604050636291504,
				-0.9699077606201172
			],
			"type":"VEC3"
		},
		{
			"bufferView":52,
			"componentType":5126,
			"count":31,
			"type":"VEC3"
		},
		{
			"bufferView":53,
			"componentType":5126,
			"count":31,
			"type":"VEC2"
		},
		{
			"bufferView":54,
			"componentType":5123,
			"count":60,
			"type":"SCALAR"
		},
		{
			"bufferView":55,
			"componentType":5126,
			"count":30,
			"max":[
				0.8723222017288208,
				1.1193374395370483,
				0.9418763518333435
			],
			"min":[
				-0.9465041756629944,
				-1.081248164176941,
				-1.0313231945037842
			],
			"type":"VEC3"
		},
		{
			"bufferView":56,
			"componentType":5126,
			"count":30,
			"type":"VEC3"
		},
		{
			"bufferView":57,
			"componentType":5126,
			"count":30,
			"type":"VEC2"
		},
		{
			"bufferView":58,
			"componentType":5123,
			"count":60,
			"type":"SCALAR"
		},
		{
			"bufferView":59,
			"componentType":5126,
			"count":969,
			"max":[
				3.4778330326080322,
				-0.10162732005119324,
				2.7487149238586426
			],
			"min":[
				3.2103238105773926,
				-2.0995631217956543,
				-4.144682884216309
			],
			"type":"VEC3"
		},
		{
			"bufferView":60,
			"componentType":5126,
			"count":969,
			"type":"VEC3"
		},
		{
			"bufferView":61,
			"componentType":5126,
			"count":969,
			"type":"VEC2"
		},
		{
			"bufferView":62,
			"componentType":5123,
			"count":5376,
			"type":"SCALAR"
		},
		{
			"bufferView":63,
			"componentType":5126,
			"count":935,
			"max":[
				3.346076250076294,
				-0.1021251380443573,
				-4.039323806762695
			],
			"min":[
				-3.347177028656006,
				-2.0968589782714844,
				-4.265894889831543
			],
			"type":"VEC3"
		},
		{
			"bufferView":64,
			"componentType":5126,
			"count":935,
			"type":"VEC3"
		},
		{
			"bufferView":65,
			"componentType":5126,
			"count":935,
			"type":"VEC2"
		},
		{
			"bufferView":66,
			"componentType":5123,
			"count":5184,
			"type":"SCALAR"
		},
		{
			"bufferView":67,
			"componentType":5126,
			"count":935,
			"max":[
				3.3448410034179688,
				-0.10455527156591415,
				2.882498025894165
			],
			"min":[
				-3.3447611331939697,
				-2.1003127098083496,
				2.6387109756469727
			],
			"type":"VEC3"
		},
		{
			"bufferView":68,
			"componentType":5126,
			"count":935,
			"type":"VEC3"
		},
		{
			"bufferView":69,
			"componentType":5126,
			"count":935,
			"type":"VEC2"
		},
		{
			"bufferView":70,
			"componentType":5123,
			"count":5184,
			"type":"SCALAR"
		},
		{
			"bufferView":71,
			"componentType":5126,
			"count":969,
			"max":[
				-3.2288098335266113,
				-0.10302648693323135,
				2.748411178588867
			],
			"min":[
				-3.4783148765563965,
				-2.0950207710266113,
				-4.1440582275390625
			],
			"type":"VEC3"
		},
		{
			"bufferView":72,
			"componentType":5126,
			"count":969,
			"type":"VEC3"
		},
		{
			"bufferView":73,
			"componentType":5126,
			"count":969,
			"type":"VEC2"
		},
		{
			"bufferView":74,
			"componentType":5123,
			"count":5376,
			"type":"SCALAR"
		},
		{
			"bufferView":75,
			"componentType":5126,
			"count":924,
			"max":[
				3.322530746459961,
				10.199966430664062,
				0.0013415534049272537
			],
			"min":[
				1.2885366678237915,
				4.583711624145508,
				-10.511998176574707
			],
			"type":"VEC3"
		},
		{
			"bufferView":76,
			"componentType":5126,
			"count":924,
			"type":"VEC3"
		},
		{
			"bufferView":77,
			"componentType":5126,
			"count":924,
			"type":"VEC2"
		},
		{
			"bufferView":78,
			"componentType":5123,
			"count":4980,
			"type":"SCALAR"
		}
	],
	"bufferViews":[
		{
			"buffer":0,
			"byteLength":2592,
			"byteOffset":0,
			"target":34962
		},
		{
			"buffer":0,
			"byteLength":2592,
			"byteOffset":2592,
			"target":34962
		},
		{
			"buffer":0,
			"byteLength":1728,
			"byteOffset":5184,
			"target":34962
		},
		{
			"buffer":0,
			"byteLength":648,
			"byteOffset":6912,
			"target":34963
		},
		{
			"buffer":0,
			"byteLength":2592,
			"byteOffset":7560,
			"target":34962
		},
		{
			"buffer":0,
			"byteLength":2592,
			"byteOffset":10152,
			"target":34962
		},
		{
			"buffer":0,
			"byteLength":1728,
			"byteOffset":12744,
			"target":34962
		},
		{
			"buffer":0,
			"byteLength":57132,
			"byteOffset":14472,
			"target":34962
		},
		{
			"buffer":0,
			"byteLength":57132,
			"byteOffset":71604,
			"target":34962
		},
		{
			"buffer":0,
			"byteLength":38088,
			"byteOffset":128736,
			"target":34962
		},
		{
			"buffer":0,
			"byteLength":55488,
			"byteOffset":166824,
			"target":34963
		},
		{
			"buffer":0,
			"byteLength":372,
			"byteOffset":222312,
			"target":34962
		},
		{
			"buffer":0,
			"byteLength":372,
			"byteOffset":222684,
			"target":34962
		},
		{
			"buffer":0,
			"byteLength":248,
			"byteOffset":223056,
			"target":34962
		},
		{
			"buffer":0,
			"byteLength":120,
			"byteOffset":223304,
			"target":34963
		},
		{
			"buffer":0,
			"byteLength":372,
			"byteOffset":223424,
			"target":34962
		},
		{
			"buffer":0,
			"byteLength":372,
			"byteOffset":223796,
			"target":34962
		},
		{
			"buffer":0,
			"byteLength":248,
			"byteOffset":224168,
			"target":34962
		},
		{
			"buffer":0,
			"byteLength":120,
			"byteOffset":224416,
			"target":34963
		},
		{
			"buffer":0,
			"byteLength":348,
			"byteOffset":224536,
			"target":34962
		},
		{
			"buffer":0,
			"byteLength":348,
			"byteOffset":224884,
			"target":34962
		},
		{
			"buffer":0,
			"byteLength":232,
			"byteOffset":225232,
			"target":34962
		},
		{
			"buffer":0,
			"byteLength":120,
			"byteOffset":225464,
			"target":34963
		},
		{
			"buffer":0,
			"byteLength":348,
			"byteOffset":225584,
			"target":34962
		},
		{
			"buffer":0,
			"byteLength":348,
			"byteOffset":225932,
			"target":34962
		},
		{
			"buffer":0,
			"byteLength":232,
			"byteOffset":226280,
			"target":34962
		},
		{
			"buffer":0,
			"byteLength":120,
			"byteOffset":226512,
			"target":34963
		},
		{
			"buffer":0,
			"byteLength":372,
			"byteOffset":226632,
			"target":34962
		},
		{
			"buffer":0,
			"byteLength":372,
			"byteOffset":227004,
			"target":34962
		},
		{
			"buffer":0,
			"byteLength":248,
			"byteOffset":227376,
			"target":34962
		},
		{
			"buffer":0,
			"byteLength":120,
			"byteOffset":227624,
			"target":34963
		},
		{
			"buffer":0,
			"byteLength":384,
			"byteOffset":227744,
			"target":34962
		},
		{
			"buffer":0,
			"byteLength":384,
			"byteOffset":228128,
			"target":34962
		},
		{
			"buffer":0,
			"byteLength":256,
			"byteOffset":228512,
			"target":34962
		},
		{
			"buffer":0,
			"byteLength":120,
			"byteOffset":228768,
			"target":34963
		},
		{
			"buffer":0,
			"byteLength":300,
			"byteOffset":228888,
			"target":34962
		},
		{
			"buffer":0,
			"byteLength":300,
			"byteOffset":229188,
			"target":34962
		},
		{
			"buffer":0,
			"byteLength":200,
			"byteOffset":229488,
			"target":34962
		},
		{
			"buffer":0,
			"byteLength":120,
			"byteOffset":229688,
			"target":34963
		},
		{
			"buffer":0,
			"byteLength":372,
			"byteOffset":229808,
			"target":34962
		},
		{
			"buffer":0,
			"byteLength":372,
			"byteOffset":230180,
			"target":34962
		},
		{
			"buffer":0,
			"byteLength":248,
			"byteOffset":230552,
			"target":34962
		},
		{
			"buffer":0,
			"byteLength":120,
			"byteOffset":230800,
			"target":34963
		},
		{
			"buffer":0,
			"byteLength":372,
			"byteOffset":230920,
			"target":34962
		},
		{
			"buffer":0,
			"byteLength":372,
			"byteOffset":231292,
			"target":34962
		},
		{
			"buffer":0,
			"byteLength":248,
			"byteOffset":231664,
			"target":34962
		},
		{
			"buffer":0,
			"byteLength":120,
			"byteOffset":231912,
			"target":34963
		},
		{
			"buffer":0,
			"byteLength":384,
			"byteOffset":232032,
			"target":34962
		},
		{
			"buffer":0,
			"byteLength":384,
			"byteOffset":232416,
			"target":34962
		},
		{
			"buffer":0,
			"byteLength":256,
			"byteOffset":232800,
			"target":34962
		},
		{
			"buffer":0,
			"byteLength":120,
			"byteOffset":233056,
			"target":34963
		},
		{
			"buffer":0,
			"byteLength":372,
			"byteOffset":233176,
			"target":34962
		},
		{
			"buffer":0,
			"byteLength":372,
			"byteOffset":233548,
			"target":34962
		},
		{
			"buffer":0,
			"byteLength":248,
			"byteOffset":233920,
			"target":34962
		},
		{
			"buffer":0,
			"byteLength":120,
			"byteOffset":234168,
			"target":34963
		},
		{
			"buffer":0,
			"byteLength":360,
			"byteOffset":234288,
			"target":34962
		},
		{
			"buffer":0,
			"byteLength":360,
			"byteOffset":234648,
			"target":34962
		},
		{
			"buffer":0,
			"byteLength":240,
			"byteOffset":235008,
			"target":34962
		},
		{
			"buffer":0,
			"byteLength":120,
			"byteOffset":235248,
			"target":34963
		},
		{
			"buffer":0,
			"byteLength":11628,
			"byteOffset":235368,
			"target":34962
		},
		{
			"buffer":0,
			"byteLength":11628,
			"byteOffset":246996,
			"target":34962
		},
		{
			"buffer":0,
			"byteLength":7752,
			"byteOffset":258624,
			"target":34962
		},
		{
			"buffer":0,
			"byteLength":10752,
			"byteOffset":266376,
			"target":34963
		},
		{
			"buffer":0,
			"byteLength":11220,
			"byteOffset":277128,
			"target":34962
		},
		{
			"buffer":0,
			"byteLength":11220,
			"byteOffset":288348,
			"target":34962
		},
		{
			"buffer":0,
			"byteLength":7480,
			"byteOffset":299568,
			"target":34962
		},
		{
			"buffer":0,
			"byteLength":10368,
			"byteOffset":307048,
			"target":34963
		},
		{
			"buffer":0,
			"byteLength":11220,
			"byteOffset":317416,
			"target":34962
		},
		{
			"buffer":0,
			"byteLength":11220,
			"byteOffset":328636,
			"target":34962
		},
		{
			"buffer":0,
			"byteLength":7480,
			"byteOffset":339856,
			"target":34962
		},
		{
			"buffer":0,
			"byteLength":10368,
			"byteOffset":347336,
			"target":34963
		},
		{
			"buffer":0,
			"byteLength":11628,
			"byteOffset":357704,
			"target":34962
		},
		{
			"buffer":0,
			"byteLength":11628,
			"byteOffset":369332,
			"target":34962
		},
		{
			"buffer":0,
			"byteLength":7752,
			"byteOffset":380960,
			"target":34962
		},
		{
			"buffer":0,
			"byteLength":10752,
			"byteOffset":388712,
			"target":34963
		},
		{
			"buffer":0,
			"byteLength":11088,
			"byteOffset":399464,
			"target":34962
		},
		{
			"buffer":0,
			"byteLength":11088,
			"byteOffset":410552,
			"target":34962
		},
		{
			"buffer":0,
			"byteLength":7392,
			"byteOffset":421640,
			"target":34962
		},
		{
			"buffer":0,
			"byteLength":9960,
			"byteOffset":429032,
			"target":34963
		}
	],
	"samplers":[
		{
			"magFilter":9729,
			"minFilter":9987
		}
	],
	"buffers":[
		{
			"byteLength":438992,
			"uri":"shaft_pit.bin"
		}
	]
}
